<?xml version="1.0" encoding="UTF-8" standalone="no"?>
<!-- Created with Inkscape (http://www.inkscape.org/) -->

<svg
   xmlns:dc="http://purl.org/dc/elements/1.1/"
   xmlns:cc="http://creativecommons.org/ns#"
   xmlns:rdf="http://www.w3.org/1999/02/22-rdf-syntax-ns#"
   xmlns:svg="http://www.w3.org/2000/svg"
   xmlns="http://www.w3.org/2000/svg"
   xmlns:sodipodi="http://sodipodi.sourceforge.net/DTD/sodipodi-0.dtd"
   xmlns:inkscape="http://www.inkscape.org/namespaces/inkscape"
   width="795.23553"
   height="581.50714"
   id="svg2"
   version="1.1"
   inkscape:version="0.48.2 r9819"
   sodipodi:docname="AssociatingViews_v3.svg"
   inkscape:export-filename="/Users/aab01/Desktop/VLWM-PRL/revised_version/AssociatingViews_v2.png"
   inkscape:export-xdpi="300"
   inkscape:export-ydpi="300">
  <defs
     id="defs4">
    <inkscape:path-effect
       is_visible="true"
       id="path-effect3814"
       effect="spiro" />
    <inkscape:path-effect
       effect="spiro"
       id="path-effect3806"
       is_visible="true" />
    <inkscape:path-effect
       is_visible="true"
       id="path-effect3800"
       effect="spiro" />
    <inkscape:path-effect
       effect="spiro"
       id="path-effect3796"
       is_visible="true" />
    <inkscape:path-effect
       effect="spiro"
       id="path-effect3847"
       is_visible="true" />
    <inkscape:path-effect
       effect="spiro"
       id="path-effect3825"
       is_visible="true" />
    <inkscape:path-effect
       is_visible="true"
       id="path-effect3819"
       effect="spiro" />
    <inkscape:path-effect
       effect="spiro"
       id="path-effect3795"
       is_visible="true" />
    <inkscape:path-effect
       is_visible="true"
       id="path-effect3791"
       effect="spiro" />
    <inkscape:path-effect
       effect="spiro"
       id="path-effect3781"
       is_visible="true" />
    <filter
       inkscape:collect="always"
       id="filter3813"
       x="-0.11361227"
       width="1.2272245"
       y="-0.046610173"
       height="1.0932204"
       color-interpolation-filters="sRGB">
      <feGaussianBlur
         inkscape:collect="always"
         stdDeviation="1.53021"
         id="feGaussianBlur3815" />
    </filter>
  </defs>
  <sodipodi:namedview
     id="base"
     pagecolor="#ffffff"
     bordercolor="#666666"
     borderopacity="1.0"
     inkscape:pageopacity="0.0"
     inkscape:pageshadow="2"
     inkscape:zoom="0.61581819"
     inkscape:cx="51.823992"
     inkscape:cy="114.83605"
     inkscape:document-units="px"
     inkscape:current-layer="layer1"
     showgrid="false"
     inkscape:window-width="1460"
     inkscape:window-height="826"
     inkscape:window-x="9"
     inkscape:window-y="2"
     inkscape:window-maximized="0"
     fit-margin-top="0"
     fit-margin-left="0"
     fit-margin-right="0"
     fit-margin-bottom="0"
     showguides="true"
     inkscape:guide-bbox="true" />
  <metadata
     id="metadata7">
    <rdf:RDF>
      <cc:Work
         rdf:about="">
        <dc:format>image/svg+xml</dc:format>
        <dc:type
           rdf:resource="http://purl.org/dc/dcmitype/StillImage" />
        <dc:title></dc:title>
      </cc:Work>
    </rdf:RDF>
  </metadata>
  <g
     inkscape:label="Layer 1"
     inkscape:groupmode="layer"
     id="layer1"
     transform="translate(-191.20045,-328.0036)">
    <path
       style="fill:none;stroke:#000000;stroke-width:2;stroke-linecap:butt;stroke-linejoin:miter;stroke-miterlimit:4;stroke-opacity:1;stroke-dasharray:12, 2;stroke-dashoffset:0"
       d="M 4.592958,140.71076 789.36397,413.87636"
       id="path3802"
       inkscape:connector-curvature="0"
       transform="translate(196.07201,387.5584)"
       sodipodi:nodetypes="cc" />
    <path
       style="fill:#979797;fill-opacity:1;stroke:none"
       d="m 287.60674,504.69022 c -14.17233,0 -26.83775,9.07349 -35.32671,23.37165 -4.64751,-1.96428 -9.61724,-3.03218 -14.79368,-3.03218 -25.55866,0 -46.2859,25.96506 -46.2859,57.98622 0,32.02116 20.72724,57.98623 46.2859,57.98623 10.69758,0 20.5375,-4.5607 28.37517,-12.19687 6.0903,4.63434 12.97829,7.37979 20.31038,7.69969 10.70116,9.67068 28.36153,15.97858 48.36395,15.97858 15.52979,0 29.64875,-3.78726 40.20022,-10.01642 8.23699,2.46324 17.34811,3.84985 26.96506,3.84985 36.38559,0 65.87887,-19.61413 65.87887,-43.81333 0,-24.1992 -29.49328,-43.84739 -65.87887,-43.84739 -2.02987,0 -4.02841,0.0849 -6.01148,0.20441 -4.38063,-26.53293 -35.41008,-47.11806 -73.05306,-47.11806 -4.43657,0 -8.76742,0.30431 -12.98776,0.85174 -6.55044,-5.06209 -14.06679,-7.90412 -22.04209,-7.90412 z"
       id="path4645"
       inkscape:connector-curvature="0" />
    <path
       sodipodi:type="arc"
       style="fill:#efbe2d;fill-opacity:1;fill-rule:evenodd;stroke:none"
       id="path3755"
       sodipodi:cx="349.28571"
       sodipodi:cy="118.3802"
       sodipodi:rx="22.142857"
       sodipodi:ry="42.857143"
       d="m 371.42856,118.3802 c 0,23.66935 -9.91369,42.85715 -22.14285,42.85715 -12.22917,0 -22.14286,-19.1878 -22.14286,-42.85715 0,-23.669343 9.91369,-42.85714 22.14286,-42.85714 12.22916,0 22.14285,19.187797 22.14285,42.85714 z"
       transform="matrix(0.88790083,-0.4600349,0.4600349,0.88790083,277.50348,511.24122)" />
    <path
       sodipodi:type="arc"
       style="fill:#715709;fill-opacity:1;fill-rule:evenodd;stroke:none"
       id="path3757"
       sodipodi:cx="225"
       sodipodi:cy="192.66591"
       sodipodi:rx="23.571428"
       sodipodi:ry="24.285715"
       d="m 248.57143,192.66591 c 0,13.41263 -10.55329,24.28571 -23.57143,24.28571 -13.01814,0 -23.57143,-10.87308 -23.57143,-24.28571 0,-13.41263 10.55329,-24.28572 23.57143,-24.28572 13.01814,0 23.57143,10.87309 23.57143,24.28572 z"
       transform="translate(421.3793,261.573)" />
    <path
       transform="matrix(0.88790083,-0.4600349,0.4600349,0.88790083,277.50348,511.24122)"
       d="m 371.42856,118.3802 c 0,23.66935 -9.91369,42.85715 -22.14285,42.85715 -12.22917,0 -22.14286,-19.1878 -22.14286,-42.85715 0,-23.669343 9.91369,-42.85714 22.14286,-42.85714 12.22916,0 22.14285,19.187797 22.14285,42.85714 z"
       sodipodi:ry="42.857143"
       sodipodi:rx="22.142857"
       sodipodi:cy="118.3802"
       sodipodi:cx="349.28571"
       id="path3759"
       style="fill:#efbe2d;fill-opacity:1;fill-rule:evenodd;stroke:none"
       sodipodi:type="arc" />
    <path
       transform="translate(421.3793,261.573)"
       d="m 248.57143,192.66591 c 0,13.41263 -10.55329,24.28571 -23.57143,24.28571 -13.01814,0 -23.57143,-10.87308 -23.57143,-24.28571 0,-13.41263 10.55329,-24.28572 23.57143,-24.28572 13.01814,0 23.57143,10.87309 23.57143,24.28572 z"
       sodipodi:ry="24.285715"
       sodipodi:rx="23.571428"
       sodipodi:cy="192.66591"
       sodipodi:cx="225"
       id="path3761"
       style="fill:#715709;fill-opacity:1;fill-rule:evenodd;stroke:none"
       sodipodi:type="arc" />
    <g
       id="g3808"
       transform="matrix(0.89261596,-0.45081786,0.45081786,0.89261596,-259.93315,365.19749)">
      <path
         transform="matrix(0.98029792,-0.19752464,0.19752464,0.98029792,365.37612,613.34349)"
         d="m 371.42856,118.3802 c 0,23.66935 -9.91369,42.85715 -22.14285,42.85715 -12.22917,0 -22.14286,-19.1878 -22.14286,-42.85715 0,-23.669343 9.91369,-42.85714 22.14286,-42.85714 12.22916,0 22.14285,19.187797 22.14285,42.85714 z"
         sodipodi:ry="42.857143"
         sodipodi:rx="22.142857"
         sodipodi:cy="118.3802"
         sodipodi:cx="349.28571"
         id="path3763"
         style="fill:#ef802d;fill-opacity:1;fill-rule:evenodd;stroke:none"
         sodipodi:type="arc" />
      <path
         transform="matrix(0.31869481,0.94785738,-0.94785738,0.31869481,852.48135,383.25632)"
         d="m 248.57143,192.66591 c 0,13.41263 -10.55329,24.28571 -23.57143,24.28571 -13.01814,0 -23.57143,-10.87308 -23.57143,-24.28571 0,-13.41263 10.55329,-24.28572 23.57143,-24.28572 13.01814,0 23.57143,10.87309 23.57143,24.28572 z"
         sodipodi:ry="24.285715"
         sodipodi:rx="23.571428"
         sodipodi:cy="192.66591"
         sodipodi:cx="225"
         id="path3765"
         style="fill:#715c09;fill-opacity:1;fill-rule:evenodd;stroke:none"
         sodipodi:type="arc" />
    </g>
    <path
       transform="matrix(0.95231919,0.30510352,-0.30510352,0.95231919,321.29929,586.35693)"
       d="m 371.42856,118.3802 c 0,23.66935 -9.91369,42.85715 -22.14285,42.85715 -12.22917,0 -22.14286,-19.1878 -22.14286,-42.85715 0,-23.669343 9.91369,-42.85714 22.14286,-42.85714 12.22916,0 22.14285,19.187797 22.14285,42.85714 z"
       sodipodi:ry="42.857143"
       sodipodi:rx="22.142857"
       sodipodi:cy="118.3802"
       sodipodi:cx="349.28571"
       id="path3767"
       style="fill:#85ef2d;fill-opacity:1;fill-rule:evenodd;stroke:none"
       sodipodi:type="arc" />
    <path
       transform="matrix(0.98682528,0.16178958,-0.16178958,0.98682528,437.69886,584.48991)"
       d="m 248.57143,192.66591 c 0,13.41263 -10.55329,24.28571 -23.57143,24.28571 -13.01814,0 -23.57143,-10.87308 -23.57143,-24.28571 0,-13.41263 10.55329,-24.28572 23.57143,-24.28572 13.01814,0 23.57143,10.87309 23.57143,24.28572 z"
       sodipodi:ry="24.285715"
       sodipodi:rx="23.571428"
       sodipodi:cy="192.66591"
       sodipodi:cx="225"
       id="path3769"
       style="fill:#3b3005;fill-opacity:1;fill-rule:evenodd;stroke:none"
       sodipodi:type="arc" />
    <path
       transform="matrix(0.88790083,-0.4600349,0.4600349,0.88790083,277.50348,511.24122)"
       d="m 371.42856,118.3802 c 0,23.66935 -9.91369,42.85715 -22.14285,42.85715 -12.22917,0 -22.14286,-19.1878 -22.14286,-42.85715 0,-23.669343 9.91369,-42.85714 22.14286,-42.85714 12.22916,0 22.14285,19.187797 22.14285,42.85714 z"
       sodipodi:ry="42.857143"
       sodipodi:rx="22.142857"
       sodipodi:cy="118.3802"
       sodipodi:cx="349.28571"
       id="path3771"
       style="fill:#efbe2d;fill-opacity:1;fill-rule:evenodd;stroke:none"
       sodipodi:type="arc" />
    <path
       transform="translate(421.3793,261.573)"
       d="m 248.57143,192.66591 c 0,13.41263 -10.55329,24.28571 -23.57143,24.28571 -13.01814,0 -23.57143,-10.87308 -23.57143,-24.28571 0,-13.41263 10.55329,-24.28572 23.57143,-24.28572 13.01814,0 23.57143,10.87309 23.57143,24.28572 z"
       sodipodi:ry="24.285715"
       sodipodi:rx="23.571428"
       sodipodi:cy="192.66591"
       sodipodi:cx="225"
       id="path3773"
       style="fill:#715709;fill-opacity:1;fill-rule:evenodd;stroke:none"
       sodipodi:type="arc" />
    <path
       sodipodi:type="arc"
       style="fill:#2d6bef;fill-opacity:1;fill-rule:evenodd;stroke:none"
       id="path3775"
       sodipodi:cx="349.28571"
       sodipodi:cy="118.3802"
       sodipodi:rx="22.142857"
       sodipodi:ry="42.857143"
       d="m 371.42856,118.3802 c 0,23.66935 -9.91369,42.85715 -22.14285,42.85715 -12.22917,0 -22.14286,-19.1878 -22.14286,-42.85715 0,-23.669343 9.91369,-42.85714 22.14286,-42.85714 12.22916,0 22.14285,19.187797 22.14285,42.85714 z"
       transform="matrix(0.96827468,0.24988825,-0.24988825,0.96827468,237.36604,504.88121)" />
    <path
       sodipodi:type="arc"
       style="fill:#f4d67d;fill-opacity:1;fill-rule:evenodd;stroke:none"
       id="path3777"
       sodipodi:cx="225"
       sodipodi:cy="192.66591"
       sodipodi:rx="23.571428"
       sodipodi:ry="24.285715"
       d="m 248.57143,192.66591 c 0,13.41263 -10.55329,24.28571 -23.57143,24.28571 -13.01814,0 -23.57143,-10.87308 -23.57143,-24.28571 0,-13.41263 10.55329,-24.28572 23.57143,-24.28572 13.01814,0 23.57143,10.87309 23.57143,24.28572 z"
       transform="translate(332.32494,518.18188)" />
    <path
       style="fill:none;stroke:#000000;stroke-width:1;stroke-linecap:butt;stroke-linejoin:miter;stroke-miterlimit:4;stroke-opacity:1;stroke-dasharray:2, 1;stroke-dashoffset:0"
       d="M 582.70635,808.8292 C 524.68088,841.49332 451.10319,844.88305 390.32021,817.69245 355.8961,802.2932 325.67835,777.60947 303.71886,746.95109 281.75936,716.2927 268.1145,679.7384 264.61393,642.18974"
       id="path3779"
       inkscape:path-effect="#path-effect3781"
       inkscape:original-d="M 582.70635,808.8292 C 568.42063,807.40063 433.59311,829.15155 390.32021,817.69245 361.88426,810.16233 264.61393,642.18974 264.61393,642.18974"
       inkscape:connector-curvature="0"
       sodipodi:nodetypes="csc" />
    <text
       xml:space="preserve"
       style="font-size:33.34000015px;font-style:normal;font-weight:normal;line-height:125%;letter-spacing:0px;word-spacing:0px;fill:#ffffff;fill-opacity:1;stroke:none;font-family:Times New Roman;-inkscape-font-specification:Times New Roman"
       x="225.4966"
       y="581.76721"
       id="text3783"
       sodipodi:linespacing="125%"><tspan
         sodipodi:role="line"
         id="tspan3785"
         x="225.4966"
         y="581.76721">Visual Paths </tspan><tspan
         sodipodi:role="line"
         x="225.4966"
         y="623.4422"
         id="tspan3787">  Database</tspan></text>
    <path
       sodipodi:nodetypes="csc"
       inkscape:connector-curvature="0"
       inkscape:original-d="m 362.54134,655.28877 c 57.63682,-35.30909 44.06467,28.60168 62.53475,69.37724 10.58593,23.37008 94.96721,179.75483 94.96721,24.89444"
       inkscape:path-effect="#path-effect3791"
       id="path3789"
       d="m 362.54134,655.28877 c 13.74144,28.40381 35.70514,52.77076 62.53475,69.37724 28.24206,17.48073 61.78151,26.27267 94.96721,24.89444"
       style="fill:none;stroke:#000000;stroke-width:1;stroke-linecap:butt;stroke-linejoin:miter;stroke-miterlimit:4;stroke-opacity:1;stroke-dasharray:2, 1;stroke-dashoffset:0" />
    <path
       sodipodi:nodetypes="csc"
       inkscape:connector-curvature="0"
       inkscape:original-d="m 674.7819,486.67675 c 10.31003,21.99472 47.71373,52.39792 50.5766,71.37028 5.63518,37.34455 -0.0309,48.94096 -0.0309,48.94096"
       inkscape:path-effect="#path-effect3819"
       id="path3817"
       d="m 674.7819,486.67675 c 25.43463,15.80213 44.09626,42.13617 50.5766,71.37028 3.55888,16.0548 3.54825,32.89066 -0.0309,48.94096"
       style="fill:none;stroke:#c15f5f;stroke-width:5;stroke-linecap:butt;stroke-linejoin:miter;stroke-miterlimit:4;stroke-opacity:1;stroke-dasharray:15, 5;stroke-dashoffset:0;filter:url(#filter3813)" />
    <path
       style="fill:none;stroke:#000000;stroke-width:1;stroke-linecap:butt;stroke-linejoin:miter;stroke-miterlimit:4;stroke-opacity:1;stroke-dasharray:2, 1;stroke-dashoffset:0"
       d="m 598.39623,433.17539 c -43.67736,-12.53095 -90.6316,-13.44193 -134.76215,-2.61459 -44.13054,10.82734 -85.33122,33.36696 -118.249,64.69038 -5.3545,5.09515 -10.49338,10.41688 -15.39828,15.94618"
       id="path3821"
       inkscape:path-effect="#path-effect3847"
       inkscape:original-d="m 598.39623,433.17539 c -14.28572,1.42857 -209.73825,50.61669 -253.01115,62.07579 -28.43595,7.53012 -15.39828,15.94618 -15.39828,15.94618"
       inkscape:connector-curvature="0"
       sodipodi:nodetypes="csc" />
    <path
       sodipodi:nodetypes="csc"
       inkscape:connector-curvature="0"
       inkscape:original-d="M 662.29562,581.52849 C 652.20496,591.74129 569.28417,481.53563 533.17175,507.98837 509.44117,525.37128 382.6589,528.23038 382.6589,528.23038"
       inkscape:path-effect="#path-effect3825"
       id="path3823"
       d="M 662.29562,581.52849 C 628.64638,544.00806 582.60875,517.78818 533.17175,507.98837 482.60597,497.96481 428.77985,505.20371 382.6589,528.23038"
       style="fill:none;stroke:#000000;stroke-width:1;stroke-linecap:butt;stroke-linejoin:miter;stroke-miterlimit:4;stroke-opacity:1;stroke-dasharray:2, 1;stroke-dashoffset:0" />
    <text
       xml:space="preserve"
       style="font-size:33.34000015px;font-style:normal;font-variant:normal;font-weight:normal;font-stretch:normal;text-align:start;line-height:125%;letter-spacing:0px;word-spacing:0px;writing-mode:lr-tb;text-anchor:start;fill:#000000;fill-opacity:1;stroke:none;font-family:Times New Roman;-inkscape-font-specification:Times New Roman"
       x="596.92969"
       y="497.82602"
       id="text3827"
       sodipodi:linespacing="125%"><tspan
         sodipodi:role="line"
         id="tspan3829"
         x="596.92969"
         y="497.82602">A</tspan></text>
    <text
       sodipodi:linespacing="125%"
       id="text3831"
       y="653.85034"
       x="639.44403"
       style="font-size:33.34000015px;font-style:normal;font-variant:normal;font-weight:normal;font-stretch:normal;text-align:start;line-height:125%;letter-spacing:0px;word-spacing:0px;writing-mode:lr-tb;text-anchor:start;fill:#000000;fill-opacity:1;stroke:none;font-family:Times New Roman;-inkscape-font-specification:Times New Roman"
       xml:space="preserve"><tspan
         y="653.85034"
         x="639.44403"
         id="tspan3833"
         sodipodi:role="line">B</tspan></text>
    <text
       xml:space="preserve"
       style="font-size:33.34000015px;font-style:normal;font-variant:normal;font-weight:normal;font-stretch:normal;text-align:start;line-height:125%;letter-spacing:0px;word-spacing:0px;writing-mode:lr-tb;text-anchor:start;fill:#000000;fill-opacity:1;stroke:none;font-family:Times New Roman;-inkscape-font-specification:Times New Roman"
       x="494.47418"
       y="733.16211"
       id="text3835"
       sodipodi:linespacing="125%"><tspan
         sodipodi:role="line"
         id="tspan3839"
         x="494.47418"
         y="733.16211">C</tspan></text>
    <text
       xml:space="preserve"
       style="font-size:33.34000015px;font-style:normal;font-variant:normal;font-weight:normal;font-stretch:normal;text-align:start;line-height:125%;letter-spacing:0px;word-spacing:0px;writing-mode:lr-tb;text-anchor:start;fill:#000000;fill-opacity:1;stroke:none;font-family:Times New Roman;-inkscape-font-specification:Times New Roman"
       x="564.07501"
       y="851.31421"
       id="text3841"
       sodipodi:linespacing="125%"><tspan
         sodipodi:role="line"
         id="tspan3845"
         x="564.07501"
         y="851.31421">D</tspan></text>
    <path
       style="fill:#e6e6e6;fill-opacity:1;stroke:none"
       d="m 652.43575,813.85732 211.86358,3.13351 c 9.6731,14.3147 13.2354,32.61788 9.63709,49.51556 -3.83304,18 -15.7791,34.10937 -31.89031,43.00438 L 652.43575,813.85732"
       id="path3794"
       inkscape:path-effect="#path-effect3796"
       inkscape:original-d="m 652.43575,813.85732 211.86358,3.13351 c 0,0 13.35459,33.11677 9.63709,49.51556 -3.94552,17.40455 -31.89031,43.00438 -31.89031,43.00438 z"
       inkscape:connector-curvature="0"
       sodipodi:nodetypes="ccacc" />
    <path
       sodipodi:nodetypes="ccacc"
       inkscape:connector-curvature="0"
       inkscape:original-d="m 583.79664,714.66098 210.05739,27.7829 c 0,0 9.40742,34.44656 3.80563,50.3009 -5.94537,16.82671 -36.68105,38.99832 -36.68105,38.99832 z"
       inkscape:path-effect="#path-effect3800"
       id="path3798"
       d="m 583.79664,714.66098 210.05739,27.7829 c 7.94039,15.34371 9.34713,33.93719 3.80563,50.3009 -5.903,17.4312 -19.64366,32.03991 -36.68105,38.99832 L 583.79664,714.66098"
       style="fill:#d5d5d5;fill-opacity:1;stroke:none" />
    <path
       style="fill:none;stroke:#c15f5f;stroke-width:5;stroke-linecap:butt;stroke-linejoin:miter;stroke-miterlimit:4;stroke-opacity:1;stroke-dasharray:15, 5;stroke-dashoffset:0;filter:url(#filter3813)"
       d="m 578.65724,688.36791 c 18.05937,6.16284 33.57507,19.46085 42.42888,36.36444 5.27072,10.06279 8.22515,21.32998 8.57035,32.68432"
       id="path3793"
       inkscape:path-effect="#path-effect3795"
       inkscape:original-d="m 578.65724,688.36791 c 7.77617,16.58916 37.93366,25.81209 42.42888,36.36444 13.02316,30.5713 8.57035,32.68432 8.57035,32.68432"
       inkscape:connector-curvature="0"
       sodipodi:nodetypes="csc" />
    <path
       style="fill:#d5d5d5;fill-opacity:1;stroke:none"
       d="m 669.26134,439.5156 250.377,-111.512 c 19.21842,11.14564 33.52334,30.4482 38.59456,52.07817 5.37784,22.93776 0.22379,48.12765 -13.7312,67.10976 L 669.26134,439.5156"
       id="path3804"
       inkscape:path-effect="#path-effect3806"
       inkscape:original-d="m 669.26134,439.5156 250.377,-111.512 c 0,0 33.92147,31.07582 38.59456,52.07817 4.9597,22.29045 -13.7312,67.10976 -13.7312,67.10976 z"
       inkscape:connector-curvature="0"
       sodipodi:nodetypes="ccacc" />
    <path
       sodipodi:nodetypes="ccacc"
       inkscape:connector-curvature="0"
       inkscape:original-d="M 721.09192,602.47991 912.59559,378.9644 c 0,0 38.33248,26.19538 50.86047,45.0671 13.17018,19.83909 22.90431,67.66669 22.90431,67.66669 z"
       inkscape:path-effect="#path-effect3814"
       id="path3812"
       d="M 721.09192,602.47991 912.59559,378.9644 c 20.39123,10.41066 38.07144,26.07698 50.86047,45.0671 13.46013,19.98662 21.45759,43.61368 22.90431,67.66669 L 721.09192,602.47991"
       style="fill:#cccccc;fill-opacity:1;stroke:none" />
  </g>
</svg>
