<?xml version="1.0" encoding="UTF-8" standalone="no"?>
<!-- Created with Inkscape (http://www.inkscape.org/) -->

<svg
   xmlns:dc="http://purl.org/dc/elements/1.1/"
   xmlns:cc="http://creativecommons.org/ns#"
   xmlns:rdf="http://www.w3.org/1999/02/22-rdf-syntax-ns#"
   xmlns:svg="http://www.w3.org/2000/svg"
   xmlns="http://www.w3.org/2000/svg"
   xmlns:sodipodi="http://sodipodi.sourceforge.net/DTD/sodipodi-0.dtd"
   xmlns:inkscape="http://www.inkscape.org/namespaces/inkscape"
   id="svg2"
   version="1.1"
   inkscape:version="0.48.4 r9939"
   width="535.14484"
   height="408.38397"
   xml:space="preserve"
   sodipodi:docname="barplot_rand.svg"><metadata
     id="metadata8"><rdf:RDF><cc:Work
         rdf:about=""><dc:format>image/svg+xml</dc:format><dc:type
           rdf:resource="http://purl.org/dc/dcmitype/StillImage" /><dc:title></dc:title></cc:Work></rdf:RDF></metadata><defs
     id="defs6"><clipPath
       clipPathUnits="userSpaceOnUse"
       id="clipPath18"><path
         d="m 0,2.75e-6 569.99999,0 0,422.00002725 L 0,422.00003 0,2.75e-6 z"
         id="path20"
         inkscape:connector-curvature="0" /></clipPath><clipPath
       clipPathUnits="userSpaceOnUse"
       id="clipPath28"><path
         d="m 0,2.75e-6 569.99999,0 0,422.00002725 L 0,422.00003 0,2.75e-6 z"
         id="path30"
         inkscape:connector-curvature="0" /></clipPath></defs><sodipodi:namedview
     pagecolor="#ffffff"
     bordercolor="#666666"
     borderopacity="1"
     objecttolerance="10"
     gridtolerance="10"
     guidetolerance="10"
     inkscape:pageopacity="0"
     inkscape:pageshadow="2"
     inkscape:window-width="1615"
     inkscape:window-height="1026"
     id="namedview4"
     showgrid="false"
     fit-margin-top="0"
     fit-margin-left="0"
     fit-margin-right="0"
     fit-margin-bottom="0"
     inkscape:zoom="0.89691211"
     inkscape:cx="525.39945"
     inkscape:cy="234.84088"
     inkscape:window-x="1345"
     inkscape:window-y="24"
     inkscape:window-maximized="1"
     inkscape:current-layer="g12" /><g
     id="g10"
     inkscape:groupmode="layer"
     inkscape:label="barplot_rand"
     transform="matrix(1.25,0,0,-1.25,-103.29268,723.88783)"><g
       id="g12"
       transform="matrix(0.24,0,0,-0.24,0,842)"><g
         id="g14"
         transform="matrix(3.1250001,0,0,3.1250001,346.875,1095.3739)"><g
           id="g16"
           clip-path="url(#clipPath18)"><path
             d="M 0,0 570,0 570,422 0,422 0,0 z"
             style="fill:#ffffff;fill-opacity:1;fill-rule:nonzero;stroke:none"
             id="path22"
             inkscape:connector-curvature="0" /></g></g><g
         id="g24"
         transform="matrix(3.1250001,0,0,3.1250001,346.875,1095.3739)"><g
           id="g26"
           clip-path="url(#clipPath28)"><path
             d="M 0,0 570,0 570,422 0,422 0,0 z"
             style="fill:#ffffff;fill-opacity:1;fill-rule:nonzero;stroke:none"
             id="path32"
             inkscape:connector-curvature="0" /></g></g><g
         id="g34"
         transform="matrix(3.1250001,0,0,3.1250001,346.875,1095.3739)"><path
           d="m 74,376 442,0 0,-343.999992 -442,0 L 74,376 z"
           style="fill:#ffffff;fill-opacity:1;fill-rule:nonzero;stroke:none"
           id="path36"
           inkscape:connector-curvature="0" /></g><g
         id="g38"
         transform="translate(7.4245941,48.313912)"><g
           id="g40"
           transform="matrix(3.1250001,0,0,3.1250001,1268.75,2338.4973)"><flowRoot
             xml:space="preserve"
             id="flowRoot3480"
             style="font-size:40px;font-style:normal;font-weight:normal;line-height:125%;letter-spacing:0px;word-spacing:0px;fill:#000000;fill-opacity:1;stroke:none;font-family:Sans"
             transform="matrix(1.0666666,0,0,1.0666666,-385.38417,-409.69213)"><flowRegion
               id="flowRegion3482"><rect
                 id="rect3484"
                 width="781.5705"
                 height="61.321507"
                 x="152.18883"
                 y="376.11362" /></flowRegion><flowPara
               id="flowPara3486"
               style="font-size:24px">Estimated location (% of the path)</flowPara></flowRoot></g></g><g
         id="g46"
         transform="matrix(3.1250001,0,0,3.1250001,346.875,1095.3739)"><path
           d="m 74,376 442,0"
           style="fill:none;stroke:#262626;stroke-width:1;stroke-linecap:square;stroke-linejoin:miter;stroke-miterlimit:10;stroke-opacity:1;stroke-dasharray:none"
           id="path48"
           inkscape:connector-curvature="0" /></g><g
         id="g50"
         transform="matrix(3.1250001,0,0,3.1250001,346.875,1095.3739)"><path
           d="m 74,32.000008 442,0"
           style="fill:none;stroke:#262626;stroke-width:1;stroke-linecap:square;stroke-linejoin:miter;stroke-miterlimit:10;stroke-opacity:1;stroke-dasharray:none"
           id="path52"
           inkscape:connector-curvature="0" /></g><g
         id="g54"
         transform="matrix(3.1250001,0,0,3.1250001,346.875,1095.3739)"><path
           d="m 74,376 0,-4.42001"
           style="fill:none;stroke:#262626;stroke-width:1;stroke-linecap:square;stroke-linejoin:miter;stroke-miterlimit:10;stroke-opacity:1;stroke-dasharray:none"
           id="path56"
           inkscape:connector-curvature="0" /></g><g
         id="g58"
         transform="matrix(3.1250001,0,0,3.1250001,346.875,1095.3739)"><path
           d="m 74,32.000008 0,4.41999"
           style="fill:none;stroke:#262626;stroke-width:1;stroke-linecap:square;stroke-linejoin:miter;stroke-miterlimit:10;stroke-opacity:1;stroke-dasharray:none"
           id="path60"
           inkscape:connector-curvature="0" /></g><g
         id="g62"
         transform="matrix(3.1250001,0,0,3.1250001,346.875,1095.3739)"><path
           d="m 162.39999,376 0,-4.42001"
           style="fill:none;stroke:#262626;stroke-width:1;stroke-linecap:square;stroke-linejoin:miter;stroke-miterlimit:10;stroke-opacity:1;stroke-dasharray:none"
           id="path64"
           inkscape:connector-curvature="0" /></g><g
         id="g66"
         transform="matrix(3.1250001,0,0,3.1250001,346.875,1095.3739)"><path
           d="m 162.39999,32.000008 0,4.41999"
           style="fill:none;stroke:#262626;stroke-width:1;stroke-linecap:square;stroke-linejoin:miter;stroke-miterlimit:10;stroke-opacity:1;stroke-dasharray:none"
           id="path68"
           inkscape:connector-curvature="0" /></g><g
         id="g70"
         transform="matrix(3.1250001,0,0,3.1250001,346.875,1095.3739)"><path
           d="m 250.8,376 0,-4.42001"
           style="fill:none;stroke:#262626;stroke-width:1;stroke-linecap:square;stroke-linejoin:miter;stroke-miterlimit:10;stroke-opacity:1;stroke-dasharray:none"
           id="path72"
           inkscape:connector-curvature="0" /></g><g
         id="g74"
         transform="matrix(3.1250001,0,0,3.1250001,346.875,1095.3739)"><path
           d="m 250.8,32.000008 0,4.41999"
           style="fill:none;stroke:#262626;stroke-width:1;stroke-linecap:square;stroke-linejoin:miter;stroke-miterlimit:10;stroke-opacity:1;stroke-dasharray:none"
           id="path76"
           inkscape:connector-curvature="0" /></g><g
         id="g78"
         transform="matrix(3.1250001,0,0,3.1250001,346.875,1095.3739)"><path
           d="m 339.20001,376 0,-4.42001"
           style="fill:none;stroke:#262626;stroke-width:1;stroke-linecap:square;stroke-linejoin:miter;stroke-miterlimit:10;stroke-opacity:1;stroke-dasharray:none"
           id="path80"
           inkscape:connector-curvature="0" /></g><g
         id="g82"
         transform="matrix(3.1250001,0,0,3.1250001,346.875,1095.3739)"><path
           d="m 339.20001,32.000008 0,4.41999"
           style="fill:none;stroke:#262626;stroke-width:1;stroke-linecap:square;stroke-linejoin:miter;stroke-miterlimit:10;stroke-opacity:1;stroke-dasharray:none"
           id="path84"
           inkscape:connector-curvature="0" /></g><g
         id="g86"
         transform="matrix(3.1250001,0,0,3.1250001,346.875,1095.3739)"><path
           d="m 427.60001,376 0,-4.42001"
           style="fill:none;stroke:#262626;stroke-width:1;stroke-linecap:square;stroke-linejoin:miter;stroke-miterlimit:10;stroke-opacity:1;stroke-dasharray:none"
           id="path88"
           inkscape:connector-curvature="0" /></g><g
         id="g90"
         transform="matrix(3.1250001,0,0,3.1250001,346.875,1095.3739)"><path
           d="m 427.60001,32.000008 0,4.41999"
           style="fill:none;stroke:#262626;stroke-width:1;stroke-linecap:square;stroke-linejoin:miter;stroke-miterlimit:10;stroke-opacity:1;stroke-dasharray:none"
           id="path92"
           inkscape:connector-curvature="0" /></g><g
         id="g94"
         transform="matrix(3.1250001,0,0,3.1250001,346.875,1095.3739)"><path
           d="m 516,376 0,-4.42001"
           style="fill:none;stroke:#262626;stroke-width:1;stroke-linecap:square;stroke-linejoin:miter;stroke-miterlimit:10;stroke-opacity:1;stroke-dasharray:none"
           id="path96"
           inkscape:connector-curvature="0" /></g><g
         id="g98"
         transform="matrix(3.1250001,0,0,3.1250001,346.875,1095.3739)"><path
           d="m 516,32.000008 0,4.41999"
           style="fill:none;stroke:#262626;stroke-width:1;stroke-linecap:square;stroke-linejoin:miter;stroke-miterlimit:10;stroke-opacity:1;stroke-dasharray:none"
           id="path100"
           inkscape:connector-curvature="0" /></g><g
         id="g102"><g
           id="g104"
           transform="matrix(3.1250001,0,0,3.1250001,578.12501,2287.0406)"><text
             transform="translate(-4.135498,12.066895)"
             id="text106"><tspan
               style="font-size:13px;font-variant:normal;font-weight:normal;writing-mode:lr-tb;fill:#262626;fill-opacity:1;fill-rule:nonzero;stroke:none;font-family:Helvetica;-inkscape-font-specification:Helvetica"
               x="0"
               y="0"
               id="tspan108">0</tspan></text>
</g></g><g
         id="g110"><g
           id="g112"
           transform="matrix(3.1250001,0,0,3.1250001,854.37499,2287.0406)"><text
             transform="translate(-8.270996,12.066895)"
             id="text114"><tspan
               style="font-size:13px;font-variant:normal;font-weight:normal;writing-mode:lr-tb;fill:#262626;fill-opacity:1;fill-rule:nonzero;stroke:none;font-family:Helvetica;-inkscape-font-specification:Helvetica"
               x="0 7.2280002"
               y="0"
               sodipodi:role="line"
               id="tspan116">20</tspan></text>
</g></g><g
         id="g118"><g
           id="g120"
           transform="matrix(3.1250001,0,0,3.1250001,1130.625,2287.0406)"><text
             transform="translate(-8.270996,12.066895)"
             id="text122"><tspan
               style="font-size:13px;font-variant:normal;font-weight:normal;writing-mode:lr-tb;fill:#262626;fill-opacity:1;fill-rule:nonzero;stroke:none;font-family:Helvetica;-inkscape-font-specification:Helvetica"
               x="0 7.2280002"
               y="0"
               sodipodi:role="line"
               id="tspan124">40</tspan></text>
</g></g><g
         id="g126"><g
           id="g128"
           transform="matrix(3.1250001,0,0,3.1250001,1406.8751,2287.0406)"><text
             transform="translate(-8.270996,12.066895)"
             id="text130"><tspan
               style="font-size:13px;font-variant:normal;font-weight:normal;writing-mode:lr-tb;fill:#262626;fill-opacity:1;fill-rule:nonzero;stroke:none;font-family:Helvetica;-inkscape-font-specification:Helvetica"
               x="0 7.2280002"
               y="0"
               sodipodi:role="line"
               id="tspan132">60</tspan></text>
</g></g><g
         id="g134"><g
           id="g136"
           transform="matrix(3.1250001,0,0,3.1250001,1683.125,2287.0406)"><text
             transform="translate(-8.270996,12.066895)"
             id="text138"><tspan
               style="font-size:13px;font-variant:normal;font-weight:normal;writing-mode:lr-tb;fill:#262626;fill-opacity:1;fill-rule:nonzero;stroke:none;font-family:Helvetica;-inkscape-font-specification:Helvetica"
               x="0 7.2280002"
               y="0"
               sodipodi:role="line"
               id="tspan140">80</tspan></text>
</g></g><g
         id="g142"><g
           id="g144"
           transform="matrix(3.1250001,0,0,3.1250001,1959.375,2287.0406)"><text
             transform="translate(-12.406494,12.066895)"
             id="text146"><tspan
               style="font-size:13px;font-variant:normal;font-weight:normal;writing-mode:lr-tb;fill:#262626;fill-opacity:1;fill-rule:nonzero;stroke:none;font-family:Helvetica;-inkscape-font-specification:Helvetica"
               x="0 7.2280002 14.456"
               y="0"
               sodipodi:role="line"
               id="tspan148">100</tspan></text>
</g></g><g
         id="g158"
         transform="matrix(3.1250001,0,0,3.1250001,346.875,1095.3739)"><path
           d="M 74,376 74,32.000008"
           style="fill:none;stroke:#262626;stroke-width:1;stroke-linecap:square;stroke-linejoin:miter;stroke-miterlimit:10;stroke-opacity:1;stroke-dasharray:none"
           id="path160"
           inkscape:connector-curvature="0" /></g><g
         id="g162"
         transform="matrix(3.1250001,0,0,3.1250001,346.875,1095.3739)"><path
           d="M 516,376 516,32.000008"
           style="fill:none;stroke:#262626;stroke-width:1;stroke-linecap:square;stroke-linejoin:miter;stroke-miterlimit:10;stroke-opacity:1;stroke-dasharray:none"
           id="path164"
           inkscape:connector-curvature="0" /></g><g
         id="g166"
         transform="matrix(3.1250001,0,0,3.1250001,346.875,1095.3739)"><path
           d="m 74,376 4.419998,0"
           style="fill:none;stroke:#262626;stroke-width:1;stroke-linecap:square;stroke-linejoin:miter;stroke-miterlimit:10;stroke-opacity:1;stroke-dasharray:none"
           id="path168"
           inkscape:connector-curvature="0" /></g><g
         id="g170"
         transform="matrix(3.1250001,0,0,3.1250001,346.875,1095.3739)"><path
           d="m 516,376 -4.42001,0"
           style="fill:none;stroke:#262626;stroke-width:1;stroke-linecap:square;stroke-linejoin:miter;stroke-miterlimit:10;stroke-opacity:1;stroke-dasharray:none"
           id="path172"
           inkscape:connector-curvature="0" /></g><g
         id="g174"
         transform="matrix(3.1250001,0,0,3.1250001,346.875,1095.3739)"><path
           d="m 74,341.60001 4.419998,0"
           style="fill:none;stroke:#262626;stroke-width:1;stroke-linecap:square;stroke-linejoin:miter;stroke-miterlimit:10;stroke-opacity:1;stroke-dasharray:none"
           id="path176"
           inkscape:connector-curvature="0" /></g><g
         id="g178"
         transform="matrix(3.1250001,0,0,3.1250001,346.875,1095.3739)"><path
           d="m 516,341.60001 -4.42001,0"
           style="fill:none;stroke:#262626;stroke-width:1;stroke-linecap:square;stroke-linejoin:miter;stroke-miterlimit:10;stroke-opacity:1;stroke-dasharray:none"
           id="path180"
           inkscape:connector-curvature="0" /></g><g
         id="g182"
         transform="matrix(3.1250001,0,0,3.1250001,346.875,1095.3739)"><path
           d="m 74,307.19998 4.419998,0"
           style="fill:none;stroke:#262626;stroke-width:1;stroke-linecap:square;stroke-linejoin:miter;stroke-miterlimit:10;stroke-opacity:1;stroke-dasharray:none"
           id="path184"
           inkscape:connector-curvature="0" /></g><g
         id="g186"
         transform="matrix(3.1250001,0,0,3.1250001,346.875,1095.3739)"><path
           d="m 516,307.19998 -4.42001,0"
           style="fill:none;stroke:#262626;stroke-width:1;stroke-linecap:square;stroke-linejoin:miter;stroke-miterlimit:10;stroke-opacity:1;stroke-dasharray:none"
           id="path188"
           inkscape:connector-curvature="0" /></g><g
         id="g190"
         transform="matrix(3.1250001,0,0,3.1250001,346.875,1095.3739)"><path
           d="m 74,272.79999 4.419998,0"
           style="fill:none;stroke:#262626;stroke-width:1;stroke-linecap:square;stroke-linejoin:miter;stroke-miterlimit:10;stroke-opacity:1;stroke-dasharray:none"
           id="path192"
           inkscape:connector-curvature="0" /></g><g
         id="g194"
         transform="matrix(3.1250001,0,0,3.1250001,346.875,1095.3739)"><path
           d="m 516,272.79999 -4.42001,0"
           style="fill:none;stroke:#262626;stroke-width:1;stroke-linecap:square;stroke-linejoin:miter;stroke-miterlimit:10;stroke-opacity:1;stroke-dasharray:none"
           id="path196"
           inkscape:connector-curvature="0" /></g><g
         id="g198"
         transform="matrix(3.1250001,0,0,3.1250001,346.875,1095.3739)"><path
           d="m 74,238.39999 4.419998,0"
           style="fill:none;stroke:#262626;stroke-width:1;stroke-linecap:square;stroke-linejoin:miter;stroke-miterlimit:10;stroke-opacity:1;stroke-dasharray:none"
           id="path200"
           inkscape:connector-curvature="0" /></g><g
         id="g202"
         transform="matrix(3.1250001,0,0,3.1250001,346.875,1095.3739)"><path
           d="m 516,238.39999 -4.42001,0"
           style="fill:none;stroke:#262626;stroke-width:1;stroke-linecap:square;stroke-linejoin:miter;stroke-miterlimit:10;stroke-opacity:1;stroke-dasharray:none"
           id="path204"
           inkscape:connector-curvature="0" /></g><g
         id="g206"
         transform="matrix(3.1250001,0,0,3.1250001,346.875,1095.3739)"><path
           d="m 74,204 4.419998,0"
           style="fill:none;stroke:#262626;stroke-width:1;stroke-linecap:square;stroke-linejoin:miter;stroke-miterlimit:10;stroke-opacity:1;stroke-dasharray:none"
           id="path208"
           inkscape:connector-curvature="0" /></g><g
         id="g210"
         transform="matrix(3.1250001,0,0,3.1250001,346.875,1095.3739)"><path
           d="m 516,204 -4.42001,0"
           style="fill:none;stroke:#262626;stroke-width:1;stroke-linecap:square;stroke-linejoin:miter;stroke-miterlimit:10;stroke-opacity:1;stroke-dasharray:none"
           id="path212"
           inkscape:connector-curvature="0" /></g><g
         id="g214"
         transform="matrix(3.1250001,0,0,3.1250001,346.875,1095.3739)"><path
           d="m 74,169.59999 4.419998,0"
           style="fill:none;stroke:#262626;stroke-width:1;stroke-linecap:square;stroke-linejoin:miter;stroke-miterlimit:10;stroke-opacity:1;stroke-dasharray:none"
           id="path216"
           inkscape:connector-curvature="0" /></g><g
         id="g218"
         transform="matrix(3.1250001,0,0,3.1250001,346.875,1095.3739)"><path
           d="m 516,169.59999 -4.42001,0"
           style="fill:none;stroke:#262626;stroke-width:1;stroke-linecap:square;stroke-linejoin:miter;stroke-miterlimit:10;stroke-opacity:1;stroke-dasharray:none"
           id="path220"
           inkscape:connector-curvature="0" /></g><g
         id="g222"
         transform="matrix(3.1250001,0,0,3.1250001,346.875,1095.3739)"><path
           d="m 74,135.2 4.419998,0"
           style="fill:none;stroke:#262626;stroke-width:1;stroke-linecap:square;stroke-linejoin:miter;stroke-miterlimit:10;stroke-opacity:1;stroke-dasharray:none"
           id="path224"
           inkscape:connector-curvature="0" /></g><g
         id="g226"
         transform="matrix(3.1250001,0,0,3.1250001,346.875,1095.3739)"><path
           d="m 516,135.2 -4.42001,0"
           style="fill:none;stroke:#262626;stroke-width:1;stroke-linecap:square;stroke-linejoin:miter;stroke-miterlimit:10;stroke-opacity:1;stroke-dasharray:none"
           id="path228"
           inkscape:connector-curvature="0" /></g><g
         id="g230"
         transform="matrix(3.1250001,0,0,3.1250001,346.875,1095.3739)"><path
           d="m 74,100.79999 4.419998,0"
           style="fill:none;stroke:#262626;stroke-width:1;stroke-linecap:square;stroke-linejoin:miter;stroke-miterlimit:10;stroke-opacity:1;stroke-dasharray:none"
           id="path232"
           inkscape:connector-curvature="0" /></g><g
         id="g234"
         transform="matrix(3.1250001,0,0,3.1250001,346.875,1095.3739)"><path
           d="m 516,100.79999 -4.42001,0"
           style="fill:none;stroke:#262626;stroke-width:1;stroke-linecap:square;stroke-linejoin:miter;stroke-miterlimit:10;stroke-opacity:1;stroke-dasharray:none"
           id="path236"
           inkscape:connector-curvature="0" /></g><g
         id="g238"
         transform="matrix(3.1250001,0,0,3.1250001,346.875,1095.3739)"><path
           d="m 74,66.400017 4.419998,0"
           style="fill:none;stroke:#262626;stroke-width:1;stroke-linecap:square;stroke-linejoin:miter;stroke-miterlimit:10;stroke-opacity:1;stroke-dasharray:none"
           id="path240"
           inkscape:connector-curvature="0" /></g><g
         id="g242"
         transform="matrix(3.1250001,0,0,3.1250001,346.875,1095.3739)"><path
           d="m 516,66.400017 -4.42001,0"
           style="fill:none;stroke:#262626;stroke-width:1;stroke-linecap:square;stroke-linejoin:miter;stroke-miterlimit:10;stroke-opacity:1;stroke-dasharray:none"
           id="path244"
           inkscape:connector-curvature="0" /></g><g
         id="g246"
         transform="matrix(3.1250001,0,0,3.1250001,346.875,1095.3739)"><path
           d="m 74,32.000008 4.419998,0"
           style="fill:none;stroke:#262626;stroke-width:1;stroke-linecap:square;stroke-linejoin:miter;stroke-miterlimit:10;stroke-opacity:1;stroke-dasharray:none"
           id="path248"
           inkscape:connector-curvature="0" /></g><g
         id="g250"
         transform="matrix(3.1250001,0,0,3.1250001,346.875,1095.3739)"><path
           d="m 516,32.000008 -4.42001,0"
           style="fill:none;stroke:#262626;stroke-width:1;stroke-linecap:square;stroke-linejoin:miter;stroke-miterlimit:10;stroke-opacity:1;stroke-dasharray:none"
           id="path252"
           inkscape:connector-curvature="0" /></g><g
         id="g254"><g
           id="g256"
           transform="matrix(3.1250001,0,0,3.1250001,561.45833,2270.3739)"><text
             transform="translate(-8.270996,4.500488)"
             id="text258"><tspan
               style="font-size:13px;font-variant:normal;font-weight:normal;writing-mode:lr-tb;fill:#262626;fill-opacity:1;fill-rule:nonzero;stroke:none;font-family:Helvetica;-inkscape-font-specification:Helvetica"
               x="0"
               y="0"
               id="tspan260">0</tspan></text>
</g></g><g
         id="g262"><g
           id="g264"
           transform="matrix(3.1250001,0,0,3.1250001,561.45833,2162.8739)"><text
             transform="translate(-37.216309,4.500488)"
             id="text266"><tspan
               style="font-size:13px;font-variant:normal;font-weight:normal;writing-mode:lr-tb;fill:#262626;fill-opacity:1;fill-rule:nonzero;stroke:none;font-family:Helvetica;-inkscape-font-specification:Helvetica"
               x="0 7.2280002 10.842 18.07 25.298"
               y="0"
               sodipodi:role="line"
               id="tspan268">0.002</tspan></text>
</g></g><g
         id="g270"><g
           id="g272"
           transform="matrix(3.1250001,0,0,3.1250001,561.45833,2055.3739)"><text
             transform="translate(-37.216309,4.500488)"
             id="text274"><tspan
               style="font-size:13px;font-variant:normal;font-weight:normal;writing-mode:lr-tb;fill:#262626;fill-opacity:1;fill-rule:nonzero;stroke:none;font-family:Helvetica;-inkscape-font-specification:Helvetica"
               x="0 7.2280002 10.842 18.07 25.298"
               y="0"
               sodipodi:role="line"
               id="tspan276">0.004</tspan></text>
</g></g><g
         id="g278"><g
           id="g280"
           transform="matrix(3.1250001,0,0,3.1250001,561.45833,1947.8739)"><text
             transform="translate(-37.216309,4.500488)"
             id="text282"><tspan
               style="font-size:13px;font-variant:normal;font-weight:normal;writing-mode:lr-tb;fill:#262626;fill-opacity:1;fill-rule:nonzero;stroke:none;font-family:Helvetica;-inkscape-font-specification:Helvetica"
               x="0 7.2280002 10.842 18.07 25.298"
               y="0"
               sodipodi:role="line"
               id="tspan284">0.006</tspan></text>
</g></g><g
         id="g286"><g
           id="g288"
           transform="matrix(3.1250001,0,0,3.1250001,561.45833,1840.3739)"><text
             transform="translate(-37.216309,4.500488)"
             id="text290"><tspan
               style="font-size:13px;font-variant:normal;font-weight:normal;writing-mode:lr-tb;fill:#262626;fill-opacity:1;fill-rule:nonzero;stroke:none;font-family:Helvetica;-inkscape-font-specification:Helvetica"
               x="0 7.2280002 10.842 18.07 25.298"
               y="0"
               sodipodi:role="line"
               id="tspan292">0.008</tspan></text>
</g></g><g
         id="g294"><g
           id="g296"
           transform="matrix(3.1250001,0,0,3.1250001,561.45833,1732.8739)"><text
             transform="translate(-28.945313,4.500488)"
             id="text298"><tspan
               style="font-size:13px;font-variant:normal;font-weight:normal;writing-mode:lr-tb;fill:#262626;fill-opacity:1;fill-rule:nonzero;stroke:none;font-family:Helvetica;-inkscape-font-specification:Helvetica"
               x="0 7.2280002 10.842 18.07"
               y="0"
               sodipodi:role="line"
               id="tspan300">0.01</tspan></text>
</g></g><g
         id="g302"><g
           id="g304"
           transform="matrix(3.1250001,0,0,3.1250001,561.45833,1625.3739)"><text
             transform="translate(-37.216309,4.500488)"
             id="text306"><tspan
               style="font-size:13px;font-variant:normal;font-weight:normal;writing-mode:lr-tb;fill:#262626;fill-opacity:1;fill-rule:nonzero;stroke:none;font-family:Helvetica;-inkscape-font-specification:Helvetica"
               x="0 7.2280002 10.842 18.07 25.298"
               y="0"
               sodipodi:role="line"
               id="tspan308">0.012</tspan></text>
</g></g><g
         id="g310"><g
           id="g312"
           transform="matrix(3.1250001,0,0,3.1250001,561.45833,1517.8739)"><text
             transform="translate(-37.216309,4.500488)"
             id="text314"><tspan
               style="font-size:13px;font-variant:normal;font-weight:normal;writing-mode:lr-tb;fill:#262626;fill-opacity:1;fill-rule:nonzero;stroke:none;font-family:Helvetica;-inkscape-font-specification:Helvetica"
               x="0 7.2280002 10.842 18.07 25.298"
               y="0"
               sodipodi:role="line"
               id="tspan316">0.014</tspan></text>
</g></g><g
         id="g318"><g
           id="g320"
           transform="matrix(3.1250001,0,0,3.1250001,561.45833,1410.3739)"><text
             transform="translate(-37.216309,4.500488)"
             id="text322"><tspan
               style="font-size:13px;font-variant:normal;font-weight:normal;writing-mode:lr-tb;fill:#262626;fill-opacity:1;fill-rule:nonzero;stroke:none;font-family:Helvetica;-inkscape-font-specification:Helvetica"
               x="0 7.2280002 10.842 18.07 25.298"
               y="0"
               sodipodi:role="line"
               id="tspan324">0.016</tspan></text>
</g></g><g
         id="g326"><g
           id="g328"
           transform="matrix(3.1250001,0,0,3.1250001,561.45833,1302.8739)"><text
             transform="translate(-37.216309,4.500488)"
             id="text330"><tspan
               style="font-size:13px;font-variant:normal;font-weight:normal;writing-mode:lr-tb;fill:#262626;fill-opacity:1;fill-rule:nonzero;stroke:none;font-family:Helvetica;-inkscape-font-specification:Helvetica"
               x="0 7.2280002 10.842 18.07 25.298"
               y="0"
               sodipodi:role="line"
               id="tspan332">0.018</tspan></text>
</g></g><g
         id="g334"><g
           id="g336"
           transform="matrix(3.1250001,0,0,3.1250001,561.45833,1195.3739)"><text
             transform="translate(-28.945313,4.500488)"
             id="text338"><tspan
               style="font-size:13px;font-variant:normal;font-weight:normal;writing-mode:lr-tb;fill:#262626;fill-opacity:1;fill-rule:nonzero;stroke:none;font-family:Helvetica;-inkscape-font-specification:Helvetica"
               x="0 7.2280002 10.842 18.07"
               y="0"
               sodipodi:role="line"
               id="tspan340">0.02</tspan></text>
</g></g><g
         id="g342"
         transform="matrix(3.1250001,0,0,3.1250001,346.875,1095.3739)"><path
           d="m 74,376 0,-172.34843 49.11111,0 0,172.34843 L 74,376 z"
           style="fill:#0072bd;fill-opacity:0.6;fill-rule:nonzero;stroke:none"
           id="path344"
           inkscape:connector-curvature="0" /></g><g
         id="g346"
         transform="matrix(3.1250001,0,0,3.1250001,346.875,1095.3739)"><path
           d="m 123.11111,376 0,-171.91129 49.1111,0 0,171.91129 -49.1111,0 z"
           style="fill:#0072bd;fill-opacity:0.6;fill-rule:nonzero;stroke:none"
           id="path348"
           inkscape:connector-curvature="0" /></g><g
         id="g350"
         transform="matrix(3.1250001,0,0,3.1250001,346.875,1095.3739)"><path
           d="m 172.22221,376 0,-171.90602 49.11112,0 0,171.90602 -49.11112,0 z"
           style="fill:#0072bd;fill-opacity:0.6;fill-rule:nonzero;stroke:none"
           id="path352"
           inkscape:connector-curvature="0" /></g><g
         id="g354"
         transform="matrix(3.1250001,0,0,3.1250001,346.875,1095.3739)"><path
           d="m 221.33333,376 0,-171.72644 49.1111,0 0,171.72644 -49.1111,0 z"
           style="fill:#0072bd;fill-opacity:0.6;fill-rule:nonzero;stroke:none"
           id="path356"
           inkscape:connector-curvature="0" /></g><g
         id="g358"
         transform="matrix(3.1250001,0,0,3.1250001,346.875,1095.3739)"><path
           d="m 270.44443,376 0,-172.09937 49.11114,0 0,172.09937 -49.11114,0 z"
           style="fill:#0072bd;fill-opacity:0.6;fill-rule:nonzero;stroke:none"
           id="path360"
           inkscape:connector-curvature="0" /></g><g
         id="g362"
         transform="matrix(3.1250001,0,0,3.1250001,346.875,1095.3739)"><path
           d="m 319.55557,376 0,-171.96393 49.11109,0 0,171.96393 -49.11109,0 z"
           style="fill:#0072bd;fill-opacity:0.6;fill-rule:nonzero;stroke:none"
           id="path364"
           inkscape:connector-curvature="0" /></g><g
         id="g366"
         transform="matrix(3.1250001,0,0,3.1250001,346.875,1095.3739)"><path
           d="m 368.66666,376 0,-172.05168 49.11111,0 0,172.05168 -49.11111,0 z"
           style="fill:#0072bd;fill-opacity:0.6;fill-rule:nonzero;stroke:none"
           id="path368"
           inkscape:connector-curvature="0" /></g><g
         id="g370"
         transform="matrix(3.1250001,0,0,3.1250001,346.875,1095.3739)"><path
           d="m 417.77777,376 0,-172.14131 49.11112,0 0,172.14131 -49.11112,0 z"
           style="fill:#0072bd;fill-opacity:0.6;fill-rule:nonzero;stroke:none"
           id="path372"
           inkscape:connector-curvature="0" /></g><g
         id="g374"
         transform="matrix(3.1250001,0,0,3.1250001,346.875,1095.3739)"><path
           d="m 466.88889,376 0,-171.85153 49.11111,0 0,171.85153 -49.11111,0 z"
           style="fill:#0072bd;fill-opacity:0.6;fill-rule:nonzero;stroke:none"
           id="path376"
           inkscape:connector-curvature="0" /></g><g
         id="g378"
         transform="matrix(3.1250001,0,0,3.1250001,346.875,1095.3739)"><path
           d="m 74,376 0,-172.34843 49.11111,0 0,172.34843"
           style="fill:none;stroke:#000000;stroke-width:1;stroke-linecap:square;stroke-linejoin:miter;stroke-miterlimit:10;stroke-opacity:1;stroke-dasharray:none"
           id="path380"
           inkscape:connector-curvature="0" /></g><g
         id="g382"
         transform="matrix(3.1250001,0,0,3.1250001,346.875,1095.3739)"><path
           d="m 123.11111,376 0,-171.91129 49.1111,0 0,171.91129"
           style="fill:none;stroke:#000000;stroke-width:1;stroke-linecap:square;stroke-linejoin:miter;stroke-miterlimit:10;stroke-opacity:1;stroke-dasharray:none"
           id="path384"
           inkscape:connector-curvature="0" /></g><g
         id="g386"
         transform="matrix(3.1250001,0,0,3.1250001,346.875,1095.3739)"><path
           d="m 172.22221,376 0,-171.90602 49.11112,0 0,171.90602"
           style="fill:none;stroke:#000000;stroke-width:1;stroke-linecap:square;stroke-linejoin:miter;stroke-miterlimit:10;stroke-opacity:1;stroke-dasharray:none"
           id="path388"
           inkscape:connector-curvature="0" /></g><g
         id="g390"
         transform="matrix(3.1250001,0,0,3.1250001,346.875,1095.3739)"><path
           d="m 221.33333,376 0,-171.72644 49.1111,0 0,171.72644"
           style="fill:none;stroke:#000000;stroke-width:1;stroke-linecap:square;stroke-linejoin:miter;stroke-miterlimit:10;stroke-opacity:1;stroke-dasharray:none"
           id="path392"
           inkscape:connector-curvature="0" /></g><g
         id="g394"
         transform="matrix(3.1250001,0,0,3.1250001,346.875,1095.3739)"><path
           d="m 270.44443,376 0,-172.09937 49.11114,0 0,172.09937"
           style="fill:none;stroke:#000000;stroke-width:1;stroke-linecap:square;stroke-linejoin:miter;stroke-miterlimit:10;stroke-opacity:1;stroke-dasharray:none"
           id="path396"
           inkscape:connector-curvature="0" /></g><g
         id="g398"
         transform="matrix(3.1250001,0,0,3.1250001,346.875,1095.3739)"><path
           d="m 319.55557,376 0,-171.96393 49.11109,0 0,171.96393"
           style="fill:none;stroke:#000000;stroke-width:1;stroke-linecap:square;stroke-linejoin:miter;stroke-miterlimit:10;stroke-opacity:1;stroke-dasharray:none"
           id="path400"
           inkscape:connector-curvature="0" /></g><g
         id="g402"
         transform="matrix(3.1250001,0,0,3.1250001,346.875,1095.3739)"><path
           d="m 368.66666,376 0,-172.05168 49.11111,0 0,172.05168"
           style="fill:none;stroke:#000000;stroke-width:1;stroke-linecap:square;stroke-linejoin:miter;stroke-miterlimit:10;stroke-opacity:1;stroke-dasharray:none"
           id="path404"
           inkscape:connector-curvature="0" /></g><g
         id="g406"
         transform="matrix(3.1250001,0,0,3.1250001,346.875,1095.3739)"><path
           d="m 417.77777,376 0,-172.14131 49.11112,0 0,172.14131"
           style="fill:none;stroke:#000000;stroke-width:1;stroke-linecap:square;stroke-linejoin:miter;stroke-miterlimit:10;stroke-opacity:1;stroke-dasharray:none"
           id="path408"
           inkscape:connector-curvature="0" /></g><g
         id="g410"
         transform="matrix(3.1250001,0,0,3.1250001,346.875,1095.3739)"><path
           d="m 466.88889,376 0,-171.85153 49.11111,0 L 516,376"
           style="fill:none;stroke:#000000;stroke-width:1;stroke-linecap:square;stroke-linejoin:miter;stroke-miterlimit:10;stroke-opacity:1;stroke-dasharray:none"
           id="path412"
           inkscape:connector-curvature="0" /></g><g
         id="g414"
         transform="matrix(3.1250001,0,0,3.1250001,346.875,1095.3739)"><path
           d="m 74,376 0,-267.96561 49.11111,0 0,267.96561 L 74,376 z"
           style="fill:#d95319;fill-opacity:0.6;fill-rule:nonzero;stroke:none"
           id="path416"
           inkscape:connector-curvature="0" /></g><g
         id="g418"
         transform="matrix(3.1250001,0,0,3.1250001,346.875,1095.3739)"><path
           d="m 123.11111,376 0,-126.56107 49.1111,0 0,126.56107 -49.1111,0 z"
           style="fill:#d95319;fill-opacity:0.6;fill-rule:nonzero;stroke:none"
           id="path420"
           inkscape:connector-curvature="0" /></g><g
         id="g422"
         transform="matrix(3.1250001,0,0,3.1250001,346.875,1095.3739)"><path
           d="m 172.22221,376 0,-104.15317 49.11112,0 0,104.15317 -49.11112,0 z"
           style="fill:#d95319;fill-opacity:0.6;fill-rule:nonzero;stroke:none"
           id="path424"
           inkscape:connector-curvature="0" /></g><g
         id="g426"
         transform="matrix(3.1250001,0,0,3.1250001,346.875,1095.3739)"><path
           d="m 221.33333,376 0,-111.6828 49.1111,0 0,111.6828 -49.1111,0 z"
           style="fill:#d95319;fill-opacity:0.6;fill-rule:nonzero;stroke:none"
           id="path428"
           inkscape:connector-curvature="0" /></g><g
         id="g430"
         transform="matrix(3.1250001,0,0,3.1250001,346.875,1095.3739)"><path
           d="m 270.44443,376 0,-156.19412 49.11114,0 0,156.19412 -49.11114,0 z"
           style="fill:#d95319;fill-opacity:0.6;fill-rule:nonzero;stroke:none"
           id="path432"
           inkscape:connector-curvature="0" /></g><g
         id="g434"
         transform="matrix(3.1250001,0,0,3.1250001,346.875,1095.3739)"><path
           d="m 319.55557,376 0,-118.97308 49.11109,0 0,118.97308 -49.11109,0 z"
           style="fill:#d95319;fill-opacity:0.6;fill-rule:nonzero;stroke:none"
           id="path436"
           inkscape:connector-curvature="0" /></g><g
         id="g438"
         transform="matrix(3.1250001,0,0,3.1250001,346.875,1095.3739)"><path
           d="m 368.66666,376 0,-119.04074 49.11111,0 0,119.04074 -49.11111,0 z"
           style="fill:#d95319;fill-opacity:0.6;fill-rule:nonzero;stroke:none"
           id="path440"
           inkscape:connector-curvature="0" /></g><g
         id="g442"
         transform="matrix(3.1250001,0,0,3.1250001,346.875,1095.3739)"><path
           d="m 417.77777,376 0,-215.85915 49.11112,0 0,215.85915 -49.11112,0 z"
           style="fill:#d95319;fill-opacity:0.6;fill-rule:nonzero;stroke:none"
           id="path444"
           inkscape:connector-curvature="0" /></g><g
         id="g446"
         transform="matrix(3.1250001,0,0,3.1250001,346.875,1095.3739)"><path
           d="m 466.88889,376 0,-327.570267 49.11111,0 L 516,376 l -49.11111,0 z"
           style="fill:#d95319;fill-opacity:0.6;fill-rule:nonzero;stroke:none"
           id="path448"
           inkscape:connector-curvature="0" /></g><g
         id="g450"
         transform="matrix(3.1250001,0,0,3.1250001,346.875,1095.3739)"><path
           d="m 74,376 0,-267.96561 49.11111,0 0,267.96561"
           style="fill:none;stroke:#000000;stroke-width:1;stroke-linecap:square;stroke-linejoin:miter;stroke-miterlimit:10;stroke-opacity:1;stroke-dasharray:none"
           id="path452"
           inkscape:connector-curvature="0" /></g><g
         id="g454"
         transform="matrix(3.1250001,0,0,3.1250001,346.875,1095.3739)"><path
           d="m 123.11111,376 0,-126.56107 49.1111,0 0,126.56107"
           style="fill:none;stroke:#000000;stroke-width:1;stroke-linecap:square;stroke-linejoin:miter;stroke-miterlimit:10;stroke-opacity:1;stroke-dasharray:none"
           id="path456"
           inkscape:connector-curvature="0" /></g><g
         id="g458"
         transform="matrix(3.1250001,0,0,3.1250001,346.875,1095.3739)"><path
           d="m 172.22221,376 0,-104.15317 49.11112,0 0,104.15317"
           style="fill:none;stroke:#000000;stroke-width:1;stroke-linecap:square;stroke-linejoin:miter;stroke-miterlimit:10;stroke-opacity:1;stroke-dasharray:none"
           id="path460"
           inkscape:connector-curvature="0" /></g><g
         id="g462"
         transform="matrix(3.1250001,0,0,3.1250001,346.875,1095.3739)"><path
           d="m 221.33333,376 0,-111.6828 49.1111,0 0,111.6828"
           style="fill:none;stroke:#000000;stroke-width:1;stroke-linecap:square;stroke-linejoin:miter;stroke-miterlimit:10;stroke-opacity:1;stroke-dasharray:none"
           id="path464"
           inkscape:connector-curvature="0" /></g><g
         id="g466"
         transform="matrix(3.1250001,0,0,3.1250001,346.875,1095.3739)"><path
           d="m 270.44443,376 0,-156.19412 49.11114,0 0,156.19412"
           style="fill:none;stroke:#000000;stroke-width:1;stroke-linecap:square;stroke-linejoin:miter;stroke-miterlimit:10;stroke-opacity:1;stroke-dasharray:none"
           id="path468"
           inkscape:connector-curvature="0" /></g><g
         id="g470"
         transform="matrix(3.1250001,0,0,3.1250001,346.875,1095.3739)"><path
           d="m 319.55557,376 0,-118.97308 49.11109,0 0,118.97308"
           style="fill:none;stroke:#000000;stroke-width:1;stroke-linecap:square;stroke-linejoin:miter;stroke-miterlimit:10;stroke-opacity:1;stroke-dasharray:none"
           id="path472"
           inkscape:connector-curvature="0" /></g><g
         id="g474"
         transform="matrix(3.1250001,0,0,3.1250001,346.875,1095.3739)"><path
           d="m 368.66666,376 0,-119.04074 49.11111,0 0,119.04074"
           style="fill:none;stroke:#000000;stroke-width:1;stroke-linecap:square;stroke-linejoin:miter;stroke-miterlimit:10;stroke-opacity:1;stroke-dasharray:none"
           id="path476"
           inkscape:connector-curvature="0" /></g><g
         id="g478"
         transform="matrix(3.1250001,0,0,3.1250001,346.875,1095.3739)"><path
           d="m 417.77777,376 0,-215.85915 49.11112,0 0,215.85915"
           style="fill:none;stroke:#000000;stroke-width:1;stroke-linecap:square;stroke-linejoin:miter;stroke-miterlimit:10;stroke-opacity:1;stroke-dasharray:none"
           id="path480"
           inkscape:connector-curvature="0" /></g><g
         id="g482"
         transform="matrix(3.1250001,0,0,3.1250001,346.875,1095.3739)"><path
           d="m 466.88889,376 0,-327.570267 49.11111,0 L 516,376"
           style="fill:none;stroke:#000000;stroke-width:1;stroke-linecap:square;stroke-linejoin:miter;stroke-miterlimit:10;stroke-opacity:1;stroke-dasharray:none"
           id="path484"
           inkscape:connector-curvature="0" /></g><flowRoot
         xml:space="preserve"
         id="flowRoot3480-0"
         style="font-size:40px;font-style:normal;font-weight:normal;line-height:125%;letter-spacing:0px;word-spacing:0px;fill:#000000;fill-opacity:1;stroke:none;font-family:Sans"
         transform="matrix(-0.01966113,-3.3332753,3.3332753,-0.01966113,-920.38264,2723.0796)"><flowRegion
           id="flowRegion3482-9"><rect
             id="rect3484-2"
             width="781.5705"
             height="61.321507"
             x="152.18883"
             y="376.11362" /></flowRegion><flowPara
           id="flowPara3486-7"
           style="font-size:24px">Normalized frequencies</flowPara></flowRoot></g></g></svg>