<?xml version="1.0" encoding="UTF-8" standalone="no"?>
<!-- Created with Inkscape (http://www.inkscape.org/) -->

<svg
   xmlns:dc="http://purl.org/dc/elements/1.1/"
   xmlns:cc="http://creativecommons.org/ns#"
   xmlns:rdf="http://www.w3.org/1999/02/22-rdf-syntax-ns#"
   xmlns:svg="http://www.w3.org/2000/svg"
   xmlns="http://www.w3.org/2000/svg"
   xmlns:sodipodi="http://sodipodi.sourceforge.net/DTD/sodipodi-0.dtd"
   xmlns:inkscape="http://www.inkscape.org/namespaces/inkscape"
   width="596.59137"
   height="783.25049"
   id="svg3531"
   version="1.1"
   inkscape:version="0.48.4 r9939"
   sodipodi:docname="inclusive_design.pdf">
  <sodipodi:namedview
     id="base"
     pagecolor="#ffffff"
     bordercolor="#666666"
     borderopacity="1.0"
     inkscape:pageopacity="0.0"
     inkscape:pageshadow="2"
     inkscape:zoom="0.7"
     inkscape:cx="384.078"
     inkscape:cy="505.44844"
     inkscape:document-units="px"
     inkscape:current-layer="layer1"
     showgrid="false"
     inkscape:window-width="2495"
     inkscape:window-height="1416"
     inkscape:window-x="65"
     inkscape:window-y="24"
     inkscape:window-maximized="1"
     fit-margin-top="0"
     fit-margin-left="0"
     fit-margin-right="0"
     fit-margin-bottom="0" />
  <defs
     id="defs3533">
    <clipPath
       id="clipPath3345"
       clipPathUnits="userSpaceOnUse">
      <path
         id="path3347"
         d="m 0,0 1224,0 0,792 L 0,792 0,0 z"
         inkscape:connector-curvature="0" />
    </clipPath>
    <clipPath
       id="clipPath3313"
       clipPathUnits="userSpaceOnUse">
      <path
         id="path3315"
         d="m 0,0 1224,0 0,792 L 0,792 0,0 z"
         inkscape:connector-curvature="0" />
    </clipPath>
    <clipPath
       id="clipPath3297"
       clipPathUnits="userSpaceOnUse">
      <path
         id="path3299"
         d="m 0,0 1224,0 0,792 L 0,792 0,0 z"
         inkscape:connector-curvature="0" />
    </clipPath>
    <clipPath
       id="clipPath3277"
       clipPathUnits="userSpaceOnUse">
      <path
         id="path3279"
         d="m 0,0 1224,0 0,792 L 0,792 0,0 z"
         inkscape:connector-curvature="0" />
    </clipPath>
    <clipPath
       id="clipPath3261"
       clipPathUnits="userSpaceOnUse">
      <path
         id="path3263"
         d="m 0,0 1224,0 0,792 L 0,792 0,0 z"
         inkscape:connector-curvature="0" />
    </clipPath>
    <clipPath
       id="clipPath3245"
       clipPathUnits="userSpaceOnUse">
      <path
         id="path3247"
         d="m 0,0 1224,0 0,792 L 0,792 0,0 z"
         inkscape:connector-curvature="0" />
    </clipPath>
    <clipPath
       id="clipPath3221"
       clipPathUnits="userSpaceOnUse">
      <path
         id="path3223"
         d="m 0,0 1224,0 0,792 L 0,792 0,0 z"
         inkscape:connector-curvature="0" />
    </clipPath>
    <clipPath
       id="clipPath3159"
       clipPathUnits="userSpaceOnUse">
      <path
         id="path3161"
         d="m 0,0 1224,0 0,792 L 0,792 0,0 z"
         inkscape:connector-curvature="0" />
    </clipPath>
    <clipPath
       id="clipPath3141"
       clipPathUnits="userSpaceOnUse">
      <path
         id="path3143"
         d="m 0,0 1224,0 0,792 L 0,792 0,0 z"
         inkscape:connector-curvature="0" />
    </clipPath>
    <clipPath
       id="clipPath3125"
       clipPathUnits="userSpaceOnUse">
      <path
         id="path3127"
         d="m 0,0 1224,0 0,792 L 0,792 0,0 z"
         inkscape:connector-curvature="0" />
    </clipPath>
    <clipPath
       id="clipPath3101"
       clipPathUnits="userSpaceOnUse">
      <path
         id="path3103"
         d="m 0,0 1224,0 0,792 L 0,792 0,0 z"
         inkscape:connector-curvature="0" />
    </clipPath>
    <clipPath
       id="clipPath3081"
       clipPathUnits="userSpaceOnUse">
      <path
         id="path3083"
         d="m 0,0 1224,0 0,792 L 0,792 0,0 z"
         inkscape:connector-curvature="0" />
    </clipPath>
    <clipPath
       id="clipPath3065"
       clipPathUnits="userSpaceOnUse">
      <path
         id="path3067"
         d="m 0,0 1224,0 0,792 L 0,792 0,0 z"
         inkscape:connector-curvature="0" />
    </clipPath>
    <clipPath
       id="clipPath3049"
       clipPathUnits="userSpaceOnUse">
      <path
         id="path3051"
         d="m 0,0 1224,0 0,792 L 0,792 0,0 z"
         inkscape:connector-curvature="0" />
    </clipPath>
  </defs>
  <metadata
     id="metadata3536">
    <rdf:RDF>
      <cc:Work
         rdf:about="">
        <dc:format>image/svg+xml</dc:format>
        <dc:type
           rdf:resource="http://purl.org/dc/dcmitype/StillImage" />
        <dc:title></dc:title>
      </cc:Work>
    </rdf:RDF>
  </metadata>
  <g
     id="layer1"
     inkscape:groupmode="layer"
     inkscape:label="Layer 1"
     transform="translate(-49.40349,-104.06277)">
    <g
       id="g3045"
       transform="matrix(1.25,0,0,-1.25,-817.74701,990.94852)">
      <g
         clip-path="url(#clipPath3049)"
         id="g3047">
        <g
           transform="translate(984.4521,345.6097)"
           id="g3053">
          <path
             id="path3055"
             style="fill:#221f20;fill-opacity:1;fill-rule:nonzero;stroke:none"
             d="m 0,0 c 4.556,2.228 7.702,6.91 7.702,12.314 l 0,5.245 c 0.981,0.142 1.96,0.352 2.93,0.629 l 1.256,0.36 -0.305,1.269 C 10.068,26.125 3.569,30.704 -3.871,30.704 l -0.26,0 c -2.608,0 -5.157,-0.562 -7.445,-1.627 l -0.029,0.041 -1.068,-0.597 c -0.122,-0.068 -0.237,-0.142 -0.356,-0.213 l -0.719,-0.425 0.009,-0.019 c -3.889,-2.586 -6.179,-6.565 -6.179,-10.859 l 0,-10e-4 0,-4.69 0,0 C -19.918,6.91 -16.772,2.228 -12.216,0 -21.373,-2.654 -28.09,-11.11 -28.09,-21.112 l 0,-18.845 2.726,0 0,18.845 c 0,7.661 4.499,14.29 10.992,17.389 0.467,-4.148 3.993,-7.384 8.264,-7.384 4.271,0 7.797,3.236 8.264,7.384 6.494,-3.099 10.992,-9.728 10.992,-17.389 l 0,-18.845 2.726,0 0,18.845 C 15.874,-11.11 9.157,-2.654 0,0 m -4.131,27.978 0.26,0 c 5.658,0 10.641,-3.087 12.394,-7.507 -6.913,-1.459 -13.988,1.118 -18.423,6.37 1.791,0.747 3.758,1.137 5.769,1.137 M -17.192,17.005 c 0,3.234 1.694,6.268 4.598,8.345 0.707,-1.865 1.064,-3.808 1.064,-5.796 0,-4.298 -1.673,-8.394 -4.639,-11.466 -0.673,1.339 -1.023,2.777 -1.023,4.226 l 0,4.69 0,10e-4 z m 2.336,-11.448 c 1.947,1.837 3.466,4.034 4.497,6.443 0.555,-1.559 2.041,-2.679 3.787,-2.679 l 0,2.726 c -0.715,0 -1.296,0.581 -1.296,1.296 0,0.715 0.581,1.297 1.296,1.297 l 0,2.726 c -0.934,0 -1.793,-0.324 -2.477,-0.86 0.161,1.001 0.245,2.019 0.245,3.048 0,0.882 -0.067,1.755 -0.187,2.619 3.831,-3.084 8.637,-4.838 13.632,-4.838 0.112,0 0.224,0.004 0.335,0.006 l 0,-5.027 C 4.976,11.119 4.782,9.97 4.427,8.892 l -6.385,0 C -1.958,6.675 -0.171,4.877 2.04,4.854 0.035,2.695 -2.825,1.341 -5.997,1.341 l -0.222,0 c -3.504,0 -6.626,1.652 -8.637,4.216 m 14.343,-8.343 c 0,-3.085 -2.51,-5.595 -5.595,-5.595 -3.085,0 -5.595,2.51 -5.595,5.595 l -0.311,0 c 1.862,0.601 3.846,0.93 5.906,0.93 2.06,0 4.044,-0.329 5.906,-0.93 l -0.311,0 z"
             inkscape:connector-curvature="0" />
        </g>
      </g>
    </g>
    <g
       transform="matrix(1.25,0,0,-1.25,416.33149,609.56414)"
       id="g3057">
      <path
         id="path3059"
         style="fill:#221f20;fill-opacity:1;fill-rule:nonzero;stroke:none"
         d="m 0,0 -17.837,0 0,25.098 -2.726,0 0,-25.098 0,-2.726 0,-26.99 2.726,0 0,26.99 17.837,0 0,-26.99 2.726,0 0,26.99 0,2.726 0,25.098 L 0,25.098 0,0 z"
         inkscape:connector-curvature="0" />
    </g>
    <g
       id="g3061"
       transform="matrix(1.25,0,0,-1.25,-817.74701,990.94852)">
      <g
         clip-path="url(#clipPath3065)"
         id="g3063">
        <g
           transform="translate(836.2618,345.5225)"
           id="g3069">
          <path
             id="path3071"
             style="fill:#221f20;fill-opacity:1;fill-rule:nonzero;stroke:none"
             d="m 0,0 c 4.39,2.322 7.396,6.987 7.396,12.354 l 0,5.214 c 0,2.165 -0.506,4.213 -1.405,6.035 l 0.054,0.032 -0.53,0.849 c -0.507,0.863 -1.105,1.665 -1.781,2.394 -0.028,0.03 -0.057,0.059 -0.084,0.088 -0.141,0.149 -0.285,0.296 -0.433,0.439 -0.075,0.073 -0.151,0.145 -0.228,0.217 -0.094,0.087 -0.19,0.171 -0.286,0.255 -0.419,0.368 -0.858,0.709 -1.316,1.021 -0.018,0.013 -0.036,0.025 -0.055,0.038 -0.175,0.118 -0.351,0.231 -0.531,0.341 -0.006,0.003 -0.011,0.006 -0.017,0.01 -0.556,0.338 -1.135,0.635 -1.734,0.89 -0.012,0.005 -0.023,0.01 -0.035,0.015 -0.175,0.074 -0.352,0.143 -0.531,0.21 -0.06,0.022 -0.12,0.044 -0.181,0.066 -0.163,0.058 -0.328,0.115 -0.494,0.167 -0.081,0.026 -0.163,0.048 -0.244,0.072 -0.232,0.068 -0.466,0.13 -0.702,0.186 -0.15,0.036 -0.3,0.072 -0.452,0.103 -0.111,0.022 -0.222,0.04 -0.333,0.059 -0.155,0.027 -0.31,0.053 -0.467,0.075 -0.105,0.015 -0.21,0.028 -0.315,0.04 -0.175,0.021 -0.352,0.037 -0.529,0.051 -0.088,0.007 -0.176,0.015 -0.265,0.02 -0.267,0.016 -0.535,0.026 -0.805,0.026 l -0.222,0 c -3.753,0 -7.157,-1.518 -9.634,-3.971 -0.893,1.349 -2.422,2.242 -4.157,2.242 -2.748,0 -4.984,-2.235 -4.984,-4.983 l 0,-16.551 c 0,-0.911 -0.341,-1.224 -0.453,-1.327 -0.529,-0.487 -1.493,-0.522 -1.809,-0.496 l -1.497,0.148 0,-1.504 c 0,-3.785 3.079,-6.863 6.863,-6.863 2.848,0 5.295,1.744 6.333,4.219 0.906,-0.859 1.926,-1.594 3.035,-2.181 -9.002,-2.751 -15.568,-11.135 -15.568,-21.025 l 0,-18.845 2.726,0 0,18.845 c 0,7.662 4.498,14.291 10.992,17.389 0.467,-4.148 3.993,-7.384 8.264,-7.384 4.271,0 7.797,3.236 8.264,7.384 6.494,-3.099 10.992,-9.728 10.992,-17.389 l 0,-18.845 2.726,0 0,18.845 C 15.568,-11.135 9.001,-2.752 0,0 m -6.525,28.541 0.222,0 c 0.198,0 0.396,-0.006 0.592,-0.017 0.072,-0.004 0.143,-0.011 0.214,-0.016 0.123,-0.009 0.246,-0.018 0.368,-0.031 0.09,-0.01 0.179,-0.022 0.269,-0.034 0.1,-0.013 0.2,-0.026 0.299,-0.042 0.102,-0.017 0.203,-0.035 0.304,-0.055 0.083,-0.015 0.167,-0.031 0.251,-0.049 0.111,-0.024 0.223,-0.05 0.333,-0.077 0.068,-0.017 0.135,-0.034 0.202,-0.052 0.122,-0.033 0.244,-0.067 0.365,-0.104 0.049,-0.015 0.098,-0.031 0.147,-0.046 0.136,-0.044 0.27,-0.088 0.403,-0.137 0.024,-0.009 0.049,-0.018 0.073,-0.027 0.81,-0.302 1.575,-0.697 2.282,-1.171 0.013,-0.009 0.026,-0.017 0.039,-0.026 0.114,-0.077 0.226,-0.158 0.337,-0.24 0.046,-0.034 0.093,-0.068 0.139,-0.103 0.087,-0.066 0.174,-0.135 0.259,-0.204 0.075,-0.061 0.15,-0.122 0.223,-0.185 0.059,-0.05 0.118,-0.101 0.176,-0.152 0.117,-0.105 0.233,-0.212 0.347,-0.322 0.014,-0.014 0.028,-0.027 0.042,-0.041 0.286,-0.281 0.557,-0.578 0.814,-0.892 -3.767,-2.014 -7.36,-2.682 -10.95,-2.043 l -1.536,0.274 -0.064,-1.559 c -0.128,-3.091 -1.16,-5.884 -2.906,-7.864 -1.212,-1.376 -2.663,-2.252 -4.103,-2.505 -0.076,0.521 -0.114,1.034 -0.114,1.533 l 0,5.214 c 0,6.05 4.922,10.973 10.973,10.973 M -22.196,0.687 c -1.846,0 -3.414,1.216 -3.945,2.889 0.71,0.146 1.525,0.452 2.212,1.075 0.618,0.56 1.355,1.596 1.355,3.353 l 0,16.551 c 0,1.244 1.013,2.257 2.258,2.257 1.127,0 2.061,-0.831 2.228,-1.912 -1.35,-2.122 -2.136,-4.636 -2.136,-7.332 l 0,-5.214 c 0,-1.427 0.213,-2.804 0.607,-4.101 l 0.045,-0.185 0.015,0 c 0.368,-1.155 0.882,-2.242 1.518,-3.243 l -0.02,0 c 0,-2.282 -1.856,-4.138 -4.137,-4.138 m 5.492,7.493 c 1.975,0.403 3.9,1.564 5.468,3.343 1.866,2.116 3.071,4.94 3.461,8.067 3.774,-0.357 7.532,0.51 11.41,2.623 0.663,-1.412 1.035,-2.986 1.035,-4.645 l 0,-5.214 c 0,-1.092 -0.157,-2.147 -0.444,-3.146 l -6.599,0 c 0,-2.232 1.809,-4.041 4.041,-4.041 0.155,0 0.307,0.01 0.457,0.027 C 0.111,2.73 -2.919,1.159 -6.303,1.159 l -0.222,0 c -4.605,0 -8.553,2.91 -10.179,7.021 M -0.819,-2.699 c 0,-3.085 -2.51,-5.595 -5.595,-5.595 -3.085,0 -5.595,2.51 -5.595,5.595 l -0.311,0 c 1.862,0.602 3.846,0.93 5.906,0.93 2.06,0 4.044,-0.328 5.906,-0.93 l -0.311,0 z"
             inkscape:connector-curvature="0" />
        </g>
      </g>
    </g>
    <g
       transform="matrix(1.25,0,0,-1.25,234.11879,595.37527)"
       id="g3073">
      <path
         id="path3075"
         style="fill:#221f20;fill-opacity:1;fill-rule:nonzero;stroke:none"
         d="m 0,0 0,13.747 -2.726,0 0,-14.077 3.713,-15.11 -0.987,0 -23.289,0 -0.988,0 3.714,15.11 0,14.077 -2.726,0 0,-13.747 -4.465,-18.166 4.465,0 0,-22.901 2.726,0 0,22.901 17.837,0 0,-22.901 2.726,0 0,22.901 4.464,0 L 0,0 z"
         inkscape:connector-curvature="0" />
    </g>
    <g
       id="g3077"
       transform="matrix(1.25,0,0,-1.25,-817.74701,990.94852)">
      <g
         clip-path="url(#clipPath3081)"
         id="g3079">
        <g
           transform="translate(1136.4838,187.9253)"
           id="g3085">
          <path
             id="path3087"
             style="fill:#221f20;fill-opacity:1;fill-rule:nonzero;stroke:none"
             d="m 0,0 -7.373,0 c 0,-2.036 1.65,-3.687 3.686,-3.687 C -1.651,-3.687 0,-2.036 0,0"
             inkscape:connector-curvature="0" />
        </g>
        <g
           transform="translate(1144.3693,149.4724)"
           id="g3089">
          <path
             id="path3091"
             style="fill:#221f20;fill-opacity:1;fill-rule:nonzero;stroke:none"
             d="m 0,0 0,13.794 -2.726,0 0,-4.427 -4.036,0 c -1.062,1.564 -2.854,2.594 -4.883,2.594 -2.028,0 -3.821,-1.03 -4.882,-2.594 l -4.036,0 0,4.427 -2.726,0 0,-5.685 c -1.74,2.194 -4.264,3.738 -7.145,4.202 0.999,4.474 3.543,8.322 7.015,11.005 0.249,-2.438 2.314,-4.346 4.817,-4.346 0.439,0 0.864,0.064 1.269,0.175 1.525,-1.446 3.557,-2.291 5.688,-2.291 2.132,0 4.163,0.845 5.688,2.291 0.406,-0.111 0.83,-0.175 1.27,-0.175 2.499,0 4.562,1.904 4.815,4.337 4.548,-3.525 7.483,-9.035 7.483,-15.221 l 0,-8.442 2.726,0 0,8.442 c 0,8.653 -5.027,16.152 -12.313,19.736 -0.465,0.315 -0.988,0.546 -1.548,0.685 -1.052,0.419 -2.142,0.76 -3.266,1.014 2.897,1.128 5.29,3.269 6.74,5.988 0.052,-0.072 0.107,-0.142 0.165,-0.209 -0.461,-0.533 -0.714,-1.204 -0.714,-1.915 0,-0.784 0.306,-1.521 0.86,-2.076 l 2.076,-2.076 2.076,2.076 c 1.093,1.093 1.14,2.838 0.146,3.991 0.444,0.514 0.714,1.182 0.714,1.913 0,0.731 -0.27,1.399 -0.714,1.914 0.444,0.514 0.714,1.182 0.714,1.913 l 0,2.63 0.014,0 0,1.64 c 0,3.413 -1.03,6.59 -2.793,9.239 1.261,0.796 2.102,2.199 2.102,3.797 0,2.478 -2.016,4.494 -4.494,4.494 l -1.363,0 0,-1.363 c 0,-1.225 -0.24,-1.748 -1.691,-1.766 -2.157,1.275 -4.623,2.078 -7.257,2.27 l 0,1.615 -2.726,0 0,-1.615 c -2.672,-0.195 -5.173,-1.017 -7.352,-2.325 l 0,0.053 c -1.522,0 -1.767,0.521 -1.767,1.768 l 0,1.363 -1.363,0 c -2.478,0 -4.494,-2.016 -4.494,-4.494 0,-1.65 0.896,-3.091 2.225,-3.872 -1.733,-2.634 -2.745,-5.783 -2.745,-9.164 l 0,-1.64 0.004,0 0,-2.63 c 0,-0.731 0.271,-1.399 0.715,-1.913 -0.444,-0.515 -0.715,-1.183 -0.715,-1.914 0,-0.731 0.271,-1.399 0.714,-1.913 -0.993,-1.153 -0.946,-2.898 0.146,-3.991 l 2.076,-2.076 2.077,2.076 c 1.092,1.093 1.139,2.838 0.146,3.991 0.06,0.069 0.117,0.142 0.17,0.217 1.441,-2.705 3.814,-4.839 6.689,-5.974 -1.163,-0.258 -2.293,-0.608 -3.382,-1.043 -0.537,-0.136 -1.039,-0.358 -1.488,-0.657 -6.028,-2.945 -10.548,-8.574 -11.915,-15.425 -5.881,-0.475 -10.522,-5.41 -10.522,-11.411 0,-6.314 5.138,-11.452 11.452,-11.452 2.947,0 5.637,1.12 7.669,2.955 l -3.042,-17.444 4.348,0 0,-16.086 2.726,0 0,16.086 17.837,0 0,-16.086 2.726,0 0,16.086 4.347,0 L 0,0 z m -20.718,23.812 c 0,0.686 0.334,1.292 0.842,1.678 0.298,0.141 0.6,0.275 0.905,0.401 0.12,0.021 0.242,0.037 0.369,0.037 1.166,0 2.115,-0.949 2.115,-2.116 0,-1.167 -0.949,-2.116 -2.115,-2.116 -1.167,0 -2.116,0.949 -2.116,2.116 m 5.788,-3.147 c 0.727,0.847 1.17,1.945 1.17,3.147 0,1.243 -0.475,2.374 -1.248,3.232 1.095,0.194 2.218,0.298 3.363,0.298 1.147,0 2.269,-0.107 3.362,-0.3 -0.772,-0.858 -1.246,-1.988 -1.246,-3.23 0,-1.202 0.443,-2.3 1.17,-3.147 -0.937,-0.697 -2.075,-1.085 -3.286,-1.085 -1.21,0 -2.349,0.388 -3.285,1.085 m 12.359,3.147 c 0,-1.167 -0.949,-2.116 -2.116,-2.116 -1.167,0 -2.116,0.949 -2.116,2.116 0,1.167 0.949,2.116 2.116,2.116 0.126,0 0.248,-0.016 0.368,-0.037 0.306,-0.127 0.609,-0.26 0.907,-0.402 0.508,-0.387 0.841,-0.991 0.841,-1.677 m 5.8,17.228 c 0,-0.491 -0.4,-0.891 -0.892,-0.891 -0.474,0 -0.859,0.373 -0.886,0.84 0.008,0.195 0.015,0.39 0.015,0.586 l 0,1.036 1.763,0 0,-1.571 z m 0,-3.827 c 0,-0.492 -0.4,-0.892 -0.892,-0.892 -0.492,0 -0.891,0.4 -0.891,0.892 0,0.491 0.399,0.891 0.891,0.891 0.492,0 0.892,-0.4 0.892,-0.891 M 2.968,32.755 2.337,32.124 1.707,32.755 c -0.169,0.168 -0.261,0.392 -0.261,0.63 0,0.238 0.092,0.462 0.261,0.631 0.168,0.168 0.391,0.26 0.629,0.261 l 0.001,0 10e-4,0 c 0.238,-10e-4 0.461,-0.093 0.63,-0.261 0.347,-0.348 0.347,-0.914 0,-1.261 M 1.226,59.71 c 0.393,-0.325 0.644,-0.816 0.644,-1.364 0,-0.735 -0.452,-1.366 -1.091,-1.632 -0.324,0.347 -0.661,0.682 -1.013,1 0.627,0.411 1.166,1.038 1.46,1.996 m 1.294,-13.314 -12.729,0 0,12.853 C -3.421,58.657 1.995,53.202 2.52,46.396 m -15.455,0 -12.728,0 c 0.525,6.806 5.941,12.261 12.728,12.853 l 0,-12.853 z m -11.664,-9.183 c 0,-0.492 -0.4,-0.892 -0.892,-0.892 -0.491,0 -0.891,0.4 -0.891,0.892 0,0.491 0.4,0.891 0.891,0.891 0.492,0 0.892,-0.4 0.892,-0.891 m -1.783,3.827 0,1.571 1.773,0 0,-1.036 c 0,-0.132 0.006,-0.263 0.01,-0.395 l 0,-0.14 c 0,-0.491 -0.4,-0.891 -0.892,-0.891 -0.491,0 -0.891,0.4 -0.891,0.891 m 1.197,17.306 c 0,0.548 0.251,1.039 0.644,1.364 0.309,-1.008 0.889,-1.654 1.559,-2.062 -0.34,-0.311 -0.666,-0.637 -0.979,-0.975 -0.708,0.231 -1.224,0.889 -1.224,1.673 m 0.325,-25.591 -0.631,-0.631 -0.63,0.631 c -0.348,0.347 -0.348,0.913 0,1.261 0.347,0.347 0.913,0.347 1.261,0 0.347,-0.348 0.347,-0.914 0,-1.261 m 2.977,8.82 0,2.095 20.623,0 0,-2.095 c 0,-5.628 -4.579,-10.207 -10.207,-10.207 l -0.209,0 c -5.628,0 -10.207,4.579 -10.207,10.207 m 19.157,-34.934 0,-1.151 -3.052,0 c 0.018,0.19 0.029,0.381 0.029,0.575 0,0.195 -0.011,0.386 -0.029,0.576 l 3.052,0 z m -8.919,2.594 c 1.748,0 3.17,-1.422 3.17,-3.17 0,-1.747 -1.422,-3.169 -3.17,-3.169 -1.748,0 -3.17,1.422 -3.17,3.169 0,1.748 1.422,3.17 3.17,3.17 m -5.866,-2.594 c -0.019,-0.19 -0.03,-0.381 -0.03,-0.576 0,-0.194 0.011,-0.385 0.03,-0.575 l -3.052,0 0,1.151 3.052,0 z m -14.753,-14.36 c -4.811,0 -8.726,3.915 -8.726,8.726 0,4.812 3.915,8.726 8.726,8.726 4.812,0 8.727,-3.914 8.727,-8.726 0,-4.811 -3.915,-8.726 -8.727,-8.726 m 8.975,-14.489 -1.105,0 3.81,21.856 0.021,0.116 0,3 4.036,0 c 1.061,-1.564 2.853,-2.594 4.882,-2.594 2.029,0 3.821,1.03 4.883,2.594 l 4.036,0 0,-3 3.831,-21.972 -1.105,0 -23.289,0 z"
             inkscape:connector-curvature="0" />
        </g>
      </g>
    </g>
    <g
       transform="matrix(1.25,0,0,-1.25,630.50729,815.34289)"
       id="g3093">
      <path
         id="path3095"
         style="fill:#000000;fill-opacity:1;fill-rule:nonzero;stroke:none"
         d="m 0,0 -3.805,0 0,6.247 -2.726,0 0,-6.247 -3.805,0 0,-2.726 3.805,0 0,-21.128 2.726,0 0,21.128 3.805,0 L 0,0 z"
         inkscape:connector-curvature="0" />
    </g>
    <g
       id="g3097"
       transform="matrix(1.25,0,0,-1.25,-817.74701,990.94852)">
      <g
         clip-path="url(#clipPath3101)"
         id="g3099">
        <g
           transform="translate(997.1931,176.7584)"
           id="g3105">
          <path
             id="path3107"
             style="fill:#221f20;fill-opacity:1;fill-rule:nonzero;stroke:none"
             d="m 0,0 c 3.784,0 6.863,3.079 6.863,6.863 l 0,1.504 L 5.366,8.22 C 5.125,8.196 4.115,8.209 3.563,8.709 3.45,8.812 3.104,9.125 3.104,10.043 l 0,16.55 c 0,2.748 -2.236,4.984 -4.984,4.984 -1.736,0 -3.267,-0.895 -4.159,-2.246 -2.457,2.328 -5.77,3.76 -9.413,3.76 l -0.222,0 c -7.554,0 -13.7,-6.145 -13.7,-13.699 l 0,-3.584 0,-0.445 0,-1.184 0,-0.222 c 0,-5.27 2.993,-9.85 7.365,-12.141 -8.985,-2.761 -15.536,-11.137 -15.536,-21.016 l 0,-18.845 2.726,0 0,18.845 c 0,7.661 4.498,14.29 10.991,17.389 0.468,-4.148 3.994,-7.384 8.265,-7.384 4.271,0 7.797,3.236 8.264,7.384 C -0.806,-4.91 3.693,-11.539 3.693,-19.2 l 0,-18.845 2.726,0 0,18.845 c 0,9.879 -6.551,18.255 -15.537,21.016 1.072,0.561 2.061,1.259 2.943,2.072 C -5.064,1.591 -2.717,0 0,0 m -1.88,28.851 c 1.245,0 2.258,-1.013 2.258,-2.258 l 0,-16.55 C 0.378,8.286 1.115,7.249 1.733,6.689 2.42,6.067 3.235,5.761 3.945,5.615 3.414,3.942 1.846,2.726 0,2.726 c -2.091,0 -3.82,1.561 -4.095,3.578 1.329,1.966 2.158,4.294 2.313,6.801 l 0.029,0 0,0.852 0,0.222 0,4.991 0,0.222 0,0.693 -0.017,0 c -0.129,2.567 -0.967,4.95 -2.322,6.956 0.208,1.031 1.121,1.81 2.212,1.81 m -13.794,1.514 0.222,0 c 5.787,0 10.539,-4.503 10.942,-10.19 -2.673,0.371 -3.285,1.834 -3.285,3.09 l 0,1.363 -12.759,0 c -2.13,0 -4.086,-0.76 -5.612,-2.022 1.377,4.488 5.559,7.759 10.492,7.759 m 5.705,-31.239 c 0,-3.085 -2.509,-5.595 -5.594,-5.595 -3.085,0 -5.595,2.51 -5.595,5.595 l -0.311,0 c 1.862,0.601 3.846,0.93 5.906,0.93 2.06,0 4.044,-0.329 5.906,-0.93 l -0.312,0 z m -5.483,3.858 -0.222,0 c -6.051,0 -10.973,4.922 -10.973,10.973 l 0,0.222 0,1.184 0,0.445 c 0,3.36 2.733,6.094 6.093,6.094 l 10.177,0 c 0.556,-2.498 2.688,-4.12 5.898,-4.471 l 0,-3.252 0,-0.222 c 0,-6.051 -4.922,-10.973 -10.973,-10.973"
             inkscape:connector-curvature="0" />
        </g>
      </g>
    </g>
    <g
       transform="matrix(1.25,0,0,-1.25,423.84649,804.04915)"
       id="g3109">
      <path
         id="path3111"
         style="fill:#221f20;fill-opacity:1;fill-rule:nonzero;stroke:none"
         d="m 0,0 0,13.747 -2.726,0 0,-14.077 3.713,-15.11 -0.987,0 -23.29,0 -0.987,0 3.714,15.11 0,14.077 -2.727,0 0,-13.747 -4.464,-18.166 4.464,0 0,-22.901 2.727,0 0,22.901 17.837,0 0,-22.901 2.726,0 0,22.901 4.464,0 L 0,0 z"
         inkscape:connector-curvature="0" />
    </g>
    <g
       transform="matrix(1.25,0,0,-1.25,409.29039,757.56252)"
       id="g3113">
      <path
         id="path3115"
         style="fill:#ff4343;fill-opacity:1;fill-rule:nonzero;stroke:none"
         d="M 0,0 -2.469,2.822 -5.76,-0.937 -4.118,-2.374 -2.469,-0.49 0,-3.311 2.47,-0.49 4.119,-2.374 5.76,-0.938 2.47,2.822 0,0 z"
         inkscape:connector-curvature="0" />
    </g>
    <g
       transform="matrix(1.25,0,0,-1.25,425.54129,391.82252)"
       id="g3117">
      <path
         id="path3119"
         style="fill:#221f20;fill-opacity:1;fill-rule:nonzero;stroke:none"
         d="m 0,0 0,13.747 -2.726,0 0,-14.077 3.713,-15.11 -0.987,0 -23.289,0 -0.988,0 3.714,15.11 0,14.077 -2.726,0 0,-13.747 -4.465,-18.166 4.465,0 0,-22.901 2.726,0 0,22.901 17.837,0 0,-22.901 2.726,0 0,22.901 4.464,0 L 0,0 z"
         inkscape:connector-curvature="0" />
    </g>
    <g
       id="g3121"
       transform="matrix(1.25,0,0,-1.25,-817.74701,990.94852)">
      <g
         clip-path="url(#clipPath3125)"
         id="g3123">
        <g
           transform="translate(974.7216,504.7286)"
           id="g3129">
          <path
             id="path3131"
             style="fill:#221f20;fill-opacity:1;fill-rule:nonzero;stroke:none"
             d="m 0,0 c 0.468,-4.148 3.993,-7.384 8.264,-7.384 4.271,0 7.797,3.236 8.265,7.384 6.493,-3.099 10.991,-9.728 10.991,-17.389 l 0,-7.874 2.726,0 0,7.874 c 0,9.879 -6.551,18.255 -15.536,21.016 4.372,2.291 7.364,6.872 7.364,12.141 l 0,5.436 c 0,5.107 -2.812,9.568 -6.967,11.924 -0.467,3.424 -3.403,6.075 -6.954,6.075 -3.6,0 -6.572,-2.723 -6.975,-6.216 -4.022,-2.39 -6.724,-6.776 -6.724,-11.783 l 0,-5.436 c 0,-5.269 2.992,-9.85 7.365,-12.141 C -7.167,0.866 -13.718,-7.51 -13.718,-17.389 l 0,-19.407 2.726,0 0,19.407 C -10.992,-9.728 -6.493,-3.099 0,0 m 13.859,0.937 c 0,-3.085 -2.51,-5.595 -5.595,-5.595 -3.085,0 -5.594,2.51 -5.594,5.595 l -0.312,0 c 1.862,0.601 3.846,0.93 5.906,0.93 2.06,0 4.044,-0.329 5.906,-0.93 l -0.311,0 z m -0.194,15.619 c 1.418,0 2.572,-1.154 2.572,-2.572 0,-1.418 -1.154,-2.572 -2.572,-2.572 -1.418,0 -2.572,1.154 -2.572,2.572 0,1.418 1.154,2.572 2.572,2.572 m 0,2.317 c -1.318,0 -2.513,-0.526 -3.394,-1.377 -0.564,0.372 -1.234,0.582 -1.939,0.582 -0.704,0 -1.375,-0.21 -1.939,-0.582 -0.88,0.851 -2.076,1.377 -3.393,1.377 -1.398,0 -2.657,-0.592 -3.549,-1.536 l -2.271,0 0,1.082 c 5.335,0.272 9.186,2.178 11.096,5.378 1.907,-3.195 5.75,-5.1 11.073,-5.376 l 0,-1.084 -2.136,0 c -0.891,0.944 -2.151,1.536 -3.548,1.536 M 3,16.556 c 1.418,0 2.572,-1.154 2.572,-2.572 0,-1.418 -1.154,-2.572 -2.572,-2.572 -1.419,0 -2.573,1.154 -2.573,2.572 0,1.418 1.154,2.572 2.573,2.572 m 5.153,19.921 c 1.526,0 2.866,-0.802 3.629,-2.004 -1.09,0.28 -2.231,0.429 -3.407,0.429 l -0.222,0 c -1.273,0 -2.505,-0.178 -3.675,-0.504 0.755,1.243 2.117,2.079 3.675,2.079 m 0,-4.3 0.222,0 c 6.051,0 10.974,-4.923 10.974,-10.973 l 0,-0.057 c -8.405,0.454 -9.71,5.112 -9.71,7.948 l -2.726,0 c 0,-2.838 -1.308,-7.503 -9.733,-7.949 l 0,0.058 c 0,6.05 4.922,10.973 10.973,10.973 M -2.792,15.02 l 1.015,0 C -1.849,14.686 -1.89,14.34 -1.89,13.984 -1.89,11.288 0.304,9.095 3,9.095 c 2.695,0 4.889,2.193 4.889,4.889 0,0.384 -0.049,0.756 -0.134,1.115 0.15,0.156 0.354,0.253 0.577,0.253 0.223,0 0.428,-0.097 0.577,-0.253 -0.084,-0.359 -0.133,-0.731 -0.133,-1.115 0,-2.696 2.193,-4.889 4.889,-4.889 2.696,0 4.889,2.193 4.889,4.889 0,0.356 -0.04,0.702 -0.113,1.036 l 0.879,0 C 18.934,9.317 14.175,4.795 8.375,4.795 l -0.222,0 c -5.799,0 -10.559,4.522 -10.945,10.225"
             inkscape:connector-curvature="0" />
        </g>
      </g>
    </g>
    <g
       transform="matrix(1.25,0,0,-1.25,435.05529,396.30114)"
       id="g3133">
      <path
         id="path3135"
         style="fill:#221f20;fill-opacity:1;fill-rule:nonzero;stroke:none"
         d="m 0,0 0,-37.484 2.726,0 0,34.758 5.436,0 L 8.162,0 0,0 z"
         inkscape:connector-curvature="0" />
    </g>
    <g
       id="g3137"
       transform="matrix(1.25,0,0,-1.25,-817.74701,990.94852)">
      <g
         clip-path="url(#clipPath3141)"
         id="g3139">
        <g
           transform="translate(839.8138,509.7187)"
           id="g3145">
          <path
             id="path3147"
             style="fill:#221f20;fill-opacity:1;fill-rule:nonzero;stroke:none"
             d="m 0,0 c 4.327,2.267 7.299,6.777 7.36,11.976 2.356,0.787 4.061,3.01 4.061,5.627 l 0,0.163 c 0,1.956 -0.94,3.726 -2.481,4.82 0.646,1.777 0.411,3.768 -0.701,5.375 -0.097,0.141 -0.197,0.278 -0.3,0.418 -1.166,1.56 -2.975,2.423 -4.85,2.388 -0.559,1.802 -1.966,3.285 -3.81,3.899 l -0.411,0.133 c -1.857,0.569 -3.816,0.2 -5.312,-0.931 -1.489,1.128 -3.44,1.499 -5.283,0.94 -0.178,-0.052 -0.352,-0.109 -0.523,-0.169 -1.83,-0.634 -3.193,-2.082 -3.735,-3.871 -1.88,0.028 -3.681,-0.831 -4.847,-2.391 -0.101,-0.137 -0.201,-0.274 -0.297,-0.413 -1.114,-1.609 -1.348,-3.6 -0.701,-5.378 -1.542,-1.094 -2.482,-2.864 -2.482,-4.82 l 0,-0.163 c 0,-2.617 1.705,-4.84 4.061,-5.627 0.061,-5.199 3.033,-9.709 7.36,-11.976 -8.985,-2.761 -15.536,-11.137 -15.536,-21.016 l 0,-14.79 2.726,0 0,14.79 c 0,7.661 4.498,14.29 10.991,17.389 0.468,-4.148 3.993,-7.384 8.264,-7.384 4.271,0 7.797,3.236 8.265,7.384 6.493,-3.099 10.991,-9.728 10.991,-17.389 l 0,-9.327 2.726,0 0,9.327 C 15.536,-11.137 8.985,-2.761 0,0 m 1.437,13.522 c -0.639,1.098 -1.827,1.839 -3.19,1.839 -1.309,0 -2.456,-0.683 -3.112,-1.71 -0.493,0.202 -1.028,0.313 -1.581,0.313 -0.553,0 -1.087,-0.111 -1.58,-0.313 -0.656,1.027 -1.803,1.71 -3.112,1.71 -1.363,0 -2.551,-0.741 -3.191,-1.839 l -3.156,0 c 0.47,5.152 4.83,8.674 10.928,8.674 l 0.223,0 c 6.098,0 10.458,-3.522 10.928,-8.674 l -3.157,0 z m -23.023,4.081 0,0.163 c 0,1.329 0.807,2.501 2.057,2.984 l 1.598,0.619 -0.962,1.418 c -0.753,1.109 -0.751,2.532 0.006,3.627 0.08,0.114 0.161,0.227 0.241,0.335 0.793,1.061 2.134,1.525 3.417,1.179 l 1.636,-0.44 0.08,1.692 c 0.062,1.32 0.908,2.451 2.159,2.885 0.132,0.046 0.263,0.089 0.408,0.131 1.263,0.383 2.612,-0.036 3.437,-1.068 l 1.064,-1.329 1.064,1.328 c 0.83,1.035 2.184,1.453 3.431,1.071 l 0.38,-0.122 c 1.25,-0.416 2.131,-1.58 2.192,-2.896 l 0.079,-1.694 1.637,0.441 C 3.621,28.273 4.961,27.81 5.752,26.751 5.835,26.64 5.917,26.527 5.997,26.411 6.753,25.318 6.755,23.895 6.003,22.786 L 5.042,21.369 6.639,20.75 c 1.249,-0.484 2.056,-1.655 2.056,-2.984 l 0,-0.163 c 0,-1.157 -0.618,-2.17 -1.539,-2.735 -1.09,5.943 -6.426,10.054 -13.49,10.054 l -0.223,0 c -7.064,0 -12.4,-4.111 -13.49,-10.054 -0.921,0.565 -1.539,1.578 -1.539,2.735 m 4.099,-6.399 2.688,0 c 0.228,-1.82 1.779,-3.23 3.661,-3.23 1.699,0 3.127,1.149 3.557,2.712 0.272,0.343 0.686,0.552 1.135,0.552 0.45,0 0.864,-0.209 1.136,-0.552 0.43,-1.563 1.858,-2.712 3.557,-2.712 1.882,0 3.433,1.41 3.661,3.23 l 2.688,0 C 4.119,5.591 -0.599,1.168 -6.334,1.168 l -0.223,0 c -5.735,0 -10.453,4.423 -10.93,10.036 M -0.851,-2.69 c 0,-3.085 -2.51,-5.595 -5.595,-5.595 -3.085,0 -5.594,2.51 -5.594,5.595 l -0.311,0 c 1.862,0.601 3.846,0.93 5.905,0.93 2.06,0 4.044,-0.329 5.906,-0.93 l -0.311,0 z"
             inkscape:connector-curvature="0" />
        </g>
      </g>
    </g>
    <path
       id="path3149"
       style="fill:#221f20;fill-opacity:1;fill-rule:nonzero;stroke:none"
       d="m 248.03299,443.15602 3.4075,0 0,-46.27125 -3.4075,0 0,46.27125 z"
       inkscape:connector-curvature="0" />
    <g
       transform="matrix(1.25,0,0,-1.25,235.11159,404.30777)"
       id="g3151">
      <path
         id="path3153"
         style="fill:#221f20;fill-opacity:1;fill-rule:nonzero;stroke:none"
         d="m 0,0 -17.837,0 0,25.098 -2.726,0 0,-25.098 0,-2.726 0,-13.928 2.726,0 0,13.928 17.837,0 0,-26.99 2.726,0 0,26.99 0,2.726 0,25.098 L 0,25.098 0,0 z"
         inkscape:connector-curvature="0" />
    </g>
    <g
       id="g3155"
       transform="matrix(1.25,0,0,-1.25,-817.74701,990.94852)">
      <g
         clip-path="url(#clipPath3159)"
         id="g3157">
        <g
           transform="translate(823.6747,444.496)"
           id="g3163">
          <path
             id="path3165"
             style="fill:#ff4343;fill-opacity:1;fill-rule:nonzero;stroke:none"
             d="m 0,0 c -1.886,4.975 -6.556,8.59 -12.099,8.933 l 0,3.706 0,3.8 0,7.949 -12.107,-8.289 4.193,-5.363 5.188,1.247 0,-16.83 2.726,0 0,11.047 c 3.8,-0.294 7.071,-2.502 8.847,-5.661 -0.478,0.132 -0.978,0.208 -1.497,0.208 -3.113,0 -5.646,-2.533 -5.646,-5.646 l 2.726,0 c 0,1.61 1.31,2.92 2.92,2.92 1.61,0 2.92,-1.31 2.92,-2.92 l 2.726,0 c 0,0.773 -0.067,1.531 -0.189,2.27 3.433,0.843 5.99,3.937 5.99,7.626 l -2.726,0 C 3.972,2.566 2.272,0.529 0,0 m -18.945,13.796 -1.325,1.694 5.445,3.728 0,-2.779 0,-1.652 -4.12,-0.991 z"
             inkscape:connector-curvature="0" />
        </g>
        <g
           transform="translate(1136.73,497.6006)"
           id="g3167">
          <path
             id="path3169"
             style="fill:#221f20;fill-opacity:1;fill-rule:nonzero;stroke:none"
             d="m 0,0 c 2.232,0 4.041,1.809 4.041,4.041 l -8.082,0 C -4.041,1.809 -2.232,0 0,0"
             inkscape:connector-curvature="0" />
        </g>
        <g
           transform="translate(1149.0313,472.9915)"
           id="g3171">
          <path
             id="path3173"
             style="fill:#221f20;fill-opacity:1;fill-rule:nonzero;stroke:none"
             d="m 0,0 c -0.001,0.892 -0.1,1.761 -0.282,2.599 l 0.053,0.046 C -0.24,2.658 -0.269,2.69 -0.314,2.738 -0.464,3.389 -0.664,4.02 -0.912,4.627 L 9.683,-2 l 0,2.46 c 0,5.957 -2.385,11.364 -6.246,15.327 4.669,0.916 7.558,4.293 7.558,9.12 l 0,1.363 -1.363,0 c -1.788,0 -2.756,0.495 -2.756,3.11 l 0,7.298 c 0,10.487 -8.531,19.018 -19.018,19.018 l -0.318,0 c -10.487,0 -19.018,-8.531 -19.018,-19.018 l 0,-0.318 0,-6.98 c 0,-2.615 -0.969,-3.11 -2.756,-3.11 l -1.363,0 0,-1.363 c 0,-4.827 2.889,-8.204 7.557,-9.12 -3.86,-3.963 -6.245,-9.37 -6.245,-15.327 l 0,-2.441 10.555,6.506 c -0.23,-0.576 -0.417,-1.172 -0.558,-1.787 -0.045,-0.048 -0.074,-0.08 -0.085,-0.093 l 0.053,-0.046 c -0.183,-0.841 -0.282,-1.713 -0.283,-2.608 -9.034,-1.873 -15.937,-5.046 -16.343,-5.235 l 1.151,-2.471 c 0.136,0.063 13.767,6.336 27.494,6.336 13.711,0 27.566,-6.276 27.704,-6.339 L 16.54,-5.24 C 16.128,-5.051 9.109,-1.871 0,0 m -20.039,5.616 c 1.743,2.388 4.562,3.944 7.738,3.944 3.176,0 5.995,-1.556 7.738,-3.944 -1.922,0.866 -4.493,1.585 -7.738,1.585 -3.245,0 -5.816,-0.719 -7.738,-1.585 M -2.826,1.364 c 0.04,-0.281 0.07,-0.566 0.085,-0.854 -1.272,0.211 -2.572,0.39 -3.893,0.528 l 1.045,2.055 C -4.264,2.485 -3.353,1.815 -2.826,1.364 M -0.962,7.873 -1.847,6.458 C -2.413,7.369 -3.096,8.2 -3.873,8.933 l 4.802,5.504 C 4.051,11.481 6.188,7.495 6.786,3.027 l -7.748,4.846 z m -31.82,15.797 c 2.644,0.496 4.03,2.445 4.03,5.71 l 0,6.98 0,0.318 c 0,8.984 7.308,16.292 16.292,16.292 l 0.318,0 c 8.983,0 16.292,-7.308 16.292,-16.292 l 0,-7.298 c 0,-3.265 1.386,-5.214 4.03,-5.71 C 7.668,20.259 4.975,18.263 0.76,18.263 l 0,-0.132 c -1.978,1.466 -4.209,2.608 -6.615,3.347 4.136,2.166 7.033,6.382 7.336,11.29 l 0.029,0 0,0.271 c 0.053,0.277 0.084,0.563 0.084,0.856 l 0,2.025 -0.016,0 C 1.565,36.055 1.541,36.187 1.51,36.317 l 0,2.068 0,0.671 -0.006,0 c -0.048,2.127 -0.534,5.235 -5.368,5.235 l -10.934,0 c -6.344,0 -11.315,-4.589 -11.315,-10.449 l 0,-0.222 c 0,-5.27 2.993,-9.851 7.366,-12.142 -2.406,-0.739 -4.637,-1.881 -6.615,-3.347 l 0,0.132 c -4.215,0 -6.908,1.996 -7.42,5.407 m 29.826,8.402 -2.91,0 c -1.005,0 -1.823,0.818 -1.823,1.823 l 0,1.721 c 0,0.197 0.16,0.357 0.357,0.357 l 5.842,0 c 0.112,0 0.209,-0.055 0.274,-0.137 l 0,-1.994 0,-0.222 c 0,-0.088 -0.004,-0.175 -0.007,-0.262 -0.231,-0.742 -0.916,-1.286 -1.733,-1.286 m 1.466,6.627 -5.842,0 c -1.135,0 -2.126,-0.618 -2.661,-1.534 -0.632,0.316 -1.338,0.492 -2.073,0.492 -0.736,0 -1.442,-0.176 -2.074,-0.492 -0.535,0.916 -1.526,1.534 -2.661,1.534 l -4.766,0 c 1.546,1.767 3.957,2.866 6.769,2.866 l 10.934,0 c 2.418,0 2.633,-0.703 2.647,-2.88 -0.09,0.008 -0.181,0.014 -0.273,0.014 M -23,35.616 c 0,0.197 0.16,0.357 0.357,0.357 l 5.842,0 c 0.197,0 0.357,-0.16 0.357,-0.357 l 0,-1.721 c 0,-1.005 -0.817,-1.823 -1.823,-1.823 l -2.91,0 c -1.005,0 -1.823,0.818 -1.823,1.823 l 0,1.721 z m 1.823,-6.27 2.91,0 c 2.509,0 4.549,2.041 4.549,4.549 l 0,0.091 c 0.345,0.58 0.968,0.944 1.652,0.944 0.683,0 1.306,-0.364 1.651,-0.944 l 0,-0.091 c 0,-2.508 2.041,-4.549 4.549,-4.549 l 2.91,0 c 0.312,0 0.616,0.031 0.91,0.091 -1.648,-3.982 -5.573,-6.791 -10.144,-6.791 l -0.222,0 c -4.626,0 -8.589,2.878 -10.201,6.936 0.452,-0.151 0.934,-0.236 1.436,-0.236 m 8.876,-9.628 c 1.885,0 3.707,-0.275 5.43,-0.783 -0.603,-1.445 -2.842,-2.554 -5.43,-2.554 -2.588,0 -4.827,1.109 -5.43,2.554 1.723,0.508 3.544,0.783 5.43,0.783 M -23.299,7.994 -31.391,3.005 c 0.884,6.671 5.199,12.271 11.105,14.974 1,-2.526 4.148,-4.324 7.985,-4.324 3.837,0 6.985,1.798 7.985,4.324 1.106,-0.506 2.155,-1.114 3.137,-1.811 l -4.877,-5.591 c -1.832,1.084 -3.967,1.709 -6.245,1.709 -4.273,0 -8.043,-2.191 -10.249,-5.508 l -0.749,1.216 z m 1.523,-6.632 c 0.526,0.448 1.442,1.118 2.765,1.726 l 1.043,-2.051 c -1.322,-0.139 -2.623,-0.32 -3.894,-0.532 0.016,0.29 0.045,0.575 0.086,0.857 m 6.747,-0.089 -1.38,2.714 c 1.186,0.293 2.548,0.488 4.108,0.488 1.561,0 2.924,-0.194 4.11,-0.485 L -9.573,1.273 c -0.906,0.048 -1.816,0.074 -2.728,0.074 -0.913,0 -1.823,-0.026 -2.728,-0.074"
             inkscape:connector-curvature="0" />
        </g>
      </g>
    </g>
    <text
       id="text3185"
       x="49.328484"
       y="200.1709"
       style="font-size:15px">
      <tspan
         id="tspan3187"
         sodipodi:role="line"
         y="200.1709"
         x="49.328484 59.985985 74.635994 88.785988 100.33599"
         style="font-size:25px;font-variant:normal;font-weight:normal;font-stretch:normal;writing-mode:lr-tb;fill:#000000;fill-opacity:1;fill-rule:nonzero;stroke:none;font-family:Palatino;-inkscape-font-specification:Palatino">Touch</tspan>
    </text>
    <text
       id="text3189"
       x="197.02339"
       y="257.92578"
       style="font-size:15px">
      <tspan
         id="tspan3191"
         sodipodi:role="line"
         y="257.92578"
         x="197.02339 204.34837 211.42339 217.96089 221.38588 227.7484 232.09837 382.66089 389.02344 393.37341 404.13593 407.56091 410.58594 417.66089 420.68591 427.76093 432.1109 569.88593 576.96088 583.49835 592.53589 595.96088 603.31091 609.6734 614.02338 620.56085 627.63586"
         style="font-size:12.5px;font-variant:normal;font-weight:normal;font-stretch:normal;writing-mode:lr-tb;fill:#000000;fill-opacity:1;fill-rule:nonzero;stroke:none;font-family:Palatino;-inkscape-font-specification:Palatino">one armarm injurynew parent</tspan>
    </text>
    <text
       id="text3193"
       x="62.17849"
       y="406.07089"
       style="font-size:15px">
      <tspan
         id="tspan3195"
         sodipodi:role="line"
         y="406.07089"
         x="62.17849 75.453484 88.528496"
         style="font-size:25px;font-variant:normal;font-weight:normal;font-stretch:normal;writing-mode:lr-tb;fill:#000000;fill-opacity:1;fill-rule:nonzero;stroke:none;font-family:Palatino;-inkscape-font-specification:Palatino">See</tspan>
    </text>
    <text
       id="text3197"
       x="206.01988"
       y="464.37576"
       style="font-size:15px">
      <tspan
         id="tspan3199"
         sodipodi:role="line"
         y="464.37576"
         x="206.01988 213.36989 216.39488 219.41988 226.49489 386.03241 391.80743 398.16992 402.40741 408.7699 413.11987 419.48242 425.25739 429.49493 556.0824 563.44489 566.46985 571.7699 576.00739 580.35742 586.71991 592.49487 596.73242 603.2699 610.63239 614.05737 621.41992 625.7699 628.79492 634.78241 641.31989"
         style="font-size:12.5px;font-variant:normal;font-weight:normal;font-stretch:normal;writing-mode:lr-tb;fill:#000000;fill-opacity:1;fill-rule:nonzero;stroke:none;font-family:Palatino;-inkscape-font-specification:Palatino">blindcataractsdistracted driver</tspan>
    </text>
    <text
       id="text3201"
       x="55.778496"
       y="611.97089"
       style="font-size:15px">
      <tspan
         id="tspan3203"
         sodipodi:role="line"
         y="611.97089"
         x="55.778496 73.528481 86.603493 99.328484"
         style="font-size:25px;font-variant:normal;font-weight:normal;font-stretch:normal;writing-mode:lr-tb;fill:#000000;fill-opacity:1;fill-rule:nonzero;stroke:none;font-family:Palatino;-inkscape-font-specification:Palatino">Hear</tspan>
    </text>
    <text
       id="text3205"
       x="207.85738"
       y="670.82574"
       style="font-size:15px">
      <tspan
         id="tspan3207"
         sodipodi:role="line"
         y="670.82574"
         x="207.85738 215.21989 221.75737 228.11989 376.0824 382.61987 388.98242 393.3324 396.75739 399.78241 406.85742 410.7699 417.30737 423.0824 427.31989 430.34491 437.66992 573.79486 581.1449 587.50739 591.85742 596.09491 602.63239 609.7074 617.06989 623.60742"
         style="font-size:12.5px;font-variant:normal;font-weight:normal;font-stretch:normal;writing-mode:lr-tb;fill:#000000;fill-opacity:1;fill-rule:nonzero;stroke:none;font-family:Palatino;-inkscape-font-specification:Palatino">deafear infectionbartender</tspan>
    </text>
    <text
       id="text3209"
       x="48.80349"
       y="817.87085"
       style="font-size:15px">
      <tspan
         id="tspan3211"
         sodipodi:role="line"
         y="817.87085"
         x="48.80349 62.078484 76.778481 89.853493 102.57848"
         style="font-size:25px;font-variant:normal;font-weight:normal;font-stretch:normal;writing-mode:lr-tb;fill:#000000;fill-opacity:1;fill-rule:nonzero;stroke:none;font-family:Palatino;-inkscape-font-specification:Palatino">Speak</tspan>
    </text>
    <text
       id="text3213"
       x="189.90739"
       y="883.77576"
       style="font-size:15px">
      <tspan
         id="tspan3215"
         sodipodi:role="line"
         y="883.77576"
         x="189.90739 196.98238 204.30739 211.38237 216.38237 222.36989 228.90739 233.25737 240.60738 246.96989 385.50739 388.53241 394.8949 399.24493 405.29492 412.36993 419.73242 422.75739 426.99493 430.0199"
         style="font-size:12.5px;font-variant:normal;font-weight:normal;font-stretch:normal;writing-mode:lr-tb;fill:#000000;fill-opacity:1;fill-rule:nonzero;stroke:none;font-family:Palatino;-inkscape-font-specification:Palatino">non-verballaryngitis</tspan>
    </text>
    <g
       id="g3217"
       transform="matrix(1.25,0,0,-1.25,-817.74701,990.94852)">
      <g
         clip-path="url(#clipPath3221)"
         id="g3219">
        <g
           transform="translate(1126.0876,655.0264)"
           id="g3225">
          <path
             id="path3227"
             style="fill:#221f20;fill-opacity:1;fill-rule:nonzero;stroke:none"
             d="M 0,0 C 0.746,0 1.351,0.605 1.351,1.351 1.351,2.098 0.746,2.703 0,2.703 -0.746,2.703 -1.352,2.098 -1.352,1.351 -1.352,0.605 -0.746,0 0,0"
             inkscape:connector-curvature="0" />
        </g>
        <g
           transform="translate(1138.5488,683.5953)"
           id="g3229">
          <path
             id="path3231"
             style="fill:#ff4343;fill-opacity:1;fill-rule:nonzero;stroke:none"
             d="m 0,0 -8.082,0 c 0,-2.232 1.81,-4.041 4.041,-4.041 C -1.809,-4.041 0,-2.232 0,0"
             inkscape:connector-curvature="0" />
        </g>
        <g
           transform="translate(1140.9138,674.3582)"
           id="g3233">
          <path
             id="path3235"
             style="fill:#221f20;fill-opacity:1;fill-rule:nonzero;stroke:none"
             d="m 0,0 c 4.394,2.284 7.404,6.876 7.404,12.161 l 0,8.931 c 0,3.842 -2.087,6.12 -5.913,6.514 -0.441,2.307 -2.098,3.69 -4.543,3.69 -10.748,0 -17.164,-5.121 -17.164,-13.699 l 0,-5.436 c 0,-5.253 2.974,-9.823 7.325,-12.12 -9.022,-2.739 -15.608,-11.132 -15.608,-21.036 l 0,-0.984 0.934,-0.31 0,0 7.63,-2.534 c 0.281,-0.135 0.571,-0.25 0.866,-0.347 l 0,-10e-4 12.399,-4.056 c 0.58,-0.19 1.169,-0.28 1.749,-0.28 2.372,0 4.586,1.511 5.363,3.886 0.966,2.955 -0.651,6.145 -3.606,7.112 l -6.778,2.217 c -0.549,1.851 -1.812,3.367 -3.446,4.263 0.342,0.619 0.491,1.325 0.42,2.044 -0.099,0.993 -0.617,1.901 -1.421,2.491 -0.701,0.514 -1.564,0.75 -2.429,0.664 l 0.269,-2.713 c 0.251,0.025 0.436,-0.067 0.547,-0.149 0.107,-0.078 0.291,-0.255 0.321,-0.562 0.021,-0.211 -0.041,-0.418 -0.176,-0.582 -0.134,-0.164 -0.324,-0.266 -0.535,-0.286 l 0.004,-0.045 c -0.38,0.023 -0.765,0.025 -1.156,-0.013 -3.946,-0.392 -6.837,-3.921 -6.446,-7.867 0.058,-0.583 0.192,-1.145 0.382,-1.684 l -2.141,0.711 c 0.369,7.34 4.867,13.609 11.212,16.528 0.964,-3.53 4.189,-6.136 8.02,-6.136 3.829,0 7.054,2.605 8.019,6.133 6.624,-3.048 11.237,-9.744 11.237,-17.5 l 0,-18.846 2.726,0 0,18.846 C 15.465,-11.143 8.949,-2.784 0,0 m -2.149,-24.773 c -0.242,-0.74 -0.757,-1.341 -1.451,-1.693 -0.392,-0.198 -0.815,-0.301 -1.242,-0.312 l -0.363,6.069 1.193,-0.391 c 1.527,-0.499 2.362,-2.147 1.863,-3.673 m -9.122,1.879 c 0.871,1.063 1.402,2.325 1.568,3.656 l 1.713,-0.56 0.374,-6.243 -5.21,1.73 c 0.578,0.389 1.102,0.863 1.555,1.417 m -8.393,1.104 c -0.922,0.756 -1.495,1.826 -1.613,3.012 -0.118,1.187 0.234,2.349 0.99,3.272 0.756,0.922 1.826,1.495 3.013,1.613 0.149,0.015 0.297,0.022 0.444,0.022 2.265,0 4.212,-1.723 4.44,-4.024 0.118,-1.187 -0.234,-2.349 -0.989,-3.272 -0.756,-0.922 -1.826,-1.495 -3.013,-1.613 -0.394,-0.039 -0.784,-0.022 -1.165,0.04 l -1.348,0.448 c -0.266,0.14 -0.521,0.307 -0.759,0.502 m 16.612,50.36 c 0.579,0 1.935,0 1.935,-2.265 l 0,-1.363 1.363,0 c 2.192,0 4.432,-0.458 4.432,-3.85 l 0,-2.745 c -2.416,0.219 -3.316,1.116 -3.316,3.122 l -2.726,0 c 0,-2.348 -1.224,-3.18 -4.679,-3.18 l -11.429,0 c 0.327,6.637 5.418,10.281 14.42,10.281 m -14.438,-16.409 0,3.402 11.447,0 c 1.256,0 4.271,0 6.042,1.904 1.288,-1.384 3.231,-1.76 4.679,-1.864 l 0,-3.442 C 4.678,6.11 -0.244,1.188 -6.295,1.188 l -0.222,0 c -6.051,0 -10.973,4.922 -10.973,10.973 M -6.517,-6.902 c -2.665,0 -4.897,1.875 -5.456,4.373 1.731,0.512 3.561,0.789 5.456,0.789 1.895,0 3.725,-0.279 5.455,-0.791 -0.56,-2.498 -2.791,-4.371 -5.455,-4.371"
             inkscape:connector-curvature="0" />
        </g>
      </g>
    </g>
    <g
       transform="matrix(1.25,0,0,-1.25,611.39719,198.4829)"
       id="g3237">
      <path
         id="path3239"
         style="fill:#221f20;fill-opacity:1;fill-rule:nonzero;stroke:none"
         d="m 0,0 -17.837,0 0,11.868 -2.726,0 0,-11.868 0,-2.726 0,-26.99 2.726,0 0,26.99 17.837,0 0,-26.99 2.726,0 0,26.99 0,2.726 0,25.098 L 0,25.098 0,0 z"
         inkscape:connector-curvature="0" />
    </g>
    <g
       id="g3241"
       transform="matrix(1.25,0,0,-1.25,-817.74701,990.94852)">
      <g
         clip-path="url(#clipPath3245)"
         id="g3243">
        <g
           transform="translate(830.6432,679.5543)"
           id="g3249">
          <path
             id="path3251"
             style="fill:#221f20;fill-opacity:1;fill-rule:nonzero;stroke:none"
             d="m 0,0 c 2.232,0 4.041,1.809 4.041,4.041 l -8.082,0 C -4.041,1.809 -2.232,0 0,0"
             inkscape:connector-curvature="0" />
        </g>
      </g>
    </g>
    <g
       transform="matrix(1.25,0,0,-1.25,235.11289,184.29389)"
       id="g3253">
      <path
         id="path3255"
         style="fill:#221f20;fill-opacity:1;fill-rule:nonzero;stroke:none"
         d="m 0,0 0,13.747 -2.726,0 0,-14.077 3.713,-15.11 -0.987,0 -23.289,0 -0.988,0 3.714,15.11 0,14.077 -2.726,0 0,-13.747 -4.465,-18.166 4.465,0 0,-22.901 2.726,0 0,22.901 17.837,0 0,-22.901 2.726,0 0,22.901 4.464,0 L 0,0 z"
         inkscape:connector-curvature="0" />
    </g>
    <g
       id="g3257"
       transform="matrix(1.25,0,0,-1.25,-817.74701,990.94852)">
      <g
         clip-path="url(#clipPath3261)"
         id="g3259">
        <g
           transform="translate(850.2232,688.6396)"
           id="g3265">
          <path
             id="path3267"
             style="fill:#221f20;fill-opacity:1;fill-rule:nonzero;stroke:none"
             d="m 0,0 c -0.903,0 -1.638,0.735 -1.638,1.638 l 0,1.363 c 0,9.853 -8.016,17.868 -17.868,17.868 -9.853,0 -17.869,-8.015 -17.869,-17.868 l 0,-1.363 C -37.375,0.735 -38.109,0 -39.013,0 l -1.362,0 0,-1.363 c 0,-5.716 4.65,-10.366 10.365,-10.366 l 0.567,0 c 0.996,-1.011 2.149,-1.867 3.417,-2.532 -8.985,-2.761 -15.536,-11.137 -15.536,-21.016 l 0,-18.845 2.726,0 0,18.845 c 0,7.661 4.499,14.29 10.992,17.389 0.467,-4.148 3.993,-7.384 8.264,-7.384 4.275,0 7.805,3.242 8.266,7.397 1.961,-0.934 3.769,-2.205 5.35,-3.786 l 1.928,1.928 c -2.582,2.581 -5.692,4.44 -9.087,5.478 1.264,0.664 2.413,1.518 3.407,2.526 l 0.713,0 c 5.716,0 10.366,4.65 10.366,10.366 L 1.363,0 0,0 z m -13.985,-16.951 c 0,-3.085 -2.51,-5.595 -5.595,-5.595 -3.085,0 -5.595,2.51 -5.595,5.595 l -0.311,0 c 1.862,0.601 3.846,0.93 5.906,0.93 2.044,0 4.037,-0.321 5.927,-0.93 l -0.332,0 z m -5.484,3.858 -0.222,0 c -6.051,0 -10.973,4.922 -10.973,10.973 l 0,0.222 0,0.444 c 4.89,0.481 9.039,3.523 11.084,7.763 2.045,-4.24 6.194,-7.282 11.084,-7.763 l 0,-0.444 0,-0.222 c 0,-6.051 -4.922,-10.973 -10.973,-10.973 m 11.918,4.231 c 0.999,1.759 1.621,3.759 1.752,5.89 l 0.029,0 0,0.852 0,0.222 0,3.103 -1.363,0 c -6.112,0 -11.084,4.972 -11.084,11.084 l -2.726,0 c 0,-6.112 -4.972,-11.084 -11.084,-11.084 l -1.363,0 0,-3.103 0,-0.222 0,-0.852 0.029,0 c 0.13,-2.115 0.743,-4.101 1.729,-5.851 -3.078,0.67 -5.473,3.194 -5.936,6.343 1.698,0.597 2.919,2.218 2.919,4.118 l 0,1.363 c 0,8.349 6.793,15.142 15.143,15.142 8.349,0 15.142,-6.793 15.142,-15.142 l 0,-1.363 c 0,-1.9 1.221,-3.521 2.92,-4.118 -0.473,-3.208 -2.946,-5.771 -6.107,-6.382"
             inkscape:connector-curvature="0" />
        </g>
      </g>
    </g>
    <g
       transform="matrix(1.25,0,0,-1.25,421.97889,198.4829)"
       id="g3269">
      <path
         id="path3271"
         style="fill:#221f20;fill-opacity:1;fill-rule:nonzero;stroke:none"
         d="m 0,0 -17.837,0 0,10.76 -2.726,0 0,-10.76 0,-2.726 0,-26.99 2.726,0 0,26.99 17.837,0 0,-26.99 2.726,0 0,26.99 0,2.726 0,25.098 L 0,25.098 0,0 z"
         inkscape:connector-curvature="0" />
    </g>
    <g
       id="g3273"
       transform="matrix(1.25,0,0,-1.25,-817.74701,990.94852)">
      <g
         clip-path="url(#clipPath3277)"
         id="g3275">
        <g
           transform="translate(989.3791,674.3582)"
           id="g3281">
          <path
             id="path3283"
             style="fill:#221f20;fill-opacity:1;fill-rule:nonzero;stroke:none"
             d="m 0,0 c 4.394,2.284 7.404,6.876 7.404,12.161 l 0,5.436 c 0,6.529 -7.556,13.699 -14.438,13.699 l -4.376,0 0,-0.007 c -2.113,-0.096 -3.593,-1.268 -4.14,-3.193 -0.647,0.309 -1.45,0.751 -2.183,1.215 l -0.334,0.211 -2.149,0 0,-17.361 c 0,-5.253 2.974,-9.823 7.325,-12.12 -9.022,-2.739 -15.608,-11.132 -15.608,-21.036 l 0,-0.958 23.668,-8.53 0.924,2.564 -4.053,1.461 8.986,20.289 -0.003,0.002 c 0.37,0.795 0.622,1.654 0.724,2.56 6.494,-3.098 10.992,-9.727 10.992,-17.388 l 0,-18.846 2.726,0 0,18.846 C 15.465,-11.143 8.949,-2.784 0,0 m -14.421,24.942 1.363,0 0,1.363 c 0,2.265 1.356,2.265 1.935,2.265 l 4.089,0 c 5.011,0 11.111,-5.502 11.667,-10.281 l -11.401,0 c -3.455,0 -4.68,0.832 -4.68,3.18 l -2.726,0 c 0,-2.006 -0.899,-2.903 -3.316,-3.122 l 0,7.671 c 1.045,-0.553 2.251,-1.076 3.069,-1.076 M 4.577,15.563 c -0.478,-2.904 -2.638,-5.481 -5.762,-6.86 -0.603,1.02 -1.628,1.668 -2.793,1.668 l -5.078,0 c -1.127,0 -2.134,-0.619 -2.747,-1.594 -3.084,1.409 -5.152,3.939 -5.595,6.833 1.438,0.113 3.326,0.502 4.587,1.857 1.772,-1.904 4.787,-1.904 6.043,-1.904 l 11.345,0 z M -17.085,9.216 c 1.46,-1.526 3.372,-2.746 5.627,-3.501 l 1.545,-0.518 0.237,1.613 c 0.075,0.516 0.381,0.835 0.62,0.835 l 5.078,0 c 0.249,0 0.558,-0.35 0.622,-0.872 L -3.155,5.145 -1.592,5.64 C 0.755,6.383 2.765,7.654 4.287,9.263 3.012,4.614 -1.247,1.188 -6.295,1.188 l -0.222,0 c -5.03,0 -9.278,3.404 -10.568,8.028 m 2.304,-12.824 c 0.468,-4.148 3.993,-7.383 8.264,-7.383 0.914,0 1.792,0.154 2.616,0.428 l -3.404,-7.684 -16.403,5.912 c 1.925,3.805 5.073,6.888 8.927,8.727 M -25.75,-20.046 c 0.089,1.808 0.432,3.549 0.987,5.194 l 16.352,-5.894 -2.12,-4.785 -15.219,5.485 z M -0.922,-2.67 c 0,-3.085 -2.51,-5.595 -5.595,-5.595 -3.085,0 -5.595,2.51 -5.595,5.595 l -0.307,0 c 1.862,0.601 3.844,0.93 5.902,0.93 2.06,0 4.044,-0.328 5.906,-0.93 l -0.311,0 z"
             inkscape:connector-curvature="0" />
        </g>
      </g>
    </g>
    <text
       id="text3285"
       x="565.27338"
       y="883.77576"
       style="font-size:15px">
      <tspan
         id="tspan3287"
         sodipodi:role="line"
         y="883.77576"
         x="565.27338 572.34839 578.88586 585.24841 591.2359 597.28589 600.71088 607.07336 612.84839 618.62341 625.16089 632.2359"
         style="font-size:12.5px;font-variant:normal;font-weight:normal;font-stretch:normal;writing-mode:lr-tb;fill:#000000;fill-opacity:1;fill-rule:nonzero;stroke:none;font-family:Palatino;-inkscape-font-specification:Palatino">heavy accent</tspan>
    </text>
    <g
       transform="matrix(1.25,0,0,-1.25,589.33909,578.91539)"
       id="g3289">
      <path
         id="path3291"
         style="fill:#ff4343;fill-opacity:1;fill-rule:nonzero;stroke:none"
         d="m 0,0 1.447,-5.81 5.866,-10.884 5.429,2.399 2.39,1.825 L 11.268,-1.471 7.769,3.777 3.302,1.803 0,0 z M 3.647,-3.426 3.104,-1.248 6.779,0.376 8.024,-1.492 3.647,-3.426 z m 4.863,-9.775 -3.9,7.237 4.642,2.051 2.725,-7.756 -3.467,-1.532 z"
         inkscape:connector-curvature="0" />
    </g>
    <g
       id="g3293"
       transform="matrix(1.25,0,0,-1.25,-817.74701,990.94852)">
      <g
         clip-path="url(#clipPath3297)"
         id="g3295">
        <g
           transform="translate(1129.0488,331.3229)"
           id="g3301">
          <path
             id="path3303"
             style="fill:#222020;fill-opacity:1;fill-rule:nonzero;stroke:none"
             d="m 0,0 -1.28,2.437 -14.038,-7.24 c 0.796,6.63 4.996,12.226 10.795,14.994 0.466,-4.124 3.971,-7.34 8.218,-7.34 4.247,0 7.753,3.218 8.218,7.343 6.457,-3.082 10.93,-9.674 10.93,-17.292 l 0,-1.851 -13.757,-6.364 1.16,-2.558 15.308,7.202 0,3.571 c 0,9.953 -6.689,18.368 -15.806,21 4.54,2.212 7.676,6.874 7.676,12.254 l 0,3.599 0.008,0 0,11.405 L 13.6,44.99 11.124,42.515 8.647,44.99 6.171,42.515 3.695,44.99 1.218,42.515 l -2.476,2.475 -2.476,-2.475 -2.477,2.475 -3.832,-3.83 0,-9.598 0,-2.711 0,-2.695 c 0,-5.382 3.138,-10.044 7.68,-12.255 -9.115,-2.634 -15.802,-11.048 -15.802,-20.999 l 0,-2.224 L 0,0 z m 9.568,11.125 -0.31,0 c 0,-3.067 -2.496,-5.563 -5.563,-5.563 -3.068,0 -5.564,2.496 -5.564,5.563 l -0.308,0 c 1.851,0.599 3.823,0.926 5.872,0.926 2.048,0 4.021,-0.327 5.873,-0.926 m -13.302,27.557 2.476,2.475 2.476,-2.475 2.477,2.475 2.476,-2.475 2.476,2.475 2.477,-2.475 2.476,2.475 1.121,-1.12 0,-8.696 -0.008,0 0,-5.185 c 0,-1.066 -0.156,-2.097 -0.443,-3.072 -3.683,0.471 -5.416,2.354 -5.416,3.683 l 0,8.286 -11.027,0 c -3.105,0 -4.953,1.815 -5.14,5.002 l 1.102,1.102 2.477,-2.475 z m -1.242,-19.286 5.413,0 0,2.711 -6.986,0 c -0.503,1.253 -0.783,2.619 -0.783,4.049 l 0,2.695 0,2.711 0,2.497 c 1.324,-1.104 3.082,-1.717 5.159,-1.717 l 8.316,0 0,-5.575 c 0,-2.636 2.438,-5.403 7.001,-6.243 -1.913,-3.162 -5.385,-5.28 -9.342,-5.28 l -0.222,0 c -3.465,0 -6.555,1.626 -8.556,4.152"
             inkscape:connector-curvature="0" />
        </g>
      </g>
    </g>
    <g
       transform="matrix(1.25,0,0,-1.25,609.26839,609.77065)"
       id="g3305">
      <path
         id="path3307"
         style="fill:#222020;fill-opacity:1;fill-rule:nonzero;stroke:none"
         d="m 0,0 -17.738,0 0,18.182 -2.711,0 0,-18.182 0,-2.711 0,-26.839 2.711,0 0,26.839 17.738,0 0,-26.839 2.711,0 0,26.839 0,2.711 0,7.683 L 0,7.683 0,0 z"
         inkscape:connector-curvature="0" />
    </g>
    <g
       id="g3309"
       transform="matrix(1.25,0,0,-1.25,-817.74701,990.94852)">
      <g
         clip-path="url(#clipPath3313)"
         id="g3311">
        <g
           transform="translate(1165.2673,366.5273)"
           id="g3317">
          <path
             id="path3319"
             style="fill:#222020;fill-opacity:1;fill-rule:nonzero;stroke:none"
             d="m 0,0 -1.917,1.917 c -3.065,-3.065 -3.065,-8.053 0,-11.119 L 0,-7.285 C -2.009,-5.276 -2.009,-2.008 0,0"
             inkscape:connector-curvature="0" />
        </g>
        <g
           transform="translate(1161.4519,370.3425)"
           id="g3321">
          <path
             id="path3323"
             style="fill:#222020;fill-opacity:1;fill-rule:nonzero;stroke:none"
             d="m 0,0 -1.917,1.917 c -5.169,-5.169 -5.169,-13.58 0,-18.749 L 0,-14.915 C -4.112,-10.803 -4.112,-4.112 0,0"
             inkscape:connector-curvature="0" />
        </g>
        <g
           transform="translate(1157.8418,373.9527)"
           id="g3325">
          <path
             id="path3327"
             style="fill:#222020;fill-opacity:1;fill-rule:nonzero;stroke:none"
             d="m 0,0 -1.917,1.917 c -3.468,-3.468 -5.378,-8.08 -5.378,-12.985 0,-4.905 1.91,-9.516 5.378,-12.984 L 0,-22.135 c -2.956,2.956 -4.584,6.886 -4.584,11.067 0,4.181 1.628,8.112 4.584,11.068"
             inkscape:connector-curvature="0" />
        </g>
        <g
           transform="translate(1102.0273,368.4442)"
           id="g3329">
          <path
             id="path3331"
             style="fill:#222020;fill-opacity:1;fill-rule:nonzero;stroke:none"
             d="m 0,0 -1.917,-1.917 c 0.973,-0.973 1.509,-2.266 1.509,-3.642 0,-1.376 -0.536,-2.67 -1.509,-3.642 L 0,-11.118 c 1.485,1.485 2.303,3.459 2.303,5.559 0,2.1 -0.818,4.074 -2.303,5.559"
             inkscape:connector-curvature="0" />
        </g>
        <g
           transform="translate(1105.8425,372.2595)"
           id="g3333">
          <path
             id="path3335"
             style="fill:#222020;fill-opacity:1;fill-rule:nonzero;stroke:none"
             d="m 0,0 -1.917,-1.917 c 4.112,-4.112 4.112,-10.803 0,-14.915 L 0,-18.749 C 5.169,-13.58 5.169,-5.169 0,0"
             inkscape:connector-curvature="0" />
        </g>
        <g
           transform="translate(1109.4526,375.8696)"
           id="g3337">
          <path
             id="path3339"
             style="fill:#222020;fill-opacity:1;fill-rule:nonzero;stroke:none"
             d="m 0,0 -1.917,-1.917 c 6.103,-6.103 6.103,-16.033 0,-22.135 L 0,-25.969 C 7.16,-18.81 7.16,-7.16 0,0"
             inkscape:connector-curvature="0" />
        </g>
      </g>
    </g>
    <g
       id="g3341"
       transform="matrix(1.25,0,0,-1.25,-817.74701,990.94852)">
      <g
         clip-path="url(#clipPath3345)"
         id="g3343">
        <g
           transform="translate(835.9355,178.554)"
           id="g3349">
          <path
             id="path3351"
             style="fill:#221f20;fill-opacity:1;fill-rule:nonzero;stroke:none"
             d="m 0,0 c 4.394,2.284 7.404,6.876 7.404,12.161 l 0,3.618 0.008,0 0,11.469 -3.853,3.852 -2.491,-2.489 -2.49,2.489 -2.49,-2.489 -2.49,2.489 -2.49,-2.489 -2.491,2.489 -2.49,-2.489 -2.49,2.489 -3.853,-3.852 0,-9.651 0,-2.726 0,-2.71 c 0,-5.253 2.974,-9.823 7.325,-12.12 -9.022,-2.739 -15.608,-11.132 -15.608,-21.036 l 0,-18.846 2.726,0 0,18.846 c 0,7.661 4.498,14.29 10.991,17.388 0.468,-4.148 3.994,-7.384 8.265,-7.384 4.271,0 7.797,3.236 8.264,7.384 6.493,-3.098 10.992,-9.727 10.992,-17.388 l 0,-18.846 2.726,0 0,18.846 C 15.465,-11.143 8.949,-2.784 0,0 m -16.363,27.246 2.49,-2.49 2.49,2.49 2.491,-2.49 2.49,2.49 2.49,-2.49 2.49,2.49 2.49,-2.49 2.491,2.49 1.127,-1.127 0,-4.566 C 3.779,22.131 2.707,22.47 1.555,22.47 l -15.922,0 c -1.149,0 -2.218,-0.338 -3.123,-0.912 l 0,4.561 1.127,1.127 z m -1.127,-15.085 0,2.71 0,1.75 c 0,1.722 1.401,3.123 3.123,3.123 l 15.922,0 c 1.722,0 3.123,-1.401 3.123,-3.123 l 0,-4.46 C 4.678,6.11 -0.244,1.188 -6.295,1.188 l -0.222,0 c -6.051,0 -10.973,4.922 -10.973,10.973 M -0.923,-2.67 c 0,-3.085 -2.509,-5.595 -5.594,-5.595 -3.085,0 -5.595,2.51 -5.595,5.595 l -0.311,0 c 1.862,0.602 3.846,0.93 5.906,0.93 2.06,0 4.044,-0.328 5.906,-0.93 l -0.312,0 z"
             inkscape:connector-curvature="0" />
        </g>
      </g>
    </g>
    <g
       transform="matrix(1.25,0,0,-1.25,230.17419,818.23827)"
       id="g3353">
      <path
         id="path3355"
         style="fill:#221f20;fill-opacity:1;fill-rule:nonzero;stroke:none"
         d="m 0,0 -17.837,0 0,25.098 -2.726,0 0,-25.098 0,-2.726 0,-26.99 2.726,0 0,26.99 17.837,0 0,-26.99 2.726,0 0,26.99 0,2.726 0,25.098 L 0,25.098 0,0 z"
         inkscape:connector-curvature="0" />
    </g>
  </g>
</svg>
