<?xml version="1.0" encoding="UTF-8" standalone="no"?>
<svg
   xmlns:dc="http://purl.org/dc/elements/1.1/"
   xmlns:cc="http://creativecommons.org/ns#"
   xmlns:rdf="http://www.w3.org/1999/02/22-rdf-syntax-ns#"
   xmlns:svg="http://www.w3.org/2000/svg"
   xmlns="http://www.w3.org/2000/svg"
   xmlns:sodipodi="http://sodipodi.sourceforge.net/DTD/sodipodi-0.dtd"
   xmlns:inkscape="http://www.inkscape.org/namespaces/inkscape"
   preserveAspectRatio="xMinYMin meet"
   width="100%"
   height="100%"
   viewBox="0 0 592.941 444.706"
   version="1.1"
   id="svg2"
   inkscape:version="0.48.4 r9939"
   sodipodi:docname="template.svg">
  <metadata
     id="metadata199">
    <rdf:RDF>
      <cc:Work
         rdf:about="">
        <dc:format>image/svg+xml</dc:format>
        <dc:type
           rdf:resource="http://purl.org/dc/dcmitype/StillImage" />
        <dc:title></dc:title>
      </cc:Work>
    </rdf:RDF>
  </metadata>
  <defs
     id="defs197">
    <clipPath
       id="ID000009">
      <rect
         x="291.19101"
         y="198.147"
         width="239.912"
         height="35.706001"
         id="rect171" />
    </clipPath>
    <clipPath
       id="ID000001-0">
      <rect
         x="77.082001"
         y="33.353001"
         width="459.52899"
         height="356.29401"
         id="rect11-0" />
    </clipPath>
  </defs>
  <sodipodi:namedview
     pagecolor="#ffffff"
     bordercolor="#666666"
     borderopacity="1"
     objecttolerance="10"
     gridtolerance="10"
     guidetolerance="10"
     inkscape:pageopacity="0"
     inkscape:pageshadow="2"
     inkscape:window-width="1615"
     inkscape:window-height="1026"
     id="namedview195"
     showgrid="false"
     inkscape:zoom="1.5010115"
     inkscape:cx="176.65907"
     inkscape:cy="201.79043"
     inkscape:window-x="1345"
     inkscape:window-y="24"
     inkscape:window-maximized="1"
     inkscape:current-layer="ID000000" />
  <desc
     id="desc4">Matlab Figure Converted by PLOT2SVG written by Juerg Schwizer</desc>
  <g
     id="topgroup">
    <rect
       x="0"
       y="0"
       width="592.941"
       height="444.706"
       fill="#ffffff"
       stroke="none"
       id="rect7" />
    <g
       id="ID000000">
      <clipPath
         id="ID000001">
        <rect
           x="77.082"
           y="33.353"
           width="459.529"
           height="356.294"
           id="rect11" />
      </clipPath>
      <polygon
         fill="#ffffff"
         fill-opacity="1.00"
         stroke="none"
         stroke-width="4.0pt"
         stroke-opacity="1.00"
         stroke-dasharray="none"
         points="77.082,389.647 536.612,389.647 536.612,33.353 77.082,33.353 "
         id="polygon13" />
      <polygon
         fill="#ffffff"
         fill-opacity="1.00"
         stroke="none"
         stroke-width="4.0pt"
         stroke-opacity="1.00"
         stroke-dasharray="none"
         points="77.082,33.353 536.612,33.353 536.612,33.353 77.082,33.353 "
         id="polygon15" />
      <polygon
         fill="#ffffff"
         fill-opacity="1.00"
         stroke="none"
         stroke-width="4.0pt"
         stroke-opacity="1.00"
         stroke-dasharray="none"
         points="77.082,389.647 77.082,389.647 77.082,33.353 77.082,33.353 "
         id="polygon17" />
      <g
         id="g19">
        <g
           id="ID000003">
          <g
             transform="translate(305.475,438.832)"
             id="g25">
            <g
               transform="rotate(-0.0)"
               id="g27">
              <text
                 x="0"
                 y="0"
                 font-size="17pt"
                 id="text29"
                 style="font-size:21.25px;text-anchor:middle;fill:#000000;font-family:Helvetica">x [Location error in m]</text>
            </g>
          </g>
        </g>
        <g
           id="ID000004"
           transform="translate(-7.9999999,0)">
          <g
             transform="translate(36.518,212.755)"
             id="g32">
            <g
               transform="matrix(0,-1,1,0,0,0)"
               id="g34">
              <text
                 x="0"
                 y="0"
                 font-size="17pt"
                 id="text36"
                 style="font-size:21.25px;text-anchor:middle;fill:#000000;font-family:Helvetica">
                <tspan
                   id="tspan38">Pr(</tspan>
                <tspan
                   id="tspan40">ε</tspan>
                <tspan
                   id="tspan42">&lt;x)</tspan>
              </text>
            </g>
          </g>
        </g>
        <g
           id="ID000005" />
        <g
           id="ID000006" />
        <g
           id="ID000007" />
        <g
           transform="translate(1.1585211,1.6580194)"
           id="ID000002"
           clip-path="url(#ID000001-0)">
          <polygon
             points="105.086,124.921 109.676,113.911 114.267,105.36 118.858,97.023 123.448,91.892 128.039,87.331 132.63,83.804 137.221,80.562 141.811,77.818 146.402,74.576 150.993,72.118 155.583,69.588 160.174,68.092 164.765,65.669 169.355,64.351 173.946,63.389 178.537,61.856 183.128,59.754 187.718,58.115 192.309,56.94 196.9,55.799 201.49,54.944 206.081,54.054 210.672,53.305 215.263,52.272 219.853,51.346 224.444,50.419 229.035,49.564 233.625,48.709 238.216,48.21 242.807,47.355 247.397,46.75 251.988,46.251 256.579,45.645 261.17,45.111 265.76,44.683 270.351,43.935 274.942,43.507 279.532,43.187 284.123,42.937 288.714,42.438 293.304,41.94 297.895,41.334 302.486,41.049 307.077,40.799 311.667,40.514 316.258,40.158 320.849,39.873 325.439,39.659 330.03,39.374 334.621,39.196 339.212,38.876 343.802,38.804 348.393,38.448 352.984,38.27 357.574,38.02 362.165,37.914 366.756,37.593 371.346,37.308 375.937,37.13 380.528,36.773 385.119,36.631 389.709,36.239 394.3,36.025 398.891,35.883 403.481,35.776 408.072,35.598 412.663,35.313 417.253,35.241 421.844,34.992 426.435,34.956 431.026,34.849 435.616,34.778 440.207,34.671 444.798,34.564 449.388,34.315 453.979,34.208 458.57,33.994 463.161,33.959 467.751,33.923 472.342,33.852 476.933,33.78 481.523,33.745 486.114,33.602 490.705,33.531 495.295,33.495 499.886,33.495 504.477,33.424 509.068,33.424 513.658,33.424 518.249,33.353 522.84,33.353 527.43,33.353 532.021,33.353 532.021,33.353 527.43,33.887 522.84,33.994 518.249,33.994 513.658,34.101 509.068,34.137 504.477,34.208 499.886,34.208 495.295,34.208 490.705,34.493 486.114,34.6 481.523,34.778 476.933,34.956 472.342,35.063 467.751,35.099 463.161,35.313 458.57,35.419 453.979,35.633 449.388,35.847 444.798,36.346 440.207,36.453 435.616,36.631 431.026,36.809 426.435,37.058 421.844,37.237 417.253,37.522 412.663,37.593 408.072,37.807 403.481,38.056 398.891,38.341 394.3,38.519 389.709,38.947 385.119,39.089 380.528,39.374 375.937,39.552 371.346,39.909 366.756,40.479 362.165,40.799 357.574,41.191 352.984,41.512 348.393,41.833 343.802,42.011 339.212,42.367 334.621,42.617 330.03,42.902 325.439,43.258 320.849,43.757 316.258,44.077 311.667,44.434 307.077,44.826 302.486,45.182 297.895,45.788 293.304,46.251 288.714,46.536 284.123,46.963 279.532,47.533 274.942,48.139 270.351,48.745 265.76,49.137 261.17,49.6 256.579,49.885 251.988,50.455 247.397,51.025 242.807,51.524 238.216,52.308 233.625,53.092 229.035,54.125 224.444,55.051 219.853,56.334 215.263,57.759 210.672,59.006 206.081,60.324 201.49,61.358 196.9,62.498 192.309,63.994 187.718,65.277 183.128,67.023 178.537,68.804 173.946,69.909 169.355,71.37 164.765,73.008 160.174,75.039 155.583,77.391 150.993,79.885 146.402,82.486 141.811,85.728 137.221,88.436 132.63,92.462 128.039,96.31 123.448,100.835 118.858,107.141 114.267,114.588 109.676,123.78 105.086,135.431 100.495,149.077 95.904,166.892 91.314,191.833 86.723,217.486 82.132,263.768 77.541,339.588 77.541,332.497 82.132,253.08 86.723,206.939 91.314,179.861 95.904,156.025 100.495,138.175 "
             id="polygon22"
             style="fill:#3c3f00;fill-opacity:0.1;stroke:#315700;stroke-width:3;stroke-miterlimit:4;stroke-opacity:0.9;stroke-dasharray:none" />
        </g>
        <g
           id="ID000008"
           transform="translate(-34.841475,1.6580194)">
          <clipPath
             id="clipPath3098">
            <rect
               x="291.19101"
               y="198.147"
               width="239.912"
               height="35.706001"
               id="rect3100" />
          </clipPath>
          <g
             id="g173">
            <g
               id="ID000010"
               transform="translate(132,0)">
              <g
                 transform="translate(340.336,225.199)"
                 id="g176">
                <g
                   id="g178">
                  <text
                     x="0"
                     y="0"
                     font-size="17pt"
                     id="text180"
                     style="font-size:21.25px;text-anchor:start;fill:#000000;font-family:Helvetica">HOG3D</text>
                </g>
              </g>
            </g>
            <g
               id="ID000011"
               clip-path="url(#ID000009)"
               style="color:#000000;fill:#3c3f00;fill-opacity:0.1;fill-rule:nonzero;stroke:#315700;stroke-width:3;stroke-linecap:butt;stroke-linejoin:miter;stroke-miterlimit:4;stroke-opacity:0.9;stroke-dasharray:none;stroke-dashoffset:0;marker:none;visibility:visible;display:inline;overflow:visible;enable-background:accumulate"
               transform="translate(132,0)">
              <polygon
                 points="336.191,204.03 336.191,227.97 298.691,227.97 298.691,204.03 "
                 id="polygon189"
                 style="color:#000000;fill:#3c3f00;fill-opacity:0.1;fill-rule:nonzero;stroke:#315700;stroke-width:3;stroke-linecap:butt;stroke-linejoin:miter;stroke-miterlimit:4;stroke-opacity:0.9;stroke-dasharray:none;stroke-dashoffset:0;marker:none;visibility:visible;display:inline;overflow:visible;enable-background:accumulate" />
            </g>
          </g>
        </g>
      </g>
      <g
         id="g47">
        <polyline
           fill="none"
           stroke="#000000"
           stroke-width="4.0pt"
           stroke-dasharray="none"
           points="77.541,389.647 77.541,385.052 "
           id="polyline49" />
        <polyline
           fill="none"
           stroke="#000000"
           stroke-width="4.0pt"
           stroke-dasharray="none"
           points="169.355,389.647 169.355,385.052 "
           id="polyline51" />
        <polyline
           fill="none"
           stroke="#000000"
           stroke-width="4.0pt"
           stroke-dasharray="none"
           points="261.170,389.647 261.170,385.052 "
           id="polyline53" />
        <polyline
           fill="none"
           stroke="#000000"
           stroke-width="4.0pt"
           stroke-dasharray="none"
           points="352.984,389.647 352.984,385.052 "
           id="polyline55" />
        <polyline
           fill="none"
           stroke="#000000"
           stroke-width="4.0pt"
           stroke-dasharray="none"
           points="444.798,389.647 444.798,385.052 "
           id="polyline57" />
        <polyline
           fill="none"
           stroke="#000000"
           stroke-width="4.0pt"
           stroke-dasharray="none"
           points="77.082,389.647 536.612,389.647 "
           id="polyline59" />
        <polyline
           fill="none"
           stroke="#000000"
           stroke-width="4.0pt"
           stroke-dasharray="none"
           points="77.541,33.353 77.541,37.948 "
           id="polyline61" />
        <polyline
           fill="none"
           stroke="#000000"
           stroke-width="4.0pt"
           stroke-dasharray="none"
           points="169.355,33.353 169.355,37.948 "
           id="polyline63" />
        <polyline
           fill="none"
           stroke="#000000"
           stroke-width="4.0pt"
           stroke-dasharray="none"
           points="261.170,33.353 261.170,37.948 "
           id="polyline65" />
        <polyline
           fill="none"
           stroke="#000000"
           stroke-width="4.0pt"
           stroke-dasharray="none"
           points="352.984,33.353 352.984,37.948 "
           id="polyline67" />
        <polyline
           fill="none"
           stroke="#000000"
           stroke-width="4.0pt"
           stroke-dasharray="none"
           points="444.798,33.353 444.798,37.948 "
           id="polyline69" />
        <polyline
           fill="none"
           stroke="#000000"
           stroke-width="4.0pt"
           stroke-dasharray="none"
           points="77.082,33.353 536.612,33.353 "
           id="polyline71" />
        <g
           transform="translate(77.541,416.764)"
           id="g73">
          <g
             transform="rotate(-0.0)"
             id="g75">
            <text
               x="0.000"
               y="0.000"
               font-family="Helvetica"
               text-anchor="middle"
               font-size="17pt"
               fill="#000000"
               id="text77">0</text>
          </g>
        </g>
        <g
           transform="translate(169.355,416.764)"
           id="g79">
          <g
             transform="rotate(-0.0)"
             id="g81">
            <text
               x="0"
               y="0"
               font-size="17pt"
               id="text83"
               style="font-size:21.25px;text-anchor:middle;fill:#000000;font-family:Helvetica">10</text>
          </g>
        </g>
        <g
           transform="translate(261.170,416.764)"
           id="g85">
          <g
             transform="rotate(-0.0)"
             id="g87">
            <text
               x="0"
               y="0"
               font-size="17pt"
               id="text89"
               style="font-size:21.25px;text-anchor:middle;fill:#000000;font-family:Helvetica">20</text>
          </g>
        </g>
        <g
           transform="translate(352.984,416.764)"
           id="g91">
          <g
             transform="rotate(-0.0)"
             id="g93">
            <text
               x="0"
               y="0"
               font-size="17pt"
               id="text95"
               style="font-size:21.25px;text-anchor:middle;fill:#000000;font-family:Helvetica">30</text>
          </g>
        </g>
        <g
           transform="translate(444.798,416.764)"
           id="g97">
          <g
             transform="rotate(-0.0)"
             id="g99">
            <text
               x="0"
               y="0"
               font-size="17pt"
               id="text101"
               style="font-size:21.25px;text-anchor:middle;fill:#000000;font-family:Helvetica">40</text>
          </g>
        </g>
        <g
           transform="translate(536.612,416.764)"
           id="g103">
          <g
             transform="rotate(-0.0)"
             id="g105">
            <text
               x="0"
               y="0"
               font-size="17pt"
               id="text107"
               style="font-size:21.25px;text-anchor:middle;fill:#000000;font-family:Helvetica">50</text>
          </g>
        </g>
        <polyline
           fill="none"
           stroke="#000000"
           stroke-width="4.0pt"
           stroke-dasharray="none"
           points="77.082,318.388 81.678,318.388 "
           id="polyline109" />
        <polyline
           fill="none"
           stroke="#000000"
           stroke-width="4.0pt"
           stroke-dasharray="none"
           points="77.082,247.129 81.678,247.129 "
           id="polyline111" />
        <polyline
           fill="none"
           stroke="#000000"
           stroke-width="4.0pt"
           stroke-dasharray="none"
           points="77.082,175.871 81.678,175.871 "
           id="polyline113" />
        <polyline
           fill="none"
           stroke="#000000"
           stroke-width="4.0pt"
           stroke-dasharray="none"
           points="77.082,104.612 81.678,104.612 "
           id="polyline115" />
        <polyline
           fill="none"
           stroke="#000000"
           stroke-width="4.0pt"
           stroke-dasharray="none"
           points="77.082,389.647 77.082,33.353 "
           id="polyline117" />
        <polyline
           fill="none"
           stroke="#000000"
           stroke-width="4.0pt"
           stroke-dasharray="none"
           points="536.612,318.388 532.016,318.388 "
           id="polyline119" />
        <polyline
           fill="none"
           stroke="#000000"
           stroke-width="4.0pt"
           stroke-dasharray="none"
           points="536.612,247.129 532.016,247.129 "
           id="polyline121" />
        <polyline
           fill="none"
           stroke="#000000"
           stroke-width="4.0pt"
           stroke-dasharray="none"
           points="536.612,175.871 532.016,175.871 "
           id="polyline123" />
        <polyline
           fill="none"
           stroke="#000000"
           stroke-width="4.0pt"
           stroke-dasharray="none"
           points="536.612,104.612 532.016,104.612 "
           id="polyline125" />
        <polyline
           fill="none"
           stroke="#000000"
           stroke-width="4.0pt"
           stroke-dasharray="none"
           points="536.612,389.647 536.612,33.353 "
           id="polyline127" />
        <g
           transform="translate(67.892,397.271)"
           id="g129">
          <g
             transform="rotate(-0.0)"
             id="g131">
            <text
               x="0.000"
               y="0.000"
               font-family="Helvetica"
               text-anchor="end"
               font-size="17pt"
               fill="#000000"
               id="text133">0</text>
          </g>
        </g>
        <g
           transform="translate(67.892,326.012)"
           id="g135">
          <g
             transform="rotate(-0.0)"
             id="g137">
            <text
               x="0.000"
               y="0.000"
               font-family="Helvetica"
               text-anchor="end"
               font-size="17pt"
               fill="#000000"
               id="text139">0.2</text>
          </g>
        </g>
        <g
           transform="translate(67.892,254.753)"
           id="g141">
          <g
             transform="rotate(-0.0)"
             id="g143">
            <text
               x="0.000"
               y="0.000"
               font-family="Helvetica"
               text-anchor="end"
               font-size="17pt"
               fill="#000000"
               id="text145">0.4</text>
          </g>
        </g>
        <g
           transform="translate(67.892,183.494)"
           id="g147">
          <g
             transform="rotate(-0.0)"
             id="g149">
            <text
               x="0.000"
               y="0.000"
               font-family="Helvetica"
               text-anchor="end"
               font-size="17pt"
               fill="#000000"
               id="text151">0.6</text>
          </g>
        </g>
        <g
           transform="translate(67.892,112.235)"
           id="g153">
          <g
             transform="rotate(-0.0)"
             id="g155">
            <text
               x="0.000"
               y="0.000"
               font-family="Helvetica"
               text-anchor="end"
               font-size="17pt"
               fill="#000000"
               id="text157">0.8</text>
          </g>
        </g>
        <g
           transform="translate(67.892,40.976)"
           id="g159">
          <g
             transform="rotate(-0.0)"
             id="g161">
            <text
               x="0.000"
               y="0.000"
               font-family="Helvetica"
               text-anchor="end"
               font-size="17pt"
               fill="#000000"
               id="text163">1</text>
          </g>
        </g>
        <polyline
           fill="none"
           stroke="#000000"
           stroke-width="4.0pt"
           stroke-dasharray="none"
           points="77.082,389.647 77.082,386.084 "
           id="polyline165" />
        <polyline
           fill="none"
           stroke="#000000"
           stroke-width="4.0pt"
           stroke-dasharray="none"
           points="77.082,389.647 77.082,389.647 "
           id="polyline167" />
      </g>
    </g>
  </g>
</svg>
