<?xml version="1.0" encoding="UTF-8" standalone="no"?>
<svg
   xmlns:dc="http://purl.org/dc/elements/1.1/"
   xmlns:cc="http://creativecommons.org/ns#"
   xmlns:rdf="http://www.w3.org/1999/02/22-rdf-syntax-ns#"
   xmlns:svg="http://www.w3.org/2000/svg"
   xmlns="http://www.w3.org/2000/svg"
   xmlns:sodipodi="http://sodipodi.sourceforge.net/DTD/sodipodi-0.dtd"
   xmlns:inkscape="http://www.inkscape.org/namespaces/inkscape"
   preserveAspectRatio="xMinYMin meet"
   width="100%"
   height="100%"
   viewBox="0 0 592.941 444.706"
   version="1.1"
   id="svg2"
   inkscape:version="0.48.4 r9939"
   sodipodi:docname="template.svg">
  <metadata
     id="metadata199">
    <rdf:RDF>
      <cc:Work
         rdf:about="">
        <dc:format>image/svg+xml</dc:format>
        <dc:type
           rdf:resource="http://purl.org/dc/dcmitype/StillImage" />
        <dc:title></dc:title>
      </cc:Work>
    </rdf:RDF>
  </metadata>
  <defs
     id="defs197" />
  <sodipodi:namedview
     pagecolor="#ffffff"
     bordercolor="#666666"
     borderopacity="1"
     objecttolerance="10"
     gridtolerance="10"
     guidetolerance="10"
     inkscape:pageopacity="0"
     inkscape:pageshadow="2"
     inkscape:window-width="1615"
     inkscape:window-height="1026"
     id="namedview195"
     showgrid="false"
     inkscape:zoom="1.5010115"
     inkscape:cx="242.79811"
     inkscape:cy="201.79043"
     inkscape:window-x="1345"
     inkscape:window-y="24"
     inkscape:window-maximized="1"
     inkscape:current-layer="topgroup" />
  <desc
     id="desc4">Matlab Figure Converted by PLOT2SVG written by Juerg Schwizer</desc>
  <g
     id="topgroup">
    <rect
       x="0"
       y="0"
       width="592.941"
       height="444.706"
       fill="#ffffff"
       stroke="none"
       id="rect7" />
    <g
       id="ID000000">
      <clipPath
         id="ID000001">
        <rect
           x="77.082"
           y="33.353"
           width="459.529"
           height="356.294"
           id="rect11" />
      </clipPath>
      <polygon
         fill="#ffffff"
         fill-opacity="1.00"
         stroke="none"
         stroke-width="4.0pt"
         stroke-opacity="1.00"
         stroke-dasharray="none"
         points="77.082,389.647 536.612,389.647 536.612,33.353 77.082,33.353 "
         id="polygon13" />
      <polygon
         fill="#ffffff"
         fill-opacity="1.00"
         stroke="none"
         stroke-width="4.0pt"
         stroke-opacity="1.00"
         stroke-dasharray="none"
         points="77.082,33.353 536.612,33.353 536.612,33.353 77.082,33.353 "
         id="polygon15" />
      <polygon
         fill="#ffffff"
         fill-opacity="1.00"
         stroke="none"
         stroke-width="4.0pt"
         stroke-opacity="1.00"
         stroke-dasharray="none"
         points="77.082,389.647 77.082,389.647 77.082,33.353 77.082,33.353 "
         id="polygon17" />
      <g
         id="g19">
        <g
           id="ID000002"
           clip-path="url(#ID000001)" />
        <g
           id="ID000003">
          <g
             transform="translate(305.475,438.832)"
             id="g25">
            <g
               transform="rotate(-0.0)"
               id="g27">
              <text
                 x="0"
                 y="0"
                 font-size="17pt"
                 id="text29"
                 style="font-size:21.25px;text-anchor:middle;fill:#000000;font-family:Helvetica">x [Location error in m]</text>
            </g>
          </g>
        </g>
        <g
           id="ID000004"
           transform="translate(-7.9999999,0)">
          <g
             transform="translate(36.518,212.755)"
             id="g32">
            <g
               transform="matrix(0,-1,1,0,0,0)"
               id="g34">
              <text
                 x="0"
                 y="0"
                 font-size="17pt"
                 id="text36"
                 style="font-size:21.25px;text-anchor:middle;fill:#000000;font-family:Helvetica">
                <tspan
                   id="tspan38">Pr(</tspan>
                <tspan
                   id="tspan40">ε</tspan>
                <tspan
                   id="tspan42">&lt;x)</tspan>
              </text>
            </g>
          </g>
        </g>
        <g
           id="ID000005" />
        <g
           id="ID000006" />
        <g
           id="ID000007" />
      </g>
      <g
         id="g47">
        <polyline
           fill="none"
           stroke="#000000"
           stroke-width="4.0pt"
           stroke-dasharray="none"
           points="77.541,389.647 77.541,385.052 "
           id="polyline49" />
        <polyline
           fill="none"
           stroke="#000000"
           stroke-width="4.0pt"
           stroke-dasharray="none"
           points="169.355,389.647 169.355,385.052 "
           id="polyline51" />
        <polyline
           fill="none"
           stroke="#000000"
           stroke-width="4.0pt"
           stroke-dasharray="none"
           points="261.170,389.647 261.170,385.052 "
           id="polyline53" />
        <polyline
           fill="none"
           stroke="#000000"
           stroke-width="4.0pt"
           stroke-dasharray="none"
           points="352.984,389.647 352.984,385.052 "
           id="polyline55" />
        <polyline
           fill="none"
           stroke="#000000"
           stroke-width="4.0pt"
           stroke-dasharray="none"
           points="444.798,389.647 444.798,385.052 "
           id="polyline57" />
        <polyline
           fill="none"
           stroke="#000000"
           stroke-width="4.0pt"
           stroke-dasharray="none"
           points="77.082,389.647 536.612,389.647 "
           id="polyline59" />
        <polyline
           fill="none"
           stroke="#000000"
           stroke-width="4.0pt"
           stroke-dasharray="none"
           points="77.541,33.353 77.541,37.948 "
           id="polyline61" />
        <polyline
           fill="none"
           stroke="#000000"
           stroke-width="4.0pt"
           stroke-dasharray="none"
           points="169.355,33.353 169.355,37.948 "
           id="polyline63" />
        <polyline
           fill="none"
           stroke="#000000"
           stroke-width="4.0pt"
           stroke-dasharray="none"
           points="261.170,33.353 261.170,37.948 "
           id="polyline65" />
        <polyline
           fill="none"
           stroke="#000000"
           stroke-width="4.0pt"
           stroke-dasharray="none"
           points="352.984,33.353 352.984,37.948 "
           id="polyline67" />
        <polyline
           fill="none"
           stroke="#000000"
           stroke-width="4.0pt"
           stroke-dasharray="none"
           points="444.798,33.353 444.798,37.948 "
           id="polyline69" />
        <polyline
           fill="none"
           stroke="#000000"
           stroke-width="4.0pt"
           stroke-dasharray="none"
           points="77.082,33.353 536.612,33.353 "
           id="polyline71" />
        <g
           transform="translate(77.541,416.764)"
           id="g73">
          <g
             transform="rotate(-0.0)"
             id="g75">
            <text
               x="0.000"
               y="0.000"
               font-family="Helvetica"
               text-anchor="middle"
               font-size="17pt"
               fill="#000000"
               id="text77">0</text>
          </g>
        </g>
        <g
           transform="translate(169.355,416.764)"
           id="g79">
          <g
             transform="rotate(-0.0)"
             id="g81">
            <text
               x="0"
               y="0"
               font-size="17pt"
               id="text83"
               style="font-size:21.25px;text-anchor:middle;fill:#000000;font-family:Helvetica">10</text>
          </g>
        </g>
        <g
           transform="translate(261.170,416.764)"
           id="g85">
          <g
             transform="rotate(-0.0)"
             id="g87">
            <text
               x="0"
               y="0"
               font-size="17pt"
               id="text89"
               style="font-size:21.25px;text-anchor:middle;fill:#000000;font-family:Helvetica">20</text>
          </g>
        </g>
        <g
           transform="translate(352.984,416.764)"
           id="g91">
          <g
             transform="rotate(-0.0)"
             id="g93">
            <text
               x="0"
               y="0"
               font-size="17pt"
               id="text95"
               style="font-size:21.25px;text-anchor:middle;fill:#000000;font-family:Helvetica">30</text>
          </g>
        </g>
        <g
           transform="translate(444.798,416.764)"
           id="g97">
          <g
             transform="rotate(-0.0)"
             id="g99">
            <text
               x="0"
               y="0"
               font-size="17pt"
               id="text101"
               style="font-size:21.25px;text-anchor:middle;fill:#000000;font-family:Helvetica">40</text>
          </g>
        </g>
        <g
           transform="translate(536.612,416.764)"
           id="g103">
          <g
             transform="rotate(-0.0)"
             id="g105">
            <text
               x="0"
               y="0"
               font-size="17pt"
               id="text107"
               style="font-size:21.25px;text-anchor:middle;fill:#000000;font-family:Helvetica">50</text>
          </g>
        </g>
        <polyline
           fill="none"
           stroke="#000000"
           stroke-width="4.0pt"
           stroke-dasharray="none"
           points="77.082,318.388 81.678,318.388 "
           id="polyline109" />
        <polyline
           fill="none"
           stroke="#000000"
           stroke-width="4.0pt"
           stroke-dasharray="none"
           points="77.082,247.129 81.678,247.129 "
           id="polyline111" />
        <polyline
           fill="none"
           stroke="#000000"
           stroke-width="4.0pt"
           stroke-dasharray="none"
           points="77.082,175.871 81.678,175.871 "
           id="polyline113" />
        <polyline
           fill="none"
           stroke="#000000"
           stroke-width="4.0pt"
           stroke-dasharray="none"
           points="77.082,104.612 81.678,104.612 "
           id="polyline115" />
        <polyline
           fill="none"
           stroke="#000000"
           stroke-width="4.0pt"
           stroke-dasharray="none"
           points="77.082,389.647 77.082,33.353 "
           id="polyline117" />
        <polyline
           fill="none"
           stroke="#000000"
           stroke-width="4.0pt"
           stroke-dasharray="none"
           points="536.612,318.388 532.016,318.388 "
           id="polyline119" />
        <polyline
           fill="none"
           stroke="#000000"
           stroke-width="4.0pt"
           stroke-dasharray="none"
           points="536.612,247.129 532.016,247.129 "
           id="polyline121" />
        <polyline
           fill="none"
           stroke="#000000"
           stroke-width="4.0pt"
           stroke-dasharray="none"
           points="536.612,175.871 532.016,175.871 "
           id="polyline123" />
        <polyline
           fill="none"
           stroke="#000000"
           stroke-width="4.0pt"
           stroke-dasharray="none"
           points="536.612,104.612 532.016,104.612 "
           id="polyline125" />
        <polyline
           fill="none"
           stroke="#000000"
           stroke-width="4.0pt"
           stroke-dasharray="none"
           points="536.612,389.647 536.612,33.353 "
           id="polyline127" />
        <g
           transform="translate(67.892,397.271)"
           id="g129">
          <g
             transform="rotate(-0.0)"
             id="g131">
            <text
               x="0.000"
               y="0.000"
               font-family="Helvetica"
               text-anchor="end"
               font-size="17pt"
               fill="#000000"
               id="text133">0</text>
          </g>
        </g>
        <g
           transform="translate(67.892,326.012)"
           id="g135">
          <g
             transform="rotate(-0.0)"
             id="g137">
            <text
               x="0.000"
               y="0.000"
               font-family="Helvetica"
               text-anchor="end"
               font-size="17pt"
               fill="#000000"
               id="text139">0.2</text>
          </g>
        </g>
        <g
           transform="translate(67.892,254.753)"
           id="g141">
          <g
             transform="rotate(-0.0)"
             id="g143">
            <text
               x="0.000"
               y="0.000"
               font-family="Helvetica"
               text-anchor="end"
               font-size="17pt"
               fill="#000000"
               id="text145">0.4</text>
          </g>
        </g>
        <g
           transform="translate(67.892,183.494)"
           id="g147">
          <g
             transform="rotate(-0.0)"
             id="g149">
            <text
               x="0.000"
               y="0.000"
               font-family="Helvetica"
               text-anchor="end"
               font-size="17pt"
               fill="#000000"
               id="text151">0.6</text>
          </g>
        </g>
        <g
           transform="translate(67.892,112.235)"
           id="g153">
          <g
             transform="rotate(-0.0)"
             id="g155">
            <text
               x="0.000"
               y="0.000"
               font-family="Helvetica"
               text-anchor="end"
               font-size="17pt"
               fill="#000000"
               id="text157">0.8</text>
          </g>
        </g>
        <g
           transform="translate(67.892,40.976)"
           id="g159">
          <g
             transform="rotate(-0.0)"
             id="g161">
            <text
               x="0.000"
               y="0.000"
               font-family="Helvetica"
               text-anchor="end"
               font-size="17pt"
               fill="#000000"
               id="text163">1</text>
          </g>
        </g>
        <polyline
           fill="none"
           stroke="#000000"
           stroke-width="4.0pt"
           stroke-dasharray="none"
           points="77.082,389.647 77.082,386.084 "
           id="polyline165" />
        <polyline
           fill="none"
           stroke="#000000"
           stroke-width="4.0pt"
           stroke-dasharray="none"
           points="77.082,389.647 77.082,389.647 "
           id="polyline167" />
      </g>
      <polygon
         transform="matrix(1.0557394,0,0,1.0557394,2.7976975,2.1628216)"
         style="fill:#39e000;fill-opacity:0.30000000999999998;stroke:#2be000;stroke-width:1.89440696;stroke-opacity:0.89999998000000003;stroke-dasharray:none;stroke-miterlimit:4"
         points="103.18,71.017 107.52,63.714 111.86,53.103 116.2,49.338 120.54,47.322 124.88,46.371 129.22,45.458 133.56,44.583 137.9,43.975 142.24,43.404 146.58,42.872 150.92,42.378 155.26,41.921 159.6,41.503 163.94,41.008 168.28,40.78 172.62,40.552 176.96,40.248 181.3,39.791 185.64,39.411 189.98,39.069 194.32,38.878 198.66,38.498 203,38.118 207.34,37.89 211.68,37.661 216.02,37.471 220.36,37.243 224.7,36.863 229.04,36.749 233.38,36.558 237.72,36.33 242.06,36.064 246.4,35.798 250.74,35.684 255.08,35.57 259.42,35.493 263.76,35.303 268.1,35.265 272.44,34.885 276.78,34.733 281.12,34.657 285.46,34.505 289.8,34.467 294.14,34.429 298.48,34.314 302.82,34.276 307.16,34.162 311.5,34.048 315.84,33.972 320.18,33.972 324.52,33.782 328.86,33.706 333.2,33.592 337.54,33.554 341.88,33.554 346.22,33.478 350.56,33.402 354.9,33.326 359.24,33.288 363.58,33.212 367.92,33.173 372.26,33.021 376.6,32.945 380.94,32.793 385.28,32.755 389.62,32.679 393.96,32.603 398.3,32.565 402.64,32.375 406.98,32.261 411.32,32.223 415.66,32.109 420,32.071 424.34,32.032 428.68,31.994 433.02,31.88 437.36,31.766 441.7,31.728 446.04,31.69 450.38,31.652 454.72,31.614 459.06,31.614 463.4,31.538 467.74,31.538 472.08,31.538 476.42,31.538 480.76,31.5 485.1,31.5 489.44,31.5 493.78,31.5 498.12,31.5 502.46,31.5 502.46,31.5 498.12,31.804 493.78,31.842 489.44,31.956 485.1,31.956 480.76,32.032 476.42,32.109 472.08,32.185 467.74,32.261 463.4,32.299 459.06,32.375 454.72,32.451 450.38,32.527 446.04,32.641 441.7,32.641 437.36,32.793 433.02,33.021 428.68,33.212 424.34,33.364 420,33.516 415.66,33.668 411.32,33.706 406.98,33.82 402.64,33.934 398.3,34.162 393.96,34.238 389.62,34.276 385.28,34.429 380.94,34.581 376.6,34.695 372.26,34.885 367.92,35.037 363.58,35.189 359.24,35.189 354.9,35.379 350.56,35.455 346.22,35.494 341.88,35.608 337.54,35.95 333.2,36.026 328.86,36.102 324.52,36.178 320.18,36.406 315.84,36.558 311.5,36.596 307.16,36.825 302.82,37.015 298.48,37.053 294.14,37.053 289.8,37.167 285.46,37.509 281.12,37.585 276.78,37.89 272.44,38.042 268.1,38.27 263.76,38.422 259.42,38.688 255.08,38.764 250.74,38.802 246.4,39.031 242.06,39.449 237.72,39.677 233.38,40.058 229.04,40.248 224.7,40.4 220.36,40.856 216.02,41.122 211.68,41.237 207.34,41.883 203,42.187 198.66,42.301 194.32,42.796 189.98,43.1 185.64,43.366 181.3,43.671 176.96,44.127 172.62,44.622 168.28,44.964 163.94,45.116 159.6,45.724 155.26,46.181 150.92,46.865 146.58,47.436 142.24,48.121 137.9,48.729 133.56,49.794 129.22,50.783 124.88,51.886 120.54,53.521 116.2,54.967 111.86,59.074 107.52,71.131 103.18,78.357 98.84,93.685 94.5,119.737 90.16,147.616 85.82,184.014 81.48,224.709 77.14,270.54 72.8,351.779 72.8,341.548 77.14,258.445 81.48,211.512 85.82,172.452 90.16,136.89 94.5,109.963 98.84,84.785 "
         id="polygon22" />
    </g>
    <g
       id="ID000008"
       transform="translate(34,0)">
      <clipPath
         id="ID000009">
        <rect
           x="313.42599"
           y="198.147"
           width="217.67599"
           height="35.706001"
           id="rect171" />
      </clipPath>
      <g
         id="g173">
        <g
           id="ID000010">
          <g
             transform="translate(362.562,225.199)"
             id="g176">
            <g
               id="g178">
              <text
                 x="0"
                 y="0"
                 font-size="17pt"
                 id="text180"
                 style="font-size:21.25px;text-anchor:start;fill:#000000;font-family:Helvetica">KP_SIFT</text>
            </g>
          </g>
        </g>
        <g
           id="ID000011"
           clip-path="url(#ID000009)"
           style="color:#000000;fill:#39e000;fill-opacity:0.3;fill-rule:nonzero;stroke:#2be000;stroke-width:2;stroke-linecap:butt;stroke-linejoin:miter;stroke-miterlimit:4;stroke-opacity:0.9;stroke-dasharray:none;stroke-dashoffset:0;marker:none;visibility:visible;display:inline;overflow:visible;enable-background:accumulate">
          <polygon
             points="358.426,227.97 320.926,227.97 320.926,204.03 358.426,204.03 "
             id="polygon193"
             style="color:#000000;fill:#39e000;fill-opacity:0.3;fill-rule:nonzero;stroke:#2be000;stroke-width:2;stroke-linecap:butt;stroke-linejoin:miter;stroke-miterlimit:4;stroke-opacity:0.9;stroke-dasharray:none;stroke-dashoffset:0;marker:none;visibility:visible;display:inline;overflow:visible;enable-background:accumulate" />
        </g>
      </g>
    </g>
  </g>
</svg>
