<?xml version="1.0" encoding="UTF-8" standalone="no"?>
<svg
   xmlns:dc="http://purl.org/dc/elements/1.1/"
   xmlns:cc="http://creativecommons.org/ns#"
   xmlns:rdf="http://www.w3.org/1999/02/22-rdf-syntax-ns#"
   xmlns:svg="http://www.w3.org/2000/svg"
   xmlns="http://www.w3.org/2000/svg"
   xmlns:sodipodi="http://sodipodi.sourceforge.net/DTD/sodipodi-0.dtd"
   xmlns:inkscape="http://www.inkscape.org/namespaces/inkscape"
   preserveAspectRatio="xMinYMin meet"
   width="100%"
   height="100%"
   viewBox="0 0 592.941 444.706"
   version="1.1"
   id="svg2"
   inkscape:version="0.48.4 r9939"
   sodipodi:docname="template.svg">
  <metadata
     id="metadata199">
    <rdf:RDF>
      <cc:Work
         rdf:about="">
        <dc:format>image/svg+xml</dc:format>
        <dc:type
           rdf:resource="http://purl.org/dc/dcmitype/StillImage" />
        <dc:title></dc:title>
      </cc:Work>
    </rdf:RDF>
  </metadata>
  <defs
     id="defs197">
    <clipPath
       id="ID000001-3">
      <rect
         x="72.800003"
         y="31.5"
         width="434"
         height="342.29999"
         id="rect11-1" />
    </clipPath>
    <clipPath
       id="ID000001-0">
      <rect
         x="72.800003"
         y="31.5"
         width="434"
         height="342.29999"
         id="rect11-3" />
    </clipPath>
    <clipPath
       id="ID000001-35">
      <rect
         x="72.800003"
         y="31.5"
         width="434"
         height="342.29999"
         id="rect11-16" />
    </clipPath>
  </defs>
  <sodipodi:namedview
     pagecolor="#ffffff"
     bordercolor="#666666"
     borderopacity="1"
     objecttolerance="10"
     gridtolerance="10"
     guidetolerance="10"
     inkscape:pageopacity="0"
     inkscape:pageshadow="2"
     inkscape:window-width="1615"
     inkscape:window-height="1026"
     id="namedview195"
     showgrid="false"
     inkscape:zoom="1.0613754"
     inkscape:cx="153.46535"
     inkscape:cy="96.433196"
     inkscape:window-x="1345"
     inkscape:window-y="24"
     inkscape:window-maximized="1"
     inkscape:current-layer="g178" />
  <desc
     id="desc4">Matlab Figure Converted by PLOT2SVG written by Juerg Schwizer</desc>
  <g
     id="topgroup">
    <rect
       x="0"
       y="0"
       width="592.941"
       height="444.706"
       fill="#ffffff"
       stroke="none"
       id="rect7" />
    <g
       id="ID000000">
      <clipPath
         id="ID000001">
        <rect
           x="77.082"
           y="33.353"
           width="459.529"
           height="356.294"
           id="rect11" />
      </clipPath>
      <polygon
         points="77.082,389.647 536.612,389.647 536.612,33.353 77.082,33.353 "
         id="polygon13"
         stroke-dasharray="none"
         stroke-opacity="1.00"
         stroke-width="4.0pt"
         stroke="none"
         fill-opacity="1.00"
         fill="#ffffff" />
      <polygon
         fill="#ffffff"
         fill-opacity="1.00"
         stroke="none"
         stroke-width="4.0pt"
         stroke-opacity="1.00"
         stroke-dasharray="none"
         points="77.082,33.353 536.612,33.353 536.612,33.353 77.082,33.353 "
         id="polygon15" />
      <polygon
         fill="#ffffff"
         fill-opacity="1.00"
         stroke="none"
         stroke-width="4.0pt"
         stroke-opacity="1.00"
         stroke-dasharray="none"
         points="77.082,389.647 77.082,389.647 77.082,33.353 77.082,33.353 "
         id="polygon17" />
      <g
         id="g47">
        <polyline
           fill="none"
           stroke="#000000"
           stroke-width="4.0pt"
           stroke-dasharray="none"
           points="77.541,389.647 77.541,385.052 "
           id="polyline49" />
        <polyline
           fill="none"
           stroke="#000000"
           stroke-width="4.0pt"
           stroke-dasharray="none"
           points="169.355,389.647 169.355,385.052 "
           id="polyline51" />
        <polyline
           fill="none"
           stroke="#000000"
           stroke-width="4.0pt"
           stroke-dasharray="none"
           points="261.170,389.647 261.170,385.052 "
           id="polyline53" />
        <polyline
           fill="none"
           stroke="#000000"
           stroke-width="4.0pt"
           stroke-dasharray="none"
           points="352.984,389.647 352.984,385.052 "
           id="polyline55" />
        <polyline
           fill="none"
           stroke="#000000"
           stroke-width="4.0pt"
           stroke-dasharray="none"
           points="444.798,389.647 444.798,385.052 "
           id="polyline57" />
        <polyline
           fill="none"
           stroke="#000000"
           stroke-width="4.0pt"
           stroke-dasharray="none"
           points="77.082,389.647 536.612,389.647 "
           id="polyline59" />
        <polyline
           fill="none"
           stroke="#000000"
           stroke-width="4.0pt"
           stroke-dasharray="none"
           points="77.541,33.353 77.541,37.948 "
           id="polyline61" />
        <polyline
           fill="none"
           stroke="#000000"
           stroke-width="4.0pt"
           stroke-dasharray="none"
           points="169.355,33.353 169.355,37.948 "
           id="polyline63" />
        <polyline
           fill="none"
           stroke="#000000"
           stroke-width="4.0pt"
           stroke-dasharray="none"
           points="261.170,33.353 261.170,37.948 "
           id="polyline65" />
        <polyline
           fill="none"
           stroke="#000000"
           stroke-width="4.0pt"
           stroke-dasharray="none"
           points="352.984,33.353 352.984,37.948 "
           id="polyline67" />
        <polyline
           fill="none"
           stroke="#000000"
           stroke-width="4.0pt"
           stroke-dasharray="none"
           points="444.798,33.353 444.798,37.948 "
           id="polyline69" />
        <polyline
           fill="none"
           stroke="#000000"
           stroke-width="4.0pt"
           stroke-dasharray="none"
           points="77.082,33.353 536.612,33.353 "
           id="polyline71" />
        <g
           transform="translate(77.541,416.764)"
           id="g73">
          <g
             transform="rotate(-0.0)"
             id="g75">
            <text
               x="0.000"
               y="0.000"
               font-family="Helvetica"
               text-anchor="middle"
               font-size="17pt"
               fill="#000000"
               id="text77">0</text>
          </g>
        </g>
        <g
           transform="translate(169.355,416.764)"
           id="g79">
          <g
             transform="rotate(-0.0)"
             id="g81">
            <text
               x="0"
               y="0"
               font-size="17pt"
               id="text83"
               style="font-size:21.25px;text-anchor:middle;fill:#000000;font-family:Helvetica">10</text>
          </g>
        </g>
        <g
           transform="translate(261.170,416.764)"
           id="g85">
          <g
             transform="rotate(-0.0)"
             id="g87">
            <text
               x="0"
               y="0"
               font-size="17pt"
               id="text89"
               style="font-size:21.25px;text-anchor:middle;fill:#000000;font-family:Helvetica">20</text>
          </g>
        </g>
        <g
           transform="translate(352.984,416.764)"
           id="g91">
          <g
             transform="rotate(-0.0)"
             id="g93">
            <text
               x="0"
               y="0"
               font-size="17pt"
               id="text95"
               style="font-size:21.25px;text-anchor:middle;fill:#000000;font-family:Helvetica">30</text>
          </g>
        </g>
        <g
           transform="translate(444.798,416.764)"
           id="g97">
          <g
             transform="rotate(-0.0)"
             id="g99">
            <text
               x="0"
               y="0"
               font-size="17pt"
               id="text101"
               style="font-size:21.25px;text-anchor:middle;fill:#000000;font-family:Helvetica">40</text>
          </g>
        </g>
        <g
           transform="translate(536.612,416.764)"
           id="g103">
          <g
             transform="rotate(-0.0)"
             id="g105">
            <text
               x="0"
               y="0"
               font-size="17pt"
               id="text107"
               style="font-size:21.25px;text-anchor:middle;fill:#000000;font-family:Helvetica">50</text>
          </g>
        </g>
        <polyline
           fill="none"
           stroke="#000000"
           stroke-width="4.0pt"
           stroke-dasharray="none"
           points="77.082,318.388 81.678,318.388 "
           id="polyline109" />
        <polyline
           fill="none"
           stroke="#000000"
           stroke-width="4.0pt"
           stroke-dasharray="none"
           points="77.082,247.129 81.678,247.129 "
           id="polyline111" />
        <polyline
           fill="none"
           stroke="#000000"
           stroke-width="4.0pt"
           stroke-dasharray="none"
           points="77.082,175.871 81.678,175.871 "
           id="polyline113" />
        <polyline
           fill="none"
           stroke="#000000"
           stroke-width="4.0pt"
           stroke-dasharray="none"
           points="77.082,104.612 81.678,104.612 "
           id="polyline115" />
        <polyline
           fill="none"
           stroke="#000000"
           stroke-width="4.0pt"
           stroke-dasharray="none"
           points="77.082,389.647 77.082,33.353 "
           id="polyline117" />
        <polyline
           fill="none"
           stroke="#000000"
           stroke-width="4.0pt"
           stroke-dasharray="none"
           points="536.612,318.388 532.016,318.388 "
           id="polyline119" />
        <polyline
           fill="none"
           stroke="#000000"
           stroke-width="4.0pt"
           stroke-dasharray="none"
           points="536.612,247.129 532.016,247.129 "
           id="polyline121" />
        <polyline
           fill="none"
           stroke="#000000"
           stroke-width="4.0pt"
           stroke-dasharray="none"
           points="536.612,175.871 532.016,175.871 "
           id="polyline123" />
        <polyline
           fill="none"
           stroke="#000000"
           stroke-width="4.0pt"
           stroke-dasharray="none"
           points="536.612,104.612 532.016,104.612 "
           id="polyline125" />
        <polyline
           fill="none"
           stroke="#000000"
           stroke-width="4.0pt"
           stroke-dasharray="none"
           points="536.612,389.647 536.612,33.353 "
           id="polyline127" />
        <g
           transform="translate(67.892,397.271)"
           id="g129">
          <g
             transform="rotate(-0.0)"
             id="g131">
            <text
               x="0.000"
               y="0.000"
               font-family="Helvetica"
               text-anchor="end"
               font-size="17pt"
               fill="#000000"
               id="text133">0</text>
          </g>
        </g>
        <g
           transform="translate(67.892,326.012)"
           id="g135">
          <g
             transform="rotate(-0.0)"
             id="g137">
            <text
               x="0.000"
               y="0.000"
               font-family="Helvetica"
               text-anchor="end"
               font-size="17pt"
               fill="#000000"
               id="text139">0.2</text>
          </g>
        </g>
        <g
           transform="translate(67.892,254.753)"
           id="g141">
          <g
             transform="rotate(-0.0)"
             id="g143">
            <text
               x="0.000"
               y="0.000"
               font-family="Helvetica"
               text-anchor="end"
               font-size="17pt"
               fill="#000000"
               id="text145">0.4</text>
          </g>
        </g>
        <g
           transform="translate(67.892,183.494)"
           id="g147">
          <g
             transform="rotate(-0.0)"
             id="g149">
            <text
               x="0.000"
               y="0.000"
               font-family="Helvetica"
               text-anchor="end"
               font-size="17pt"
               fill="#000000"
               id="text151">0.6</text>
          </g>
        </g>
        <g
           transform="translate(67.892,112.235)"
           id="g153">
          <g
             transform="rotate(-0.0)"
             id="g155">
            <text
               x="0.000"
               y="0.000"
               font-family="Helvetica"
               text-anchor="end"
               font-size="17pt"
               fill="#000000"
               id="text157">0.8</text>
          </g>
        </g>
        <g
           transform="translate(67.892,40.976)"
           id="g159">
          <g
             transform="rotate(-0.0)"
             id="g161">
            <text
               x="0.000"
               y="0.000"
               font-family="Helvetica"
               text-anchor="end"
               font-size="17pt"
               fill="#000000"
               id="text163">1</text>
          </g>
        </g>
        <polyline
           fill="none"
           stroke="#000000"
           stroke-width="4.0pt"
           stroke-dasharray="none"
           points="77.082,389.647 77.082,386.084 "
           id="polyline165" />
        <polyline
           fill="none"
           stroke="#000000"
           stroke-width="4.0pt"
           stroke-dasharray="none"
           points="77.082,389.647 77.082,389.647 "
           id="polyline167" />
      </g>
      <g
         transform="matrix(1.0588788,0,0,1.0588788,1.063053,2.5519499)"
         id="ID000002-0"
         clip-path="url(#ID000001-3)">
        <polygon
           style="fill:#ff0000;fill-opacity:0.29999999999999999;stroke:#ff0000;stroke-width:1.88879036;stroke-opacity:0.90000000000000002;stroke-dasharray:none;stroke-miterlimit:4;color:#000000;fill-rule:nonzero;stroke-linecap:butt;stroke-linejoin:miter;stroke-dashoffset:0;marker:none;visibility:visible;display:inline;overflow:visible;enable-background:accumulate"
           points="103.18,57.363 107.52,51.277 111.86,41.199 116.2,37.737 120.54,35.76 124.88,35.227 129.22,34.999 133.56,34.733 137.9,34.467 142.24,34.238 146.58,34.01 150.92,33.744 155.26,33.706 159.6,33.478 163.94,33.44 168.28,33.364 172.62,33.288 176.96,33.135 181.3,33.021 185.64,32.831 189.98,32.489 194.32,32.451 198.66,32.413 203,32.375 207.34,32.261 211.68,32.185 216.02,32.109 220.36,32.109 224.7,32.071 229.04,32.071 233.38,32.032 237.72,31.994 242.06,31.994 246.4,31.994 250.74,31.956 255.08,31.956 259.42,31.918 263.76,31.918 268.1,31.804 272.44,31.766 276.78,31.766 281.12,31.766 285.46,31.766 289.8,31.766 294.14,31.766 298.48,31.728 302.82,31.652 307.16,31.652 311.5,31.652 315.84,31.614 320.18,31.614 324.52,31.576 328.86,31.576 333.2,31.576 337.54,31.538 341.88,31.538 346.22,31.538 350.56,31.538 354.9,31.5 359.24,31.5 363.58,31.5 367.92,31.5 372.26,31.5 376.6,31.5 380.94,31.5 385.28,31.5 389.62,31.5 393.96,31.5 398.3,31.5 402.64,31.5 406.98,31.5 411.32,31.5 415.66,31.5 420,31.5 424.34,31.5 428.68,31.5 433.02,31.5 437.36,31.5 441.7,31.5 446.04,31.5 450.38,31.5 454.72,31.5 459.06,31.5 463.4,31.5 467.74,31.5 472.08,31.5 476.42,31.5 480.76,31.5 485.1,31.5 489.44,31.5 493.78,31.5 498.12,31.5 502.46,31.5 502.46,31.5 498.12,31.5 493.78,31.652 489.44,31.652 485.1,31.652 480.76,31.652 476.42,31.652 472.08,31.69 467.74,31.69 463.4,31.69 459.06,31.69 454.72,31.69 450.38,31.804 446.04,31.88 441.7,31.88 437.36,31.88 433.02,31.88 428.68,31.918 424.34,31.956 420,31.994 415.66,31.994 411.32,31.994 406.98,31.994 402.64,31.994 398.3,31.994 393.96,32.032 389.62,32.032 385.28,32.032 380.94,32.032 376.6,32.032 372.26,32.032 367.92,32.032 363.58,32.032 359.24,32.071 354.9,32.109 350.56,32.109 346.22,32.147 341.88,32.147 337.54,32.185 333.2,32.185 328.86,32.223 324.52,32.261 320.18,32.299 315.84,32.413 311.5,32.489 307.16,32.489 302.82,32.527 298.48,32.679 294.14,32.793 289.8,32.793 285.46,32.793 281.12,32.793 276.78,32.793 272.44,32.831 268.1,32.945 263.76,33.059 259.42,33.059 255.08,33.097 250.74,33.135 246.4,33.173 242.06,33.212 237.72,33.25 233.38,33.288 229.04,33.288 224.7,33.326 220.36,33.478 216.02,33.516 211.68,33.554 207.34,33.63 203,33.82 198.66,33.858 194.32,34.01 189.98,34.124 185.64,34.619 181.3,34.847 176.96,34.999 172.62,35.303 168.28,35.57 163.94,35.76 159.6,35.836 155.26,35.874 150.92,36.064 146.58,36.292 142.24,36.596 137.9,36.901 133.56,37.319 129.22,37.737 124.88,37.966 120.54,38.612 116.2,40.818 111.86,45.154 107.52,57.781 103.18,65.121 98.84,79.802 94.5,105.247 90.16,131.261 85.82,167.355 81.48,209.458 77.14,257.114 72.8,342.461 72.8,332.914 77.14,243.688 81.48,197.021 85.82,156.478 90.16,121.183 94.5,96.765 98.84,71.435 "
           id="polygon22-2" />
      </g>
      <g
         transform="translate(298.98638,434.1609)"
         id="g25">
        <g
           id="g27">
          <text
             x="0"
             y="0"
             font-size="17pt"
             id="text29"
             style="font-size:21.25px;text-anchor:middle;fill:#000000;font-family:Helvetica">x [Location error in m]</text>
        </g>
      </g>
      <g
         transform="translate(-6.4886198,-4.6710997)"
         id="ID000004">
        <g
           transform="translate(36.518,212.755)"
           id="g32">
          <g
             transform="matrix(0,-1,1,0,0,0)"
             id="g34">
            <text
               style="font-size:21.25px;text-anchor:middle;fill:#000000;font-family:Helvetica"
               x="0"
               y="0"
               font-size="17pt"
               id="text36">
              <tspan
                 id="tspan38">Pr(</tspan>
              <tspan
                 id="tspan40">ε</tspan>
              <tspan
                 id="tspan42">&lt;x)</tspan>
            </text>
          </g>
        </g>
      </g>
    </g>
    <g
       id="ID000008"
       transform="translate(-34,0)">
      <clipPath
         id="ID000009">
        <rect
           x="313.42599"
           y="198.147"
           width="217.67599"
           height="35.706001"
           id="rect171" />
      </clipPath>
      <g
         id="g173">
        <g
           id="ID000010">
          <g
             transform="translate(362.562,225.199)"
             id="g176">
            <g
               id="g178">
              <text
                 x="0"
                 y="0"
                 font-size="17pt"
                 id="text180"
                 style="font-size:21.25px;text-anchor:start;fill:#000000;font-family:Helvetica">SF_GABOR</text>
            </g>
          </g>
        </g>
        <g
           id="ID000011"
           clip-path="url(#ID000009)"
           style="color:#000000;fill:#4800ff;fill-opacity:0.1;fill-rule:nonzero;stroke:#4800ff;stroke-width:2.5;stroke-linecap:butt;stroke-linejoin:miter;stroke-miterlimit:4;stroke-opacity:0.9;stroke-dasharray:none;stroke-dashoffset:0;marker:none;visibility:visible;display:inline;overflow:visible;enable-background:accumulate">
          <polygon
             points="320.926,204.03 358.426,204.03 358.426,227.97 320.926,227.97 "
             id="polygon193"
             style="color:#000000;fill:#ff0000;fill-opacity:0.29999999999999999;fill-rule:nonzero;stroke:#ff0000;stroke-width:2.00000007;stroke-linecap:butt;stroke-linejoin:miter;stroke-miterlimit:4;stroke-opacity:0.90000000000000002;stroke-dasharray:none;stroke-dashoffset:0;marker:none;visibility:visible;display:inline;overflow:visible;enable-background:accumulate" />
        </g>
      </g>
    </g>
  </g>
</svg>
