<?xml version="1.0" encoding="UTF-8" standalone="no"?>
<svg
   xmlns:dc="http://purl.org/dc/elements/1.1/"
   xmlns:cc="http://creativecommons.org/ns#"
   xmlns:rdf="http://www.w3.org/1999/02/22-rdf-syntax-ns#"
   xmlns:svg="http://www.w3.org/2000/svg"
   xmlns="http://www.w3.org/2000/svg"
   xmlns:sodipodi="http://sodipodi.sourceforge.net/DTD/sodipodi-0.dtd"
   xmlns:inkscape="http://www.inkscape.org/namespaces/inkscape"
   preserveAspectRatio="xMinYMin meet"
   width="100%"
   height="100%"
   viewBox="0 0 592.941 444.706"
   version="1.1"
   id="svg2"
   inkscape:version="0.48.4 r9939"
   sodipodi:docname="template.svg">
  <metadata
     id="metadata199">
    <rdf:RDF>
      <cc:Work
         rdf:about="">
        <dc:format>image/svg+xml</dc:format>
        <dc:type
           rdf:resource="http://purl.org/dc/dcmitype/StillImage" />
        <dc:title></dc:title>
      </cc:Work>
    </rdf:RDF>
  </metadata>
  <defs
     id="defs197" />
  <sodipodi:namedview
     pagecolor="#ffffff"
     bordercolor="#666666"
     borderopacity="1"
     objecttolerance="10"
     gridtolerance="10"
     guidetolerance="10"
     inkscape:pageopacity="0"
     inkscape:pageshadow="2"
     inkscape:window-width="1615"
     inkscape:window-height="1026"
     id="namedview195"
     showgrid="false"
     inkscape:zoom="1.5010115"
     inkscape:cx="213.48454"
     inkscape:cy="201.79043"
     inkscape:window-x="1345"
     inkscape:window-y="24"
     inkscape:window-maximized="1"
     inkscape:current-layer="topgroup" />
  <desc
     id="desc4">Matlab Figure Converted by PLOT2SVG written by Juerg Schwizer</desc>
  <g
     id="topgroup">
    <rect
       x="0"
       y="0"
       width="592.941"
       height="444.706"
       fill="#ffffff"
       stroke="none"
       id="rect7" />
    <g
       id="ID000000">
      <clipPath
         id="ID000001">
        <rect
           x="77.082"
           y="33.353"
           width="459.529"
           height="356.294"
           id="rect11" />
      </clipPath>
      <polygon
         fill="#ffffff"
         fill-opacity="1.00"
         stroke="none"
         stroke-width="4.0pt"
         stroke-opacity="1.00"
         stroke-dasharray="none"
         points="77.082,389.647 536.612,389.647 536.612,33.353 77.082,33.353 "
         id="polygon13" />
      <polygon
         fill="#ffffff"
         fill-opacity="1.00"
         stroke="none"
         stroke-width="4.0pt"
         stroke-opacity="1.00"
         stroke-dasharray="none"
         points="77.082,33.353 536.612,33.353 536.612,33.353 77.082,33.353 "
         id="polygon15" />
      <polygon
         fill="#ffffff"
         fill-opacity="1.00"
         stroke="none"
         stroke-width="4.0pt"
         stroke-opacity="1.00"
         stroke-dasharray="none"
         points="77.082,389.647 77.082,389.647 77.082,33.353 77.082,33.353 "
         id="polygon17" />
      <g
         id="g19">
        <g
           id="ID000003">
          <g
             transform="translate(305.475,438.832)"
             id="g25">
            <g
               transform="rotate(-0.0)"
               id="g27">
              <text
                 x="0"
                 y="0"
                 font-size="17pt"
                 id="text29"
                 style="font-size:21.25px;text-anchor:middle;fill:#000000;font-family:Helvetica">x [Location error in m]</text>
            </g>
          </g>
        </g>
        <g
           id="ID000004"
           transform="translate(-7.9999999,0)">
          <g
             transform="translate(36.518,212.755)"
             id="g32">
            <g
               transform="matrix(0,-1,1,0,0,0)"
               id="g34">
              <text
                 x="0"
                 y="0"
                 font-size="17pt"
                 id="text36"
                 style="font-size:21.25px;text-anchor:middle;fill:#000000;font-family:Helvetica">
                <tspan
                   id="tspan38">Pr(</tspan>
                <tspan
                   id="tspan40">ε</tspan>
                <tspan
                   id="tspan42">&lt;x)</tspan>
              </text>
            </g>
          </g>
        </g>
        <g
           id="ID000005" />
        <g
           id="ID000006" />
        <g
           id="ID000007" />
        <polygon
           transform="matrix(1.053452,0,0,1.053452,3.947738,3.3210304)"
           style="fill:#ff00ff;fill-opacity:0.29999999999999999;stroke:#ff00ff;stroke-width:1.89852036;stroke-opacity:0.90000000000000002;stroke-dasharray:none;stroke-miterlimit:4"
           points="103.18,86.762 107.52,76.95 111.86,66.567 116.2,60.9 120.54,57.629 124.88,55.803 129.22,53.978 133.56,52.38 137.9,50.707 142.24,49.452 146.58,48.539 150.92,47.436 155.26,46.675 159.6,46.067 163.94,45.382 168.28,44.85 172.62,44.279 176.96,43.861 181.3,43.176 185.64,42.796 189.98,42.187 194.32,41.541 198.66,41.084 203,40.628 207.34,40.134 211.68,39.639 216.02,39.297 220.36,38.764 224.7,38.346 229.04,38.27 233.38,37.89 237.72,37.585 242.06,37.357 246.4,37.091 250.74,36.863 255.08,36.673 259.42,36.558 263.76,36.368 268.1,36.14 272.44,35.874 276.78,35.646 281.12,35.494 285.46,35.379 289.8,35.189 294.14,35.075 298.48,34.885 302.82,34.619 307.16,34.467 311.5,34.353 315.84,34.353 320.18,34.314 324.52,34.2 328.86,34.124 333.2,34.086 337.54,34.086 341.88,34.048 346.22,33.934 350.56,33.782 354.9,33.63 359.24,33.516 363.58,33.478 367.92,33.44 372.26,33.44 376.6,33.326 380.94,33.326 385.28,33.25 389.62,33.059 393.96,32.983 398.3,32.869 402.64,32.869 406.98,32.869 411.32,32.755 415.66,32.755 420,32.717 424.34,32.603 428.68,32.603 433.02,32.527 437.36,32.451 441.7,32.375 446.04,32.147 450.38,32.071 454.72,32.071 459.06,31.994 463.4,31.956 467.74,31.918 472.08,31.88 476.42,31.88 480.76,31.842 485.1,31.766 489.44,31.728 493.78,31.69 498.12,31.69 502.46,31.5 502.46,31.5 498.12,32.679 493.78,32.755 489.44,32.793 485.1,32.907 480.76,33.021 476.42,33.135 472.08,33.173 467.74,33.288 463.4,33.326 459.06,33.402 454.72,33.592 450.38,33.668 446.04,33.744 441.7,34.01 437.36,34.048 433.02,34.124 428.68,34.162 424.34,34.162 420,34.2 415.66,34.391 411.32,34.543 406.98,34.543 402.64,34.581 398.3,34.695 393.96,34.961 389.62,35.075 385.28,35.265 380.94,35.417 376.6,35.532 372.26,35.684 367.92,35.76 363.58,35.798 359.24,35.836 354.9,36.14 350.56,36.216 346.22,36.368 341.88,36.558 337.54,36.558 333.2,36.711 328.86,36.749 324.52,36.825 320.18,36.863 315.84,36.901 311.5,36.977 307.16,37.129 302.82,37.243 298.48,37.547 294.14,37.623 289.8,37.661 285.46,37.852 281.12,38.08 276.78,38.308 272.44,38.536 268.1,38.84 263.76,39.069 259.42,39.373 255.08,39.715 250.74,39.943 246.4,40.058 242.06,40.4 237.72,40.856 233.38,41.199 229.04,41.465 224.7,41.807 220.36,42.34 216.02,42.72 211.68,43.1 207.34,43.557 203,43.899 198.66,44.507 194.32,45.344 189.98,46.181 185.64,46.713 181.3,47.36 176.96,47.93 172.62,48.463 168.28,49.376 163.94,50.098 159.6,50.593 155.26,51.506 150.92,52.532 146.58,53.902 142.24,55.271 137.9,56.64 133.56,57.857 129.22,59.873 124.88,62.155 120.54,65.083 116.2,68.849 111.86,73.793 107.52,85.165 103.18,96.537 98.84,110.914 94.5,132.897 90.16,159.939 85.82,192.761 81.48,230.414 77.14,277.69 72.8,354.935 72.8,346.15 77.14,265.937 81.48,218.51 85.82,180.286 90.16,147.844 94.5,121.905 98.84,100.15 "
           id="polygon22" />
      </g>
      <g
         id="g47">
        <polyline
           fill="none"
           stroke="#000000"
           stroke-width="4.0pt"
           stroke-dasharray="none"
           points="77.541,389.647 77.541,385.052 "
           id="polyline49" />
        <polyline
           fill="none"
           stroke="#000000"
           stroke-width="4.0pt"
           stroke-dasharray="none"
           points="169.355,389.647 169.355,385.052 "
           id="polyline51" />
        <polyline
           fill="none"
           stroke="#000000"
           stroke-width="4.0pt"
           stroke-dasharray="none"
           points="261.170,389.647 261.170,385.052 "
           id="polyline53" />
        <polyline
           fill="none"
           stroke="#000000"
           stroke-width="4.0pt"
           stroke-dasharray="none"
           points="352.984,389.647 352.984,385.052 "
           id="polyline55" />
        <polyline
           fill="none"
           stroke="#000000"
           stroke-width="4.0pt"
           stroke-dasharray="none"
           points="444.798,389.647 444.798,385.052 "
           id="polyline57" />
        <polyline
           fill="none"
           stroke="#000000"
           stroke-width="4.0pt"
           stroke-dasharray="none"
           points="77.082,389.647 536.612,389.647 "
           id="polyline59" />
        <polyline
           fill="none"
           stroke="#000000"
           stroke-width="4.0pt"
           stroke-dasharray="none"
           points="77.541,33.353 77.541,37.948 "
           id="polyline61" />
        <polyline
           fill="none"
           stroke="#000000"
           stroke-width="4.0pt"
           stroke-dasharray="none"
           points="169.355,33.353 169.355,37.948 "
           id="polyline63" />
        <polyline
           fill="none"
           stroke="#000000"
           stroke-width="4.0pt"
           stroke-dasharray="none"
           points="261.170,33.353 261.170,37.948 "
           id="polyline65" />
        <polyline
           fill="none"
           stroke="#000000"
           stroke-width="4.0pt"
           stroke-dasharray="none"
           points="352.984,33.353 352.984,37.948 "
           id="polyline67" />
        <polyline
           fill="none"
           stroke="#000000"
           stroke-width="4.0pt"
           stroke-dasharray="none"
           points="444.798,33.353 444.798,37.948 "
           id="polyline69" />
        <polyline
           fill="none"
           stroke="#000000"
           stroke-width="4.0pt"
           stroke-dasharray="none"
           points="77.082,33.353 536.612,33.353 "
           id="polyline71" />
        <g
           transform="translate(77.541,416.764)"
           id="g73">
          <g
             transform="rotate(-0.0)"
             id="g75">
            <text
               x="0.000"
               y="0.000"
               font-family="Helvetica"
               text-anchor="middle"
               font-size="17pt"
               fill="#000000"
               id="text77">0</text>
          </g>
        </g>
        <g
           transform="translate(169.355,416.764)"
           id="g79">
          <g
             transform="rotate(-0.0)"
             id="g81">
            <text
               x="0"
               y="0"
               font-size="17pt"
               id="text83"
               style="font-size:21.25px;text-anchor:middle;fill:#000000;font-family:Helvetica">10</text>
          </g>
        </g>
        <g
           transform="translate(261.170,416.764)"
           id="g85">
          <g
             transform="rotate(-0.0)"
             id="g87">
            <text
               x="0"
               y="0"
               font-size="17pt"
               id="text89"
               style="font-size:21.25px;text-anchor:middle;fill:#000000;font-family:Helvetica">20</text>
          </g>
        </g>
        <g
           transform="translate(352.984,416.764)"
           id="g91">
          <g
             transform="rotate(-0.0)"
             id="g93">
            <text
               x="0"
               y="0"
               font-size="17pt"
               id="text95"
               style="font-size:21.25px;text-anchor:middle;fill:#000000;font-family:Helvetica">30</text>
          </g>
        </g>
        <g
           transform="translate(444.798,416.764)"
           id="g97">
          <g
             transform="rotate(-0.0)"
             id="g99">
            <text
               x="0"
               y="0"
               font-size="17pt"
               id="text101"
               style="font-size:21.25px;text-anchor:middle;fill:#000000;font-family:Helvetica">40</text>
          </g>
        </g>
        <g
           transform="translate(536.612,416.764)"
           id="g103">
          <g
             transform="rotate(-0.0)"
             id="g105">
            <text
               x="0"
               y="0"
               font-size="17pt"
               id="text107"
               style="font-size:21.25px;text-anchor:middle;fill:#000000;font-family:Helvetica">50</text>
          </g>
        </g>
        <polyline
           fill="none"
           stroke="#000000"
           stroke-width="4.0pt"
           stroke-dasharray="none"
           points="77.082,318.388 81.678,318.388 "
           id="polyline109" />
        <polyline
           fill="none"
           stroke="#000000"
           stroke-width="4.0pt"
           stroke-dasharray="none"
           points="77.082,247.129 81.678,247.129 "
           id="polyline111" />
        <polyline
           fill="none"
           stroke="#000000"
           stroke-width="4.0pt"
           stroke-dasharray="none"
           points="77.082,175.871 81.678,175.871 "
           id="polyline113" />
        <polyline
           fill="none"
           stroke="#000000"
           stroke-width="4.0pt"
           stroke-dasharray="none"
           points="77.082,104.612 81.678,104.612 "
           id="polyline115" />
        <polyline
           fill="none"
           stroke="#000000"
           stroke-width="4.0pt"
           stroke-dasharray="none"
           points="77.082,389.647 77.082,33.353 "
           id="polyline117" />
        <polyline
           fill="none"
           stroke="#000000"
           stroke-width="4.0pt"
           stroke-dasharray="none"
           points="536.612,318.388 532.016,318.388 "
           id="polyline119" />
        <polyline
           fill="none"
           stroke="#000000"
           stroke-width="4.0pt"
           stroke-dasharray="none"
           points="536.612,247.129 532.016,247.129 "
           id="polyline121" />
        <polyline
           fill="none"
           stroke="#000000"
           stroke-width="4.0pt"
           stroke-dasharray="none"
           points="536.612,175.871 532.016,175.871 "
           id="polyline123" />
        <polyline
           fill="none"
           stroke="#000000"
           stroke-width="4.0pt"
           stroke-dasharray="none"
           points="536.612,104.612 532.016,104.612 "
           id="polyline125" />
        <polyline
           fill="none"
           stroke="#000000"
           stroke-width="4.0pt"
           stroke-dasharray="none"
           points="536.612,389.647 536.612,33.353 "
           id="polyline127" />
        <g
           transform="translate(67.892,397.271)"
           id="g129">
          <g
             transform="rotate(-0.0)"
             id="g131">
            <text
               x="0.000"
               y="0.000"
               font-family="Helvetica"
               text-anchor="end"
               font-size="17pt"
               fill="#000000"
               id="text133">0</text>
          </g>
        </g>
        <g
           transform="translate(67.892,326.012)"
           id="g135">
          <g
             transform="rotate(-0.0)"
             id="g137">
            <text
               x="0.000"
               y="0.000"
               font-family="Helvetica"
               text-anchor="end"
               font-size="17pt"
               fill="#000000"
               id="text139">0.2</text>
          </g>
        </g>
        <g
           transform="translate(67.892,254.753)"
           id="g141">
          <g
             transform="rotate(-0.0)"
             id="g143">
            <text
               x="0.000"
               y="0.000"
               font-family="Helvetica"
               text-anchor="end"
               font-size="17pt"
               fill="#000000"
               id="text145">0.4</text>
          </g>
        </g>
        <g
           transform="translate(67.892,183.494)"
           id="g147">
          <g
             transform="rotate(-0.0)"
             id="g149">
            <text
               x="0.000"
               y="0.000"
               font-family="Helvetica"
               text-anchor="end"
               font-size="17pt"
               fill="#000000"
               id="text151">0.6</text>
          </g>
        </g>
        <g
           transform="translate(67.892,112.235)"
           id="g153">
          <g
             transform="rotate(-0.0)"
             id="g155">
            <text
               x="0.000"
               y="0.000"
               font-family="Helvetica"
               text-anchor="end"
               font-size="17pt"
               fill="#000000"
               id="text157">0.8</text>
          </g>
        </g>
        <g
           transform="translate(67.892,40.976)"
           id="g159">
          <g
             transform="rotate(-0.0)"
             id="g161">
            <text
               x="0.000"
               y="0.000"
               font-family="Helvetica"
               text-anchor="end"
               font-size="17pt"
               fill="#000000"
               id="text163">1</text>
          </g>
        </g>
        <polyline
           fill="none"
           stroke="#000000"
           stroke-width="4.0pt"
           stroke-dasharray="none"
           points="77.082,389.647 77.082,386.084 "
           id="polyline165" />
        <polyline
           fill="none"
           stroke="#000000"
           stroke-width="4.0pt"
           stroke-dasharray="none"
           points="77.082,389.647 77.082,389.647 "
           id="polyline167" />
      </g>
    </g>
    <g
       id="ID000008"
       transform="translate(20,0)">
      <clipPath
         id="ID000009">
        <rect
           x="313.42599"
           y="198.147"
           width="217.67599"
           height="35.706001"
           id="rect171" />
      </clipPath>
      <g
         id="g173">
        <g
           id="ID000010">
          <g
             transform="translate(362.562,225.199)"
             id="g176">
            <g
               id="g178">
              <text
                 x="0"
                 y="0"
                 font-size="17pt"
                 id="text180"
                 style="font-size:21.25px;text-anchor:start;fill:#000000;font-family:Helvetica">ST_GABOR</text>
            </g>
          </g>
        </g>
        <g
           id="ID000011"
           clip-path="url(#ID000009)"
           style="color:#000000;fill:#ff00ff;fill-opacity:0.3;fill-rule:nonzero;stroke:#ff00ff;stroke-width:2;stroke-linecap:butt;stroke-linejoin:miter;stroke-miterlimit:4;stroke-opacity:0.9;stroke-dasharray:none;stroke-dashoffset:0;marker:none;visibility:visible;display:inline;overflow:visible;enable-background:accumulate">
          <polygon
             points="358.426,204.03 358.426,227.97 320.926,227.97 320.926,204.03 "
             id="polygon193"
             style="color:#000000;fill:#ff00ff;fill-opacity:0.3;fill-rule:nonzero;stroke:#ff00ff;stroke-width:2;stroke-linecap:butt;stroke-linejoin:miter;stroke-miterlimit:4;stroke-opacity:0.9;stroke-dasharray:none;stroke-dashoffset:0;marker:none;visibility:visible;display:inline;overflow:visible;enable-background:accumulate" />
        </g>
      </g>
    </g>
  </g>
</svg>
