<?xml version="1.0" encoding="UTF-8" standalone="no"?>
<svg
   xmlns:dc="http://purl.org/dc/elements/1.1/"
   xmlns:cc="http://creativecommons.org/ns#"
   xmlns:rdf="http://www.w3.org/1999/02/22-rdf-syntax-ns#"
   xmlns:svg="http://www.w3.org/2000/svg"
   xmlns="http://www.w3.org/2000/svg"
   xmlns:sodipodi="http://sodipodi.sourceforge.net/DTD/sodipodi-0.dtd"
   xmlns:inkscape="http://www.inkscape.org/namespaces/inkscape"
   preserveAspectRatio="xMinYMin meet"
   width="100%"
   height="100%"
   viewBox="0 0 592.941 444.706"
   version="1.1"
   id="svg2"
   inkscape:version="0.48.4 r9939"
   sodipodi:docname="ST_GABOR_CHI2.svg">
  <metadata
     id="metadata199">
    <rdf:RDF>
      <cc:Work
         rdf:about="">
        <dc:format>image/svg+xml</dc:format>
        <dc:type
           rdf:resource="http://purl.org/dc/dcmitype/StillImage" />
        <dc:title></dc:title>
      </cc:Work>
    </rdf:RDF>
  </metadata>
  <defs
     id="defs197" />
  <sodipodi:namedview
     pagecolor="#ffffff"
     bordercolor="#666666"
     borderopacity="1"
     objecttolerance="10"
     gridtolerance="10"
     guidetolerance="10"
     inkscape:pageopacity="0"
     inkscape:pageshadow="2"
     inkscape:window-width="1615"
     inkscape:window-height="1026"
     id="namedview195"
     showgrid="false"
     inkscape:zoom="1.5010115"
     inkscape:cx="176.65907"
     inkscape:cy="201.79043"
     inkscape:window-x="1345"
     inkscape:window-y="24"
     inkscape:window-maximized="1"
     inkscape:current-layer="topgroup" />
  <desc
     id="desc4">Matlab Figure Converted by PLOT2SVG written by Juerg Schwizer</desc>
  <g
     id="topgroup">
    <rect
       x="0"
       y="0"
       width="592.941"
       height="444.706"
       fill="#ffffff"
       stroke="none"
       id="rect7" />
    <g
       id="ID000000">
      <clipPath
         id="ID000001">
        <rect
           x="77.082"
           y="33.353"
           width="459.529"
           height="356.294"
           id="rect11" />
      </clipPath>
      <polygon
         fill="#ffffff"
         fill-opacity="1.00"
         stroke="none"
         stroke-width="4.0pt"
         stroke-opacity="1.00"
         stroke-dasharray="none"
         points="77.082,389.647 536.612,389.647 536.612,33.353 77.082,33.353 "
         id="polygon13" />
      <polygon
         fill="#ffffff"
         fill-opacity="1.00"
         stroke="none"
         stroke-width="4.0pt"
         stroke-opacity="1.00"
         stroke-dasharray="none"
         points="77.082,33.353 536.612,33.353 536.612,33.353 77.082,33.353 "
         id="polygon15" />
      <polygon
         fill="#ffffff"
         fill-opacity="1.00"
         stroke="none"
         stroke-width="4.0pt"
         stroke-opacity="1.00"
         stroke-dasharray="none"
         points="77.082,389.647 77.082,389.647 77.082,33.353 77.082,33.353 "
         id="polygon17" />
      <g
         id="g19">
        <g
           id="ID000002"
           clip-path="url(#ID000001)">
          <polygon
             fill="#4800ff"
             fill-opacity="0.10"
             stroke="#4800ff"
             stroke-width="0.5pt"
             stroke-opacity="0.90"
             stroke-dasharray="none"
             points="77.541,318.709 82.132,224.576 86.723,175.514 91.314,151.607 95.904,126.595 100.495,108.674 105.086,95.669 109.676,84.267 114.267,77.213 118.858,71.013 123.448,66.275 128.039,61.999 132.630,59.754 137.221,57.260 141.811,55.942 146.402,54.374 150.993,53.056 155.583,51.987 160.174,50.704 164.765,49.921 169.355,48.923 173.946,48.246 178.537,47.498 183.128,46.821 187.718,45.966 192.309,45.253 196.900,44.861 201.490,44.469 206.081,43.899 210.672,43.365 215.263,42.830 219.853,42.296 224.444,41.726 229.035,41.227 233.625,40.942 238.216,40.621 242.807,40.443 247.397,40.051 251.988,39.766 256.579,39.517 261.170,39.303 265.760,39.054 270.351,38.876 274.942,38.662 279.532,38.377 284.123,38.127 288.714,38.092 293.304,37.842 297.895,37.664 302.486,37.450 307.077,37.308 311.667,37.130 316.258,36.987 320.849,36.773 325.439,36.631 330.030,36.560 334.621,36.417 339.212,36.203 343.802,35.954 348.393,35.811 352.984,35.740 357.574,35.633 362.165,35.526 366.756,35.455 371.346,35.348 375.937,35.241 380.528,35.206 385.119,35.099 389.709,34.956 394.300,34.849 398.891,34.778 403.481,34.707 408.072,34.564 412.663,34.422 417.253,34.315 421.844,34.137 426.435,34.030 431.026,33.994 435.616,33.994 440.207,33.959 444.798,33.923 449.388,33.816 453.979,33.745 458.570,33.602 463.161,33.567 467.751,33.531 472.342,33.495 476.933,33.424 481.523,33.424 486.114,33.389 490.705,33.389 495.295,33.353 499.886,33.353 504.477,33.353 509.068,33.353 513.658,33.353 518.249,33.353 522.840,33.353 527.430,33.353 532.021,33.353 532.021,33.353 527.430,33.638 522.840,33.674 518.249,33.709 513.658,33.745 509.068,33.780 504.477,33.816 499.886,33.887 495.295,33.887 490.705,33.994 486.114,34.066 481.523,34.101 476.933,34.279 472.342,34.315 467.751,34.351 463.161,34.529 458.570,34.671 453.979,34.814 449.388,34.956 444.798,34.992 440.207,35.206 435.616,35.313 431.026,35.419 426.435,35.562 421.844,35.633 417.253,35.847 412.663,35.918 408.072,36.096 403.481,36.310 398.891,36.381 394.300,36.560 389.709,36.773 385.119,37.023 380.528,37.094 375.937,37.201 371.346,37.308 366.756,37.628 362.165,37.735 357.574,37.842 352.984,38.020 348.393,38.234 343.802,38.377 339.212,38.697 334.621,38.911 330.030,38.947 325.439,39.232 320.849,39.481 316.258,39.695 311.667,39.980 307.077,40.158 302.486,40.336 297.895,40.514 293.304,40.693 288.714,40.942 284.123,41.156 279.532,41.548 274.942,41.797 270.351,42.011 265.760,42.225 261.170,42.617 256.579,42.759 251.988,43.151 247.397,43.614 242.807,43.935 238.216,44.362 233.625,44.861 229.035,45.039 224.444,45.716 219.853,46.144 215.263,46.856 210.672,47.355 206.081,47.925 201.490,48.638 196.900,49.172 192.309,49.814 187.718,50.847 183.128,51.738 178.537,52.664 173.946,53.769 169.355,54.267 164.765,55.229 160.174,56.476 155.583,58.008 150.993,58.935 146.402,60.431 141.811,61.963 137.221,63.567 132.630,65.989 128.039,68.377 123.448,72.866 118.858,78.103 114.267,85.265 109.676,91.999 105.086,103.543 100.495,118.080 95.904,136.358 91.314,162.937 86.723,187.272 82.132,237.331 77.541,326.904 "
             id="polygon22"
             style="stroke-width:2.50000009;stroke-miterlimit:4;stroke-dasharray:none" />
        </g>
        <g
           id="ID000003">
          <g
             transform="translate(305.475,438.832)"
             id="g25">
            <g
               transform="rotate(-0.0)"
               id="g27">
              <text
                 x="0"
                 y="0"
                 font-size="17pt"
                 id="text29"
                 style="font-size:21.25px;text-anchor:middle;fill:#000000;font-family:Helvetica">x [Location error in m]</text>
            </g>
          </g>
        </g>
        <g
           id="ID000004"
           transform="translate(-7.9999999,0)">
          <g
             transform="translate(36.518,212.755)"
             id="g32">
            <g
               transform="matrix(0,-1,1,0,0,0)"
               id="g34">
              <text
                 x="0"
                 y="0"
                 font-size="17pt"
                 id="text36"
                 style="font-size:21.25px;text-anchor:middle;fill:#000000;font-family:Helvetica">
                <tspan
                   id="tspan38">Pr(</tspan>
                <tspan
                   id="tspan40">ε</tspan>
                <tspan
                   id="tspan42">&lt;x)</tspan>
              </text>
            </g>
          </g>
        </g>
        <g
           id="ID000005" />
        <g
           id="ID000006" />
        <g
           id="ID000007" />
      </g>
      <g
         id="g47">
        <polyline
           fill="none"
           stroke="#000000"
           stroke-width="4.0pt"
           stroke-dasharray="none"
           points="77.541,389.647 77.541,385.052 "
           id="polyline49" />
        <polyline
           fill="none"
           stroke="#000000"
           stroke-width="4.0pt"
           stroke-dasharray="none"
           points="169.355,389.647 169.355,385.052 "
           id="polyline51" />
        <polyline
           fill="none"
           stroke="#000000"
           stroke-width="4.0pt"
           stroke-dasharray="none"
           points="261.170,389.647 261.170,385.052 "
           id="polyline53" />
        <polyline
           fill="none"
           stroke="#000000"
           stroke-width="4.0pt"
           stroke-dasharray="none"
           points="352.984,389.647 352.984,385.052 "
           id="polyline55" />
        <polyline
           fill="none"
           stroke="#000000"
           stroke-width="4.0pt"
           stroke-dasharray="none"
           points="444.798,389.647 444.798,385.052 "
           id="polyline57" />
        <polyline
           fill="none"
           stroke="#000000"
           stroke-width="4.0pt"
           stroke-dasharray="none"
           points="77.082,389.647 536.612,389.647 "
           id="polyline59" />
        <polyline
           fill="none"
           stroke="#000000"
           stroke-width="4.0pt"
           stroke-dasharray="none"
           points="77.541,33.353 77.541,37.948 "
           id="polyline61" />
        <polyline
           fill="none"
           stroke="#000000"
           stroke-width="4.0pt"
           stroke-dasharray="none"
           points="169.355,33.353 169.355,37.948 "
           id="polyline63" />
        <polyline
           fill="none"
           stroke="#000000"
           stroke-width="4.0pt"
           stroke-dasharray="none"
           points="261.170,33.353 261.170,37.948 "
           id="polyline65" />
        <polyline
           fill="none"
           stroke="#000000"
           stroke-width="4.0pt"
           stroke-dasharray="none"
           points="352.984,33.353 352.984,37.948 "
           id="polyline67" />
        <polyline
           fill="none"
           stroke="#000000"
           stroke-width="4.0pt"
           stroke-dasharray="none"
           points="444.798,33.353 444.798,37.948 "
           id="polyline69" />
        <polyline
           fill="none"
           stroke="#000000"
           stroke-width="4.0pt"
           stroke-dasharray="none"
           points="77.082,33.353 536.612,33.353 "
           id="polyline71" />
        <g
           transform="translate(77.541,416.764)"
           id="g73">
          <g
             transform="rotate(-0.0)"
             id="g75">
            <text
               x="0.000"
               y="0.000"
               font-family="Helvetica"
               text-anchor="middle"
               font-size="17pt"
               fill="#000000"
               id="text77">0</text>
          </g>
        </g>
        <g
           transform="translate(169.355,416.764)"
           id="g79">
          <g
             transform="rotate(-0.0)"
             id="g81">
            <text
               x="0"
               y="0"
               font-size="17pt"
               id="text83"
               style="font-size:21.25px;text-anchor:middle;fill:#000000;font-family:Helvetica">10</text>
          </g>
        </g>
        <g
           transform="translate(261.170,416.764)"
           id="g85">
          <g
             transform="rotate(-0.0)"
             id="g87">
            <text
               x="0"
               y="0"
               font-size="17pt"
               id="text89"
               style="font-size:21.25px;text-anchor:middle;fill:#000000;font-family:Helvetica">20</text>
          </g>
        </g>
        <g
           transform="translate(352.984,416.764)"
           id="g91">
          <g
             transform="rotate(-0.0)"
             id="g93">
            <text
               x="0"
               y="0"
               font-size="17pt"
               id="text95"
               style="font-size:21.25px;text-anchor:middle;fill:#000000;font-family:Helvetica">30</text>
          </g>
        </g>
        <g
           transform="translate(444.798,416.764)"
           id="g97">
          <g
             transform="rotate(-0.0)"
             id="g99">
            <text
               x="0"
               y="0"
               font-size="17pt"
               id="text101"
               style="font-size:21.25px;text-anchor:middle;fill:#000000;font-family:Helvetica">40</text>
          </g>
        </g>
        <g
           transform="translate(536.612,416.764)"
           id="g103">
          <g
             transform="rotate(-0.0)"
             id="g105">
            <text
               x="0"
               y="0"
               font-size="17pt"
               id="text107"
               style="font-size:21.25px;text-anchor:middle;fill:#000000;font-family:Helvetica">50</text>
          </g>
        </g>
        <polyline
           fill="none"
           stroke="#000000"
           stroke-width="4.0pt"
           stroke-dasharray="none"
           points="77.082,318.388 81.678,318.388 "
           id="polyline109" />
        <polyline
           fill="none"
           stroke="#000000"
           stroke-width="4.0pt"
           stroke-dasharray="none"
           points="77.082,247.129 81.678,247.129 "
           id="polyline111" />
        <polyline
           fill="none"
           stroke="#000000"
           stroke-width="4.0pt"
           stroke-dasharray="none"
           points="77.082,175.871 81.678,175.871 "
           id="polyline113" />
        <polyline
           fill="none"
           stroke="#000000"
           stroke-width="4.0pt"
           stroke-dasharray="none"
           points="77.082,104.612 81.678,104.612 "
           id="polyline115" />
        <polyline
           fill="none"
           stroke="#000000"
           stroke-width="4.0pt"
           stroke-dasharray="none"
           points="77.082,389.647 77.082,33.353 "
           id="polyline117" />
        <polyline
           fill="none"
           stroke="#000000"
           stroke-width="4.0pt"
           stroke-dasharray="none"
           points="536.612,318.388 532.016,318.388 "
           id="polyline119" />
        <polyline
           fill="none"
           stroke="#000000"
           stroke-width="4.0pt"
           stroke-dasharray="none"
           points="536.612,247.129 532.016,247.129 "
           id="polyline121" />
        <polyline
           fill="none"
           stroke="#000000"
           stroke-width="4.0pt"
           stroke-dasharray="none"
           points="536.612,175.871 532.016,175.871 "
           id="polyline123" />
        <polyline
           fill="none"
           stroke="#000000"
           stroke-width="4.0pt"
           stroke-dasharray="none"
           points="536.612,104.612 532.016,104.612 "
           id="polyline125" />
        <polyline
           fill="none"
           stroke="#000000"
           stroke-width="4.0pt"
           stroke-dasharray="none"
           points="536.612,389.647 536.612,33.353 "
           id="polyline127" />
        <g
           transform="translate(67.892,397.271)"
           id="g129">
          <g
             transform="rotate(-0.0)"
             id="g131">
            <text
               x="0.000"
               y="0.000"
               font-family="Helvetica"
               text-anchor="end"
               font-size="17pt"
               fill="#000000"
               id="text133">0</text>
          </g>
        </g>
        <g
           transform="translate(67.892,326.012)"
           id="g135">
          <g
             transform="rotate(-0.0)"
             id="g137">
            <text
               x="0.000"
               y="0.000"
               font-family="Helvetica"
               text-anchor="end"
               font-size="17pt"
               fill="#000000"
               id="text139">0.2</text>
          </g>
        </g>
        <g
           transform="translate(67.892,254.753)"
           id="g141">
          <g
             transform="rotate(-0.0)"
             id="g143">
            <text
               x="0.000"
               y="0.000"
               font-family="Helvetica"
               text-anchor="end"
               font-size="17pt"
               fill="#000000"
               id="text145">0.4</text>
          </g>
        </g>
        <g
           transform="translate(67.892,183.494)"
           id="g147">
          <g
             transform="rotate(-0.0)"
             id="g149">
            <text
               x="0.000"
               y="0.000"
               font-family="Helvetica"
               text-anchor="end"
               font-size="17pt"
               fill="#000000"
               id="text151">0.6</text>
          </g>
        </g>
        <g
           transform="translate(67.892,112.235)"
           id="g153">
          <g
             transform="rotate(-0.0)"
             id="g155">
            <text
               x="0.000"
               y="0.000"
               font-family="Helvetica"
               text-anchor="end"
               font-size="17pt"
               fill="#000000"
               id="text157">0.8</text>
          </g>
        </g>
        <g
           transform="translate(67.892,40.976)"
           id="g159">
          <g
             transform="rotate(-0.0)"
             id="g161">
            <text
               x="0.000"
               y="0.000"
               font-family="Helvetica"
               text-anchor="end"
               font-size="17pt"
               fill="#000000"
               id="text163">1</text>
          </g>
        </g>
        <polyline
           fill="none"
           stroke="#000000"
           stroke-width="4.0pt"
           stroke-dasharray="none"
           points="77.082,389.647 77.082,386.084 "
           id="polyline165" />
        <polyline
           fill="none"
           stroke="#000000"
           stroke-width="4.0pt"
           stroke-dasharray="none"
           points="77.082,389.647 77.082,389.647 "
           id="polyline167" />
      </g>
    </g>
    <g
       id="ID000008"
       transform="translate(-34,0)">
      <clipPath
         id="ID000009">
        <rect
           x="313.42599"
           y="198.147"
           width="217.67599"
           height="35.706001"
           id="rect171" />
      </clipPath>
      <g
         id="g173">
        <g
           id="ID000010">
          <g
             transform="translate(362.562,225.199)"
             id="g176">
            <g
               id="g178">
              <text
                 x="0"
                 y="0"
                 font-size="17pt"
                 id="text180"
                 style="font-size:21.25px;text-anchor:start;fill:#000000;font-family:Helvetica">
                <tspan
                   id="tspan182">ST</tspan>
                <tspan
                   id="tspan184">_</tspan>
                <tspan
                   id="tspan186">GABOR</tspan>
                <tspan
                   id="tspan188">_</tspan>
                <tspan
                   id="tspan190">CHI2</tspan>
              </text>
            </g>
          </g>
        </g>
        <g
           id="ID000011"
           clip-path="url(#ID000009)"
           style="color:#000000;fill:#4800ff;fill-opacity:0.1;fill-rule:nonzero;stroke:#4800ff;stroke-width:2.5;stroke-linecap:butt;stroke-linejoin:miter;stroke-miterlimit:4;stroke-opacity:0.9;stroke-dasharray:none;stroke-dashoffset:0;marker:none;visibility:visible;display:inline;overflow:visible;enable-background:accumulate">
          <polygon
             points="320.926,204.03 358.426,204.03 358.426,227.97 320.926,227.97 "
             id="polygon193"
             style="color:#000000;fill:#4800ff;fill-opacity:0.1;fill-rule:nonzero;stroke:#4800ff;stroke-width:2.5;stroke-linecap:butt;stroke-linejoin:miter;stroke-miterlimit:4;stroke-opacity:0.9;stroke-dasharray:none;stroke-dashoffset:0;marker:none;visibility:visible;display:inline;overflow:visible;enable-background:accumulate" />
        </g>
      </g>
    </g>
  </g>
</svg>
