<?xml version="1.0" encoding="UTF-8" standalone="no"?>
<!-- Created with Inkscape (http://www.inkscape.org/) -->

<svg
   xmlns:dc="http://purl.org/dc/elements/1.1/"
   xmlns:cc="http://creativecommons.org/ns#"
   xmlns:rdf="http://www.w3.org/1999/02/22-rdf-syntax-ns#"
   xmlns:svg="http://www.w3.org/2000/svg"
   xmlns="http://www.w3.org/2000/svg"
   xmlns:sodipodi="http://sodipodi.sourceforge.net/DTD/sodipodi-0.dtd"
   xmlns:inkscape="http://www.inkscape.org/namespaces/inkscape"
   width="1052.3622"
   height="744.09448"
   id="svg2"
   version="1.1"
   inkscape:version="0.48.2 r9819"
   sodipodi:docname="AssociatingViews_v2.pdf"
   inkscape:export-filename="/Users/aab01/Desktop/VLWM-PRL/revised_version/AssociatingViews_v2.png"
   inkscape:export-xdpi="300"
   inkscape:export-ydpi="300">
  <defs
     id="defs4">
    <inkscape:path-effect
       effect="spiro"
       id="path-effect3847"
       is_visible="true" />
    <inkscape:path-effect
       effect="spiro"
       id="path-effect3825"
       is_visible="true" />
    <inkscape:path-effect
       is_visible="true"
       id="path-effect3819"
       effect="spiro" />
    <inkscape:path-effect
       effect="spiro"
       id="path-effect3795"
       is_visible="true" />
    <inkscape:path-effect
       is_visible="true"
       id="path-effect3791"
       effect="spiro" />
    <inkscape:path-effect
       effect="spiro"
       id="path-effect3781"
       is_visible="true" />
    <filter
       inkscape:collect="always"
       id="filter3813"
       x="-0.11361227"
       width="1.2272245"
       y="-0.046610173"
       height="1.0932203">
      <feGaussianBlur
         inkscape:collect="always"
         stdDeviation="1.53021"
         id="feGaussianBlur3815" />
    </filter>
  </defs>
  <sodipodi:namedview
     id="base"
     pagecolor="#ffffff"
     bordercolor="#666666"
     borderopacity="1.0"
     inkscape:pageopacity="0.0"
     inkscape:pageshadow="2"
     inkscape:zoom="0.87089844"
     inkscape:cx="519.64956"
     inkscape:cy="331.09485"
     inkscape:document-units="px"
     inkscape:current-layer="layer1"
     showgrid="false"
     inkscape:window-width="1253"
     inkscape:window-height="835"
     inkscape:window-x="428"
     inkscape:window-y="5"
     inkscape:window-maximized="0" />
  <metadata
     id="metadata7">
    <rdf:RDF>
      <cc:Work
         rdf:about="">
        <dc:format>image/svg+xml</dc:format>
        <dc:type
           rdf:resource="http://purl.org/dc/dcmitype/StillImage" />
        <dc:title></dc:title>
      </cc:Work>
    </rdf:RDF>
  </metadata>
  <g
     inkscape:label="Layer 1"
     inkscape:groupmode="layer"
     id="layer1"
     transform="translate(0,-308.2677)">
    <path
       sodipodi:type="arc"
       style="fill:#ffff00;fill-opacity:1;stroke:none"
       id="path2985"
       sodipodi:cx="227.14285"
       sodipodi:cy="311.95163"
       sodipodi:rx="57.142857"
       sodipodi:ry="62.142857"
       d="m 284.28571,311.95163 c 0,34.32055 -25.58373,62.14286 -57.14286,62.14286 -31.55913,0 -57.14285,-27.82231 -57.14285,-62.14286 0,-34.32055 25.58372,-62.14286 57.14285,-62.14286 31.55913,0 57.14286,27.82231 57.14286,62.14286 z"
       transform="matrix(1.7009365,0,0,1.6215508,-62.833423,166.96492)" />
    <path
       sodipodi:type="arc"
       style="fill:#efbe2d;fill-opacity:1;fill-rule:evenodd;stroke:none"
       id="path3755"
       sodipodi:cx="349.28571"
       sodipodi:cy="118.3802"
       sodipodi:rx="22.142857"
       sodipodi:ry="42.857143"
       d="m 371.42856,118.3802 c 0,23.66935 -9.91369,42.85715 -22.14285,42.85715 -12.22917,0 -22.14286,-19.1878 -22.14286,-42.85715 0,-23.669343 9.91369,-42.85714 22.14286,-42.85714 12.22916,0 22.14285,19.187797 22.14285,42.85714 z"
       transform="matrix(0.88790083,-0.4600349,0.4600349,0.88790083,277.50348,511.24122)" />
    <path
       sodipodi:type="arc"
       style="fill:#715709;fill-opacity:1;fill-rule:evenodd;stroke:none"
       id="path3757"
       sodipodi:cx="225"
       sodipodi:cy="192.66591"
       sodipodi:rx="23.571428"
       sodipodi:ry="24.285715"
       d="m 248.57143,192.66591 c 0,13.41263 -10.55329,24.28571 -23.57143,24.28571 -13.01814,0 -23.57143,-10.87308 -23.57143,-24.28571 0,-13.41263 10.55329,-24.28572 23.57143,-24.28572 13.01814,0 23.57143,10.87309 23.57143,24.28572 z"
       transform="translate(421.3793,261.573)" />
    <path
       transform="matrix(0.88790083,-0.4600349,0.4600349,0.88790083,277.50348,511.24122)"
       d="m 371.42856,118.3802 c 0,23.66935 -9.91369,42.85715 -22.14285,42.85715 -12.22917,0 -22.14286,-19.1878 -22.14286,-42.85715 0,-23.669343 9.91369,-42.85714 22.14286,-42.85714 12.22916,0 22.14285,19.187797 22.14285,42.85714 z"
       sodipodi:ry="42.857143"
       sodipodi:rx="22.142857"
       sodipodi:cy="118.3802"
       sodipodi:cx="349.28571"
       id="path3759"
       style="fill:#efbe2d;fill-opacity:1;fill-rule:evenodd;stroke:none"
       sodipodi:type="arc" />
    <path
       transform="translate(421.3793,261.573)"
       d="m 248.57143,192.66591 c 0,13.41263 -10.55329,24.28571 -23.57143,24.28571 -13.01814,0 -23.57143,-10.87308 -23.57143,-24.28571 0,-13.41263 10.55329,-24.28572 23.57143,-24.28572 13.01814,0 23.57143,10.87309 23.57143,24.28572 z"
       sodipodi:ry="24.285715"
       sodipodi:rx="23.571428"
       sodipodi:cy="192.66591"
       sodipodi:cx="225"
       id="path3761"
       style="fill:#715709;fill-opacity:1;fill-rule:evenodd;stroke:none"
       sodipodi:type="arc" />
    <path
       sodipodi:type="arc"
       style="fill:#ef802d;fill-opacity:1;fill-rule:evenodd;stroke:none"
       id="path3763"
       sodipodi:cx="349.28571"
       sodipodi:cy="118.3802"
       sodipodi:rx="22.142857"
       sodipodi:ry="42.857143"
       d="m 371.42856,118.3802 a 22.142857,42.857143 0 1 1 -44.28571,0 22.142857,42.857143 0 1 1 44.28571,0 z"
       transform="matrix(0.98029792,-0.19752464,0.19752464,0.98029792,365.37612,613.34349)" />
    <path
       sodipodi:type="arc"
       style="fill:#715c09;fill-opacity:1;fill-rule:evenodd;stroke:none"
       id="path3765"
       sodipodi:cx="225"
       sodipodi:cy="192.66591"
       sodipodi:rx="23.571428"
       sodipodi:ry="24.285715"
       d="m 248.57143,192.66591 a 23.571428,24.285715 0 1 1 -47.14286,0 23.571428,24.285715 0 1 1 47.14286,0 z"
       transform="matrix(0.31869481,0.94785738,-0.94785738,0.31869481,852.48135,383.25632)" />
    <path
       transform="matrix(0.95231919,0.30510352,-0.30510352,0.95231919,321.29929,586.35693)"
       d="m 371.42856,118.3802 a 22.142857,42.857143 0 1 1 -44.28571,0 22.142857,42.857143 0 1 1 44.28571,0 z"
       sodipodi:ry="42.857143"
       sodipodi:rx="22.142857"
       sodipodi:cy="118.3802"
       sodipodi:cx="349.28571"
       id="path3767"
       style="fill:#85ef2d;fill-opacity:1;fill-rule:evenodd;stroke:none"
       sodipodi:type="arc" />
    <path
       transform="matrix(0.98682528,0.16178958,-0.16178958,0.98682528,437.69886,584.48991)"
       d="m 248.57143,192.66591 a 23.571428,24.285715 0 1 1 -47.14286,0 23.571428,24.285715 0 1 1 47.14286,0 z"
       sodipodi:ry="24.285715"
       sodipodi:rx="23.571428"
       sodipodi:cy="192.66591"
       sodipodi:cx="225"
       id="path3769"
       style="fill:#3b3005;fill-opacity:1;fill-rule:evenodd;stroke:none"
       sodipodi:type="arc" />
    <path
       transform="matrix(0.88790083,-0.4600349,0.4600349,0.88790083,277.50348,511.24122)"
       d="m 371.42856,118.3802 c 0,23.66935 -9.91369,42.85715 -22.14285,42.85715 -12.22917,0 -22.14286,-19.1878 -22.14286,-42.85715 0,-23.669343 9.91369,-42.85714 22.14286,-42.85714 12.22916,0 22.14285,19.187797 22.14285,42.85714 z"
       sodipodi:ry="42.857143"
       sodipodi:rx="22.142857"
       sodipodi:cy="118.3802"
       sodipodi:cx="349.28571"
       id="path3771"
       style="fill:#efbe2d;fill-opacity:1;fill-rule:evenodd;stroke:none"
       sodipodi:type="arc" />
    <path
       transform="translate(421.3793,261.573)"
       d="m 248.57143,192.66591 c 0,13.41263 -10.55329,24.28571 -23.57143,24.28571 -13.01814,0 -23.57143,-10.87308 -23.57143,-24.28571 0,-13.41263 10.55329,-24.28572 23.57143,-24.28572 13.01814,0 23.57143,10.87309 23.57143,24.28572 z"
       sodipodi:ry="24.285715"
       sodipodi:rx="23.571428"
       sodipodi:cy="192.66591"
       sodipodi:cx="225"
       id="path3773"
       style="fill:#715709;fill-opacity:1;fill-rule:evenodd;stroke:none"
       sodipodi:type="arc" />
    <path
       sodipodi:type="arc"
       style="fill:#2d6bef;fill-opacity:1;fill-rule:evenodd;stroke:none"
       id="path3775"
       sodipodi:cx="349.28571"
       sodipodi:cy="118.3802"
       sodipodi:rx="22.142857"
       sodipodi:ry="42.857143"
       d="m 371.42856,118.3802 a 22.142857,42.857143 0 1 1 -44.28571,0 22.142857,42.857143 0 1 1 44.28571,0 z"
       transform="matrix(0.96827468,0.24988825,-0.24988825,0.96827468,237.36604,504.88121)" />
    <path
       sodipodi:type="arc"
       style="fill:#f4d67d;fill-opacity:1;fill-rule:evenodd;stroke:none"
       id="path3777"
       sodipodi:cx="225"
       sodipodi:cy="192.66591"
       sodipodi:rx="23.571428"
       sodipodi:ry="24.285715"
       d="m 248.57143,192.66591 a 23.571428,24.285715 0 1 1 -47.14286,0 23.571428,24.285715 0 1 1 47.14286,0 z"
       transform="translate(332.32494,518.18188)" />
    <path
       style="fill:none;stroke:#000000;stroke-width:1;stroke-linecap:butt;stroke-linejoin:miter;stroke-miterlimit:4;stroke-opacity:1;stroke-dasharray:2, 1;stroke-dashoffset:0"
       d="M 582.70635,808.8292 C 540.07783,804.26701 498.11354,793.54376 458.52216,777.09605 419.18643,760.75455 382.2016,738.76642 349.05443,712.01555"
       id="path3779"
       inkscape:path-effect="#path-effect3781"
       inkscape:original-d="m 582.70635,808.8292 c -14.28572,-1.42857 -80.91129,-20.27405 -124.18419,-31.73315 -28.43595,-7.53012 -109.46773,-65.0805 -109.46773,-65.0805"
       inkscape:connector-curvature="0"
       sodipodi:nodetypes="csc" />
    <text
       xml:space="preserve"
       style="font-size:24px;font-style:normal;font-weight:normal;line-height:125%;letter-spacing:0px;word-spacing:0px;fill:#000000;fill-opacity:1;stroke:none;font-family:Sans"
       x="252.57874"
       y="668.50421"
       id="text3783"
       sodipodi:linespacing="125%"><tspan
         sodipodi:role="line"
         id="tspan3785"
         x="252.57874"
         y="668.50421">Visual Paths </tspan><tspan
         sodipodi:role="line"
         x="252.57874"
         y="698.50421"
         id="tspan3787">  Database</tspan></text>
    <path
       sodipodi:nodetypes="csc"
       inkscape:connector-curvature="0"
       inkscape:original-d="M 552.85531,662.98272 C 578.03515,820.081 473.52895,546.49315 430.23789,557.88064 c -28.44834,7.48319 -86.84793,-70.95649 -86.84793,83.9039"
       inkscape:path-effect="#path-effect3791"
       id="path3789"
       d="m 552.85531,662.98272 c 0.20989,-30.62761 -13.66574,-61.07091 -36.92037,-81.00372 -23.25462,-19.93281 -55.4618,-28.9896 -85.69705,-24.09836 -21.14601,3.42085 -41.17439,13.45064 -56.58013,28.33416 -15.40575,14.88351 -26.12002,34.55422 -30.2678,55.56974"
       style="fill:none;stroke:#000000;stroke-width:1;stroke-linecap:butt;stroke-linejoin:miter;stroke-miterlimit:4;stroke-opacity:1;stroke-dasharray:2, 1;stroke-dashoffset:0" />
    <path
       style="fill:none;stroke:#c15f5f;stroke-width:5;stroke-linecap:butt;stroke-linejoin:miter;stroke-miterlimit:4;stroke-opacity:1;stroke-dasharray:15, 5;stroke-dashoffset:0;filter:url(#filter3813)"
       d="m 578.65724,688.36791 c 18.05937,6.16284 33.57507,19.46085 42.42888,36.36444 5.27072,10.06279 8.22515,21.32998 8.57035,32.68432"
       id="path3793"
       inkscape:path-effect="#path-effect3795"
       inkscape:original-d="m 578.65724,688.36791 c 7.77617,16.58916 37.93366,25.81209 42.42888,36.36444 13.02316,30.5713 8.57035,32.68432 8.57035,32.68432"
       inkscape:connector-curvature="0"
       sodipodi:nodetypes="csc" />
    <path
       sodipodi:nodetypes="csc"
       inkscape:connector-curvature="0"
       inkscape:original-d="m 674.7819,486.67675 c 10.31003,21.99472 47.71373,52.39792 50.5766,71.37028 5.63518,37.34455 -0.0309,48.94096 -0.0309,48.94096"
       inkscape:path-effect="#path-effect3819"
       id="path3817"
       d="m 674.7819,486.67675 c 25.43463,15.80213 44.09626,42.13617 50.5766,71.37028 3.55888,16.0548 3.54825,32.89066 -0.0309,48.94096"
       style="fill:none;stroke:#c15f5f;stroke-width:5;stroke-linecap:butt;stroke-linejoin:miter;stroke-miterlimit:4;stroke-opacity:1;stroke-dasharray:15, 5;stroke-dashoffset:0;filter:url(#filter3813)" />
    <path
       style="fill:none;stroke:#000000;stroke-width:1;stroke-linecap:butt;stroke-linejoin:miter;stroke-miterlimit:4;stroke-opacity:1;stroke-dasharray:2, 1;stroke-dashoffset:0"
       d="m 613.01093,441.29467 c -45.0931,-15.6383 -94.38801,-18.96771 -141.17443,-9.53502 -46.78641,9.43269 -90.94038,31.60249 -126.45142,63.49153 -44.46646,39.93104 -74.99746,95.09125 -85.22408,153.97393"
       id="path3821"
       inkscape:path-effect="#path-effect3847"
       inkscape:original-d="M 613.01093,441.29467 C 598.72521,442.72324 388.65798,483.79208 345.38508,495.25118 316.94913,502.7813 260.161,649.22511 260.161,649.22511"
       inkscape:connector-curvature="0"
       sodipodi:nodetypes="csc" />
    <path
       sodipodi:nodetypes="csc"
       inkscape:connector-curvature="0"
       inkscape:original-d="M 728.87371,701.69383 C 718.78305,711.90663 492.96294,893.99503 456.85052,920.44777 433.11994,937.83068 267.36513,718.22152 267.36513,718.22152"
       inkscape:path-effect="#path-effect3825"
       id="path3823"
       d="m 728.87371,701.69383 c -2.62235,65.84387 -34.91331,129.94225 -86.26477,171.23775 -51.35147,41.2955 -120.88528,59.08195 -185.75842,47.51619 -48.74615,-8.6906 -94.47826,-33.50643 -128.33379,-69.63837 -33.85552,-36.13195 -55.64707,-83.38002 -61.1516,-132.58788"
       style="fill:none;stroke:#000000;stroke-width:1;stroke-linecap:butt;stroke-linejoin:miter;stroke-miterlimit:4;stroke-opacity:1;stroke-dasharray:2, 1;stroke-dashoffset:0" />
    <text
       xml:space="preserve"
       style="font-size:36px;font-style:normal;font-variant:normal;font-weight:normal;font-stretch:normal;text-align:start;line-height:125%;letter-spacing:0px;word-spacing:0px;writing-mode:lr-tb;text-anchor:start;fill:#000000;fill-opacity:1;stroke:none;font-family:Sans;-inkscape-font-specification:Sans"
       x="635.90222"
       y="410.13779"
       id="text3827"
       sodipodi:linespacing="125%"><tspan
         sodipodi:role="line"
         id="tspan3829"
         x="635.90222"
         y="410.13779">A</tspan></text>
    <text
       sodipodi:linespacing="125%"
       id="text3831"
       y="656.56885"
       x="558.74664"
       style="font-size:36px;font-style:normal;font-variant:normal;font-weight:normal;font-stretch:normal;text-align:start;line-height:125%;letter-spacing:0px;word-spacing:0px;writing-mode:lr-tb;text-anchor:start;fill:#000000;fill-opacity:1;stroke:none;font-family:Sans;-inkscape-font-specification:Sans"
       xml:space="preserve"><tspan
         y="656.56885"
         x="558.74664"
         id="tspan3833"
         sodipodi:role="line">B</tspan></text>
    <text
       xml:space="preserve"
       style="font-size:36px;font-style:normal;font-variant:normal;font-weight:normal;font-stretch:normal;text-align:start;line-height:125%;letter-spacing:0px;word-spacing:0px;writing-mode:lr-tb;text-anchor:start;fill:#000000;fill-opacity:1;stroke:none;font-family:Sans;-inkscape-font-specification:Sans"
       x="747.5509"
       y="624.37775"
       id="text3835"
       sodipodi:linespacing="125%"><tspan
         sodipodi:role="line"
         id="tspan3839"
         x="747.5509"
         y="624.37775">C</tspan></text>
    <text
       xml:space="preserve"
       style="font-size:36px;font-style:normal;font-variant:normal;font-weight:normal;font-stretch:normal;text-align:start;line-height:125%;letter-spacing:0px;word-spacing:0px;writing-mode:lr-tb;text-anchor:start;fill:#000000;fill-opacity:1;stroke:none;font-family:Sans;-inkscape-font-specification:Sans"
       x="646.49762"
       y="801.8443"
       id="text3841"
       sodipodi:linespacing="125%"><tspan
         sodipodi:role="line"
         id="tspan3845"
         x="646.49762"
         y="801.8443">D</tspan></text>
  </g>
</svg>
