<?xml version="1.0" encoding="UTF-8" standalone="no"?>
<svg
   xmlns:dc="http://purl.org/dc/elements/1.1/"
   xmlns:cc="http://creativecommons.org/ns#"
   xmlns:rdf="http://www.w3.org/1999/02/22-rdf-syntax-ns#"
   xmlns:svg="http://www.w3.org/2000/svg"
   xmlns="http://www.w3.org/2000/svg"
   xmlns:sodipodi="http://sodipodi.sourceforge.net/DTD/sodipodi-0.dtd"
   xmlns:inkscape="http://www.inkscape.org/namespaces/inkscape"
   preserveAspectRatio="xMinYMin meet"
   width="100%"
   height="100%"
   viewBox="0 0 1710 987.88202"
   version="1.1"
   id="svg2"
   inkscape:version="0.48.3.1 r9886"
   sodipodi:docname="Gabor_good.svg">
  <metadata
     id="metadata305">
    <rdf:RDF>
      <cc:Work
         rdf:about="">
        <dc:format>image/svg+xml</dc:format>
        <dc:type
           rdf:resource="http://purl.org/dc/dcmitype/StillImage" />
      </cc:Work>
    </rdf:RDF>
  </metadata>
  <defs
     id="defs303" />
  <sodipodi:namedview
     pagecolor="#ffffff"
     bordercolor="#666666"
     borderopacity="1"
     objecttolerance="10"
     gridtolerance="10"
     guidetolerance="10"
     inkscape:pageopacity="0"
     inkscape:pageshadow="2"
     inkscape:window-width="1615"
     inkscape:window-height="1026"
     id="namedview301"
     showgrid="false"
     fit-margin-top="0"
     fit-margin-left="0"
     fit-margin-right="0"
     fit-margin-bottom="0"
     inkscape:zoom="0.73918129"
     inkscape:cx="842.4163"
     inkscape:cy="457.3996"
     inkscape:window-x="1345"
     inkscape:window-y="24"
     inkscape:window-maximized="1"
     inkscape:current-layer="topgroup" />
  <desc
     id="desc4">Matlab Figure Converted by PLOT2SVG written by Juerg Schwizer</desc>
  <g
     id="topgroup">
    <rect
       x="0"
       y="0"
       width="1710"
       height="987.88202"
       id="rect7"
       style="fill:#ffffff;stroke:none" />
    <g
       id="ID000000">
      <clipPath
         id="ID000001">
        <rect
           x="222.3"
           y="74.091003"
           width="1325.25"
           height="805.12402"
           id="rect11" />
      </clipPath>
      <polygon
         points="222.3,74.091 222.3,879.215 1547.55,879.215 1547.55,74.091 "
         id="polygon13"
         style="fill:#ffffff;fill-opacity:1;stroke:none" />
      <polygon
         points="222.3,74.091 222.3,74.091 1547.55,74.091 1547.55,74.091 "
         id="polygon15"
         style="fill:#ffffff;fill-opacity:1;stroke:none" />
      <polygon
         points="222.3,74.091 222.3,879.215 222.3,879.215 222.3,74.091 "
         id="polygon17"
         style="fill:#ffffff;fill-opacity:1;stroke:none" />
      <g
         id="g19">
        <g
           id="ID000002"
           clip-path="url(#ID000001)">
          <polyline
             points="222.300,879.215 223.073,879.215 223.846,878.061 224.620,879.215 225.393,878.061 226.166,879.215 226.939,879.215 227.712,879.215 228.486,879.215 229.259,879.215 230.032,878.061 230.805,879.215 231.578,879.215 232.351,879.215 233.125,879.215 233.898,879.215 234.671,879.215 235.444,879.215 236.217,879.215 236.991,879.215 237.764,879.215 238.537,879.215 239.310,879.215 240.083,879.215 240.857,879.215 241.630,879.215 242.403,879.215 243.176,879.215 243.949,879.215 244.723,879.215 245.496,879.215 246.269,879.215 247.042,879.215 247.815,879.215 248.589,875.751 249.362,879.215 250.135,879.215 250.908,879.215 251.681,879.215 252.454,879.215 253.228,879.215 254.001,879.215 254.774,879.215 255.547,879.215 256.320,879.215 257.094,879.215 257.867,878.061 258.640,878.061 259.413,879.215 260.186,879.215 260.960,879.215 261.733,879.215 262.506,879.215 263.279,879.215 264.052,879.215 264.826,879.215 265.599,879.215 266.372,879.215 267.145,878.061 267.918,879.215 268.691,879.215 269.465,879.215 270.238,879.215 271.011,879.215 271.784,879.215 272.557,879.215 273.331,879.215 274.104,878.061 274.877,879.215 275.650,879.215 276.423,878.061 277.197,878.061 277.970,878.061 278.743,879.215 279.516,879.215 280.289,877.676 281.063,878.061 281.836,879.215 282.609,879.215 283.382,879.215 284.155,878.061 284.929,878.061 285.702,878.061 286.475,875.366 287.248,879.215 288.021,878.061 288.794,878.061 289.568,874.212 290.341,878.061 291.114,878.061 291.887,874.212 292.660,875.366 293.434,875.366 294.207,874.212 294.980,879.215 295.753,875.366 296.526,879.215 297.300,877.676 298.073,874.212 298.846,874.212 299.619,874.212 300.392,874.212 301.166,874.212 301.939,874.212 302.712,874.212 303.485,874.212 304.258,874.212 305.031,875.366 305.805,875.366 306.578,872.672 307.351,868.825 308.124,869.979 308.897,874.212 309.671,868.825 310.444,868.825 311.217,869.979 311.990,869.979 312.763,869.594 313.537,868.825 314.310,868.054 315.083,869.594 315.856,868.054 316.629,868.825 317.403,866.900 318.176,577.101 318.949,869.979 319.722,591.726 320.495,858.818 321.268,858.818 322.042,858.818 322.815,857.664 323.588,858.818 324.361,858.047 325.134,858.047 325.908,858.047 326.681,560.552 327.454,858.047 328.227,858.047 329.000,858.047 329.774,858.047 330.547,858.047 331.320,858.047 332.093,858.047 332.866,858.047 333.640,858.047 334.413,858.047 335.186,858.047 335.959,858.047 336.732,858.047 337.506,858.047 338.279,858.047 339.052,858.047 339.825,858.047 340.598,858.047 341.371,848.427 342.145,847.657 342.918,848.427 343.691,578.640 344.464,578.640 345.237,590.957 346.011,569.789 346.784,662.925 347.557,582.104 348.330,568.635 349.103,582.104 349.877,579.796 350.650,662.925 351.423,707.184 352.196,707.184 352.969,707.184 353.743,707.184 354.516,569.789 355.289,839.189 356.062,582.104 356.835,707.184 357.608,839.189 358.382,839.189 359.155,707.184 359.928,662.925 360.701,707.184 361.474,707.184 362.248,707.184 363.021,839.189 363.794,839.189 364.567,836.881 365.340,837.650 366.114,685.631 366.887,631.366 367.660,819.177 368.433,819.177 369.206,822.641 369.980,819.177 370.753,819.177 371.526,822.641 372.299,819.177 373.072,819.177 373.846,822.641 374.619,820.331 375.392,822.641 376.165,819.177 376.938,817.638 377.711,820.331 378.485,819.177 379.258,819.177 380.031,817.638 380.804,817.638 381.577,819.177 382.351,817.638 383.124,819.177 383.897,819.177 384.670,817.638 385.443,693.328 386.217,816.098 386.990,814.944 387.763,813.790 388.536,817.638 389.309,814.944 390.083,817.638 390.856,814.944 391.629,813.790 392.402,697.946 393.175,695.253 393.948,699.486 394.722,699.486 395.495,819.177 396.268,819.177 397.041,813.019 397.814,807.247 398.588,807.247 399.361,807.247 400.134,797.625 400.907,672.547 401.680,674.086 402.454,807.247 403.227,807.247 404.000,803.783 404.773,797.625 405.546,807.247 406.320,673.316 407.093,807.247 407.866,791.853 408.639,797.625 409.412,797.625 410.186,797.625 410.959,803.783 411.732,674.086 412.505,796.471 413.278,800.704 414.051,797.625 414.825,791.853 415.598,791.853 416.371,796.471 417.144,797.625 417.917,797.625 418.691,796.471 419.464,797.625 420.237,797.625 421.010,737.202 421.783,788.004 422.557,789.543 423.330,788.004 424.103,788.004 424.876,788.004 425.649,784.156 426.423,784.156 427.196,782.231 427.969,784.156 428.742,784.156 429.515,784.156 430.288,784.156 431.062,784.156 431.835,788.004 432.608,784.156 433.381,784.156 434.154,784.156 434.928,782.231 435.701,784.156 436.474,784.156 437.247,784.156 438.020,782.615 438.794,782.231 439.567,782.231 440.340,774.534 441.113,774.534 441.886,774.534 442.660,774.534 443.433,774.534 444.206,774.534 444.979,775.688 445.752,773.764 446.525,774.534 447.299,774.534 448.072,768.760 448.845,770.685 449.618,768.760 450.391,768.760 451.165,768.760 451.938,768.760 452.711,768.760 453.484,766.837 454.257,767.991 455.031,768.760 455.804,765.298 456.577,767.991 457.350,765.298 458.123,765.298 458.897,765.298 459.670,765.298 460.443,768.760 461.216,768.760 461.989,766.837 462.763,695.253 463.536,758.370 464.309,764.142 465.082,759.139 465.855,759.139 466.628,695.253 467.402,756.830 468.175,752.597 468.948,695.253 469.721,762.603 470.494,765.298 471.268,762.603 472.041,752.597 472.814,752.597 473.587,742.590 474.360,752.597 475.134,752.597 475.907,752.597 476.680,742.590 477.453,749.519 478.226,750.287 479.000,749.519 479.773,752.597 480.546,736.433 481.319,577.871 482.092,743.745 482.865,742.590 483.639,742.590 484.412,742.590 485.185,742.590 485.958,806.093 486.731,743.745 487.505,743.745 488.278,743.745 489.051,744.130 489.824,742.590 490.597,743.745 491.371,739.512 492.144,736.433 492.917,736.433 493.690,739.512 494.463,736.433 495.237,734.893 496.010,730.660 496.783,736.433 497.556,582.104 498.329,736.433 499.103,720.654 499.876,734.893 500.649,582.104 501.422,723.732 502.195,724.501 502.968,722.962 503.742,722.193 504.515,722.193 505.288,722.193 506.061,723.732 506.834,720.654 507.608,722.962 508.381,714.111 509.154,720.654 509.927,714.111 510.700,716.035 511.474,714.111 512.247,722.193 513.020,714.111 513.793,714.111 514.566,716.035 515.340,714.111 516.113,708.338 516.886,714.111 517.659,722.962 518.432,711.802 519.205,711.802 519.979,711.802 520.752,711.802 521.525,711.802 522.298,711.802 523.071,711.802 523.845,711.417 524.618,711.802 525.391,711.802 526.164,711.417 526.937,711.802 527.711,711.802 528.484,711.802 529.257,711.802 530.030,712.956 530.803,711.802 531.577,709.107 532.350,711.417 533.123,711.417 533.896,711.417 534.669,709.107 535.443,696.023 536.216,696.023 536.989,709.878 537.762,683.706 538.535,689.480 539.308,685.631 540.082,689.480 540.855,691.020 541.628,703.720 542.401,710.647 543.174,709.878 543.948,682.552 544.721,688.710 545.494,709.878 546.267,684.091 547.040,711.417 547.814,710.647 548.587,710.647 549.360,709.878 550.133,711.417 550.906,684.091 551.680,709.878 552.453,685.631 553.226,685.631 553.999,685.246 554.772,684.091 555.545,683.706 556.319,684.091 557.092,697.946 557.865,685.246 558.638,682.167 559.411,685.631 560.185,685.246 560.958,685.631 561.731,685.246 562.504,690.249 563.277,684.091 564.051,687.941 564.824,684.091 565.597,685.246 566.370,684.091 567.143,684.091 567.917,684.091 568.690,684.091 569.463,685.246 570.236,685.246 571.009,685.631 571.782,681.013 572.556,679.859 573.329,685.246 574.102,685.246 574.875,678.704 575.648,674.855 576.422,679.859 577.195,671.391 577.968,675.626 578.741,674.086 579.514,675.626 580.288,675.626 581.061,670.622 581.834,671.391 582.607,662.540 583.380,659.846 584.154,670.622 584.927,663.694 585.700,657.536 586.473,657.536 587.246,654.458 588.020,662.540 588.793,662.540 589.566,662.540 590.339,662.540 591.112,654.458 591.885,654.458 592.659,654.458 593.432,655.228 594.205,664.079 594.978,651.764 595.751,539.001 596.525,666.004 597.298,653.303 598.071,654.458 598.844,654.458 599.617,577.871 600.391,655.228 601.164,650.225 601.937,659.076 602.710,642.142 603.483,654.458 604.257,653.303 605.030,640.603 605.803,648.685 606.576,642.142 607.349,650.225 608.122,640.603 608.896,640.603 609.669,640.603 610.442,642.528 611.215,650.225 611.988,642.142 612.762,642.142 613.535,650.225 614.308,642.142 615.081,642.528 615.854,642.142 616.628,650.225 617.401,635.599 618.174,642.528 618.947,642.528 619.720,642.528 620.494,635.599 621.267,582.104 622.040,642.528 622.813,642.528 623.586,582.104 624.360,635.599 625.133,630.212 625.906,582.104 626.679,630.212 627.452,630.212 628.225,630.212 628.999,629.827 629.772,631.752 630.545,642.142 631.318,622.130 632.091,622.130 632.865,622.130 633.638,622.130 634.411,619.435 635.184,625.593 635.957,635.599 636.731,630.212 637.504,622.130 638.277,623.284 639.050,630.212 639.823,629.057 640.597,629.057 641.370,613.277 642.143,629.057 642.916,629.827 643.689,613.277 644.462,625.209 645.236,623.284 646.009,629.057 646.782,609.430 647.555,613.277 648.328,608.274 649.102,608.274 649.875,613.277 650.648,613.277 651.421,613.277 652.194,609.430 652.968,609.430 653.741,613.277 654.514,608.274 655.287,609.430 656.060,609.430 656.834,609.430 657.607,609.430 658.380,613.277 659.153,609.430 659.926,609.430 660.700,609.430 661.473,609.430 662.246,609.430 663.019,609.430 663.792,609.430 664.565,606.734 665.339,606.734 666.112,606.734 666.885,609.430 667.658,606.734 668.431,604.426 669.205,609.430 669.978,606.734 670.751,608.274 671.524,609.430 672.297,606.734 673.071,606.734 673.844,606.734 674.617,609.430 675.390,608.274 676.163,609.430 676.937,606.734 677.710,603.656 678.483,603.656 679.256,603.656 680.029,603.656 680.802,603.656 681.576,600.577 682.349,600.577 683.122,592.111 683.895,603.656 684.668,594.804 685.442,603.656 686.215,603.656 686.988,588.647 687.761,588.647 688.534,588.647 689.308,589.801 690.081,589.801 690.854,589.801 691.627,582.104 692.400,588.647 693.174,582.104 693.947,582.104 694.720,589.801 695.493,588.647 696.266,582.104 697.039,582.104 697.813,582.104 698.586,582.104 699.359,582.104 700.132,582.104 700.905,582.104 701.679,582.104 702.452,582.104 703.225,582.104 703.998,582.104 704.771,582.104 705.545,582.104 706.318,565.171 707.091,565.556 707.864,582.104 708.637,582.104 709.411,565.171 710.184,568.635 710.957,565.171 711.730,565.171 712.503,565.556 713.277,565.171 714.050,565.556 714.823,565.171 715.596,565.171 716.369,565.171 717.142,565.171 717.916,565.171 718.689,565.171 719.462,565.556 720.235,565.556 721.008,569.789 721.782,565.171 722.555,565.171 723.328,565.171 724.101,565.171 724.874,565.171 725.648,565.171 726.421,565.171 727.194,565.171 727.967,565.171 728.740,564.016 729.514,562.092 730.287,562.092 731.060,565.171 731.833,562.092 732.606,562.092 733.379,565.171 734.153,562.092 734.926,560.938 735.699,564.016 736.472,562.092 737.245,592.880 738.019,564.016 738.792,564.016 739.565,562.092 740.338,562.092 741.111,562.092 741.885,560.938 742.658,560.938 743.431,562.092 744.204,564.016 744.977,563.631 745.751,562.092 746.524,562.092 747.297,557.859 748.070,565.171 748.843,562.092 749.617,588.262 750.390,562.092 751.163,562.092 751.936,557.859 752.709,557.474 753.482,560.938 754.256,545.927 755.029,539.384 755.802,539.384 756.575,575.561 757.348,545.927 758.122,547.467 758.895,545.158 759.668,547.467 760.441,571.328 761.214,539.384 761.988,541.309 762.761,539.384 763.534,547.467 764.307,542.463 765.080,572.868 765.854,544.003 766.627,575.561 767.400,545.158 768.173,545.158 768.946,518.218 769.719,582.104 770.493,582.104 771.266,582.104 772.039,523.990 772.812,523.990 773.585,527.840 774.359,522.451 775.132,523.990 775.905,518.218 776.678,522.451 777.451,523.990 778.225,523.990 778.998,523.221 779.771,523.990 780.544,523.990 781.317,523.990 782.091,523.990 782.864,523.990 783.637,523.990 784.410,523.990 785.183,523.990 785.957,518.987 786.730,523.221 787.503,512.829 788.276,512.829 789.049,512.829 789.822,511.290 790.596,511.290 791.369,511.290 792.142,511.290 792.915,519.757 793.688,511.290 794.462,519.757 795.235,519.757 796.008,502.439 796.781,516.293 797.554,516.293 798.328,511.290 799.101,519.757 799.874,505.132 800.647,565.171 801.420,564.016 802.194,564.016 802.967,564.016 803.740,682.552 804.513,565.171 805.286,565.171 806.059,505.132 806.833,503.978 807.606,502.439 808.379,502.439 809.152,564.016 809.925,497.435 810.699,563.631 811.472,505.132 812.245,563.631 813.018,502.439 813.791,502.439 814.565,562.092 815.338,562.092 816.111,562.092 816.884,565.171 817.657,560.938 818.431,500.899 819.204,496.666 819.977,559.013 820.750,562.092 821.523,562.092 822.296,557.859 823.070,556.319 823.843,500.899 824.616,500.899 825.389,496.666 826.162,497.435 826.936,496.666 827.709,577.486 828.482,577.486 829.255,577.486 830.028,545.158 830.802,545.158 831.575,549.006 832.348,485.120 833.121,549.006 833.894,545.158 834.668,545.158 835.441,544.003 836.214,483.966 836.987,483.966 837.760,577.101 838.534,545.158 839.307,570.558 840.080,572.868 840.853,474.344 841.626,572.868 842.399,497.435 843.173,474.344 843.946,572.868 844.719,474.344 845.492,474.344 846.265,474.344 847.039,474.344 847.812,474.344 848.585,474.344 849.358,474.344 850.131,474.344 850.905,503.593 851.678,474.344 852.451,508.596 853.224,449.328 853.997,508.596 854.771,449.328 855.544,449.328 856.317,449.328 857.090,699.486 857.863,449.328 858.636,699.486 859.410,699.486 860.183,699.102 860.956,696.023 861.729,453.176 862.502,696.023 863.276,699.486 864.049,449.328 864.822,699.486 865.595,449.328 866.368,449.328 867.142,449.328 867.915,456.640 868.688,449.328 869.461,449.328 870.234,449.328 871.008,449.328 871.781,448.558 872.554,449.328 873.327,448.558 874.100,449.328 874.874,448.558 875.647,449.328 876.420,449.328 877.193,449.328 877.966,449.328 878.739,449.328 879.513,449.328 880.286,445.094 881.059,450.097 881.832,451.637 882.605,450.097 883.379,450.097 884.152,450.097 884.925,449.328 885.698,450.097 886.471,450.097 887.245,450.097 888.018,450.097 888.791,450.097 889.564,450.097 890.337,449.328 891.111,449.328 891.884,449.328 892.657,449.328 893.430,449.328 894.203,449.328 894.976,449.328 895.750,449.328 896.523,434.703 897.296,449.328 898.069,449.328 898.842,449.328 899.616,440.861 900.389,447.789 901.162,449.328 901.935,449.328 902.708,449.328 903.482,449.328 904.255,449.328 905.028,449.328 905.801,449.328 906.574,449.328 907.348,445.094 908.121,445.094 908.894,445.094 909.667,445.094 910.440,420.078 911.214,420.078 911.987,449.328 912.760,431.624 913.533,419.309 914.306,420.078 915.079,420.078 915.853,420.078 916.626,445.094 917.399,449.328 918.172,449.328 918.945,420.078 919.719,445.094 920.492,420.078 921.265,420.078 922.038,449.328 922.811,420.078 923.585,432.393 924.358,450.097 925.131,449.328 925.904,449.328 926.677,449.328 927.451,449.328 928.224,420.078 928.997,420.078 929.770,419.309 930.543,420.078 931.316,420.078 932.090,449.328 932.863,420.078 933.636,420.078 934.409,419.309 935.182,420.078 935.956,420.078 936.729,419.309 937.502,419.309 938.275,406.609 939.048,450.097 939.822,419.309 940.595,418.924 941.368,418.924 942.141,418.924 942.914,397.756 943.688,397.756 944.461,397.756 945.234,421.234 946.007,397.756 946.780,397.756 947.554,397.756 948.327,397.756 949.100,389.675 949.873,391.215 950.646,397.756 951.419,397.372 952.193,426.236 952.966,389.675 953.739,420.078 954.512,389.675 955.285,387.365 956.059,389.675 956.832,449.328 957.605,445.094 958.378,699.486 959.151,449.328 959.925,449.328 960.698,449.328 961.471,447.019 962.244,447.019 963.017,445.094 963.791,449.328 964.564,449.328 965.337,446.250 966.110,450.097 966.883,445.094 967.656,450.097 968.430,450.097 969.203,445.094 969.976,445.094 970.749,386.980 971.522,442.786 972.296,442.786 973.069,371.201 973.842,360.041 974.615,376.975 975.388,368.893 976.162,369.662 976.935,372.357 977.708,360.041 978.481,366.968 979.254,367.738 980.028,363.504 980.801,367.738 981.574,367.738 982.347,360.041 983.120,360.041 983.893,360.810 984.667,365.429 985.440,365.429 986.213,360.041 986.986,363.504 987.759,361.196 988.533,360.041 989.306,363.504 990.079,449.328 990.852,363.504 991.625,363.889 992.399,450.097 993.172,450.097 993.945,361.196 994.718,450.097 995.491,450.097 996.265,361.196 997.038,363.889 997.811,361.196 998.584,450.097 999.357,363.889 1000.131,352.728 1000.904,363.889 1001.677,352.343 1002.450,348.495 1003.223,450.097 1003.996,345.416 1004.770,345.416 1005.543,346.185 1006.316,345.416 1007.089,346.185 1007.862,346.185 1008.636,348.495 1009.409,346.185 1010.182,345.416 1010.955,345.416 1011.728,345.416 1012.502,345.416 1013.275,346.185 1014.048,342.723 1014.821,342.723 1015.594,342.723 1016.368,342.723 1017.141,345.416 1017.914,342.723 1018.687,343.492 1019.460,343.492 1020.233,342.723 1021.007,342.723 1021.780,341.567 1022.553,342.723 1023.326,342.723 1024.099,342.723 1024.873,343.492 1025.646,343.492 1026.419,343.492 1027.192,343.492 1027.965,342.723 1028.739,341.567 1029.512,299.233 1030.285,299.233 1031.058,341.567 1031.831,341.567 1032.605,298.847 1033.378,342.723 1034.151,300.003 1034.924,300.003 1035.697,301.157 1036.471,301.157 1037.244,301.157 1038.017,301.157 1038.790,301.157 1039.563,299.233 1040.336,301.157 1041.110,301.157 1041.883,301.157 1042.656,301.157 1043.429,301.157 1044.202,301.157 1044.976,298.847 1045.749,301.157 1046.522,303.467 1047.295,301.157 1048.068,301.157 1048.842,301.157 1049.615,301.157 1050.388,301.157 1051.161,301.157 1051.934,301.157 1052.708,298.847 1053.481,301.157 1054.254,298.847 1055.027,301.157 1055.800,301.157 1056.573,301.157 1057.347,301.157 1058.120,301.157 1058.893,301.157 1059.666,298.847 1060.439,298.847 1061.213,301.157 1061.986,301.157 1062.759,301.157 1063.532,298.847 1064.305,298.847 1065.079,298.847 1065.852,298.847 1066.625,298.847 1067.398,301.157 1068.171,301.157 1068.945,298.847 1069.718,301.157 1070.491,298.847 1071.264,298.847 1072.037,301.157 1072.811,298.847 1073.584,298.847 1074.357,304.236 1075.130,304.236 1075.903,298.847 1076.676,303.467 1077.450,298.847 1078.223,301.928 1078.996,298.847 1079.769,298.847 1080.542,298.847 1081.316,304.236 1082.089,298.847 1082.862,298.847 1083.635,300.772 1084.408,300.772 1085.182,300.772 1085.955,301.157 1086.728,300.772 1087.501,300.772 1088.274,299.233 1089.048,293.075 1089.821,305.007 1090.594,298.847 1091.367,304.621 1092.140,292.306 1092.913,292.690 1093.687,305.007 1094.460,306.546 1095.233,307.315 1096.006,305.007 1096.779,308.085 1097.553,307.315 1098.326,306.161 1099.099,305.007 1099.872,305.007 1100.645,306.161 1101.419,308.085 1102.192,305.007 1102.965,307.315 1103.738,305.007 1104.511,306.546 1105.285,303.467 1106.058,309.239 1106.831,306.546 1107.604,307.315 1108.377,307.315 1109.150,306.546 1109.924,307.315 1110.697,307.315 1111.470,307.315 1112.243,306.546 1113.016,298.464 1113.790,313.087 1114.563,297.308 1115.336,297.308 1116.109,298.078 1116.882,297.308 1117.656,297.308 1118.429,300.772 1119.202,297.308 1119.975,297.308 1120.748,297.308 1121.522,259.977 1122.295,259.208 1123.068,261.131 1123.841,261.131 1124.614,313.858 1125.388,261.131 1126.161,259.208 1126.934,259.208 1127.707,261.902 1128.480,261.902 1129.253,261.902 1130.027,297.308 1130.800,259.977 1131.573,259.977 1132.346,261.902 1133.119,293.460 1133.893,310.394 1134.666,297.308 1135.439,257.669 1136.212,316.166 1136.985,298.464 1137.759,257.669 1138.532,257.669 1139.305,295.000 1140.078,257.669 1140.851,293.460 1141.625,257.669 1142.398,257.669 1143.171,259.977 1143.944,247.662 1144.717,259.977 1145.490,257.669 1146.264,257.669 1147.037,257.669 1147.810,259.977 1148.583,257.669 1149.356,257.669 1150.130,240.734 1150.903,293.075 1151.676,293.075 1152.449,257.669 1153.222,257.669 1153.996,235.347 1154.769,257.669 1155.542,240.734 1156.315,293.075 1157.088,293.075 1157.862,235.347 1158.635,235.347 1159.408,235.347 1160.181,235.347 1160.954,235.347 1161.728,235.347 1162.501,235.347 1163.274,237.271 1164.047,235.347 1164.820,235.347 1165.593,235.347 1166.367,235.347 1167.140,220.721 1167.913,220.721 1168.686,220.721 1169.459,223.415 1170.233,223.415 1171.006,223.415 1171.779,223.415 1172.552,221.492 1173.325,221.492 1174.099,220.721 1174.872,220.721 1175.645,220.721 1176.418,220.721 1177.191,220.721 1177.965,220.721 1178.738,220.721 1179.511,204.942 1180.284,204.942 1181.057,204.942 1181.830,216.874 1182.604,543.234 1183.377,554.395 1184.150,216.874 1184.923,554.395 1185.696,554.395 1186.470,355.038 1187.243,355.038 1188.016,216.103 1188.789,554.395 1189.562,216.103 1190.336,216.103 1191.109,216.103 1191.882,216.103 1192.655,216.103 1193.428,216.103 1194.202,216.103 1194.975,216.103 1195.748,216.103 1196.521,216.103 1197.294,216.103 1198.068,216.103 1198.841,216.103 1199.614,662.925 1200.387,216.103 1201.160,662.925 1201.933,216.103 1202.707,661.386 1203.480,216.103 1204.253,216.103 1205.026,216.103 1205.799,216.103 1206.573,564.785 1207.346,662.925 1208.119,661.386 1208.892,216.103 1209.665,588.262 1210.439,588.262 1211.212,216.103 1211.985,216.103 1212.758,216.103 1213.531,216.103 1214.305,216.103 1215.078,216.103 1215.851,216.103 1216.624,216.103 1217.397,216.103 1218.170,216.103 1218.944,216.103 1219.717,216.103 1220.490,216.103 1221.263,216.103 1222.036,216.103 1222.810,216.103 1223.583,216.103 1224.356,220.721 1225.129,221.492 1225.902,221.107 1226.676,216.103 1227.449,216.103 1228.222,216.103 1228.995,216.103 1229.768,662.925 1230.542,212.639 1231.315,662.925 1232.088,662.925 1232.861,212.639 1233.634,662.925 1234.407,212.639 1235.181,196.091 1235.954,212.255 1236.727,212.255 1237.500,212.255 1238.273,196.091 1239.047,196.091 1239.820,196.476 1240.593,200.324 1241.366,196.091 1242.139,205.713 1242.913,196.091 1243.686,196.091 1244.459,196.091 1245.232,196.091 1246.005,196.091 1246.779,196.091 1247.552,196.091 1248.325,203.788 1249.098,203.788 1249.871,196.091 1250.645,203.017 1251.418,203.017 1252.191,203.788 1252.964,201.863 1253.737,196.091 1254.510,196.091 1255.284,203.017 1256.057,196.091 1256.830,199.170 1257.603,203.788 1258.376,201.863 1259.150,202.249 1259.923,202.249 1260.696,202.249 1261.469,202.249 1262.242,196.091 1263.016,204.557 1263.789,196.091 1264.562,196.091 1265.335,196.091 1266.108,199.939 1266.882,199.170 1267.655,196.091 1268.428,196.091 1269.201,196.091 1269.974,199.939 1270.747,199.939 1271.521,196.091 1272.294,200.324 1273.067,196.091 1273.840,196.091 1274.613,196.091 1275.387,196.091 1276.160,205.713 1276.933,196.091 1277.706,196.091 1278.479,196.091 1279.253,196.091 1280.026,196.091 1280.799,196.091 1281.572,196.091 1282.345,196.091 1283.119,196.091 1283.892,196.091 1284.665,196.091 1285.438,196.091 1286.211,196.091 1286.985,196.091 1287.758,196.091 1288.531,196.091 1289.304,196.091 1290.077,196.091 1290.850,196.091 1291.624,196.091 1292.397,196.091 1293.170,195.706 1293.943,196.476 1294.716,196.091 1295.490,196.091 1296.263,196.476 1297.036,192.627 1297.809,195.706 1298.582,195.706 1299.356,192.627 1300.129,196.091 1300.902,192.627 1301.675,192.627 1302.448,192.627 1303.222,192.627 1303.995,192.627 1304.768,192.627 1305.541,192.627 1306.314,192.627 1307.087,192.627 1307.861,192.627 1308.634,192.627 1309.407,192.627 1310.180,192.242 1310.953,191.473 1311.727,192.627 1312.500,192.627 1313.273,192.627 1314.046,192.627 1314.819,192.627 1315.593,192.627 1316.366,192.627 1317.139,192.627 1317.912,192.627 1318.685,192.627 1319.459,192.627 1320.232,192.627 1321.005,181.466 1321.778,181.466 1322.551,181.466 1323.325,181.466 1324.098,192.627 1324.871,192.627 1325.644,181.466 1326.417,192.627 1327.190,192.627 1327.964,180.312 1328.737,181.466 1329.510,179.541 1330.283,180.312 1331.056,172.615 1331.830,174.539 1332.603,173.769 1333.376,173.769 1334.149,174.539 1334.922,172.615 1335.696,172.615 1336.469,172.615 1337.242,173.769 1338.015,171.844 1338.788,172.615 1339.562,171.844 1340.335,173.769 1341.108,173.769 1341.881,173.769 1342.654,164.147 1343.427,173.769 1344.201,173.769 1344.974,186.855 1345.747,200.324 1346.520,200.324 1347.293,201.863 1348.067,200.324 1348.840,201.094 1349.613,200.324 1350.386,201.094 1351.159,203.017 1351.933,157.221 1352.706,195.706 1353.479,200.324 1354.252,199.939 1355.025,154.525 1355.799,154.525 1356.572,154.525 1357.345,156.835 1358.118,187.623 1358.891,196.091 1359.664,156.835 1360.438,157.221 1361.211,195.706 1361.984,156.835 1362.757,196.091 1363.530,157.221 1364.304,195.706 1365.077,156.835 1365.850,156.835 1366.623,156.835 1367.396,156.835 1368.170,156.835 1368.943,149.138 1369.716,155.296 1370.489,146.060 1371.262,152.986 1372.036,147.983 1372.809,152.986 1373.582,147.983 1374.355,152.986 1375.128,143.364 1375.902,148.368 1376.675,147.983 1377.448,147.599 1378.221,142.595 1378.994,147.599 1379.767,143.750 1380.541,145.289 1381.314,139.131 1382.087,144.904 1382.860,143.750 1383.633,144.904 1384.407,139.131 1385.180,143.750 1385.953,139.131 1386.726,136.053 1387.499,143.750 1388.273,139.131 1389.046,130.665 1389.819,129.895 1390.592,139.131 1391.365,139.131 1392.139,135.667 1392.912,138.746 1393.685,129.895 1394.458,129.126 1395.231,133.744 1396.004,131.820 1396.778,135.667 1397.551,129.126 1398.324,139.131 1399.097,132.974 1399.870,132.974 1400.644,126.816 1401.417,132.974 1402.190,132.974 1402.963,126.816 1403.736,129.126 1404.510,129.126 1405.283,128.356 1406.056,129.126 1406.829,129.126 1407.602,123.352 1408.376,125.662 1409.149,129.126 1409.922,123.352 1410.695,117.965 1411.468,122.967 1412.242,115.655 1413.015,114.116 1413.788,112.962 1414.561,112.962 1415.334,113.347 1416.107,112.576 1416.881,112.576 1417.654,116.040 1418.427,111.037 1419.200,111.037 1419.973,111.037 1420.747,111.037 1421.520,111.037 1422.293,111.037 1423.066,111.807 1423.839,111.037 1424.613,111.037 1425.386,104.494 1426.159,104.494 1426.932,99.107 1427.705,99.107 1428.479,106.033 1429.252,106.033 1430.025,104.494 1430.798,110.268 1431.571,100.646 1432.344,106.033 1433.118,100.261 1433.891,103.725 1434.664,101.800 1435.437,101.800 1436.210,101.800 1436.984,101.800 1437.757,101.800 1438.530,101.800 1439.303,101.800 1440.076,101.800 1440.850,101.800 1441.623,100.261 1442.396,99.876 1443.169,100.261 1443.942,101.800 1444.716,101.800 1445.489,101.800 1446.262,101.800 1447.035,101.800 1447.808,101.800 1448.582,101.800 1449.355,101.800 1450.128,101.800 1450.901,94.489 1451.674,94.489 1452.447,94.489 1453.221,101.800 1453.994,94.489 1454.767,94.489 1455.540,95.643 1456.313,93.718 1457.087,95.643 1457.860,95.258 1458.633,94.489 1459.406,95.258 1460.179,93.718 1460.953,93.333 1461.726,95.643 1462.499,93.718 1463.272,92.179 1464.045,89.485 1464.819,92.949 1465.592,91.410 1466.365,92.564 1467.138,91.410 1467.911,87.946 1468.684,86.790 1469.458,87.561 1470.231,87.561 1471.004,87.946 1471.777,87.561 1472.550,87.561 1473.324,87.561 1474.097,89.485 1474.870,86.790 1475.643,86.790 1476.416,86.790 1477.190,86.790 1477.963,86.790 1478.736,84.097 1479.509,84.867 1480.282,86.790 1481.056,86.021 1481.829,86.790 1482.602,99.876 1483.375,99.107 1484.148,99.107 1484.921,99.107 1485.695,85.251 1486.468,85.251 1487.241,86.790 1488.014,86.790 1488.787,112.962 1489.561,84.867 1490.334,86.790 1491.107,86.790 1491.880,86.790 1492.653,82.942 1493.427,86.790 1494.200,86.790 1494.973,86.790 1495.746,96.797 1496.519,86.790 1497.293,97.182 1498.066,99.107 1498.839,82.942 1499.612,79.093 1500.385,79.093 1501.159,79.093 1501.932,79.093 1502.705,79.093 1503.478,74.860 1504.251,74.860 1505.024,79.093 1505.798,79.093 1506.571,79.093 1507.344,79.093 1508.117,79.093 1508.890,79.093 1509.664,79.093 1510.437,79.093 1511.210,79.093 1511.983,77.170 1512.756,77.170 1513.530,77.170 1514.303,77.170 1515.076,77.170 1515.849,79.093 1516.622,99.876 1517.396,79.093 1518.169,79.093 1518.942,86.790 1519.715,79.093 1520.488,74.091 1521.261,86.790 1522.035,79.093 1522.808,86.790 1523.581,76.014 1524.354,99.491 1525.127,80.249 1525.901,79.093 1526.674,79.093 1527.447,79.093 1528.220,101.030 1528.993,99.876 1529.767,84.097 1530.540,84.867 1531.313,84.867 1532.086,84.097 1532.859,99.107 1533.633,84.867 1534.406,84.867 1535.179,86.790 1535.952,86.790 1536.725,99.876 1537.499,84.097 1538.272,99.107 1539.045,86.790 1539.818,93.718 1540.591,101.030 1541.364,84.867 1542.138,86.790 1542.911,86.790 1543.684,99.107 1544.457,93.333 1545.230,84.867 1546.004,91.410 1546.777,99.107 1547.550,84.867 "
             id="polyline22"
             style="fill:none;stroke:#0000ff;stroke-width:1pt;stroke-dasharray:none" />
          <g
             id="g24" />
        </g>
        <g
           id="ID000003"
           clip-path="url(#ID000001)">
          <polyline
             points="222.300,879.215 223.073,878.830 223.846,878.830 224.620,878.830 225.393,878.830 226.166,878.830 226.939,878.830 227.712,878.445 228.486,878.445 229.259,878.445 230.032,878.445 230.805,878.445 231.578,878.445 232.351,878.445 233.125,878.445 233.898,878.445 234.671,878.445 235.444,878.445 236.217,878.445 236.991,878.445 237.764,878.061 238.537,878.061 239.310,878.061 240.083,878.061 240.857,878.061 241.630,878.061 242.403,878.061 243.176,878.061 243.949,878.061 244.723,878.061 245.496,878.061 246.269,877.676 247.042,877.676 247.815,877.676 248.589,877.676 249.362,877.291 250.135,877.291 250.908,876.905 251.681,876.905 252.454,876.905 253.228,876.522 254.001,876.522 254.774,876.136 255.547,875.751 256.320,875.366 257.094,875.366 257.867,875.366 258.640,874.982 259.413,874.982 260.186,874.982 260.960,874.597 261.733,874.212 262.506,873.827 263.279,873.827 264.052,873.827 264.826,873.443 265.599,873.443 266.372,873.443 267.145,873.058 267.918,872.672 268.691,872.287 269.465,872.287 270.238,871.904 271.011,871.904 271.784,871.904 272.557,871.518 273.331,871.133 274.104,870.748 274.877,870.748 275.650,870.364 276.423,870.364 277.197,869.979 277.970,869.594 278.743,869.208 279.516,869.208 280.289,869.208 281.063,868.825 281.836,868.825 282.609,868.439 283.382,868.054 284.155,867.669 284.929,867.669 285.702,867.285 286.475,867.285 287.248,866.515 288.021,866.130 288.794,866.130 289.568,865.746 290.341,865.361 291.114,864.975 291.887,864.590 292.660,864.206 293.434,864.206 294.207,863.436 294.980,863.051 295.753,863.051 296.526,862.667 297.300,862.667 298.073,862.282 298.846,861.897 299.619,861.511 300.392,861.511 301.166,861.128 301.939,860.742 302.712,860.357 303.485,859.972 304.258,859.587 305.031,859.587 305.805,858.818 306.578,858.433 307.351,858.433 308.124,858.047 308.897,857.664 309.671,857.278 310.444,856.893 311.217,856.508 311.990,856.508 312.763,855.739 313.537,855.354 314.310,855.354 315.083,854.969 315.856,854.585 316.629,854.200 317.403,853.814 318.176,853.429 318.949,853.429 319.722,853.045 320.495,852.275 321.268,852.275 322.042,851.890 322.815,851.506 323.588,850.736 324.361,850.736 325.134,850.350 325.908,849.967 326.681,849.196 327.454,848.811 328.227,848.811 329.000,848.042 329.774,847.657 330.547,847.657 331.320,847.271 332.093,846.888 332.866,846.117 333.640,845.732 334.413,845.348 335.186,844.578 335.959,844.193 336.732,843.809 337.506,843.424 338.279,843.039 339.052,842.270 339.825,841.499 340.598,841.114 341.371,840.730 342.145,839.960 342.918,839.574 343.691,838.420 344.464,838.035 345.237,837.266 346.011,836.881 346.784,836.496 347.557,836.110 348.330,835.341 349.103,834.956 349.877,834.571 350.650,833.802 351.423,833.417 352.196,833.417 352.969,832.648 353.743,832.263 354.516,831.877 355.289,831.109 356.062,830.723 356.835,830.338 357.608,829.569 358.382,829.184 359.155,828.799 359.928,828.030 360.701,827.644 361.474,827.259 362.248,826.874 363.021,826.105 363.794,826.105 364.567,825.720 365.340,824.951 366.114,824.566 366.887,824.180 367.660,823.411 368.433,822.641 369.206,822.256 369.980,821.487 370.753,821.102 371.526,820.331 372.299,819.947 373.072,819.562 373.846,818.408 374.619,818.023 375.392,817.638 376.165,816.869 376.938,816.483 377.711,816.483 378.485,815.713 379.258,815.329 380.031,814.944 380.804,814.174 381.577,813.790 382.351,813.405 383.124,812.634 383.897,812.250 384.670,811.865 385.443,811.095 386.217,810.711 386.990,810.326 387.763,809.555 388.536,809.172 389.309,808.786 390.083,808.016 390.856,807.632 391.629,807.247 392.402,806.862 393.175,806.093 393.948,805.708 394.722,805.322 395.495,804.553 396.268,804.168 397.041,803.398 397.814,803.014 398.588,802.629 399.361,801.473 400.134,801.089 400.907,800.319 401.680,799.934 402.454,799.550 403.227,798.779 404.000,798.394 404.773,798.011 405.546,797.625 406.320,796.855 407.093,796.471 407.866,796.086 408.639,795.315 409.412,794.932 410.186,794.546 410.959,793.776 411.732,793.392 412.505,792.622 413.278,792.237 414.051,791.468 414.825,790.697 415.598,790.314 416.371,789.928 417.144,789.158 417.917,788.774 418.691,788.389 419.464,787.618 420.237,787.618 421.010,787.235 421.783,786.464 422.557,786.079 423.330,785.695 424.103,784.925 424.876,784.156 425.649,783.771 426.423,783.000 427.196,782.615 427.969,782.231 428.742,781.461 429.515,781.076 430.288,780.692 431.062,779.921 431.835,779.536 432.608,779.152 433.381,778.382 434.154,777.997 434.928,777.613 435.701,776.843 436.474,776.457 437.247,776.074 438.020,775.303 438.794,774.918 439.567,774.149 440.340,773.379 441.113,772.610 441.886,772.224 442.660,771.455 443.433,770.685 444.206,770.300 444.979,769.916 445.752,769.146 446.525,768.760 447.299,768.377 448.072,767.606 448.845,767.221 449.618,766.452 450.391,766.067 451.165,765.681 451.938,764.527 452.711,764.142 453.484,763.373 454.257,762.603 455.031,761.834 455.804,761.449 456.577,760.678 457.350,759.909 458.123,759.524 458.897,758.755 459.670,758.370 460.443,757.984 461.216,757.216 461.989,756.830 462.763,756.445 463.536,755.676 464.309,755.291 465.082,754.906 465.855,753.751 466.628,753.366 467.402,752.981 468.175,752.212 468.948,751.827 469.721,751.058 470.494,750.673 471.268,750.287 472.041,749.519 472.814,749.133 473.587,748.748 474.360,747.979 475.134,747.594 475.907,746.823 476.680,746.054 477.453,745.669 478.226,745.284 479.000,744.515 479.773,744.130 480.546,743.359 481.319,742.590 482.092,741.820 482.865,741.436 483.639,741.051 484.412,740.281 485.185,739.897 485.958,739.512 486.731,738.741 487.505,738.357 488.278,737.972 489.051,737.587 489.824,736.818 490.597,736.433 491.371,735.662 492.144,735.279 492.917,734.893 493.690,734.123 494.463,733.354 495.237,732.969 496.010,732.200 496.783,731.815 497.556,731.429 498.329,730.660 499.103,730.275 499.876,729.890 500.649,729.121 501.422,728.736 502.195,728.351 502.968,727.582 503.742,727.196 504.515,726.811 505.288,726.042 506.061,725.657 506.834,724.886 507.608,724.118 508.381,723.347 509.154,722.962 509.927,722.578 510.700,721.422 511.474,721.039 512.247,720.654 513.020,719.883 513.793,719.499 514.566,719.114 515.340,718.729 516.113,718.344 516.886,717.960 517.659,717.189 518.432,716.421 519.205,716.035 519.979,715.265 520.752,714.881 521.525,714.111 522.298,713.342 523.071,712.956 523.845,712.186 524.618,711.802 525.391,711.032 526.164,710.647 526.937,710.263 527.711,709.492 528.484,709.107 529.257,708.724 530.030,707.953 530.803,707.568 531.577,706.799 532.350,706.028 533.123,705.643 533.896,704.874 534.669,704.104 535.443,703.720 536.216,702.950 536.989,702.564 537.762,701.410 538.535,701.025 539.308,700.256 540.082,699.871 540.855,699.486 541.628,698.717 542.401,698.331 543.174,697.946 543.948,697.177 544.721,696.407 545.494,696.023 546.267,695.253 547.040,694.867 547.814,694.098 548.587,693.328 549.360,692.944 550.133,692.174 550.906,691.789 551.680,691.020 552.453,690.634 553.226,690.249 553.999,689.865 554.772,689.095 555.545,688.710 556.319,688.326 557.092,687.556 557.865,687.170 558.638,686.401 559.411,685.631 560.185,684.862 560.958,684.091 561.731,683.706 562.504,682.937 563.277,682.167 564.051,681.398 564.824,680.627 565.597,679.859 566.370,679.473 567.143,678.704 567.917,678.319 568.690,677.934 569.463,677.165 570.236,676.780 571.009,676.394 571.782,675.240 572.556,674.855 573.329,674.086 574.102,673.701 574.875,673.316 575.648,672.161 576.422,671.776 577.195,671.391 577.968,670.622 578.741,670.237 579.514,669.852 580.288,669.083 581.061,668.697 581.834,668.312 582.607,667.543 583.380,667.158 584.154,666.388 584.927,666.004 585.700,665.233 586.473,664.464 587.246,664.079 588.020,662.925 588.793,662.540 589.566,661.769 590.339,661.386 591.112,661.000 591.885,660.230 592.659,659.846 593.432,659.461 594.205,658.691 594.978,658.307 595.751,657.922 596.525,657.536 597.298,656.767 598.071,656.382 598.844,655.612 599.617,655.228 600.391,654.843 601.164,654.072 601.937,653.303 602.710,652.918 603.483,652.149 604.257,652.149 605.030,651.764 605.803,650.994 606.576,650.610 607.349,650.225 608.122,649.839 608.896,649.070 609.669,648.685 610.442,647.915 611.215,647.146 611.988,646.761 612.762,645.990 613.535,645.221 614.308,644.451 615.081,644.067 615.854,643.297 616.628,642.528 617.401,642.142 618.174,641.372 618.947,640.988 619.720,640.603 620.494,639.832 621.267,639.449 622.040,639.064 622.813,638.293 623.586,637.909 624.360,637.524 625.133,636.754 625.906,636.370 626.679,635.599 627.452,634.831 628.225,634.445 628.999,633.675 629.772,633.291 630.545,632.906 631.318,632.135 632.091,631.752 632.865,631.366 633.638,630.596 634.411,630.212 635.184,629.442 635.957,628.671 636.731,628.288 637.504,627.517 638.277,627.132 639.050,625.978 639.823,625.593 640.597,624.824 641.370,624.053 642.143,623.669 642.916,622.899 643.689,622.514 644.462,622.130 645.236,621.360 646.009,620.974 646.782,620.591 647.555,619.820 648.328,619.435 649.102,619.051 649.875,618.281 650.648,617.896 651.421,617.127 652.194,616.741 652.968,615.972 653.741,615.202 654.514,614.817 655.287,614.433 656.060,613.663 656.834,613.277 657.607,612.894 658.380,612.123 659.153,612.123 659.926,611.738 660.700,610.969 661.473,610.584 662.246,609.813 663.019,609.044 663.792,608.659 664.565,607.890 665.339,607.120 666.112,606.351 666.885,605.966 667.658,605.195 668.431,604.426 669.205,604.041 669.978,603.656 670.751,602.887 671.524,602.502 672.297,601.733 673.071,601.347 673.844,600.962 674.617,600.193 675.390,599.808 676.163,599.423 676.937,598.269 677.710,597.883 678.483,597.114 679.256,596.729 680.029,596.344 680.802,595.190 681.576,594.804 682.349,594.804 683.122,593.650 683.895,593.265 684.668,592.880 685.442,592.111 686.215,591.726 686.988,591.340 687.761,590.572 688.534,590.186 689.308,589.416 690.081,588.647 690.854,588.262 691.627,587.493 692.400,587.107 693.174,585.953 693.947,585.568 694.720,584.798 695.493,584.414 696.266,584.029 697.039,583.258 697.813,582.874 698.586,582.489 699.359,581.719 700.132,581.335 700.905,580.950 701.679,580.179 702.452,579.796 703.225,579.025 703.998,578.256 704.771,577.871 705.545,577.101 706.318,576.717 707.091,576.332 707.864,575.561 708.637,574.792 709.411,574.792 710.184,573.638 710.957,573.253 711.730,572.868 712.503,572.099 713.277,571.713 714.050,571.328 714.823,570.558 715.596,569.789 716.369,569.018 717.142,568.635 717.916,567.864 718.689,567.095 719.462,566.325 720.235,565.939 721.008,565.171 721.782,564.400 722.555,564.016 723.328,563.631 724.101,562.861 724.874,562.477 725.648,561.707 726.421,561.321 727.194,560.552 727.967,559.782 728.740,559.398 729.514,558.628 730.287,557.859 731.060,557.474 731.833,556.703 732.606,556.319 733.379,555.549 734.153,555.164 734.926,554.780 735.699,554.009 736.472,553.624 737.245,553.241 738.019,552.470 738.792,551.700 739.565,551.316 740.338,550.545 741.111,550.160 741.885,549.391 742.658,548.621 743.431,547.852 744.204,547.467 744.977,546.698 745.751,545.927 746.524,545.542 747.297,545.158 748.070,544.388 748.843,544.003 749.617,543.619 750.390,542.848 751.163,542.463 751.936,542.079 752.709,541.309 753.482,540.924 754.256,540.155 755.029,539.770 755.802,539.384 756.575,538.615 757.348,537.845 758.122,537.461 758.895,536.691 759.668,536.306 760.441,535.922 761.214,535.151 761.988,534.766 762.761,534.382 763.534,533.612 764.307,533.227 765.080,532.842 765.854,532.073 766.627,531.687 767.400,530.918 768.173,530.533 768.946,529.763 769.719,528.994 770.493,528.609 771.266,527.840 772.039,527.454 772.812,526.684 773.585,525.915 774.359,525.530 775.132,525.144 775.905,524.376 776.678,523.990 777.451,523.605 778.225,522.836 778.998,522.451 779.771,522.066 780.544,521.297 781.317,520.912 782.091,520.143 782.864,519.372 783.637,518.987 784.410,518.218 785.183,517.833 785.957,517.447 786.730,516.679 787.503,516.293 788.276,515.524 789.049,515.139 789.822,514.754 790.596,513.985 791.369,513.600 792.142,513.214 792.915,512.060 793.688,511.675 794.462,511.290 795.235,510.521 796.008,510.136 796.781,508.982 797.554,508.596 798.328,508.211 799.101,507.442 799.874,507.057 800.647,506.286 801.420,505.903 802.194,505.517 802.967,504.747 803.740,504.363 804.513,503.978 805.286,502.824 806.059,502.439 806.833,501.668 807.606,500.899 808.379,500.514 809.152,499.745 809.925,499.360 810.699,498.589 811.472,497.820 812.245,497.435 813.018,496.666 813.791,496.281 814.565,495.896 815.338,495.127 816.111,494.742 816.884,493.971 817.657,493.586 818.431,492.817 819.204,492.047 819.977,491.663 820.750,490.507 821.523,490.123 822.296,488.968 823.070,488.584 823.843,488.199 824.616,487.428 825.389,487.045 826.162,486.274 826.936,485.889 827.709,485.120 828.482,484.349 829.255,484.349 830.028,483.581 830.802,482.810 831.575,482.426 832.348,481.656 833.121,480.887 833.894,480.502 834.668,479.731 835.441,479.348 836.214,478.577 836.987,478.192 837.760,477.808 838.534,476.652 839.307,476.269 840.080,475.884 840.853,475.113 841.626,474.728 842.399,474.344 843.173,473.574 843.946,473.188 844.719,472.419 845.492,471.649 846.265,470.880 847.039,470.110 847.812,469.726 848.585,468.955 849.358,468.570 850.131,467.801 850.905,467.031 851.678,466.647 852.451,465.877 853.224,465.491 853.997,465.108 854.771,464.337 855.544,463.952 856.317,463.568 857.090,462.798 857.863,462.413 858.636,461.258 859.410,460.873 860.183,460.104 860.956,459.334 861.729,458.950 862.502,458.180 863.276,457.794 864.049,457.025 864.822,456.640 865.595,456.255 866.368,455.486 867.142,455.101 867.915,454.716 868.688,453.561 869.461,453.176 870.234,452.407 871.008,452.022 871.781,451.252 872.554,450.483 873.327,450.097 874.100,448.943 874.874,448.558 875.647,447.789 876.420,447.404 877.193,447.019 877.966,446.250 878.739,445.864 879.513,445.479 880.286,444.325 881.059,443.940 881.832,443.554 882.605,442.786 883.379,442.400 884.152,441.246 884.925,440.861 885.698,440.092 886.471,439.322 887.245,438.553 888.018,438.167 888.791,437.782 889.564,437.013 890.337,436.628 891.111,436.243 891.884,435.472 892.657,435.089 893.430,434.318 894.203,433.549 894.976,433.164 895.750,432.393 896.523,432.010 897.296,431.239 898.069,430.470 898.842,429.700 899.616,428.931 900.389,428.546 901.162,427.392 901.935,427.006 902.708,426.621 903.482,425.852 904.255,425.467 905.028,424.696 905.801,424.313 906.574,423.542 907.348,422.773 908.121,422.388 908.894,421.234 909.667,420.849 910.440,420.078 911.214,419.694 911.987,418.924 912.760,418.155 913.533,417.770 914.306,417.385 915.079,416.614 915.853,416.230 916.626,415.845 917.399,415.075 918.172,414.691 918.945,413.921 919.719,413.535 920.492,412.766 921.265,411.996 922.038,411.612 922.811,410.842 923.585,410.073 924.358,409.302 925.131,408.533 925.904,408.148 926.677,407.378 927.451,406.994 928.224,406.224 928.997,405.838 929.770,405.069 930.543,404.299 931.316,403.915 932.090,403.145 932.863,402.759 933.636,401.991 934.409,401.220 935.182,400.836 935.956,399.681 936.729,399.297 937.502,398.527 938.275,397.756 939.048,397.372 939.822,396.602 940.595,396.217 941.368,395.448 942.141,395.062 942.914,394.677 943.688,393.908 944.461,393.523 945.234,393.138 946.007,391.984 946.780,391.598 947.554,390.829 948.327,390.059 949.100,389.290 949.873,388.520 950.646,387.751 951.419,387.365 952.193,386.597 952.966,385.826 953.739,385.441 954.512,385.057 955.285,384.287 956.059,383.901 956.832,383.132 957.605,382.747 958.378,382.362 959.151,381.208 959.925,380.823 960.698,380.054 961.471,379.668 962.244,378.898 963.017,378.129 963.791,377.744 964.564,376.975 965.337,376.590 966.110,376.204 966.883,375.435 967.656,375.050 968.430,374.665 969.203,373.896 969.976,373.511 970.749,372.740 971.522,371.971 972.296,371.586 973.069,370.817 973.842,370.047 974.615,369.278 975.388,368.893 976.162,368.122 976.935,367.353 977.708,366.968 978.481,366.199 979.254,365.429 980.028,365.043 980.801,364.274 981.574,363.889 982.347,363.504 983.120,362.735 983.893,362.350 984.667,361.581 985.440,360.810 986.213,360.425 986.986,359.656 987.759,358.886 988.533,358.117 989.306,357.732 990.079,356.577 990.852,356.192 991.625,355.807 992.399,355.038 993.172,354.653 993.945,354.267 994.718,353.499 995.491,353.113 996.265,352.728 997.038,351.959 997.811,351.574 998.584,350.420 999.357,350.034 1000.131,349.264 1000.904,348.495 1001.677,347.725 1002.450,346.956 1003.223,346.570 1003.996,345.802 1004.770,345.416 1005.543,344.646 1006.316,344.262 1007.089,343.877 1007.862,343.106 1008.636,342.723 1009.409,341.952 1010.182,341.183 1010.955,340.798 1011.728,340.028 1012.502,339.259 1013.275,338.488 1014.048,338.103 1014.821,337.334 1015.594,336.564 1016.368,336.180 1017.141,335.795 1017.914,335.024 1018.687,334.640 1019.460,334.255 1020.233,333.485 1021.007,333.101 1021.780,332.331 1022.553,331.945 1023.326,331.176 1024.099,330.406 1024.873,330.022 1025.646,329.252 1026.419,328.483 1027.192,328.098 1027.965,327.327 1028.739,326.943 1029.512,326.173 1030.285,325.788 1031.058,325.404 1031.831,324.248 1032.605,323.865 1033.378,323.479 1034.151,323.094 1034.924,322.709 1035.697,321.940 1036.471,321.169 1037.244,320.784 1038.017,320.015 1038.790,319.245 1039.563,318.861 1040.336,318.091 1041.110,317.705 1041.883,316.937 1042.656,316.551 1043.429,316.166 1044.202,315.012 1044.976,314.627 1045.749,314.243 1046.522,313.472 1047.295,313.087 1048.068,312.318 1048.842,311.548 1049.615,310.779 1050.388,310.394 1051.161,309.625 1051.934,308.854 1052.708,308.469 1053.481,307.315 1054.254,306.930 1055.027,306.161 1055.800,305.390 1056.573,305.007 1057.347,304.236 1058.120,303.851 1058.893,303.467 1059.666,302.697 1060.439,302.311 1061.213,301.928 1061.986,301.157 1062.759,300.772 1063.532,299.618 1064.305,299.233 1065.079,298.464 1065.852,298.078 1066.625,297.693 1067.398,296.924 1068.171,296.154 1068.945,295.769 1069.718,295.000 1070.491,294.614 1071.264,294.229 1072.037,293.460 1072.811,293.075 1073.584,292.690 1074.357,291.921 1075.130,291.536 1075.903,290.381 1076.676,289.996 1077.450,289.227 1078.223,288.457 1078.996,287.688 1079.769,287.303 1080.542,286.917 1081.316,285.763 1082.089,285.378 1082.862,284.993 1083.635,284.224 1084.408,283.839 1085.182,283.453 1085.955,282.684 1086.728,282.299 1087.501,281.529 1088.274,280.760 1089.048,280.375 1089.821,279.606 1090.594,279.220 1091.367,278.450 1092.140,278.066 1092.913,277.296 1093.687,276.527 1094.460,276.142 1095.233,275.756 1096.006,274.987 1096.779,274.602 1097.553,274.217 1098.326,273.448 1099.099,273.063 1099.872,272.292 1100.645,271.909 1101.419,271.138 1102.192,270.369 1102.965,269.984 1103.738,269.213 1104.511,268.444 1105.285,268.059 1106.058,267.290 1106.831,266.905 1107.604,266.135 1108.377,265.751 1109.150,265.366 1109.924,264.595 1110.697,264.212 1111.470,263.826 1112.243,263.056 1113.016,262.671 1113.790,262.287 1114.563,261.516 1115.336,261.131 1116.109,260.747 1116.882,259.592 1117.656,259.208 1118.429,258.823 1119.202,258.052 1119.975,257.669 1120.748,256.898 1121.522,256.513 1122.295,256.129 1123.068,255.359 1123.841,254.974 1124.614,254.590 1125.388,253.819 1126.161,253.434 1126.934,253.050 1127.707,252.280 1128.480,251.511 1129.253,251.126 1130.027,250.355 1130.800,249.972 1131.573,249.201 1132.346,248.816 1133.119,248.432 1133.893,247.277 1134.666,247.277 1135.439,246.893 1136.212,246.122 1136.985,245.737 1137.759,245.353 1138.532,244.583 1139.305,244.198 1140.078,243.812 1140.851,243.044 1141.625,242.658 1142.398,242.273 1143.171,241.889 1143.944,241.119 1144.717,240.734 1145.490,240.350 1146.264,239.580 1147.037,239.194 1147.810,239.194 1148.583,238.425 1149.356,238.040 1150.130,237.655 1150.903,237.271 1151.676,236.501 1152.449,236.501 1153.222,236.115 1153.996,235.347 1154.769,234.961 1155.542,234.576 1156.315,234.192 1157.088,233.422 1157.862,233.037 1158.635,232.653 1159.408,231.882 1160.181,231.882 1160.954,231.497 1161.728,230.728 1162.501,230.343 1163.274,230.343 1164.047,229.958 1164.820,229.574 1165.593,229.189 1166.367,228.804 1167.140,228.418 1167.913,228.418 1168.686,228.035 1169.459,227.264 1170.233,227.264 1171.006,226.879 1171.779,226.495 1172.552,226.110 1173.325,225.725 1174.099,225.340 1174.872,225.340 1175.645,224.571 1176.418,224.185 1177.191,224.185 1177.965,223.800 1178.738,223.800 1179.511,223.415 1180.284,223.031 1181.057,222.646 1181.830,222.646 1182.604,222.261 1183.377,222.261 1184.150,221.876 1184.923,221.492 1185.696,221.492 1186.470,221.107 1187.243,221.107 1188.016,221.107 1188.789,221.107 1189.562,220.721 1190.336,220.721 1191.109,220.721 1191.882,220.721 1192.655,220.721 1193.428,220.721 1194.202,220.721 1194.975,220.336 1195.748,220.336 1196.521,220.336 1197.294,220.336 1198.068,220.336 1198.841,220.336 1199.614,220.336 1200.387,220.336 1201.160,220.336 1201.933,220.336 1202.707,220.336 1203.480,220.336 1204.253,219.952 1205.026,219.952 1205.799,219.952 1206.573,219.952 1207.346,219.952 1208.119,219.952 1208.892,219.952 1209.665,219.952 1210.439,219.952 1211.212,219.952 1211.985,219.952 1212.758,219.952 1213.531,219.952 1214.305,219.952 1215.078,219.952 1215.851,219.952 1216.624,219.952 1217.397,219.952 1218.170,219.567 1218.944,219.567 1219.717,219.567 1220.490,219.567 1221.263,219.567 1222.036,219.567 1222.810,219.567 1223.583,219.567 1224.356,219.567 1225.129,219.567 1225.902,219.567 1226.676,219.567 1227.449,219.567 1228.222,219.182 1228.995,219.182 1229.768,219.182 1230.542,219.182 1231.315,218.797 1232.088,218.413 1232.861,218.028 1233.634,218.028 1234.407,217.643 1235.181,217.643 1235.954,217.257 1236.727,216.874 1237.500,216.488 1238.273,216.488 1239.047,216.103 1239.820,216.103 1240.593,215.718 1241.366,215.334 1242.139,214.949 1242.913,214.949 1243.686,214.564 1244.459,214.564 1245.232,214.179 1246.005,213.795 1246.779,213.410 1247.552,213.410 1248.325,213.024 1249.098,213.024 1249.871,212.639 1250.645,212.255 1251.418,211.870 1252.191,211.485 1252.964,211.485 1253.737,211.100 1254.510,210.716 1255.284,210.331 1256.057,209.946 1256.830,209.946 1257.603,209.177 1258.376,208.791 1259.150,208.791 1259.923,208.406 1260.696,208.406 1261.469,208.021 1262.242,207.637 1263.016,207.252 1263.789,207.252 1264.562,207.252 1265.335,206.867 1266.108,206.867 1266.882,206.482 1267.655,206.098 1268.428,205.713 1269.201,205.713 1269.974,205.327 1270.747,205.327 1271.521,204.942 1272.294,204.557 1273.067,204.173 1273.840,204.173 1274.613,203.788 1275.387,203.788 1276.160,203.788 1276.933,203.403 1277.706,203.017 1278.479,202.634 1279.253,202.249 1280.026,202.249 1280.799,201.863 1281.572,201.478 1282.345,201.094 1283.119,200.709 1283.892,200.709 1284.665,200.324 1285.438,199.555 1286.211,199.170 1286.985,199.170 1287.758,198.399 1288.531,198.016 1289.304,197.630 1290.077,197.245 1290.850,196.860 1291.624,196.476 1292.397,196.091 1293.170,195.706 1293.943,194.937 1294.716,194.552 1295.490,194.166 1296.263,193.397 1297.036,193.012 1297.809,192.242 1298.582,191.858 1299.356,191.473 1300.129,190.702 1300.902,190.319 1301.675,189.933 1302.448,189.163 1303.222,188.779 1303.995,188.394 1304.768,188.009 1305.541,187.240 1306.314,186.855 1307.087,186.855 1307.861,186.084 1308.634,185.315 1309.407,184.930 1310.180,184.545 1310.953,183.776 1311.727,183.390 1312.500,182.620 1313.273,182.236 1314.046,181.466 1314.819,181.081 1315.593,180.697 1316.366,179.926 1317.139,179.541 1317.912,179.157 1318.685,178.387 1319.459,178.002 1320.232,177.233 1321.005,176.462 1321.778,176.079 1322.551,175.693 1323.325,174.923 1324.098,174.539 1324.871,173.769 1325.644,173.000 1326.417,172.615 1327.190,171.844 1327.964,171.460 1328.737,170.690 1329.510,170.305 1330.283,169.921 1331.056,168.765 1331.830,168.382 1332.603,167.996 1333.376,167.226 1334.149,166.841 1334.922,166.457 1335.696,165.687 1336.469,165.301 1337.242,164.532 1338.015,164.147 1338.788,163.378 1339.562,162.608 1340.335,162.222 1341.108,161.068 1341.881,160.683 1342.654,160.299 1343.427,159.529 1344.201,159.144 1344.974,158.375 1345.747,157.990 1346.520,157.221 1347.293,156.450 1348.067,156.065 1348.840,155.681 1349.613,154.911 1350.386,154.142 1351.159,153.371 1351.933,152.986 1352.706,151.832 1353.479,151.447 1354.252,150.678 1355.025,150.292 1355.799,149.907 1356.572,149.138 1357.345,148.753 1358.118,148.368 1358.891,147.214 1359.664,146.828 1360.438,146.443 1361.211,145.674 1361.984,145.289 1362.757,144.520 1363.530,143.750 1364.304,142.981 1365.077,142.595 1365.850,141.825 1366.623,141.056 1367.396,140.671 1368.170,140.286 1368.943,139.517 1369.716,139.131 1370.489,138.746 1371.262,137.977 1372.036,137.592 1372.809,137.207 1373.582,136.438 1374.355,136.053 1375.128,135.667 1375.902,134.898 1376.675,134.513 1377.448,133.744 1378.221,133.359 1378.994,132.974 1379.767,132.205 1380.541,131.820 1381.314,131.434 1382.087,131.049 1382.860,130.280 1383.633,130.280 1384.407,129.895 1385.180,129.126 1385.953,128.741 1386.726,128.356 1387.499,127.585 1388.273,126.816 1389.046,126.431 1389.819,125.662 1390.592,125.277 1391.365,124.506 1392.139,124.123 1392.912,123.737 1393.685,122.583 1394.458,122.198 1395.231,122.198 1396.004,121.427 1396.778,121.044 1397.551,120.659 1398.324,119.888 1399.097,119.504 1399.870,119.119 1400.644,118.349 1401.417,117.965 1402.190,117.580 1402.963,116.809 1403.736,116.426 1404.510,116.040 1405.283,115.270 1406.056,114.886 1406.829,114.501 1407.602,113.730 1408.376,113.347 1409.149,113.347 1409.922,112.962 1410.695,112.576 1411.468,111.807 1412.242,111.422 1413.015,111.422 1413.788,110.652 1414.561,110.268 1415.334,109.883 1416.107,109.497 1416.881,108.727 1417.654,108.727 1418.427,108.343 1419.200,107.573 1419.973,107.188 1420.747,106.804 1421.520,106.419 1422.293,106.033 1423.066,105.648 1423.839,105.265 1424.613,105.265 1425.386,104.879 1426.159,104.494 1426.932,104.109 1427.705,103.725 1428.479,103.725 1429.252,103.340 1430.025,102.955 1430.798,102.569 1431.571,102.186 1432.344,102.186 1433.118,101.415 1433.891,101.030 1434.664,100.646 1435.437,100.646 1436.210,100.261 1436.984,99.491 1437.757,99.491 1438.530,99.107 1439.303,99.107 1440.076,98.722 1440.850,98.336 1441.623,97.951 1442.396,97.951 1443.169,97.567 1443.942,97.182 1444.716,96.797 1445.489,96.412 1446.262,96.412 1447.035,96.028 1447.808,95.643 1448.582,95.258 1449.355,94.872 1450.128,94.872 1450.901,94.489 1451.674,94.103 1452.447,93.718 1453.221,93.333 1453.994,93.333 1454.767,92.949 1455.540,92.949 1456.313,92.949 1457.087,92.564 1457.860,92.564 1458.633,92.179 1459.406,91.794 1460.179,91.794 1460.953,91.410 1461.726,91.410 1462.499,91.410 1463.272,91.025 1464.045,90.639 1464.819,90.639 1465.592,90.254 1466.365,90.254 1467.138,90.254 1467.911,89.869 1468.684,89.869 1469.458,89.869 1470.231,89.869 1471.004,89.869 1471.777,89.485 1472.550,89.485 1473.324,89.100 1474.097,89.100 1474.870,89.100 1475.643,88.715 1476.416,88.715 1477.190,88.715 1477.963,88.715 1478.736,88.330 1479.509,88.330 1480.282,88.330 1481.056,88.330 1481.829,88.330 1482.602,87.946 1483.375,87.946 1484.148,87.946 1484.921,87.946 1485.695,87.946 1486.468,87.561 1487.241,87.561 1488.014,87.561 1488.787,87.561 1489.561,87.561 1490.334,87.175 1491.107,87.175 1491.880,87.175 1492.653,87.175 1493.427,87.175 1494.200,87.175 1494.973,87.175 1495.746,87.175 1496.519,87.175 1497.293,87.175 1498.066,87.175 1498.839,87.175 1499.612,87.175 1500.385,87.175 1501.159,87.175 1501.932,87.175 1502.705,87.175 1503.478,87.175 1504.251,87.175 1505.024,87.175 1505.798,87.175 1506.571,87.175 1507.344,87.175 1508.117,87.175 1508.890,87.175 1509.664,87.175 1510.437,87.175 1511.210,87.175 1511.983,87.175 1512.756,87.175 1513.530,87.175 1514.303,87.175 1515.076,87.175 1515.849,87.175 1516.622,87.175 1517.396,87.175 1518.169,87.175 1518.942,87.175 1519.715,87.175 1520.488,87.175 1521.261,87.175 1522.035,87.175 1522.808,87.175 1523.581,87.175 1524.354,87.175 1525.127,87.175 1525.901,87.175 1526.674,87.175 1527.447,87.175 1528.220,87.175 1528.993,87.175 1529.767,87.175 1530.540,87.175 1531.313,87.175 1532.086,87.175 1532.859,87.175 1533.633,87.175 1534.406,87.175 1535.179,87.175 1535.952,87.175 1536.725,87.175 1537.499,87.175 1538.272,87.175 1539.045,87.175 1539.818,87.175 1540.591,87.175 1541.364,87.175 1542.138,87.175 1542.911,87.175 1543.684,87.175 1544.457,87.175 1545.230,87.175 1546.004,87.175 1546.777,87.175 1547.550,87.175 "
             id="polyline27"
             style="fill:none;stroke:#ff0000;stroke-width:3pt;stroke-dasharray:none" />
          <g
             id="g29" />
        </g>
        <g
           id="ID000004" />
        <g
           id="ID000005" />
        <g
           id="ID000006" />
        <g
           id="ID000007" />
        <g
           id="ID000008" />
      </g>
      <g
         id="g36">
        <polyline
           points="376.165,879.215 376.165,865.963 "
           id="polyline38"
           style="fill:none;stroke:#000000;stroke-width:0.5pt;stroke-dasharray:none" />
        <polyline
           points="530.803,879.215 530.803,865.963 "
           id="polyline40"
           style="fill:none;stroke:#000000;stroke-width:0.5pt;stroke-dasharray:none" />
        <polyline
           points="685.442,879.215 685.442,865.963 "
           id="polyline42"
           style="fill:none;stroke:#000000;stroke-width:0.5pt;stroke-dasharray:none" />
        <polyline
           points="840.080,879.215 840.080,865.963 "
           id="polyline44"
           style="fill:none;stroke:#000000;stroke-width:0.5pt;stroke-dasharray:none" />
        <polyline
           points="994.718,879.215 994.718,865.963 "
           id="polyline46"
           style="fill:none;stroke:#000000;stroke-width:0.5pt;stroke-dasharray:none" />
        <polyline
           points="1149.356,879.215 1149.356,865.963 "
           id="polyline48"
           style="fill:none;stroke:#000000;stroke-width:0.5pt;stroke-dasharray:none" />
        <polyline
           points="1303.995,879.215 1303.995,865.963 "
           id="polyline50"
           style="fill:none;stroke:#000000;stroke-width:0.5pt;stroke-dasharray:none" />
        <polyline
           points="1458.633,879.215 1458.633,865.963 "
           id="polyline52"
           style="fill:none;stroke:#000000;stroke-width:0.5pt;stroke-dasharray:none" />
        <polyline
           points="222.300,879.215 1547.550,879.215 "
           id="polyline54"
           style="fill:none;stroke:#000000;stroke-width:0.5pt;stroke-dasharray:none" />
        <polyline
           points="376.165,74.091 376.165,87.344 "
           id="polyline56"
           style="fill:none;stroke:#000000;stroke-width:0.5pt;stroke-dasharray:none" />
        <polyline
           points="530.803,74.091 530.803,87.344 "
           id="polyline58"
           style="fill:none;stroke:#000000;stroke-width:0.5pt;stroke-dasharray:none" />
        <polyline
           points="685.442,74.091 685.442,87.344 "
           id="polyline60"
           style="fill:none;stroke:#000000;stroke-width:0.5pt;stroke-dasharray:none" />
        <polyline
           points="840.080,74.091 840.080,87.344 "
           id="polyline62"
           style="fill:none;stroke:#000000;stroke-width:0.5pt;stroke-dasharray:none" />
        <polyline
           points="994.718,74.091 994.718,87.344 "
           id="polyline64"
           style="fill:none;stroke:#000000;stroke-width:0.5pt;stroke-dasharray:none" />
        <polyline
           points="1149.356,74.091 1149.356,87.344 "
           id="polyline66"
           style="fill:none;stroke:#000000;stroke-width:0.5pt;stroke-dasharray:none" />
        <polyline
           points="1303.995,74.091 1303.995,87.344 "
           id="polyline68"
           style="fill:none;stroke:#000000;stroke-width:0.5pt;stroke-dasharray:none" />
        <polyline
           points="1458.633,74.091 1458.633,87.344 "
           id="polyline70"
           style="fill:none;stroke:#000000;stroke-width:0.5pt;stroke-dasharray:none" />
        <polyline
           points="222.300,74.091 1547.550,74.091 "
           id="polyline72"
           style="fill:none;stroke:#000000;stroke-width:0.5pt;stroke-dasharray:none" />
        <g
           transform="translate(376.165,915.308)"
           id="g74">
          <g
             id="g76">
            <text
               x="0"
               y="0"
               font-size="17pt"
               id="text78"
               style="font-size:21.25px;text-anchor:middle;fill:#000000;font-family:Helvetica">200</text>
          </g>
        </g>
        <g
           transform="translate(530.803,915.308)"
           id="g80">
          <g
             id="g82">
            <text
               x="0"
               y="0"
               font-size="17pt"
               id="text84"
               style="font-size:21.25px;text-anchor:middle;fill:#000000;font-family:Helvetica">400</text>
          </g>
        </g>
        <g
           transform="translate(685.442,915.308)"
           id="g86">
          <g
             id="g88">
            <text
               x="0"
               y="0"
               font-size="17pt"
               id="text90"
               style="font-size:21.25px;text-anchor:middle;fill:#000000;font-family:Helvetica">600</text>
          </g>
        </g>
        <g
           transform="translate(840.08,915.308)"
           id="g92">
          <g
             id="g94">
            <text
               x="0"
               y="0"
               font-size="17pt"
               id="text96"
               style="font-size:21.25px;text-anchor:middle;fill:#000000;font-family:Helvetica">800</text>
          </g>
        </g>
        <g
           transform="translate(994.718,915.308)"
           id="g98">
          <g
             id="g100">
            <text
               x="0"
               y="0"
               font-size="17pt"
               id="text102"
               style="font-size:21.25px;text-anchor:middle;fill:#000000;font-family:Helvetica">1000</text>
          </g>
        </g>
        <g
           transform="translate(1149.356,915.308)"
           id="g104">
          <g
             id="g106">
            <text
               x="0"
               y="0"
               font-size="17pt"
               id="text108"
               style="font-size:21.25px;text-anchor:middle;fill:#000000;font-family:Helvetica">1200</text>
          </g>
        </g>
        <g
           transform="translate(1303.995,915.308)"
           id="g110">
          <g
             id="g112">
            <text
               x="0"
               y="0"
               font-size="17pt"
               id="text114"
               style="font-size:21.25px;text-anchor:middle;fill:#000000;font-family:Helvetica">1400</text>
          </g>
        </g>
        <g
           transform="translate(1458.633,915.308)"
           id="g116">
          <g
             id="g118">
            <text
               x="0"
               y="0"
               font-size="17pt"
               id="text120"
               style="font-size:21.25px;text-anchor:middle;fill:#000000;font-family:Helvetica">1600</text>
          </g>
        </g>
        <polyline
           points="222.300,802.168 235.552,802.168 "
           id="polyline122"
           style="fill:none;stroke:#000000;stroke-width:0.5pt;stroke-dasharray:none" />
        <polyline
           points="222.300,725.121 235.552,725.121 "
           id="polyline124"
           style="fill:none;stroke:#000000;stroke-width:0.5pt;stroke-dasharray:none" />
        <polyline
           points="222.300,648.073 235.552,648.073 "
           id="polyline126"
           style="fill:none;stroke:#000000;stroke-width:0.5pt;stroke-dasharray:none" />
        <polyline
           points="222.300,571.026 235.552,571.026 "
           id="polyline128"
           style="fill:none;stroke:#000000;stroke-width:0.5pt;stroke-dasharray:none" />
        <polyline
           points="222.300,493.979 235.552,493.979 "
           id="polyline130"
           style="fill:none;stroke:#000000;stroke-width:0.5pt;stroke-dasharray:none" />
        <polyline
           points="222.300,416.932 235.552,416.932 "
           id="polyline132"
           style="fill:none;stroke:#000000;stroke-width:0.5pt;stroke-dasharray:none" />
        <polyline
           points="222.300,339.884 235.552,339.884 "
           id="polyline134"
           style="fill:none;stroke:#000000;stroke-width:0.5pt;stroke-dasharray:none" />
        <polyline
           points="222.300,262.837 235.552,262.837 "
           id="polyline136"
           style="fill:none;stroke:#000000;stroke-width:0.5pt;stroke-dasharray:none" />
        <polyline
           points="222.300,185.790 235.552,185.790 "
           id="polyline138"
           style="fill:none;stroke:#000000;stroke-width:0.5pt;stroke-dasharray:none" />
        <polyline
           points="222.300,108.742 235.552,108.742 "
           id="polyline140"
           style="fill:none;stroke:#000000;stroke-width:0.5pt;stroke-dasharray:none" />
        <polyline
           points="222.300,879.215 222.300,74.091 "
           id="polyline142"
           style="fill:none;stroke:#000000;stroke-width:0.5pt;stroke-dasharray:none" />
        <polyline
           points="1547.550,802.168 1534.297,802.168 "
           id="polyline144"
           style="fill:none;stroke:#000000;stroke-width:0.5pt;stroke-dasharray:none" />
        <polyline
           points="1547.550,725.121 1534.297,725.121 "
           id="polyline146"
           style="fill:none;stroke:#000000;stroke-width:0.5pt;stroke-dasharray:none" />
        <polyline
           points="1547.550,648.073 1534.297,648.073 "
           id="polyline148"
           style="fill:none;stroke:#000000;stroke-width:0.5pt;stroke-dasharray:none" />
        <polyline
           points="1547.550,571.026 1534.297,571.026 "
           id="polyline150"
           style="fill:none;stroke:#000000;stroke-width:0.5pt;stroke-dasharray:none" />
        <polyline
           points="1547.550,493.979 1534.297,493.979 "
           id="polyline152"
           style="fill:none;stroke:#000000;stroke-width:0.5pt;stroke-dasharray:none" />
        <polyline
           points="1547.550,416.932 1534.297,416.932 "
           id="polyline154"
           style="fill:none;stroke:#000000;stroke-width:0.5pt;stroke-dasharray:none" />
        <polyline
           points="1547.550,339.884 1534.297,339.884 "
           id="polyline156"
           style="fill:none;stroke:#000000;stroke-width:0.5pt;stroke-dasharray:none" />
        <polyline
           points="1547.550,262.837 1534.297,262.837 "
           id="polyline158"
           style="fill:none;stroke:#000000;stroke-width:0.5pt;stroke-dasharray:none" />
        <polyline
           points="1547.550,185.790 1534.297,185.790 "
           id="polyline160"
           style="fill:none;stroke:#000000;stroke-width:0.5pt;stroke-dasharray:none" />
        <polyline
           points="1547.550,108.742 1534.297,108.742 "
           id="polyline162"
           style="fill:none;stroke:#000000;stroke-width:0.5pt;stroke-dasharray:none" />
        <polyline
           points="1547.550,879.215 1547.550,74.091 "
           id="polyline164"
           style="fill:none;stroke:#000000;stroke-width:0.5pt;stroke-dasharray:none" />
        <g
           transform="translate(195.795,886.839)"
           id="g166">
          <g
             id="g168">
            <text
               x="0"
               y="0"
               font-size="17pt"
               id="text170"
               style="font-size:21.25px;text-anchor:end;fill:#000000;font-family:Helvetica">0</text>
          </g>
        </g>
        <g
           transform="translate(195.795,809.792)"
           id="g172">
          <g
             id="g174">
            <text
               x="0"
               y="0"
               font-size="17pt"
               id="text176"
               style="font-size:21.25px;text-anchor:end;fill:#000000;font-family:Helvetica">500</text>
          </g>
        </g>
        <g
           transform="translate(195.795,732.744)"
           id="g178">
          <g
             id="g180">
            <text
               x="0"
               y="0"
               font-size="17pt"
               id="text182"
               style="font-size:21.25px;text-anchor:end;fill:#000000;font-family:Helvetica">1000</text>
          </g>
        </g>
        <g
           transform="translate(195.795,655.697)"
           id="g184">
          <g
             id="g186">
            <text
               x="0"
               y="0"
               font-size="17pt"
               id="text188"
               style="font-size:21.25px;text-anchor:end;fill:#000000;font-family:Helvetica">1500</text>
          </g>
        </g>
        <g
           transform="translate(195.795,578.65)"
           id="g190">
          <g
             id="g192">
            <text
               x="0"
               y="0"
               font-size="17pt"
               id="text194"
               style="font-size:21.25px;text-anchor:end;fill:#000000;font-family:Helvetica">2000</text>
          </g>
        </g>
        <g
           transform="translate(195.795,501.602)"
           id="g196">
          <g
             id="g198">
            <text
               x="0"
               y="0"
               font-size="17pt"
               id="text200"
               style="font-size:21.25px;text-anchor:end;fill:#000000;font-family:Helvetica">2500</text>
          </g>
        </g>
        <g
           transform="translate(195.795,424.555)"
           id="g202">
          <g
             id="g204">
            <text
               x="0"
               y="0"
               font-size="17pt"
               id="text206"
               style="font-size:21.25px;text-anchor:end;fill:#000000;font-family:Helvetica">3000</text>
          </g>
        </g>
        <g
           transform="translate(195.795,347.508)"
           id="g208">
          <g
             id="g210">
            <text
               x="0"
               y="0"
               font-size="17pt"
               id="text212"
               style="font-size:21.25px;text-anchor:end;fill:#000000;font-family:Helvetica">3500</text>
          </g>
        </g>
        <g
           transform="translate(195.795,270.461)"
           id="g214">
          <g
             id="g216">
            <text
               x="0"
               y="0"
               font-size="17pt"
               id="text218"
               style="font-size:21.25px;text-anchor:end;fill:#000000;font-family:Helvetica">4000</text>
          </g>
        </g>
        <g
           transform="translate(195.795,193.413)"
           id="g220">
          <g
             id="g222">
            <text
               x="0"
               y="0"
               font-size="17pt"
               id="text224"
               style="font-size:21.25px;text-anchor:end;fill:#000000;font-family:Helvetica">4500</text>
          </g>
        </g>
        <g
           transform="translate(195.795,116.366)"
           id="g226">
          <g
             id="g228">
            <text
               x="0"
               y="0"
               font-size="17pt"
               id="text230"
               style="font-size:21.25px;text-anchor:end;fill:#000000;font-family:Helvetica">5000</text>
          </g>
        </g>
        <polyline
           points="222.300,879.215 222.300,871.164 "
           id="polyline232"
           style="fill:none;stroke:#000000;stroke-width:0.5pt;stroke-dasharray:none" />
        <polyline
           points="222.300,879.215 222.300,879.215 "
           id="polyline234"
           style="fill:none;stroke:#000000;stroke-width:0.5pt;stroke-dasharray:none" />
      </g>
    </g>
    <g
       id="ID000009">
      <clipPath
         id="ID000010">
        <rect
           x="335.96201"
           y="144.562"
           width="229.32401"
           height="60.683998"
           id="rect238" />
      </clipPath>
      <polygon
         points="335.962,144.562 335.962,205.246 565.285,205.246 565.285,144.562 "
         id="polygon240"
         style="fill:#ffffff;fill-opacity:1;stroke:none" />
      <polygon
         points="335.962,144.562 335.962,144.562 565.285,144.562 565.285,144.562 "
         id="polygon242"
         style="fill:#ffffff;fill-opacity:1;stroke:none" />
      <polygon
         points="335.962,144.562 335.962,205.246 335.962,205.246 335.962,144.562 "
         id="polygon244"
         style="fill:#ffffff;fill-opacity:1;stroke:none" />
      <g
         id="g246">
        <g
           id="ID000011" />
        <g
           id="ID000012" />
        <g
           id="ID000013" />
        <g
           id="ID000014">
          <g
             transform="translate(385.103,169.752)"
             id="g252">
            <g
               id="g254">
              <text
                 x="0"
                 y="0"
                 font-size="17pt"
                 id="text256"
                 style="font-size:21.25px;text-anchor:start;fill:#000000;font-family:Helvetica">Estimated Location</text>
            </g>
          </g>
        </g>
        <g
           id="ID000015"
           clip-path="url(#ID000010)">
          <polyline
             points="343.462,160.827 380.962,160.827 "
             id="polyline259"
             style="fill:none;stroke:#0000ff;stroke-width:1pt;stroke-dasharray:none" />
          <g
             id="g261" />
        </g>
        <g
           id="ID000016"
           clip-path="url(#ID000010)">
          <g
             id="g264" />
        </g>
        <g
           id="ID000017">
          <g
             transform="translate(385.103,197.432)"
             id="g267">
            <g
               id="g269">
              <text
                 x="0"
                 y="0"
                 font-size="17pt"
                 id="text271"
                 style="font-size:21.25px;text-anchor:start;fill:#000000;font-family:Helvetica">Ground Truth</text>
            </g>
          </g>
        </g>
        <g
           id="ID000018"
           clip-path="url(#ID000010)">
          <polyline
             points="343.462,188.981 380.962,188.981 "
             id="polyline274"
             style="fill:none;stroke:#ff0000;stroke-width:3pt;stroke-dasharray:none" />
          <g
             id="g276" />
        </g>
        <g
           id="ID000019"
           clip-path="url(#ID000010)">
          <g
             id="g279" />
        </g>
      </g>
      <g
         id="g281">
        <polyline
           points="335.962,205.246 565.285,205.246 "
           id="polyline283"
           style="fill:none;stroke:#000000;stroke-width:0.5pt;stroke-dasharray:none" />
        <polyline
           points="335.962,144.562 565.285,144.562 "
           id="polyline285"
           style="fill:none;stroke:#000000;stroke-width:0.5pt;stroke-dasharray:none" />
        <polyline
           points="335.962,205.246 335.962,144.562 "
           id="polyline287"
           style="fill:none;stroke:#000000;stroke-width:0.5pt;stroke-dasharray:none" />
        <polyline
           points="565.285,205.246 565.285,144.562 "
           id="polyline289"
           style="fill:none;stroke:#000000;stroke-width:0.5pt;stroke-dasharray:none" />
        <polyline
           points="335.962,205.246 335.962,204.639 "
           id="polyline291"
           style="fill:none;stroke:#000000;stroke-width:0.5pt;stroke-dasharray:none" />
        <polyline
           points="335.962,205.246 335.962,205.246 "
           id="polyline293"
           style="fill:none;stroke:#000000;stroke-width:0.5pt;stroke-dasharray:none" />
      </g>
    </g>
    <g
       id="ID000020">
      <clipPath
         id="ID000021">
        <rect
           x="0"
           y="0"
           width="1710"
           height="987.88202"
           id="rect297" />
      </clipPath>
      <g
         id="g299" />
    </g>
    <text
       xml:space="preserve"
       style="font-size:40px;font-style:normal;font-variant:normal;font-weight:normal;font-stretch:normal;line-height:125%;letter-spacing:0px;word-spacing:0px;fill:#000000;fill-opacity:1;stroke:none;font-family:Times New Roman;-inkscape-font-specification:Times New Roman"
       x="795.47467"
       y="941.88513"
       id="text4050"
       sodipodi:linespacing="125%"><tspan
         sodipodi:role="line"
         id="tspan4052"
         x="795.47467"
         y="941.88513" /><tspan
         sodipodi:role="line"
         x="795.47467"
         y="991.88513"
         id="tspan4054" /></text>
    <text
       xml:space="preserve"
       style="font-size:40px;font-style:normal;font-variant:normal;font-weight:normal;font-stretch:normal;line-height:125%;letter-spacing:0px;word-spacing:0px;fill:#000000;fill-opacity:1;stroke:none;font-family:Times New Roman;-inkscape-font-specification:Times New Roman"
       x="767.06488"
       y="951.3551"
       id="text4056"
       sodipodi:linespacing="125%"><tspan
         sodipodi:role="line"
         id="tspan4058"
         x="767.06488"
         y="951.3551">Frame ID</tspan></text>
    <flowRoot
       xml:space="preserve"
       id="flowRoot4060"
       style="font-size:40px;font-style:normal;font-variant:normal;font-weight:normal;font-stretch:normal;line-height:125%;letter-spacing:0px;word-spacing:0px;fill:#000000;fill-opacity:1;stroke:none;font-family:Times New Roman;-inkscape-font-specification:Times New Roman"
       transform="matrix(0.01441094,-0.99989616,0.99989616,0.01441094,-233.24389,727.28575)"><flowRegion
         id="flowRegion4062"><rect
           id="rect4064"
           width="522.19934"
           height="44.643986"
           x="77.112343"
           y="307.39941" /></flowRegion><flowPara
         id="flowPara4066">Distance from origin (cm)</flowPara></flowRoot>  </g>
</svg>
