<?xml version="1.0" encoding="UTF-8" standalone="no"?>
<svg
   xmlns:dc="http://purl.org/dc/elements/1.1/"
   xmlns:cc="http://creativecommons.org/ns#"
   xmlns:rdf="http://www.w3.org/1999/02/22-rdf-syntax-ns#"
   xmlns:svg="http://www.w3.org/2000/svg"
   xmlns="http://www.w3.org/2000/svg"
   xmlns:sodipodi="http://sodipodi.sourceforge.net/DTD/sodipodi-0.dtd"
   xmlns:inkscape="http://www.inkscape.org/namespaces/inkscape"
   preserveAspectRatio="xMinYMin meet"
   width="100%"
   height="100%"
   viewBox="0 0 1710.000 987.882"
   version="1.1"
   id="svg3150"
   inkscape:version="0.48.3.1 r9886"
   sodipodi:docname="Lightweight_bad.svg">
  <metadata
     id="metadata3443">
    <rdf:RDF>
      <cc:Work
         rdf:about="">
        <dc:format>image/svg+xml</dc:format>
        <dc:type
           rdf:resource="http://purl.org/dc/dcmitype/StillImage" />
      </cc:Work>
    </rdf:RDF>
  </metadata>
  <defs
     id="defs3441" />
  <sodipodi:namedview
     pagecolor="#ffffff"
     bordercolor="#666666"
     borderopacity="1"
     objecttolerance="10"
     gridtolerance="10"
     guidetolerance="10"
     inkscape:pageopacity="0"
     inkscape:pageshadow="2"
     inkscape:window-width="1615"
     inkscape:window-height="1026"
     id="namedview3439"
     showgrid="false"
     inkscape:zoom="0.36959064"
     inkscape:cx="817.55537"
     inkscape:cy="391.74368"
     inkscape:window-x="1345"
     inkscape:window-y="24"
     inkscape:window-maximized="1"
     inkscape:current-layer="svg3150" />
  <desc
     id="desc3152">Matlab Figure Converted by PLOT2SVG written by Juerg Schwizer</desc>
  <g
     id="topgroup">
    <rect
       x="0"
       y="0"
       width="1710.000"
       height="987.882"
       fill="#ffffff"
       stroke="none"
       id="rect3155" />
    <g
       id="ID000000">
      <clipPath
         id="ID000001">
        <rect
           x="222.300"
           y="74.091"
           width="1325.250"
           height="805.124"
           id="rect3159" />
      </clipPath>
      <polygon
         fill="#ffffff"
         fill-opacity="1.00"
         stroke="none"
         stroke-width="0.5pt"
         stroke-opacity="1.00"
         stroke-dasharray="none"
         points="222.300,879.215 1547.550,879.215 1547.550,74.091 222.300,74.091 "
         id="polygon3161" />
      <polygon
         fill="#ffffff"
         fill-opacity="1.00"
         stroke="none"
         stroke-width="0.5pt"
         stroke-opacity="1.00"
         stroke-dasharray="none"
         points="222.300,74.091 1547.550,74.091 1547.550,74.091 222.300,74.091 "
         id="polygon3163" />
      <polygon
         fill="#ffffff"
         fill-opacity="1.00"
         stroke="none"
         stroke-width="0.5pt"
         stroke-opacity="1.00"
         stroke-dasharray="none"
         points="222.300,879.215 222.300,879.215 222.300,74.091 222.300,74.091 "
         id="polygon3165" />
      <g
         id="g3167">
        <g
           id="ID000002"
           clip-path="url(#ID000001)">
          <polyline
             fill="none"
             stroke="#0000ff"
             stroke-width="1.0pt"
             stroke-dasharray="none"
             points="222.300,198.355 223.485,198.355 224.671,371.805 225.856,384.749 227.042,226.831 228.227,226.831 229.412,358.861 230.598,358.861 231.783,358.861 232.968,309.675 234.154,309.675 235.339,358.861 236.525,358.861 237.710,350.447 238.895,350.447 240.081,358.861 241.266,345.270 242.451,358.861 243.637,358.861 244.822,343.977 246.008,343.977 247.193,855.916 248.378,437.820 249.564,437.820 250.749,437.820 251.934,358.861 253.120,350.447 254.305,350.447 255.491,365.335 256.676,365.980 257.861,367.276 259.047,358.861 260.232,367.276 261.417,367.276 262.603,367.276 263.788,367.276 264.974,367.276 266.159,367.276 267.344,373.101 268.530,383.456 269.715,367.276 270.900,367.276 272.086,365.980 273.271,367.276 274.457,373.101 275.642,373.101 276.827,373.101 278.013,358.861 279.198,383.456 280.383,367.276 281.569,367.276 282.754,367.276 283.940,367.276 285.125,383.456 286.310,358.861 287.496,358.861 288.681,358.861 289.866,358.861 291.052,358.861 292.237,373.101 293.423,358.861 294.608,855.916 295.793,855.916 296.979,855.916 298.164,437.820 299.349,350.447 300.535,350.447 301.720,855.916 302.906,345.270 304.091,855.916 305.276,855.916 306.462,437.820 307.647,350.447 308.832,365.335 310.018,716.120 311.203,716.120 312.389,367.276 313.574,365.335 314.759,387.986 315.945,848.150 317.130,371.805 318.315,367.276 319.501,367.276 320.686,367.276 321.872,716.120 323.057,716.120 324.242,373.101 325.428,373.101 326.613,373.101 327.798,358.861 328.984,358.861 330.169,855.916 331.355,437.820 332.540,403.518 333.725,365.335 334.911,350.447 336.096,855.916 337.281,345.270 338.467,345.270 339.652,345.270 340.838,855.916 342.023,855.916 343.208,446.234 344.394,350.447 345.579,446.234 346.764,855.916 347.950,855.916 349.135,855.916 350.321,855.916 351.506,345.270 352.691,350.447 353.877,350.447 355.062,839.736 356.247,839.736 357.433,839.736 358.618,564.025 359.804,564.025 360.989,840.384 362.174,840.384 363.360,839.736 364.545,840.384 365.730,840.384 366.916,381.513 368.101,564.025 369.287,564.025 370.472,345.270 371.657,345.270 372.843,345.270 374.028,345.270 375.213,345.270 376.399,535.548 377.584,563.380 378.770,563.380 379.955,563.380 381.140,563.380 382.326,549.140 383.511,855.268 384.696,855.268 385.882,855.916 387.067,855.916 388.253,855.916 389.438,855.916 390.623,855.916 391.809,855.916 392.994,855.916 394.179,879.215 395.365,842.325 396.550,875.979 397.736,875.979 398.921,875.979 400.106,841.029 401.292,855.916 402.477,383.456 403.662,383.456 404.848,382.160 406.033,381.513 407.219,381.513 408.404,381.513 409.589,381.513 410.775,381.513 411.960,384.749 413.145,381.513 414.331,381.513 415.516,381.513 416.702,381.513 417.887,383.456 419.072,381.513 420.258,387.986 421.443,387.986 422.628,387.986 423.814,387.986 424.999,387.986 426.185,387.986 427.370,387.986 428.555,387.986 429.741,382.160 430.926,382.160 432.111,382.160 433.297,383.456 434.482,382.160 435.668,387.986 436.853,371.805 438.038,382.160 439.224,387.986 440.409,386.690 441.594,386.690 442.780,386.690 443.965,839.736 445.151,839.736 446.336,839.736 447.521,839.736 448.707,839.736 449.892,840.384 451.078,840.384 452.263,381.513 453.448,381.513 454.634,384.749 455.819,367.276 457.004,367.276 458.190,371.805 459.375,345.918 460.561,496.069 461.746,358.861 462.931,357.566 464.117,439.116 465.302,345.270 466.487,345.270 467.673,345.918 468.858,345.918 470.044,345.918 471.229,345.918 472.414,371.805 473.600,345.918 474.785,345.918 475.970,496.069 477.156,379.572 478.341,375.042 479.527,496.069 480.712,367.276 481.897,496.069 483.083,496.069 484.268,543.963 485.453,543.963 486.639,358.861 487.824,422.936 489.010,773.073 490.195,773.073 491.380,422.936 492.566,507.072 493.751,359.509 494.936,419.051 496.122,773.073 497.307,441.057 498.493,420.347 499.678,417.758 500.863,419.051 502.049,419.051 503.234,417.758 504.419,417.758 505.605,657.871 506.790,410.637 507.976,657.871 509.161,657.871 510.346,771.780 511.532,771.780 512.717,771.780 513.902,423.581 515.088,659.812 516.273,648.161 517.459,422.936 518.644,754.952 519.829,642.339 521.015,635.218 522.200,642.339 523.385,642.339 524.571,667.579 525.756,754.952 526.942,753.658 528.127,752.363 529.312,753.658 530.498,156.287 531.683,741.360 532.868,619.685 534.054,619.685 535.239,622.274 536.425,751.070 537.610,765.307 538.795,764.659 539.981,160.816 541.166,661.108 542.351,152.402 543.537,729.064 544.722,434.584 545.908,417.758 547.093,773.073 548.278,773.073 549.464,422.936 550.649,419.051 551.834,420.992 553.020,127.808 554.205,127.808 555.391,127.808 556.576,127.808 557.761,161.464 558.947,161.464 560.132,161.464 561.317,496.069 562.503,635.218 563.688,480.536 564.874,480.536 566.059,480.536 567.244,735.534 568.430,476.652 569.615,476.652 570.800,466.945 571.986,476.652 573.171,466.945 574.357,486.362 575.542,480.536 576.727,480.536 577.913,479.889 579.098,479.889 580.283,731.653 581.469,731.005 582.654,479.889 583.840,474.711 585.025,480.536 586.210,480.536 587.396,480.536 588.581,474.711 589.766,480.536 590.952,734.241 592.137,734.241 593.323,480.536 594.508,480.536 595.693,734.241 596.879,735.534 598.064,735.534 599.249,476.652 600.435,735.534 601.620,511.602 602.806,735.534 603.991,735.534 605.176,432.643 606.362,432.643 607.547,343.329 608.732,563.380 609.918,735.534 611.103,585.383 612.289,563.380 613.474,535.548 614.659,564.025 615.845,564.025 617.030,564.025 618.215,710.295 619.401,710.295 620.586,564.025 621.772,564.025 622.957,564.025 624.142,543.963 625.328,430.054 626.513,564.025 627.698,564.025 628.884,564.025 630.069,564.025 631.255,431.350 632.440,431.350 633.625,431.350 634.811,431.350 635.996,440.409 637.181,424.876 638.367,398.341 639.552,398.341 640.738,381.513 641.923,450.764 643.108,368.569 644.294,450.764 645.479,422.936 646.664,367.276 647.850,367.276 649.035,367.276 650.221,420.347 651.406,496.069 652.591,496.069 653.777,422.936 654.962,422.936 656.147,422.936 657.333,365.335 658.518,375.042 659.704,422.936 660.889,422.936 662.074,422.936 663.260,367.276 664.445,420.347 665.631,422.936 666.816,423.581 668.001,423.581 669.187,420.347 670.372,420.347 671.557,420.347 672.743,422.936 673.928,422.936 675.114,423.581 676.299,420.347 677.484,657.871 678.670,642.339 679.855,642.339 681.040,628.747 682.226,628.747 683.411,755.599 684.597,659.812 685.782,659.812 686.967,659.812 688.153,659.812 689.338,659.812 690.523,659.812 691.709,659.812 692.894,657.871 694.080,642.339 695.265,642.339 696.450,656.576 697.636,752.363 698.821,642.339 700.006,642.339 701.192,752.363 702.377,764.659 703.563,762.718 704.748,638.454 705.933,638.454 707.119,638.454 708.304,638.454 709.489,638.454 710.675,653.342 711.860,653.342 713.046,638.454 714.231,638.454 715.416,638.454 716.602,638.454 717.787,636.513 718.972,628.747 720.158,628.747 721.343,636.513 722.529,657.871 723.714,638.454 724.899,771.780 726.085,461.767 727.270,635.218 728.455,638.454 729.641,638.454 730.826,653.342 732.012,749.126 733.197,619.037 734.382,638.454 735.568,474.711 736.753,638.454 737.938,667.579 739.124,661.108 740.309,619.037 741.495,762.718 742.680,774.369 743.865,642.339 745.051,749.126 746.236,474.711 747.421,638.454 748.607,753.658 749.792,740.067 750.978,740.067 752.163,436.527 753.348,342.681 754.534,461.767 755.719,422.936 756.904,600.916 758.090,734.241 759.275,417.758 760.461,634.572 761.646,634.572 762.831,638.454 764.017,734.241 765.202,734.241 766.387,436.527 767.573,436.527 768.758,436.527 769.944,437.820 771.129,437.820 772.314,413.226 773.500,733.594 774.685,733.594 775.870,413.226 777.056,417.110 778.241,417.110 779.427,413.226 780.612,413.226 781.797,413.226 782.983,413.226 784.168,417.758 785.353,417.758 786.539,413.226 787.724,413.226 788.910,413.226 790.095,419.051 791.280,413.226 792.466,413.226 793.651,413.226 794.836,420.992 796.022,547.199 797.207,547.199 798.393,420.992 799.578,446.234 800.763,420.992 801.949,420.992 803.134,422.936 804.319,547.199 805.505,422.936 806.690,449.471 807.876,449.471 809.061,449.471 810.246,449.471 811.432,547.199 812.617,547.199 813.802,547.199 814.988,365.335 816.173,420.992 817.359,547.199 818.544,365.335 819.729,879.215 820.915,547.845 822.100,420.992 823.285,420.992 824.471,422.936 825.656,699.939 826.842,699.939 828.027,422.936 829.212,365.335 830.398,365.335 831.583,368.569 832.768,345.918 833.954,367.276 835.139,367.276 836.325,403.518 837.510,461.767 838.695,376.335 839.881,374.394 841.066,358.861 842.251,420.992 843.437,368.569 844.622,699.939 845.808,450.764 846.993,450.764 848.178,365.980 849.364,365.980 850.549,450.764 851.734,450.764 852.920,450.764 854.105,450.764 855.291,494.776 856.476,522.605 857.661,584.090 858.847,482.477 860.032,486.362 861.217,89.624 862.403,575.676 863.588,573.735 864.774,575.676 865.959,89.624 867.144,89.624 868.330,89.624 869.515,487.655 870.700,487.655 871.886,486.362 873.071,486.362 874.257,486.362 875.442,89.624 876.627,502.542 877.813,487.655 878.998,487.655 880.183,476.652 881.369,476.652 882.554,476.652 883.740,476.652 884.925,487.655 886.110,487.655 887.296,487.655 888.481,476.652 889.667,476.652 890.852,500.599 892.037,500.599 893.223,466.945 894.408,466.945 895.593,486.362 896.779,486.362 897.964,480.536 899.150,480.536 900.335,488.303 901.520,432.643 902.706,432.643 903.891,476.652 905.076,475.359 906.262,476.652 907.447,735.534 908.633,486.362 909.818,446.234 911.003,734.241 912.189,734.241 913.374,734.241 914.559,734.241 915.745,359.509 916.930,417.758 918.116,420.347 919.301,419.051 920.486,422.936 921.672,419.051 922.857,417.758 924.042,420.347 925.228,437.820 926.413,437.820 927.599,413.226 928.784,413.226 929.969,417.758 931.155,417.758 932.340,420.347 933.525,420.347 934.711,420.347 935.896,419.051 937.082,419.051 938.267,422.936 939.452,450.764 940.638,451.412 941.823,738.123 943.008,413.226 944.194,461.767 945.379,422.936 946.565,312.264 947.750,436.527 948.935,420.347 950.121,422.936 951.306,422.936 952.491,449.471 953.677,422.936 954.862,450.764 956.048,463.063 957.233,812.552 958.418,446.234 959.604,449.471 960.789,294.787 961.974,413.226 963.160,449.471 964.345,422.936 965.531,422.936 966.716,422.936 967.901,450.764 969.087,451.412 970.272,547.199 971.457,449.471 972.643,123.278 973.828,122.630 975.014,451.412 976.199,451.412 977.384,451.412 978.570,509.013 979.755,509.013 980.940,509.013 982.126,509.013 983.311,483.125 984.497,449.471 985.682,486.362 986.867,487.655 988.053,487.655 989.238,486.362 990.423,487.655 991.609,735.534 992.794,735.534 993.980,735.534 995.165,735.534 996.350,734.241 997.536,480.536 998.721,480.536 999.906,480.536 1001.092,735.534 1002.277,475.359 1003.463,475.359 1004.648,475.359 1005.833,475.359 1007.019,476.652 1008.204,90.272 1009.389,343.977 1010.575,343.977 1011.760,475.359 1012.946,470.181 1014.131,475.359 1015.316,476.652 1016.502,466.945 1017.687,466.945 1018.872,466.945 1020.058,345.270 1021.243,465.004 1022.429,345.918 1023.614,432.643 1024.799,475.359 1025.985,475.359 1027.170,698.644 1028.355,78.621 1029.541,430.054 1030.726,466.945 1031.912,430.054 1033.097,430.054 1034.282,431.350 1035.468,431.350 1036.653,547.199 1037.838,451.412 1039.024,565.969 1040.209,565.969 1041.395,450.764 1042.580,450.764 1043.765,398.341 1044.951,432.643 1046.136,460.474 1047.321,449.471 1048.507,449.471 1049.692,547.199 1050.878,547.199 1052.063,806.727 1053.248,343.977 1054.434,460.474 1055.619,424.876 1056.804,449.471 1057.990,449.471 1059.175,449.471 1060.361,449.471 1061.546,449.471 1062.731,449.471 1063.917,446.234 1065.102,432.643 1066.287,735.534 1067.473,735.534 1068.658,432.643 1069.844,313.557 1071.029,449.471 1072.214,449.471 1073.400,449.471 1074.585,449.471 1075.770,446.234 1076.956,313.557 1078.141,313.557 1079.327,342.681 1080.512,342.681 1081.697,313.557 1082.883,313.557 1084.068,343.977 1085.253,321.323 1086.439,321.323 1087.624,321.323 1088.810,459.178 1089.995,313.557 1091.180,313.557 1092.366,460.474 1093.551,460.474 1094.736,460.474 1095.922,460.474 1097.107,460.474 1098.293,460.474 1099.478,313.557 1100.663,313.557 1101.849,313.557 1103.034,313.557 1104.219,334.267 1105.405,334.267 1106.590,334.267 1107.776,334.267 1108.961,312.264 1110.146,461.767 1111.332,461.767 1112.517,313.557 1113.703,313.557 1114.888,313.557 1116.073,325.207 1117.259,307.086 1118.444,325.207 1119.629,325.207 1120.815,325.207 1122.000,314.852 1123.186,461.767 1124.371,600.916 1125.556,600.916 1126.742,325.207 1127.927,454.649 1129.112,454.649 1130.298,334.267 1131.483,313.557 1132.669,296.728 1133.854,461.767 1135.039,461.767 1136.225,313.557 1137.410,313.557 1138.595,334.267 1139.781,327.148 1140.966,327.148 1142.152,334.267 1143.337,329.737 1144.522,327.148 1145.708,314.204 1146.893,422.936 1148.078,334.267 1149.264,334.267 1150.449,334.267 1151.635,327.148 1152.820,422.936 1154.005,327.148 1155.191,329.737 1156.376,329.737 1157.561,422.936 1158.747,422.936 1159.932,272.136 1161.118,272.136 1162.303,77.973 1163.488,316.793 1164.674,257.897 1165.859,368.569 1167.044,422.936 1168.230,422.936 1169.415,281.843 1170.601,332.326 1171.786,327.796 1172.971,368.569 1174.157,166.642 1175.342,272.136 1176.527,272.136 1177.713,368.569 1178.898,368.569 1180.084,369.217 1181.269,422.936 1182.454,327.148 1183.640,368.569 1184.825,368.569 1186.010,368.569 1187.196,281.843 1188.381,281.843 1189.567,281.843 1190.752,281.196 1191.937,281.196 1193.123,138.811 1194.308,408.048 1195.493,347.859 1196.679,279.903 1197.864,133.633 1199.050,408.048 1200.235,454.001 1201.420,451.412 1202.606,451.412 1203.791,450.764 1204.976,332.974 1206.162,309.027 1207.347,604.152 1208.533,472.122 1209.718,746.537 1210.903,309.027 1212.089,311.616 1213.274,472.770 1214.459,472.770 1215.645,731.653 1216.830,311.616 1218.016,309.675 1219.201,810.611 1220.386,855.268 1221.572,585.383 1222.757,91.565 1223.942,91.565 1225.128,585.383 1226.313,585.383 1227.499,573.087 1228.684,570.498 1229.869,570.498 1231.055,793.783 1232.240,81.210 1233.425,83.151 1234.611,81.210 1235.796,81.210 1236.982,684.407 1238.167,684.407 1239.352,684.407 1240.538,81.857 1241.723,81.857 1242.908,82.505 1244.094,82.505 1245.279,252.071 1246.465,231.361 1247.650,232.009 1248.835,236.539 1250.021,396.400 1251.206,707.706 1252.391,813.848 1253.577,707.706 1254.762,708.999 1255.948,552.377 1257.133,565.969 1258.318,222.947 1259.504,338.151 1260.689,223.595 1261.874,223.595 1263.060,223.595 1264.245,336.856 1265.431,221.654 1266.616,742.008 1267.801,620.981 1268.987,620.981 1270.172,620.981 1271.357,160.169 1272.543,301.261 1273.728,301.261 1274.914,301.261 1276.099,301.261 1277.284,301.261 1278.470,296.083 1279.655,296.083 1280.840,296.083 1282.026,296.083 1283.211,173.760 1284.397,173.760 1285.582,173.760 1286.767,173.760 1287.953,254.660 1289.138,182.174 1290.323,176.997 1291.509,182.174 1292.694,237.187 1293.880,188.000 1295.065,174.408 1296.250,239.775 1297.436,236.539 1298.621,236.539 1299.806,236.539 1300.992,239.775 1302.177,237.187 1303.363,243.660 1304.548,243.660 1305.733,244.305 1306.919,244.305 1308.104,243.660 1309.289,243.660 1310.475,243.660 1311.660,243.660 1312.846,243.660 1314.031,243.660 1315.216,378.924 1316.402,243.660 1317.587,379.572 1318.772,823.555 1319.958,243.660 1321.143,239.775 1322.329,243.660 1323.514,244.953 1324.699,244.953 1325.885,243.660 1327.070,243.660 1328.256,243.660 1329.441,428.761 1330.626,428.761 1331.812,276.666 1332.997,277.962 1334.182,383.456 1335.368,383.456 1336.553,188.000 1337.739,391.868 1338.924,391.868 1340.109,383.456 1341.295,182.822 1342.480,182.822 1343.665,173.760 1344.851,175.056 1346.036,288.962 1347.222,272.136 1348.407,281.843 1349.592,281.843 1350.778,272.136 1351.963,272.136 1353.148,272.136 1354.334,272.136 1355.519,272.136 1356.705,272.136 1357.890,272.136 1359.075,176.349 1360.261,176.349 1361.446,283.139 1362.631,272.136 1363.817,272.136 1365.002,175.056 1366.188,270.841 1367.373,281.843 1368.558,281.196 1369.744,281.843 1370.929,272.136 1372.114,176.997 1373.300,270.841 1374.485,270.841 1375.671,272.136 1376.856,176.997 1378.041,175.056 1379.227,272.136 1380.412,368.569 1381.597,368.569 1382.783,368.569 1383.968,368.569 1385.154,368.569 1386.339,281.843 1387.524,281.843 1388.710,176.349 1389.895,138.811 1391.080,170.524 1392.266,281.843 1393.451,272.136 1394.637,247.542 1395.822,247.542 1397.007,270.841 1398.193,272.136 1399.378,272.136 1400.563,176.349 1401.749,175.056 1402.934,281.843 1404.120,281.843 1405.305,368.569 1406.490,368.569 1407.676,255.308 1408.861,368.569 1410.046,281.196 1411.232,281.196 1412.417,241.716 1413.603,175.056 1414.788,241.071 1415.973,192.530 1417.159,191.882 1418.344,175.056 1419.529,175.056 1420.715,191.882 1421.900,191.882 1423.086,191.882 1424.271,176.349 1425.456,176.349 1426.642,241.071 1427.827,241.071 1429.012,241.071 1430.198,176.349 1431.383,186.704 1432.569,241.071 1433.754,241.071 1434.939,241.071 1436.125,237.187 1437.310,239.775 1438.495,239.127 1439.681,255.308 1440.866,237.187 1442.052,175.056 1443.237,175.056 1444.422,237.834 1445.608,239.775 1446.793,236.539 1447.978,236.539 1449.164,252.071 1450.349,239.775 1451.535,239.775 1452.720,239.775 1453.905,239.775 1455.091,276.666 1456.276,236.539 1457.461,255.308 1458.647,255.308 1459.832,175.056 1461.018,185.411 1462.203,166.642 1463.388,167.290 1464.574,167.290 1465.759,255.308 1466.944,167.290 1468.130,257.897 1469.315,166.642 1470.501,281.843 1471.686,283.139 1472.871,283.784 1474.057,172.467 1475.242,272.784 1476.427,283.139 1477.613,247.542 1478.798,246.249 1479.984,167.290 1481.169,272.136 1482.354,272.136 1483.540,272.136 1484.725,175.056 1485.910,273.429 1487.096,258.545 1488.281,144.636 1489.467,281.843 1490.652,281.196 1491.837,405.459 1493.023,338.151 1494.208,222.947 1495.393,221.654 1496.579,281.196 1497.764,281.196 1498.950,281.196 1500.135,281.196 1501.320,265.018 1502.506,413.874 1503.691,281.196 1504.876,281.196 1506.062,281.196 1507.247,281.196 1508.433,415.169 1509.618,294.140 1510.803,279.903 1511.989,248.189 1513.174,248.189 1514.359,402.225 1515.545,417.110 1516.730,417.110 1517.916,248.189 1519.101,248.189 1520.286,417.758 1521.472,417.758 1522.657,420.992 1523.842,360.802 1525.028,248.189 1526.213,420.992 1527.399,417.758 1528.584,422.936 1529.769,415.814 1530.955,415.814 1532.140,420.992 1533.325,358.861 1534.511,358.861 1535.696,76.680 1536.882,247.542 1538.067,391.868 1539.252,367.276 1540.438,383.456 1541.623,373.101 1542.808,435.879 1543.994,383.456 1545.179,380.219 1546.365,380.219 1547.550,358.861 "
             id="polyline3170" />
          <g
             id="g3172" />
        </g>
        <g
           id="ID000003"
           clip-path="url(#ID000001)">
          <polyline
             fill="none"
             stroke="#ff0000"
             stroke-width="2.0pt"
             stroke-dasharray="none"
             points="222.300,879.215 223.485,878.567 224.671,878.567 225.856,878.567 227.042,878.567 228.227,878.567 229.412,877.920 230.598,877.920 231.783,877.920 232.968,877.920 234.154,877.920 235.339,877.274 236.525,877.274 237.710,877.274 238.895,877.274 240.081,877.274 241.266,876.627 242.451,876.627 243.637,876.627 244.822,876.627 246.008,876.627 247.193,876.627 248.378,876.627 249.564,876.627 250.749,875.979 251.934,875.979 253.120,875.979 254.305,875.979 255.491,875.979 256.676,875.979 257.861,875.331 259.047,874.686 260.232,874.686 261.417,874.038 262.603,874.038 263.788,874.038 264.974,873.390 266.159,873.390 267.344,873.390 268.530,872.742 269.715,872.742 270.900,872.097 272.086,871.449 273.271,871.449 274.457,871.449 275.642,870.801 276.827,870.801 278.013,870.801 279.198,870.153 280.383,869.508 281.569,868.860 282.754,868.860 283.940,868.212 285.125,868.212 286.310,868.212 287.496,867.565 288.681,866.919 289.866,866.271 291.052,866.271 292.237,866.271 293.423,865.624 294.608,865.624 295.793,865.624 296.979,864.976 298.164,864.330 299.349,864.330 300.535,863.683 301.720,863.683 302.906,863.035 304.091,863.035 305.276,862.387 306.462,861.742 307.647,861.094 308.832,861.094 310.018,860.446 311.203,859.798 312.389,859.153 313.574,858.505 314.759,857.857 315.945,857.857 317.130,856.564 318.315,855.916 319.501,855.268 320.686,855.268 321.872,853.975 323.057,853.328 324.242,852.680 325.428,852.032 326.613,850.739 327.798,850.739 328.984,850.091 330.169,849.443 331.355,848.150 332.540,848.150 333.725,847.502 334.911,846.854 336.096,846.206 337.281,845.561 338.467,844.913 339.652,844.913 340.838,843.618 342.023,842.972 343.208,842.972 344.394,842.325 345.579,842.325 346.764,841.677 347.950,840.384 349.135,840.384 350.321,839.736 351.506,839.736 352.691,839.088 353.877,838.440 355.062,837.795 356.247,837.147 357.433,837.147 358.618,836.499 359.804,835.206 360.989,835.206 362.174,834.558 363.360,833.910 364.545,832.617 365.730,832.617 366.916,831.970 368.101,830.674 369.287,830.029 370.472,829.381 371.657,828.733 372.843,827.440 374.028,826.792 375.213,826.144 376.399,825.496 377.584,824.851 378.770,824.203 379.955,823.555 381.140,822.262 382.326,822.262 383.511,821.614 384.696,820.967 385.882,819.674 387.067,819.674 388.253,819.026 389.438,818.378 390.623,817.730 391.809,817.085 392.994,816.437 394.179,815.789 395.365,815.141 396.550,814.496 397.736,813.848 398.921,813.848 400.106,812.552 401.292,811.905 402.477,811.259 403.662,811.259 404.848,810.611 406.033,809.316 407.219,809.316 408.404,808.671 409.589,807.375 410.775,806.727 411.960,806.082 413.145,805.434 414.331,804.138 415.516,803.493 416.702,802.845 417.887,802.197 419.072,801.549 420.258,800.904 421.443,800.256 422.628,798.961 423.814,798.961 424.999,798.315 426.185,797.668 427.370,797.020 428.555,796.372 429.741,795.727 430.926,795.079 432.111,794.431 433.297,793.783 434.482,793.138 435.668,792.490 436.853,791.842 438.038,791.194 439.224,790.549 440.409,790.549 441.594,789.253 442.780,788.606 443.965,787.960 445.151,787.960 446.336,787.313 447.521,786.017 448.707,786.017 449.892,785.372 451.078,784.724 452.263,783.428 453.448,783.428 454.634,782.783 455.819,781.487 457.004,780.839 458.190,780.191 459.375,779.546 460.561,778.251 461.746,778.251 462.931,777.603 464.117,776.310 465.302,775.662 466.487,775.014 467.673,775.014 468.858,774.369 470.044,773.073 471.229,773.073 472.414,772.425 473.600,771.780 474.785,770.484 475.970,770.484 477.156,769.836 478.341,769.191 479.527,767.895 480.712,767.248 481.897,767.248 483.083,765.955 484.268,765.307 485.453,764.659 486.639,764.014 487.824,763.366 489.010,762.718 490.195,762.070 491.380,762.070 492.566,761.425 493.751,760.129 494.936,760.129 496.122,759.481 497.307,758.188 498.493,757.540 499.678,756.893 500.863,756.247 502.049,754.952 503.234,754.952 504.419,754.304 505.605,753.658 506.790,752.363 507.976,752.363 509.161,751.715 510.346,751.715 511.532,751.070 512.717,749.774 513.902,749.774 515.088,749.126 516.273,749.126 517.459,748.478 518.644,747.185 519.829,747.185 521.015,746.537 522.200,745.890 523.385,744.596 524.571,743.949 525.756,743.949 526.942,742.656 528.127,742.008 529.312,741.360 530.498,741.360 531.683,740.067 532.868,739.419 534.054,738.771 535.239,738.771 536.425,738.123 537.610,736.830 538.795,736.830 539.981,736.182 541.166,735.534 542.351,734.241 543.537,733.594 544.722,733.594 545.908,732.300 547.093,731.653 548.278,731.005 549.464,730.357 550.649,729.712 551.834,729.064 553.020,728.416 554.205,728.416 555.391,727.768 556.576,726.475 557.761,726.475 558.947,725.827 560.132,725.827 561.317,724.534 562.503,723.886 563.688,723.238 564.874,723.238 566.059,722.591 567.244,721.298 568.430,720.650 569.615,720.650 570.800,719.357 571.986,718.709 573.171,718.061 574.357,718.061 575.542,716.765 576.727,716.120 577.913,715.472 579.098,715.472 580.283,714.176 581.469,713.531 582.654,712.883 583.840,712.883 585.025,711.588 586.210,710.942 587.396,710.295 588.581,709.647 589.766,708.354 590.952,707.706 592.137,707.058 593.323,705.765 594.508,705.765 595.693,705.117 596.879,704.469 598.064,703.176 599.249,703.176 600.435,702.528 601.620,702.528 602.806,701.233 603.991,700.587 605.176,700.587 606.362,699.939 607.547,699.292 608.732,697.999 609.918,697.351 611.103,697.351 612.289,696.055 613.474,695.410 614.659,694.762 615.845,694.114 617.030,692.821 618.215,692.821 619.401,692.173 620.586,690.877 621.772,690.232 622.957,689.584 624.142,688.289 625.328,687.643 626.513,686.996 627.698,686.348 628.884,685.055 630.069,684.407 631.255,683.759 632.440,682.463 633.625,681.818 634.811,681.170 635.996,679.875 637.181,679.229 638.367,679.229 639.552,677.934 640.738,677.286 641.923,676.641 643.108,676.641 644.294,675.345 645.479,674.697 646.664,674.052 647.850,673.404 649.035,672.108 650.221,672.108 651.406,671.463 652.591,670.815 653.777,669.519 654.962,669.519 656.147,668.874 657.333,667.579 658.518,666.931 659.704,666.285 660.889,665.638 662.074,664.342 663.260,663.697 664.445,663.049 665.631,661.753 666.816,661.108 668.001,660.460 669.187,659.164 670.372,658.519 671.557,657.223 672.743,656.576 673.928,655.930 675.114,654.635 676.299,653.987 677.484,653.342 678.670,653.342 679.855,652.046 681.040,651.398 682.226,650.750 683.411,650.750 684.597,649.457 685.782,648.809 686.967,648.161 688.153,646.868 689.338,646.220 690.523,645.573 691.709,644.927 692.894,643.632 694.080,642.984 695.265,642.339 696.450,641.043 697.636,641.043 698.821,640.395 700.006,639.750 701.192,638.454 702.377,637.806 703.563,637.161 704.748,635.865 705.933,635.218 707.119,634.572 708.304,633.277 709.489,632.629 710.675,631.336 711.860,630.040 713.046,629.395 714.231,628.099 715.416,628.099 716.602,627.451 717.787,626.158 718.972,625.510 720.158,624.862 721.343,624.217 722.529,623.569 723.714,622.922 724.899,622.274 726.085,620.981 727.270,620.333 728.455,619.685 729.641,618.392 730.826,617.744 732.012,617.096 733.197,615.803 734.382,615.155 735.568,614.507 736.753,613.860 737.938,612.566 739.124,611.919 740.309,611.919 741.495,610.626 742.680,609.978 743.865,609.330 745.051,608.037 746.236,606.741 747.421,606.093 748.607,604.800 749.792,604.152 750.978,602.859 752.163,602.211 753.348,601.564 754.534,600.916 755.719,599.623 756.904,598.975 758.090,598.975 759.275,597.682 760.461,597.034 761.646,596.386 762.831,595.738 764.017,595.093 765.202,594.445 766.387,593.797 767.573,593.149 768.758,591.856 769.944,591.208 771.129,591.208 772.314,589.915 773.500,589.267 774.685,588.620 775.870,587.972 777.056,587.324 778.241,586.679 779.427,586.031 780.612,585.383 781.797,584.090 782.983,584.090 784.168,583.442 785.353,582.146 786.539,581.501 787.724,580.853 788.910,580.205 790.095,579.558 791.280,578.912 792.466,578.265 793.651,576.969 794.836,576.324 796.022,575.676 797.207,574.380 798.393,573.735 799.578,573.087 800.763,572.439 801.949,571.146 803.134,570.498 804.319,569.850 805.505,568.557 806.690,567.909 807.876,567.262 809.061,565.969 810.246,565.321 811.432,564.025 812.617,563.380 813.802,562.732 814.988,561.436 816.173,560.791 817.359,560.143 818.544,558.202 819.729,557.554 820.915,556.907 822.100,555.611 823.285,554.966 824.471,554.318 825.656,553.022 826.842,552.377 828.027,551.729 829.212,550.433 830.398,549.788 831.583,549.140 832.768,547.845 833.954,547.199 835.139,546.551 836.325,545.256 837.510,544.610 838.695,543.963 839.881,542.667 841.066,542.022 842.251,541.374 843.437,540.078 844.622,539.433 845.808,538.137 846.993,537.489 848.178,536.844 849.364,535.548 850.549,534.255 851.734,533.608 852.920,532.312 854.105,531.667 855.291,531.019 856.476,529.723 857.661,529.078 858.847,527.782 860.032,527.134 861.217,526.489 862.403,525.193 863.588,523.900 864.774,523.252 865.959,521.957 867.144,521.309 868.330,520.016 869.515,519.368 870.700,518.720 871.886,517.427 873.071,516.131 874.257,516.131 875.442,514.838 876.627,514.190 877.813,513.543 878.998,512.250 880.183,511.602 881.369,510.954 882.554,510.309 883.740,509.013 884.925,508.365 886.110,507.720 887.296,506.424 888.481,505.776 889.667,504.483 890.852,503.835 892.037,503.188 893.223,501.894 894.408,501.247 895.593,500.599 896.779,498.658 897.964,498.010 899.150,498.010 900.335,496.717 901.520,496.069 902.706,495.421 903.891,494.128 905.076,493.480 906.262,492.832 907.447,491.539 908.633,490.891 909.818,490.244 911.003,488.951 912.189,488.303 913.374,487.655 914.559,486.362 915.745,485.714 916.930,485.066 918.116,483.773 919.301,483.125 920.486,482.477 921.672,481.184 922.857,480.536 924.042,479.241 925.228,477.948 926.413,477.300 927.599,476.652 928.784,475.359 929.969,474.711 931.155,472.770 932.340,472.122 933.525,470.829 934.711,470.181 935.896,469.533 937.082,467.593 938.267,466.945 939.452,466.297 940.638,465.004 941.823,464.356 943.008,463.708 944.194,462.415 945.379,461.767 946.565,461.119 947.750,459.826 948.935,459.178 950.121,458.531 951.306,457.237 952.491,456.590 953.677,455.294 954.862,454.649 956.048,454.001 957.233,452.060 958.418,451.412 959.604,450.764 960.789,449.471 961.974,448.823 963.160,448.175 964.345,446.882 965.531,446.234 966.716,444.939 967.901,444.294 969.087,442.998 970.272,441.705 971.457,441.057 972.643,439.116 973.828,438.468 975.014,437.172 976.199,436.527 977.384,435.879 978.570,433.938 979.755,433.291 980.940,432.643 982.126,431.350 983.311,430.702 984.497,430.054 985.682,428.761 986.867,428.113 988.053,427.465 989.238,426.170 990.423,425.524 991.609,424.229 992.794,423.581 993.980,422.288 995.165,420.992 996.350,420.347 997.536,419.051 998.721,418.403 999.906,417.758 1001.092,416.462 1002.277,415.814 1003.463,415.169 1004.648,413.226 1005.833,412.580 1007.019,411.933 1008.204,410.637 1009.389,409.992 1010.575,409.344 1011.760,408.048 1012.946,407.403 1014.131,405.459 1015.316,404.814 1016.502,404.166 1017.687,402.871 1018.872,402.225 1020.058,400.930 1021.243,400.282 1022.429,399.637 1023.614,398.341 1024.799,397.693 1025.985,397.048 1027.170,396.400 1028.355,395.104 1029.541,394.459 1030.726,393.163 1031.912,392.516 1033.097,391.222 1034.282,389.927 1035.468,389.279 1036.653,387.986 1037.838,387.338 1039.024,386.690 1040.209,385.397 1041.395,384.749 1042.580,384.101 1043.765,382.808 1044.951,382.160 1046.136,380.867 1047.321,379.572 1048.507,378.924 1049.692,378.279 1050.878,376.983 1052.063,376.335 1053.248,375.042 1054.434,374.394 1055.619,373.746 1056.804,371.805 1057.990,371.157 1059.175,371.157 1060.361,369.217 1061.546,368.569 1062.731,367.923 1063.917,366.628 1065.102,366.628 1066.287,365.980 1067.473,364.687 1068.658,364.039 1069.844,363.391 1071.029,362.098 1072.214,361.450 1073.400,360.802 1074.585,359.509 1075.770,358.861 1076.956,358.214 1078.141,356.921 1079.327,356.273 1080.512,355.625 1081.697,353.684 1082.883,353.036 1084.068,352.388 1085.253,351.095 1086.439,351.095 1087.624,350.447 1088.810,348.506 1089.995,347.859 1091.180,347.211 1092.366,345.918 1093.551,345.270 1094.736,343.977 1095.922,342.681 1097.107,342.033 1098.293,340.740 1099.478,340.092 1100.663,338.799 1101.849,338.151 1103.034,337.503 1104.219,335.562 1105.405,335.562 1106.590,334.915 1107.776,333.622 1108.961,332.974 1110.146,332.326 1111.332,331.033 1112.517,330.385 1113.703,329.737 1114.888,328.441 1116.073,327.796 1117.259,327.148 1118.444,325.853 1119.629,325.207 1120.815,324.560 1122.000,323.264 1123.186,322.619 1124.371,321.971 1125.556,320.675 1126.742,320.030 1127.927,319.382 1129.112,318.086 1130.298,317.441 1131.483,316.793 1132.669,315.498 1133.854,314.204 1135.039,313.557 1136.225,312.264 1137.410,311.616 1138.595,310.320 1139.781,309.675 1140.966,309.027 1142.152,307.731 1143.337,307.086 1144.522,306.438 1145.708,305.142 1146.893,304.497 1148.078,303.849 1149.264,302.554 1150.449,301.908 1151.635,301.261 1152.820,299.965 1154.005,299.320 1155.191,298.672 1156.376,297.376 1157.561,296.728 1158.747,296.083 1159.932,294.787 1161.118,294.140 1162.303,293.494 1163.488,292.846 1164.674,292.199 1165.859,291.551 1167.044,290.905 1168.230,290.258 1169.415,288.962 1170.601,288.317 1171.786,287.669 1172.971,286.373 1174.157,285.728 1175.342,285.728 1176.527,283.784 1177.713,283.784 1178.898,283.139 1180.084,281.843 1181.269,281.196 1182.454,280.550 1183.640,279.255 1184.825,278.607 1186.010,277.962 1187.196,277.314 1188.381,276.018 1189.567,275.373 1190.752,274.725 1191.937,273.429 1193.123,272.784 1194.308,272.136 1195.493,270.841 1196.679,270.195 1197.864,268.252 1199.050,267.607 1200.235,266.959 1201.420,265.663 1202.606,265.018 1203.791,263.722 1204.976,263.074 1206.162,262.426 1207.347,261.133 1208.533,260.485 1209.718,259.838 1210.903,259.192 1212.089,257.897 1213.274,257.897 1214.459,257.249 1215.645,255.956 1216.830,255.308 1218.016,254.660 1219.201,253.367 1220.386,252.719 1221.572,252.071 1222.757,251.426 1223.942,250.130 1225.128,249.483 1226.313,248.837 1227.499,247.542 1228.684,246.894 1229.869,246.894 1231.055,245.601 1232.240,244.953 1233.425,244.305 1234.611,243.012 1235.796,242.364 1236.982,241.716 1238.167,241.071 1239.352,239.775 1240.538,239.127 1241.723,237.834 1242.908,237.187 1244.094,236.539 1245.279,235.246 1246.465,234.598 1247.650,233.950 1248.835,233.305 1250.021,232.009 1251.206,231.361 1252.391,231.361 1253.577,230.068 1254.762,229.420 1255.948,228.772 1257.133,228.124 1258.318,226.831 1259.504,226.184 1260.689,226.184 1261.874,224.890 1263.060,224.243 1264.245,223.595 1265.431,222.302 1266.616,221.654 1267.801,221.006 1268.987,220.358 1270.172,219.065 1271.357,218.417 1272.543,217.769 1273.728,216.476 1274.914,216.476 1276.099,215.828 1277.284,214.535 1278.470,213.888 1279.655,213.240 1280.840,212.592 1282.026,211.947 1283.211,211.299 1284.397,210.651 1285.582,209.358 1286.767,208.710 1287.953,208.062 1289.138,207.414 1290.323,206.121 1291.509,206.121 1292.694,205.473 1293.880,204.826 1295.065,203.532 1296.250,203.532 1297.436,202.885 1298.621,202.237 1299.806,200.944 1300.992,200.296 1302.177,199.648 1303.363,198.355 1304.548,197.707 1305.733,197.059 1306.919,195.766 1308.104,195.118 1309.289,195.118 1310.475,193.823 1311.660,193.177 1312.846,192.530 1314.031,191.234 1315.216,190.589 1316.402,189.941 1317.587,189.293 1318.772,188.645 1319.958,188.000 1321.143,187.352 1322.329,186.056 1323.514,185.411 1324.699,184.763 1325.885,183.468 1327.070,182.822 1328.256,181.527 1329.441,180.233 1330.626,180.233 1331.812,179.586 1332.997,178.290 1334.182,177.645 1335.368,176.997 1336.553,175.701 1337.739,175.056 1338.924,174.408 1340.109,173.112 1341.295,172.467 1342.480,171.819 1343.665,170.524 1344.851,169.231 1346.036,168.583 1347.222,167.290 1348.407,166.642 1349.592,166.642 1350.778,165.346 1351.963,164.698 1353.148,164.053 1354.334,162.757 1355.519,162.109 1356.705,161.464 1357.890,160.169 1359.075,159.521 1360.261,158.875 1361.446,157.580 1362.631,156.932 1363.817,155.639 1365.002,154.343 1366.188,153.698 1367.373,152.402 1368.558,151.109 1369.744,150.461 1370.929,149.166 1372.114,148.520 1373.300,147.873 1374.485,146.577 1375.671,145.932 1376.856,144.636 1378.041,143.988 1379.227,143.343 1380.412,142.047 1381.597,141.399 1382.783,140.754 1383.968,139.458 1385.154,138.811 1386.339,138.165 1387.524,136.870 1388.710,136.222 1389.895,135.576 1391.080,134.281 1392.266,133.633 1393.451,132.985 1394.637,132.340 1395.822,131.044 1397.007,130.396 1398.193,129.751 1399.378,128.455 1400.563,128.455 1401.749,127.808 1402.934,126.514 1404.120,125.867 1405.305,125.219 1406.490,124.574 1407.676,123.278 1408.861,122.630 1410.046,121.985 1411.232,120.689 1412.417,120.041 1413.603,119.396 1414.788,118.100 1415.973,117.452 1417.159,116.807 1418.344,115.512 1419.529,115.512 1420.715,114.864 1421.900,114.218 1423.086,112.923 1424.271,112.275 1425.456,111.630 1426.642,110.982 1427.827,110.334 1429.012,109.686 1430.198,108.393 1431.383,107.745 1432.569,107.097 1433.754,105.804 1434.939,105.156 1436.125,104.509 1437.310,103.216 1438.495,102.568 1439.681,101.920 1440.866,101.272 1442.052,99.979 1443.237,99.979 1444.422,99.331 1445.608,98.683 1446.793,98.038 1447.978,97.390 1449.164,96.742 1450.349,96.094 1451.535,94.801 1452.720,94.801 1453.905,94.154 1455.091,93.506 1456.276,92.213 1457.461,92.213 1458.647,91.565 1459.832,90.917 1461.018,89.624 1462.203,89.624 1463.388,88.976 1464.574,88.328 1465.759,87.035 1466.944,87.035 1468.130,86.387 1469.315,85.739 1470.501,85.094 1471.686,84.446 1472.871,84.446 1474.057,83.798 1475.242,83.151 1476.427,82.505 1477.613,81.857 1478.798,81.210 1479.984,81.210 1481.169,80.562 1482.354,80.562 1483.540,79.917 1484.725,79.269 1485.910,79.269 1487.096,79.269 1488.281,78.621 1489.467,78.621 1490.652,78.621 1491.837,77.973 1493.023,77.328 1494.208,77.328 1495.393,76.680 1496.579,76.680 1497.764,76.680 1498.950,76.032 1500.135,76.032 1501.320,76.032 1502.506,76.032 1503.691,75.384 1504.876,75.384 1506.062,74.739 1507.247,74.739 1508.433,74.739 1509.618,74.091 1510.803,74.091 1511.989,74.091 1513.174,74.091 1514.359,74.091 1515.545,74.091 1516.730,74.091 1517.916,74.091 1519.101,74.091 1520.286,74.091 1521.472,74.091 1522.657,74.091 1523.842,74.091 1525.028,74.091 1526.213,74.091 1527.399,74.091 1528.584,74.091 1529.769,74.091 1530.955,74.091 1532.140,74.091 1533.325,74.091 1534.511,74.091 1535.696,74.091 1536.882,74.091 1538.067,74.091 1539.252,74.091 1540.438,74.091 1541.623,74.091 1542.808,74.091 1543.994,74.091 1545.179,74.091 1546.365,74.091 1547.550,74.091 "
             id="polyline3175" />
          <g
             id="g3177" />
        </g>
        <g
           id="ID000004" />
        <g
           id="ID000005" />
        <g
           id="ID000006" />
        <g
           id="ID000007" />
        <g
           id="ID000008" />
      </g>
      <g
         id="g3184">
        <polyline
           fill="none"
           stroke="#000000"
           stroke-width="0.5pt"
           stroke-dasharray="none"
           points="339.652,879.215 339.652,865.963 "
           id="polyline3186" />
        <polyline
           fill="none"
           stroke="#000000"
           stroke-width="0.5pt"
           stroke-dasharray="none"
           points="458.190,879.215 458.190,865.963 "
           id="polyline3188" />
        <polyline
           fill="none"
           stroke="#000000"
           stroke-width="0.5pt"
           stroke-dasharray="none"
           points="576.727,879.215 576.727,865.963 "
           id="polyline3190" />
        <polyline
           fill="none"
           stroke="#000000"
           stroke-width="0.5pt"
           stroke-dasharray="none"
           points="695.265,879.215 695.265,865.963 "
           id="polyline3192" />
        <polyline
           fill="none"
           stroke="#000000"
           stroke-width="0.5pt"
           stroke-dasharray="none"
           points="813.802,879.215 813.802,865.963 "
           id="polyline3194" />
        <polyline
           fill="none"
           stroke="#000000"
           stroke-width="0.5pt"
           stroke-dasharray="none"
           points="932.340,879.215 932.340,865.963 "
           id="polyline3196" />
        <polyline
           fill="none"
           stroke="#000000"
           stroke-width="0.5pt"
           stroke-dasharray="none"
           points="1050.878,879.215 1050.878,865.963 "
           id="polyline3198" />
        <polyline
           fill="none"
           stroke="#000000"
           stroke-width="0.5pt"
           stroke-dasharray="none"
           points="1169.415,879.215 1169.415,865.963 "
           id="polyline3200" />
        <polyline
           fill="none"
           stroke="#000000"
           stroke-width="0.5pt"
           stroke-dasharray="none"
           points="1287.953,879.215 1287.953,865.963 "
           id="polyline3202" />
        <polyline
           fill="none"
           stroke="#000000"
           stroke-width="0.5pt"
           stroke-dasharray="none"
           points="1406.490,879.215 1406.490,865.963 "
           id="polyline3204" />
        <polyline
           fill="none"
           stroke="#000000"
           stroke-width="0.5pt"
           stroke-dasharray="none"
           points="1525.028,879.215 1525.028,865.963 "
           id="polyline3206" />
        <polyline
           fill="none"
           stroke="#000000"
           stroke-width="0.5pt"
           stroke-dasharray="none"
           points="222.300,879.215 1547.550,879.215 "
           id="polyline3208" />
        <polyline
           fill="none"
           stroke="#000000"
           stroke-width="0.5pt"
           stroke-dasharray="none"
           points="339.652,74.091 339.652,87.344 "
           id="polyline3210" />
        <polyline
           fill="none"
           stroke="#000000"
           stroke-width="0.5pt"
           stroke-dasharray="none"
           points="458.190,74.091 458.190,87.344 "
           id="polyline3212" />
        <polyline
           fill="none"
           stroke="#000000"
           stroke-width="0.5pt"
           stroke-dasharray="none"
           points="576.727,74.091 576.727,87.344 "
           id="polyline3214" />
        <polyline
           fill="none"
           stroke="#000000"
           stroke-width="0.5pt"
           stroke-dasharray="none"
           points="695.265,74.091 695.265,87.344 "
           id="polyline3216" />
        <polyline
           fill="none"
           stroke="#000000"
           stroke-width="0.5pt"
           stroke-dasharray="none"
           points="813.802,74.091 813.802,87.344 "
           id="polyline3218" />
        <polyline
           fill="none"
           stroke="#000000"
           stroke-width="0.5pt"
           stroke-dasharray="none"
           points="932.340,74.091 932.340,87.344 "
           id="polyline3220" />
        <polyline
           fill="none"
           stroke="#000000"
           stroke-width="0.5pt"
           stroke-dasharray="none"
           points="1050.878,74.091 1050.878,87.344 "
           id="polyline3222" />
        <polyline
           fill="none"
           stroke="#000000"
           stroke-width="0.5pt"
           stroke-dasharray="none"
           points="1169.415,74.091 1169.415,87.344 "
           id="polyline3224" />
        <polyline
           fill="none"
           stroke="#000000"
           stroke-width="0.5pt"
           stroke-dasharray="none"
           points="1287.953,74.091 1287.953,87.344 "
           id="polyline3226" />
        <polyline
           fill="none"
           stroke="#000000"
           stroke-width="0.5pt"
           stroke-dasharray="none"
           points="1406.490,74.091 1406.490,87.344 "
           id="polyline3228" />
        <polyline
           fill="none"
           stroke="#000000"
           stroke-width="0.5pt"
           stroke-dasharray="none"
           points="1525.028,74.091 1525.028,87.344 "
           id="polyline3230" />
        <polyline
           fill="none"
           stroke="#000000"
           stroke-width="0.5pt"
           stroke-dasharray="none"
           points="222.300,74.091 1547.550,74.091 "
           id="polyline3232" />
        <g
           transform="translate(339.652,915.308)"
           id="g3234">
          <g
             transform="rotate(-0.0)"
             id="g3236">
            <text
               x="0.000"
               y="0.000"
               font-family="Helvetica"
               text-anchor="middle"
               font-size="17pt"
               fill="#000000"
               id="text3238">100</text>
          </g>
        </g>
        <g
           transform="translate(458.190,915.308)"
           id="g3240">
          <g
             transform="rotate(-0.0)"
             id="g3242">
            <text
               x="0.000"
               y="0.000"
               font-family="Helvetica"
               text-anchor="middle"
               font-size="17pt"
               fill="#000000"
               id="text3244">200</text>
          </g>
        </g>
        <g
           transform="translate(576.727,915.308)"
           id="g3246">
          <g
             transform="rotate(-0.0)"
             id="g3248">
            <text
               x="0.000"
               y="0.000"
               font-family="Helvetica"
               text-anchor="middle"
               font-size="17pt"
               fill="#000000"
               id="text3250">300</text>
          </g>
        </g>
        <g
           transform="translate(695.265,915.308)"
           id="g3252">
          <g
             transform="rotate(-0.0)"
             id="g3254">
            <text
               x="0.000"
               y="0.000"
               font-family="Helvetica"
               text-anchor="middle"
               font-size="17pt"
               fill="#000000"
               id="text3256">400</text>
          </g>
        </g>
        <g
           transform="translate(813.802,915.308)"
           id="g3258">
          <g
             transform="rotate(-0.0)"
             id="g3260">
            <text
               x="0.000"
               y="0.000"
               font-family="Helvetica"
               text-anchor="middle"
               font-size="17pt"
               fill="#000000"
               id="text3262">500</text>
          </g>
        </g>
        <g
           transform="translate(932.340,915.308)"
           id="g3264">
          <g
             transform="rotate(-0.0)"
             id="g3266">
            <text
               x="0.000"
               y="0.000"
               font-family="Helvetica"
               text-anchor="middle"
               font-size="17pt"
               fill="#000000"
               id="text3268">600</text>
          </g>
        </g>
        <g
           transform="translate(1050.878,915.308)"
           id="g3270">
          <g
             transform="rotate(-0.0)"
             id="g3272">
            <text
               x="0.000"
               y="0.000"
               font-family="Helvetica"
               text-anchor="middle"
               font-size="17pt"
               fill="#000000"
               id="text3274">700</text>
          </g>
        </g>
        <g
           transform="translate(1169.415,915.308)"
           id="g3276">
          <g
             transform="rotate(-0.0)"
             id="g3278">
            <text
               x="0.000"
               y="0.000"
               font-family="Helvetica"
               text-anchor="middle"
               font-size="17pt"
               fill="#000000"
               id="text3280">800</text>
          </g>
        </g>
        <g
           transform="translate(1287.953,915.308)"
           id="g3282">
          <g
             transform="rotate(-0.0)"
             id="g3284">
            <text
               x="0.000"
               y="0.000"
               font-family="Helvetica"
               text-anchor="middle"
               font-size="17pt"
               fill="#000000"
               id="text3286">900</text>
          </g>
        </g>
        <g
           transform="translate(1406.490,915.308)"
           id="g3288">
          <g
             transform="rotate(-0.0)"
             id="g3290">
            <text
               x="0.000"
               y="0.000"
               font-family="Helvetica"
               text-anchor="middle"
               font-size="17pt"
               fill="#000000"
               id="text3292">1000</text>
          </g>
        </g>
        <g
           transform="translate(1525.028,915.308)"
           id="g3294">
          <g
             transform="rotate(-0.0)"
             id="g3296">
            <text
               x="0.000"
               y="0.000"
               font-family="Helvetica"
               text-anchor="middle"
               font-size="17pt"
               fill="#000000"
               id="text3298">1100</text>
          </g>
        </g>
        <polyline
           fill="none"
           stroke="#000000"
           stroke-width="0.5pt"
           stroke-dasharray="none"
           points="222.300,749.647 235.553,749.647 "
           id="polyline3300" />
        <polyline
           fill="none"
           stroke="#000000"
           stroke-width="0.5pt"
           stroke-dasharray="none"
           points="222.300,620.079 235.553,620.079 "
           id="polyline3302" />
        <polyline
           fill="none"
           stroke="#000000"
           stroke-width="0.5pt"
           stroke-dasharray="none"
           points="222.300,490.511 235.553,490.511 "
           id="polyline3304" />
        <polyline
           fill="none"
           stroke="#000000"
           stroke-width="0.5pt"
           stroke-dasharray="none"
           points="222.300,360.942 235.553,360.942 "
           id="polyline3306" />
        <polyline
           fill="none"
           stroke="#000000"
           stroke-width="0.5pt"
           stroke-dasharray="none"
           points="222.300,231.374 235.553,231.374 "
           id="polyline3308" />
        <polyline
           fill="none"
           stroke="#000000"
           stroke-width="0.5pt"
           stroke-dasharray="none"
           points="222.300,101.806 235.553,101.806 "
           id="polyline3310" />
        <polyline
           fill="none"
           stroke="#000000"
           stroke-width="0.5pt"
           stroke-dasharray="none"
           points="222.300,879.215 222.300,74.091 "
           id="polyline3312" />
        <polyline
           fill="none"
           stroke="#000000"
           stroke-width="0.5pt"
           stroke-dasharray="none"
           points="1547.550,749.647 1534.297,749.647 "
           id="polyline3314" />
        <polyline
           fill="none"
           stroke="#000000"
           stroke-width="0.5pt"
           stroke-dasharray="none"
           points="1547.550,620.079 1534.297,620.079 "
           id="polyline3316" />
        <polyline
           fill="none"
           stroke="#000000"
           stroke-width="0.5pt"
           stroke-dasharray="none"
           points="1547.550,490.511 1534.297,490.511 "
           id="polyline3318" />
        <polyline
           fill="none"
           stroke="#000000"
           stroke-width="0.5pt"
           stroke-dasharray="none"
           points="1547.550,360.942 1534.297,360.942 "
           id="polyline3320" />
        <polyline
           fill="none"
           stroke="#000000"
           stroke-width="0.5pt"
           stroke-dasharray="none"
           points="1547.550,231.374 1534.297,231.374 "
           id="polyline3322" />
        <polyline
           fill="none"
           stroke="#000000"
           stroke-width="0.5pt"
           stroke-dasharray="none"
           points="1547.550,101.806 1534.297,101.806 "
           id="polyline3324" />
        <polyline
           fill="none"
           stroke="#000000"
           stroke-width="0.5pt"
           stroke-dasharray="none"
           points="1547.550,879.215 1547.550,74.091 "
           id="polyline3326" />
        <g
           transform="translate(195.795,886.839)"
           id="g3328">
          <g
             transform="rotate(-0.0)"
             id="g3330">
            <text
               x="0.000"
               y="0.000"
               font-family="Helvetica"
               text-anchor="end"
               font-size="17pt"
               fill="#000000"
               id="text3332">0</text>
          </g>
        </g>
        <g
           transform="translate(195.795,757.271)"
           id="g3334">
          <g
             transform="rotate(-0.0)"
             id="g3336">
            <text
               x="0.000"
               y="0.000"
               font-family="Helvetica"
               text-anchor="end"
               font-size="17pt"
               fill="#000000"
               id="text3338">500</text>
          </g>
        </g>
        <g
           transform="translate(195.795,627.702)"
           id="g3340">
          <g
             transform="rotate(-0.0)"
             id="g3342">
            <text
               x="0.000"
               y="0.000"
               font-family="Helvetica"
               text-anchor="end"
               font-size="17pt"
               fill="#000000"
               id="text3344">1000</text>
          </g>
        </g>
        <g
           transform="translate(195.795,498.134)"
           id="g3346">
          <g
             transform="rotate(-0.0)"
             id="g3348">
            <text
               x="0.000"
               y="0.000"
               font-family="Helvetica"
               text-anchor="end"
               font-size="17pt"
               fill="#000000"
               id="text3350">1500</text>
          </g>
        </g>
        <g
           transform="translate(195.795,368.566)"
           id="g3352">
          <g
             transform="rotate(-0.0)"
             id="g3354">
            <text
               x="0.000"
               y="0.000"
               font-family="Helvetica"
               text-anchor="end"
               font-size="17pt"
               fill="#000000"
               id="text3356">2000</text>
          </g>
        </g>
        <g
           transform="translate(195.795,238.998)"
           id="g3358">
          <g
             transform="rotate(-0.0)"
             id="g3360">
            <text
               x="0.000"
               y="0.000"
               font-family="Helvetica"
               text-anchor="end"
               font-size="17pt"
               fill="#000000"
               id="text3362">2500</text>
          </g>
        </g>
        <g
           transform="translate(195.795,109.429)"
           id="g3364">
          <g
             transform="rotate(-0.0)"
             id="g3366">
            <text
               x="0.000"
               y="0.000"
               font-family="Helvetica"
               text-anchor="end"
               font-size="17pt"
               fill="#000000"
               id="text3368">3000</text>
          </g>
        </g>
        <polyline
           fill="none"
           stroke="#000000"
           stroke-width="0.5pt"
           stroke-dasharray="none"
           points="222.300,879.215 222.300,871.164 "
           id="polyline3370" />
        <polyline
           fill="none"
           stroke="#000000"
           stroke-width="0.5pt"
           stroke-dasharray="none"
           points="222.300,879.215 222.300,879.215 "
           id="polyline3372" />
      </g>
    </g>
    <g
       id="ID000009">
      <clipPath
         id="ID000010">
        <rect
           x="275.651"
           y="103.924"
           width="219.794"
           height="67.037"
           id="rect3376" />
      </clipPath>
      <polygon
         fill="#ffffff"
         fill-opacity="1.00"
         stroke="none"
         stroke-width="0.5pt"
         stroke-opacity="1.00"
         stroke-dasharray="none"
         points="275.651,170.960 495.445,170.960 495.445,103.924 275.651,103.924 "
         id="polygon3378" />
      <polygon
         fill="#ffffff"
         fill-opacity="1.00"
         stroke="none"
         stroke-width="0.5pt"
         stroke-opacity="1.00"
         stroke-dasharray="none"
         points="275.651,103.924 495.445,103.924 495.445,103.924 275.651,103.924 "
         id="polygon3380" />
      <polygon
         fill="#ffffff"
         fill-opacity="1.00"
         stroke="none"
         stroke-width="0.5pt"
         stroke-opacity="1.00"
         stroke-dasharray="none"
         points="275.651,170.960 275.651,170.960 275.651,103.924 275.651,103.924 "
         id="polygon3382" />
      <g
         id="g3384">
        <g
           id="ID000011">
          <g
             transform="translate(323.731,131.232)"
             id="g3387">
            <g
               transform="rotate(-0.0)"
               id="g3389">
              <text
                 x="0.000"
                 y="0.000"
                 font-family="Helvetica"
                 text-anchor="start"
                 font-size="17pt"
                 fill="#000000"
                 id="text3391">Estimated Location</text>
            </g>
          </g>
        </g>
        <g
           id="ID000012"
           clip-path="url(#ID000010)">
          <polyline
             fill="none"
             stroke="#0000ff"
             stroke-width="1.0pt"
             stroke-dasharray="none"
             points="283.151,121.777 320.651,121.777 "
             id="polyline3394" />
          <g
             id="g3396" />
        </g>
        <g
           id="ID000013"
           clip-path="url(#ID000010)">
          <g
             id="g3399" />
        </g>
        <g
           id="ID000014">
          <g
             transform="translate(323.731,163.155)"
             id="g3402">
            <g
               transform="rotate(-0.0)"
               id="g3404">
              <text
                 x="0.000"
                 y="0.000"
                 font-family="Helvetica"
                 text-anchor="start"
                 font-size="17pt"
                 fill="#000000"
                 id="text3406">Ground Truth</text>
            </g>
          </g>
        </g>
        <g
           id="ID000015"
           clip-path="url(#ID000010)">
          <polyline
             fill="none"
             stroke="#ff0000"
             stroke-width="2.0pt"
             stroke-dasharray="none"
             points="283.151,153.107 320.651,153.107 "
             id="polyline3409" />
          <g
             id="g3411" />
        </g>
        <g
           id="ID000016"
           clip-path="url(#ID000010)">
          <g
             id="g3414" />
        </g>
        <g
           id="ID000017" />
        <g
           id="ID000018" />
        <g
           id="ID000019" />
      </g>
      <g
         id="g3419">
        <polyline
           fill="none"
           stroke="#000000"
           stroke-width="0.5pt"
           stroke-dasharray="none"
           points="275.651,170.960 495.445,170.960 "
           id="polyline3421" />
        <polyline
           fill="none"
           stroke="#000000"
           stroke-width="0.5pt"
           stroke-dasharray="none"
           points="275.651,103.924 495.445,103.924 "
           id="polyline3423" />
        <polyline
           fill="none"
           stroke="#000000"
           stroke-width="0.5pt"
           stroke-dasharray="none"
           points="275.651,170.960 275.651,103.924 "
           id="polyline3425" />
        <polyline
           fill="none"
           stroke="#000000"
           stroke-width="0.5pt"
           stroke-dasharray="none"
           points="495.445,170.960 495.445,103.924 "
           id="polyline3427" />
        <polyline
           fill="none"
           stroke="#000000"
           stroke-width="0.5pt"
           stroke-dasharray="none"
           points="275.651,170.960 275.651,170.290 "
           id="polyline3429" />
        <polyline
           fill="none"
           stroke="#000000"
           stroke-width="0.5pt"
           stroke-dasharray="none"
           points="275.651,170.960 275.651,170.960 "
           id="polyline3431" />
      </g>
    </g>
    <g
       id="ID000020">
      <clipPath
         id="ID000021">
        <rect
           x="0.000"
           y="0.000"
           width="1710.000"
           height="987.882"
           id="rect3435" />
      </clipPath>
      <g
         id="g3437" />
    </g>
  </g>
  <text
     xml:space="preserve"
     style="font-size:40px;font-style:normal;font-variant:normal;font-weight:normal;font-stretch:normal;line-height:125%;letter-spacing:0px;word-spacing:0px;fill:#000000;fill-opacity:1;stroke:none;font-family:Times New Roman;-inkscape-font-specification:Times New Roman"
     x="780.54126"
     y="957.50665"
     id="text4056"
     sodipodi:linespacing="125%"><tspan
       sodipodi:role="line"
       id="tspan4058"
       x="780.54126"
       y="957.50665">Frame ID</tspan></text>
  <flowRoot
     xml:space="preserve"
     id="flowRoot4060"
     style="font-size:40px;font-style:normal;font-variant:normal;font-weight:normal;font-stretch:normal;line-height:125%;letter-spacing:0px;word-spacing:0px;fill:#000000;fill-opacity:1;stroke:none;font-family:Times New Roman;-inkscape-font-specification:Times New Roman"
     transform="matrix(0.01441094,-0.99989616,0.99989616,0.01441094,-219.76748,733.43726)"><flowRegion
       id="flowRegion4062"><rect
         id="rect4064"
         width="522.19934"
         height="44.643986"
         x="77.112343"
         y="307.39941" /></flowRegion><flowPara
       id="flowPara4066">Distance from origin (cm)</flowPara></flowRoot></svg>
