<?xml version="1.0" encoding="utf-8" standalone="no"?><!DOCTYPE svg PUBLIC "-//W3C//DTD SVG 1.1//EN" "http://www.w3.org/Graphics/SVG/1.1/DTD/svg11.dtd">
<svg preserveAspectRatio="xMinYMin meet" width="100%" height="100%" viewBox="0 0 1710.000 987.882"  version="1.1" xmlns="http://www.w3.org/2000/svg" xmlns:xlink="http://www.w3.org/1999/xlink">
  <desc>Matlab Figure Converted by PLOT2SVG written by Juerg Schwizer</desc>
  <g id="topgroup">
  <rect x="0" y="0" width="1710.000" height="987.882" fill="#ffffff" stroke="none" />
  <g id ="ID000000">
  <clipPath id="ID000001">
    <rect x="222.300" y="74.091" width="1325.250" height="805.124"/>
  </clipPath>
      <polygon fill="#ffffff" fill-opacity="1.00" stroke="none" stroke-width="0.5pt" stroke-opacity="1.00" stroke-dasharray="none" points="222.300,879.215 1547.550,879.215 1547.550,74.091 222.300,74.091 "/>
      <polygon fill="#ffffff" fill-opacity="1.00" stroke="none" stroke-width="0.5pt" stroke-opacity="1.00" stroke-dasharray="none" points="222.300,74.091 1547.550,74.091 1547.550,74.091 222.300,74.091 "/>
      <polygon fill="#ffffff" fill-opacity="1.00" stroke="none" stroke-width="0.5pt" stroke-opacity="1.00" stroke-dasharray="none" points="222.300,879.215 222.300,879.215 222.300,74.091 222.300,74.091 "/>
    <g>
<g id="ID000002" clip-path="url(#ID000001)" >
      <polyline fill="none" stroke="#0000ff" stroke-width="1.0pt" stroke-dasharray="none" points="222.300,879.215 223.324,879.215 224.348,879.215 225.372,879.215 226.397,875.818 227.421,877.705 228.445,878.460 229.469,878.460 230.493,874.686 231.517,872.420 232.541,874.308 233.566,873.930 234.590,873.930 235.614,874.308 236.638,874.686 237.662,873.930 238.686,878.460 239.711,873.930 240.735,873.930 241.759,872.798 242.783,872.420 243.807,872.798 244.831,872.798 245.855,878.083 246.880,878.083 247.904,868.269 248.928,878.083 249.952,878.083 250.976,878.083 252.000,878.083 253.024,878.083 254.049,878.083 255.073,878.083 256.097,878.083 257.121,867.137 258.145,878.083 259.169,878.083 260.194,878.083 261.218,878.083 262.242,878.083 263.266,866.759 264.290,867.137 265.314,876.196 266.338,876.573 267.363,872.044 268.387,876.573 269.411,866.759 270.435,871.666 271.459,867.137 272.483,856.190 273.507,872.044 274.532,868.269 275.556,867.137 276.580,867.515 277.604,867.515 278.628,865.627 279.652,864.871 280.677,864.871 281.701,863.361 282.725,864.117 283.749,865.627 284.773,864.117 285.797,862.985 286.821,862.985 287.846,867.515 288.870,864.117 289.894,863.361 290.918,864.117 291.942,864.871 292.966,864.117 293.990,864.117 295.015,857.700 296.039,861.098 297.063,857.700 298.087,857.700 299.111,859.588 300.135,857.700 301.160,854.680 302.184,853.925 303.208,853.925 304.232,852.415 305.256,852.039 306.280,852.415 307.304,852.415 308.329,850.529 309.353,849.773 310.377,849.019 311.401,849.019 312.425,849.773 313.449,847.886 314.473,846.376 315.498,848.641 316.522,845.622 317.546,844.112 318.570,845.622 319.594,844.866 320.618,843.356 321.643,843.356 322.667,843.356 323.691,844.866 324.715,839.582 325.739,839.582 326.763,837.317 327.787,837.317 328.812,835.429 329.836,835.429 330.860,835.429 331.884,834.675 332.908,820.709 333.932,821.087 334.956,829.390 335.981,830.900 337.005,828.258 338.029,830.146 339.053,828.636 340.077,829.390 341.101,828.636 342.126,828.636 343.150,827.504 344.174,827.504 345.198,824.484 346.222,824.484 347.246,824.484 348.270,825.238 349.295,824.484 350.319,825.238 351.343,824.484 352.367,820.331 353.391,824.484 354.415,823.351 355.439,817.689 356.464,804.479 357.488,816.934 358.512,817.689 359.536,815.424 360.560,817.689 361.584,812.028 362.609,799.571 363.633,799.571 364.657,807.498 365.681,811.272 366.705,809.762 367.729,809.762 368.753,806.743 369.778,805.989 370.802,809.008 371.826,808.252 372.850,805.989 373.874,805.989 374.898,806.743 375.922,805.233 376.947,802.213 377.971,802.591 378.995,801.081 380.019,801.081 381.043,800.703 382.067,800.703 383.092,799.194 384.116,796.552 385.140,797.684 386.164,796.552 387.188,796.552 388.212,796.552 389.236,796.174 390.261,795.042 391.285,795.042 392.309,792.777 393.333,792.777 394.357,790.513 395.381,789.379 396.405,790.513 397.430,789.379 398.454,792.022 399.478,784.095 400.502,787.115 401.526,787.115 402.550,786.359 403.575,782.962 404.599,784.095 405.623,782.962 406.647,782.962 407.671,782.586 408.695,781.452 409.719,781.452 410.744,777.678 411.768,776.546 412.792,776.546 413.816,777.678 414.840,776.546 415.864,776.546 416.888,775.037 417.913,775.037 418.937,775.037 419.961,772.393 420.985,772.393 422.009,772.393 423.033,754.653 424.058,769.374 425.082,766.354 426.106,769.374 427.130,766.354 428.154,766.354 429.178,765.600 430.202,761.447 431.227,761.447 432.251,761.447 433.275,766.354 434.299,761.447 435.323,761.447 436.347,761.447 437.371,759.937 438.396,759.937 439.420,758.427 440.444,757.295 441.468,757.295 442.492,755.785 443.516,752.766 444.541,752.388 445.565,753.898 446.589,753.898 447.613,753.898 448.637,753.898 449.661,752.766 450.685,752.766 451.710,727.475 452.734,727.475 453.758,725.965 454.782,727.853 455.806,730.496 456.830,725.965 457.854,729.363 458.879,725.965 459.903,738.422 460.927,725.965 461.951,741.065 462.975,736.158 463.999,736.158 465.024,734.270 466.048,736.158 467.072,736.158 468.096,737.290 469.120,735.780 470.144,734.270 471.168,731.628 472.193,732.382 473.217,731.628 474.241,730.496 475.265,732.382 476.289,732.382 477.313,732.382 478.337,732.382 479.362,732.382 480.386,732.382 481.410,732.382 482.434,724.833 483.458,724.833 484.482,724.079 485.507,724.079 486.531,724.079 487.555,724.833 488.579,724.079 489.603,724.079 490.627,724.079 491.651,719.550 492.676,719.550 493.700,691.617 494.724,719.550 495.748,700.298 496.772,719.550 497.796,695.015 498.820,713.133 499.845,693.127 500.869,715.397 501.893,698.789 502.917,702.564 503.941,690.484 504.965,713.133 505.990,707.093 507.014,705.584 508.038,707.093 509.062,705.584 510.086,705.584 511.110,702.940 512.134,704.074 513.159,704.074 514.183,701.430 515.207,702.564 516.231,700.676 517.255,702.564 518.279,699.921 519.303,696.901 520.328,682.935 521.352,681.049 522.376,696.901 523.400,696.525 524.424,695.391 525.448,693.881 526.473,691.617 527.497,691.617 528.521,693.505 529.545,693.505 530.569,691.617 531.593,690.108 532.617,689.352 533.642,689.352 534.666,682.559 535.690,689.352 536.714,688.598 537.738,688.598 538.762,687.088 539.786,683.313 540.811,682.559 541.835,684.068 542.859,682.559 543.883,682.559 544.907,682.559 545.931,680.671 546.956,680.671 547.980,679.161 549.004,682.559 550.028,682.559 551.052,677.651 552.076,675.764 553.100,675.386 554.125,674.254 555.149,674.254 556.173,673.122 557.197,673.876 558.221,670.856 559.245,672.366 560.269,672.366 561.294,673.122 562.318,670.856 563.342,667.837 564.366,667.837 565.390,665.573 566.414,665.573 567.439,649.341 568.463,665.573 569.487,665.573 570.511,664.817 571.535,664.817 572.559,661.797 573.583,665.573 574.608,660.665 575.632,641.414 576.656,640.282 577.680,658.778 578.704,656.136 579.728,635.375 580.752,654.626 581.777,654.248 582.801,653.116 583.825,653.116 584.849,635.753 585.873,651.607 586.897,649.341 587.922,630.091 588.946,633.865 589.970,628.204 590.994,626.694 592.018,626.694 593.042,626.694 594.066,626.694 595.091,640.282 596.115,622.542 597.139,636.885 598.163,623.296 599.187,641.038 600.211,623.296 601.235,620.655 602.260,622.542 603.284,633.865 604.308,617.635 605.332,633.865 606.356,634.999 607.380,633.865 608.405,631.601 609.429,632.355 610.453,631.601 611.477,630.468 612.501,630.091 613.525,611.972 614.549,628.582 615.574,613.106 616.598,615.747 617.622,627.448 618.646,630.091 619.670,612.728 620.694,630.468 621.718,603.291 622.743,604.047 623.767,606.311 624.791,606.311 625.815,601.403 626.839,621.032 627.863,621.032 628.888,619.523 629.912,604.047 630.936,601.027 631.960,601.403 632.984,602.159 634.008,601.027 635.032,600.271 636.057,602.159 637.081,596.120 638.105,596.498 639.129,612.350 640.153,612.350 641.177,605.933 642.201,605.933 643.226,609.708 644.250,610.462 645.274,608.952 646.298,608.952 647.322,606.311 648.346,588.571 649.371,588.193 650.395,588.193 651.419,600.271 652.443,588.193 653.467,599.894 654.491,601.781 655.515,601.403 656.540,599.894 657.564,597.252 658.588,598.384 659.612,579.888 660.636,597.252 661.660,597.252 662.684,581.398 663.709,578.756 664.733,578.756 665.757,579.888 666.781,577.624 667.805,576.869 668.829,591.212 669.854,590.835 670.878,589.703 671.902,571.585 672.926,589.325 673.950,584.041 674.974,584.041 675.998,584.041 677.023,584.041 678.047,581.776 679.071,584.041 680.095,559.883 681.119,584.041 682.143,559.129 683.167,560.638 684.192,581.776 685.216,581.776 686.240,577.624 687.264,558.373 688.288,558.373 689.312,558.373 690.337,559.129 691.361,559.883 692.385,571.585 693.409,570.829 694.433,570.829 695.457,571.585 696.481,569.319 697.506,568.187 698.530,570.829 699.554,567.432 700.578,568.187 701.602,565.168 702.626,566.678 703.650,567.432 704.675,565.546 705.699,565.168 706.723,559.506 707.747,562.526 708.771,560.638 709.795,561.016 710.820,561.016 711.844,557.995 712.868,560.638 713.892,561.016 714.916,559.129 715.940,553.089 716.964,559.129 717.989,559.129 719.013,553.843 720.037,553.843 721.061,550.446 722.085,553.089 723.109,548.936 724.133,546.294 725.158,546.294 726.182,546.294 727.206,545.540 728.230,545.540 729.254,544.785 730.278,527.045 731.303,526.667 732.327,542.897 733.351,525.157 734.375,523.269 735.399,524.401 736.423,522.515 737.447,522.515 738.472,521.760 739.496,521.005 740.520,521.005 741.544,521.005 742.568,516.098 743.592,519.118 744.616,533.460 745.641,516.098 746.665,514.588 747.689,514.965 748.713,514.588 749.737,513.833 750.761,514.588 751.786,511.569 752.810,513.078 753.834,511.569 754.858,508.549 755.882,517.608 756.906,523.647 757.930,507.039 758.955,507.039 759.979,502.886 761.003,502.510 762.027,502.510 763.051,502.886 764.075,501.376 765.099,518.362 766.124,500.998 767.148,501.376 768.172,515.720 769.196,497.979 770.220,497.979 771.244,497.602 772.269,497.979 773.293,508.171 774.317,496.093 775.341,507.416 776.365,495.337 777.389,509.303 778.413,506.661 779.438,502.132 780.462,507.416 781.486,507.416 782.510,484.014 783.534,480.617 784.558,500.622 785.582,484.768 786.607,486.278 787.631,485.900 788.655,485.146 789.679,485.146 790.703,484.390 791.727,496.093 792.752,494.205 793.776,479.483 794.800,480.617 795.824,494.205 796.848,489.298 797.872,464.763 798.896,489.298 799.921,491.563 800.945,484.390 801.969,487.410 802.993,470.802 804.017,484.390 805.041,484.390 806.065,482.503 807.090,482.503 808.114,481.749 809.138,483.636 810.162,482.503 811.186,481.749 812.210,478.351 813.235,479.861 814.259,479.107 815.283,478.351 816.307,477.597 817.331,462.875 818.355,476.464 819.379,474.577 820.404,474.577 821.428,460.611 822.452,472.690 823.476,471.558 824.500,470.802 825.524,457.592 826.548,470.048 827.573,470.048 828.597,470.048 829.621,466.651 830.645,448.533 831.669,447.777 832.693,447.023 833.718,447.023 834.742,447.023 835.766,444.757 836.790,444.002 837.814,459.856 838.838,458.724 839.862,444.002 840.887,457.214 841.911,457.214 842.935,444.757 843.959,455.326 844.983,455.326 846.007,455.326 847.031,455.326 848.056,440.228 849.080,451.552 850.104,451.552 851.128,450.797 852.152,452.307 853.176,437.586 854.201,433.057 855.225,433.057 856.249,447.777 857.273,449.665 858.297,447.399 859.321,445.513 860.345,428.904 861.370,430.037 862.394,430.037 863.418,430.037 864.442,430.413 865.466,430.037 866.490,429.659 867.514,428.527 868.539,440.982 869.563,440.982 870.587,425.130 871.611,425.130 872.635,425.130 873.659,425.130 874.684,434.189 875.708,420.223 876.732,422.110 877.756,422.487 878.780,422.110 879.804,416.447 880.828,435.321 881.853,415.315 882.877,416.447 883.901,431.923 884.925,428.527 885.949,427.772 886.973,428.527 887.997,412.674 889.022,410.408 890.046,411.918 891.070,411.164 892.094,409.276 893.118,408.144 894.142,407.766 895.166,407.766 896.191,407.766 897.215,409.276 898.239,408.144 899.263,407.766 900.287,407.388 901.311,408.898 902.336,408.144 903.360,406.256 904.384,407.766 905.408,404.747 906.432,403.991 907.456,396.442 908.480,398.707 909.505,397.198 910.529,396.820 911.553,396.820 912.577,395.688 913.601,395.688 914.625,395.688 915.649,394.932 916.674,394.178 917.698,389.271 918.722,388.893 919.746,387.383 920.770,388.893 921.794,389.271 922.819,385.119 923.843,406.634 924.867,406.256 925.891,386.629 926.915,406.256 927.939,389.271 928.963,379.456 929.988,380.212 931.012,380.212 932.036,379.834 933.060,380.212 934.084,379.834 935.108,379.456 936.132,378.702 937.157,380.212 938.181,379.456 939.205,379.456 940.229,397.952 941.253,393.046 942.277,393.046 943.302,374.550 944.326,373.041 945.350,372.663 946.374,392.290 947.398,370.775 948.422,369.643 949.446,368.510 950.471,368.510 951.495,388.515 952.519,370.775 953.543,369.643 954.567,388.515 955.591,369.643 956.615,384.363 957.640,385.873 958.664,370.021 959.688,362.470 960.712,363.604 961.736,362.470 962.760,362.470 963.785,362.470 964.809,362.470 965.833,362.470 966.857,362.470 967.881,362.470 968.905,362.470 969.929,362.470 970.954,362.470 971.978,359.828 973.002,374.927 974.026,358.697 975.050,373.795 976.074,356.055 977.098,373.417 978.123,353.411 979.147,353.035 980.171,352.279 981.195,353.411 982.219,370.021 983.243,353.411 984.268,369.265 985.292,369.265 986.316,351.147 987.340,367.378 988.364,348.504 989.388,348.504 990.412,350.014 991.437,350.014 992.461,344.730 993.485,347.372 994.509,348.504 995.533,340.955 996.557,339.445 997.581,340.955 998.606,339.445 999.630,340.955 1000.654,340.955 1001.678,339.445 1002.702,338.313 1003.726,338.313 1004.751,336.426 1005.775,337.935 1006.799,339.445 1007.823,339.445 1008.847,353.789 1009.871,334.162 1010.895,353.035 1011.920,333.406 1012.944,331.896 1013.968,331.896 1014.992,347.372 1016.016,347.750 1017.040,323.215 1018.064,323.593 1019.089,322.083 1020.113,320.573 1021.137,323.215 1022.161,322.083 1023.185,322.837 1024.209,319.818 1025.234,323.215 1026.258,322.837 1027.282,322.837 1028.306,322.837 1029.330,319.440 1030.354,319.440 1031.378,320.195 1032.403,320.195 1033.427,317.554 1034.451,318.686 1035.475,317.176 1036.499,317.176 1037.523,314.534 1038.547,315.666 1039.572,315.288 1040.596,314.534 1041.620,312.646 1042.644,331.142 1043.668,312.646 1044.692,331.142 1045.717,311.137 1046.741,309.627 1047.765,312.646 1048.789,308.871 1049.813,308.871 1050.837,307.361 1051.861,307.739 1052.886,307.739 1053.910,306.607 1054.934,305.474 1055.958,303.964 1056.982,303.964 1058.006,303.210 1059.030,303.210 1060.055,302.832 1061.079,302.832 1062.103,300.944 1063.127,301.700 1064.151,300.190 1065.175,296.415 1066.200,297.170 1067.224,298.680 1068.248,298.680 1069.272,298.680 1070.296,298.680 1071.320,297.925 1072.344,298.680 1073.369,294.529 1074.393,291.885 1075.417,291.885 1076.441,308.871 1077.465,292.263 1078.489,289.621 1079.513,306.983 1080.538,306.229 1081.562,306.229 1082.586,306.229 1083.610,281.317 1084.634,285.092 1085.658,285.092 1086.683,282.449 1087.707,283.582 1088.731,280.562 1089.755,282.449 1090.779,280.562 1091.803,297.548 1092.827,297.548 1093.852,297.548 1094.876,297.548 1095.900,282.449 1096.924,279.429 1097.948,293.395 1098.972,293.395 1099.996,277.165 1101.021,275.277 1102.045,292.263 1103.069,273.768 1104.093,273.768 1105.117,273.768 1106.141,273.390 1107.166,271.880 1108.190,271.880 1109.214,272.258 1110.238,287.356 1111.262,272.636 1112.286,285.092 1113.310,284.336 1114.335,286.978 1115.359,283.958 1116.383,282.826 1117.407,282.072 1118.431,282.072 1119.455,265.463 1120.479,265.841 1121.504,265.841 1122.528,264.331 1123.552,262.443 1124.576,262.443 1125.600,261.311 1126.624,260.933 1127.649,260.557 1128.673,260.179 1129.697,274.145 1130.721,275.277 1131.745,273.768 1132.769,274.145 1133.793,258.292 1134.818,253.762 1135.842,252.252 1136.866,251.497 1137.890,251.497 1138.914,253.762 1139.938,249.611 1140.962,251.497 1141.987,251.120 1143.011,249.611 1144.035,251.120 1145.059,250.365 1146.083,250.365 1147.107,249.611 1148.132,247.345 1149.156,247.723 1150.180,246.591 1151.204,244.703 1152.228,243.948 1153.252,246.213 1154.276,245.835 1155.301,261.689 1156.325,261.689 1157.349,246.213 1158.373,260.557 1159.397,260.557 1160.421,242.816 1161.445,241.684 1162.470,243.571 1163.494,242.816 1164.518,241.684 1165.542,242.816 1166.566,242.816 1167.590,241.684 1168.615,233.757 1169.639,233.757 1170.663,233.757 1171.687,256.026 1172.711,233.757 1173.735,233.757 1174.759,233.001 1175.784,232.625 1176.808,231.869 1177.832,230.737 1178.856,229.981 1179.880,232.247 1180.904,228.849 1181.928,228.849 1182.953,228.849 1183.977,229.981 1185.001,226.585 1186.025,226.585 1187.049,226.962 1188.073,226.585 1189.098,226.585 1190.122,243.571 1191.146,240.928 1192.170,242.438 1193.194,226.585 1194.218,223.942 1195.242,239.418 1196.267,239.796 1197.291,239.418 1198.315,239.042 1199.339,238.286 1200.363,236.399 1201.387,236.021 1202.411,236.021 1203.436,236.021 1204.460,236.021 1205.484,236.021 1206.508,235.267 1207.532,223.566 1208.556,219.413 1209.581,233.379 1210.605,223.566 1211.629,223.566 1212.653,223.566 1213.677,223.566 1214.701,223.566 1215.725,212.996 1216.750,218.659 1217.774,212.996 1218.798,222.056 1219.822,219.036 1220.846,218.281 1221.870,219.036 1222.894,219.791 1223.919,220.546 1224.943,220.546 1225.967,220.546 1226.991,220.546 1228.015,220.546 1229.039,220.168 1230.064,220.546 1231.088,220.546 1232.112,220.546 1233.136,220.546 1234.160,220.546 1235.184,219.791 1236.208,220.546 1237.233,220.168 1238.257,220.168 1239.281,220.168 1240.305,220.168 1241.329,220.168 1242.353,220.168 1243.377,220.168 1244.402,220.168 1245.426,220.168 1246.450,220.168 1247.474,220.168 1248.498,216.015 1249.522,216.015 1250.547,216.015 1251.571,186.197 1252.595,186.197 1253.619,188.084 1254.643,221.300 1255.667,188.084 1256.691,221.300 1257.716,219.791 1258.740,220.168 1259.764,188.461 1260.788,220.168 1261.812,219.791 1262.836,219.791 1263.860,218.659 1264.885,218.659 1265.909,218.659 1266.933,216.015 1267.957,214.129 1268.981,206.956 1270.005,216.015 1271.030,217.525 1272.054,216.771 1273.078,216.771 1274.102,217.525 1275.126,216.771 1276.150,216.771 1277.174,219.413 1278.199,216.771 1279.223,219.413 1280.247,203.937 1281.271,203.937 1282.295,205.070 1283.319,219.413 1284.343,219.413 1285.368,205.070 1286.392,203.937 1287.416,204.315 1288.440,205.070 1289.464,204.315 1290.488,219.413 1291.513,206.202 1292.537,205.070 1293.561,203.937 1294.585,203.937 1295.609,205.824 1296.633,205.070 1297.657,204.315 1298.682,203.937 1299.706,204.315 1300.730,219.413 1301.754,204.315 1302.778,204.315 1303.802,204.315 1304.826,203.183 1305.851,202.427 1306.875,203.937 1307.899,194.124 1308.923,205.070 1309.947,205.070 1310.971,192.990 1311.996,192.236 1313.020,192.236 1314.044,192.236 1315.068,194.878 1316.092,196.388 1317.116,195.634 1318.140,191.104 1319.165,192.236 1320.189,192.236 1321.213,194.878 1322.237,194.878 1323.261,192.236 1324.285,192.614 1325.309,188.839 1326.334,192.990 1327.358,191.104 1328.382,191.104 1329.406,191.858 1330.430,187.329 1331.454,187.329 1332.479,187.329 1333.503,187.329 1334.527,187.329 1335.551,186.575 1336.575,184.309 1337.599,184.687 1338.623,184.309 1339.648,184.309 1340.672,184.309 1341.696,189.216 1342.720,184.309 1343.744,188.839 1344.768,189.216 1345.792,189.216 1346.817,189.971 1347.841,189.971 1348.865,186.197 1349.889,181.290 1350.913,181.290 1351.937,182.045 1352.962,184.309 1353.986,182.422 1355.010,177.514 1356.034,177.514 1357.058,176.760 1358.082,181.290 1359.106,174.495 1360.131,173.740 1361.155,174.495 1362.179,172.985 1363.203,172.985 1364.227,172.231 1365.251,173.740 1366.275,174.872 1367.300,175.250 1368.324,173.740 1369.348,173.363 1370.372,173.363 1371.396,171.853 1372.420,168.455 1373.445,170.343 1374.469,186.197 1375.493,167.701 1376.517,168.455 1377.541,166.946 1378.565,186.197 1379.589,185.065 1380.614,185.819 1381.638,184.687 1382.662,160.152 1383.686,159.396 1384.710,184.687 1385.734,153.735 1386.758,183.177 1387.783,153.735 1388.807,152.603 1389.831,154.489 1390.855,177.514 1391.879,177.514 1392.903,177.138 1393.928,151.847 1394.952,175.250 1395.976,147.318 1397.000,147.318 1398.024,148.828 1399.048,150.715 1400.072,149.583 1401.097,149.206 1402.121,150.338 1403.145,150.715 1404.169,147.696 1405.193,150.338 1406.217,151.093 1407.241,150.715 1408.266,150.715 1409.290,150.715 1410.314,148.074 1411.338,145.430 1412.362,144.676 1413.386,143.920 1414.411,140.147 1415.435,140.147 1416.459,140.147 1417.483,165.059 1418.507,142.788 1419.531,143.544 1420.555,140.147 1421.580,139.391 1422.604,138.637 1423.628,137.881 1424.652,139.391 1425.676,135.617 1426.700,134.862 1427.724,134.862 1428.749,134.107 1429.773,130.332 1430.797,130.332 1431.821,129.954 1432.845,129.954 1433.869,130.710 1434.894,129.954 1435.918,129.954 1436.942,128.445 1437.966,144.298 1438.990,145.430 1440.014,144.298 1441.038,124.671 1442.063,123.537 1443.087,124.671 1444.111,123.915 1445.135,123.915 1446.159,120.895 1447.183,140.901 1448.207,122.783 1449.232,119.008 1450.256,119.008 1451.280,117.876 1452.304,117.876 1453.328,116.366 1454.352,115.612 1455.377,115.612 1456.401,94.473 1457.425,112.969 1458.449,115.988 1459.473,112.592 1460.497,112.592 1461.521,112.969 1462.546,94.473 1463.570,111.082 1464.594,112.592 1465.618,111.837 1466.642,110.327 1467.666,109.949 1468.690,110.327 1469.715,110.327 1470.739,109.949 1471.763,111.082 1472.787,111.082 1473.811,108.817 1474.835,110.327 1475.860,108.439 1476.884,111.459 1477.908,108.439 1478.932,108.439 1479.956,109.195 1480.980,111.082 1482.004,108.817 1483.029,108.439 1484.053,110.327 1485.077,110.327 1486.101,109.949 1487.125,108.439 1488.149,105.797 1489.173,108.439 1490.198,109.949 1491.222,108.439 1492.246,110.327 1493.270,110.327 1494.294,106.553 1495.318,108.439 1496.343,108.439 1497.367,108.439 1498.391,103.910 1499.415,105.042 1500.439,108.439 1501.463,108.439 1502.487,106.553 1503.512,105.419 1504.536,105.797 1505.560,99.758 1506.584,105.419 1507.608,108.439 1508.632,101.268 1509.656,105.419 1510.681,105.419 1511.705,84.282 1512.729,84.282 1513.753,84.282 1514.777,114.102 1515.801,91.453 1516.826,84.282 1517.850,92.587 1518.874,92.587 1519.898,91.831 1520.922,85.792 1521.946,85.414 1522.970,85.414 1523.995,84.282 1525.019,85.414 1526.043,89.189 1527.067,89.189 1528.091,92.209 1529.115,113.724 1530.139,91.831 1531.164,80.507 1532.188,92.587 1533.212,77.111 1534.236,77.111 1535.260,82.772 1536.284,79.753 1537.309,79.753 1538.333,78.243 1539.357,82.772 1540.381,80.885 1541.405,80.885 1542.429,81.262 1543.453,78.997 1544.478,78.243 1545.502,84.282 1546.526,74.091 1547.550,84.282 "/>
<g>
</g>
</g>
<g id="ID000003" clip-path="url(#ID000001)" >
      <polyline fill="none" stroke="#ff0000" stroke-width="3.0pt" stroke-dasharray="none" points="222.300,879.215 223.324,879.215 224.348,878.460 225.372,878.460 226.397,878.460 227.421,878.460 228.445,878.460 229.469,878.083 230.493,878.083 231.517,878.083 232.541,877.705 233.566,877.705 234.590,877.328 235.614,876.950 236.638,876.950 237.662,876.950 238.686,876.573 239.711,876.573 240.735,876.573 241.759,876.196 242.783,875.440 243.807,875.440 244.831,875.064 245.855,875.064 246.880,874.308 247.904,873.930 248.928,873.554 249.952,873.554 250.976,872.798 252.000,872.420 253.024,872.044 254.049,871.666 255.073,871.288 256.097,870.911 257.121,870.534 258.145,870.156 259.169,869.401 260.194,869.024 261.218,868.647 262.242,867.891 263.266,867.515 264.290,867.137 265.314,866.381 266.338,866.005 267.363,865.249 268.387,864.495 269.411,864.117 270.435,863.361 271.459,862.985 272.483,862.230 273.507,861.852 274.532,861.475 275.556,860.720 276.580,860.342 277.604,859.964 278.628,859.210 279.652,858.832 280.677,858.454 281.701,857.322 282.725,856.944 283.749,856.190 284.773,855.812 285.797,855.058 286.821,854.303 287.846,853.925 288.870,853.171 289.894,852.415 290.918,851.661 291.942,851.283 292.966,850.529 293.990,849.773 295.015,849.019 296.039,848.263 297.063,847.509 298.087,846.754 299.111,845.999 300.135,845.244 301.160,844.490 302.184,843.734 303.208,842.980 304.232,842.224 305.256,841.846 306.280,841.092 307.304,840.336 308.329,839.959 309.353,839.204 310.377,838.827 311.401,837.695 312.425,837.317 313.449,836.563 314.473,836.185 315.498,835.429 316.522,834.675 317.546,834.297 318.570,833.543 319.594,833.165 320.618,832.787 321.643,832.033 322.667,831.278 323.691,830.900 324.715,830.146 325.739,829.390 326.763,828.636 327.787,828.258 328.812,827.126 329.836,826.370 330.860,825.616 331.884,824.860 332.908,824.106 333.932,823.728 334.956,822.596 335.981,822.219 337.005,821.087 338.029,820.709 339.053,819.577 340.077,819.199 341.101,818.067 342.126,817.689 343.150,816.557 344.174,816.179 345.198,815.047 346.222,814.670 347.246,813.538 348.270,813.160 349.295,812.028 350.319,811.650 351.343,810.894 352.367,810.140 353.391,809.762 354.415,809.008 355.439,808.252 356.464,807.498 357.488,806.743 358.512,805.989 359.536,805.233 360.560,804.479 361.584,804.101 362.609,802.967 363.633,802.591 364.657,801.458 365.681,801.081 366.705,800.326 367.729,799.571 368.753,798.816 369.778,798.062 370.802,796.928 371.826,796.552 372.850,795.418 373.874,795.042 374.898,794.286 375.922,793.532 376.947,792.777 377.971,792.399 378.995,791.645 380.019,790.889 381.043,790.135 382.067,789.379 383.092,788.625 384.116,787.869 385.140,787.115 386.164,786.359 387.188,785.605 388.212,784.850 389.236,784.095 390.261,783.340 391.285,782.962 392.309,781.830 393.333,781.452 394.357,780.698 395.381,779.942 396.405,779.188 397.430,778.433 398.454,777.678 399.478,776.923 400.502,776.169 401.526,775.413 402.550,775.037 403.575,774.281 404.599,773.527 405.623,772.771 406.647,772.393 407.671,771.261 408.695,770.883 409.719,769.751 410.744,769.374 411.768,768.242 412.792,767.864 413.816,766.732 414.840,765.978 415.864,765.222 416.888,764.466 417.913,763.712 418.937,762.957 419.961,762.202 420.985,761.825 422.009,760.693 423.033,760.315 424.058,759.183 425.082,758.805 426.106,758.051 427.130,757.295 428.154,756.541 429.178,755.785 430.202,755.031 431.227,754.275 432.251,753.521 433.275,752.766 434.299,752.012 435.323,751.256 436.347,750.878 437.371,750.124 438.396,749.368 439.420,748.614 440.444,747.858 441.468,746.726 442.492,745.971 443.516,745.217 444.541,744.461 445.565,743.707 446.589,742.951 447.613,742.575 448.637,741.819 449.661,741.065 450.685,740.687 451.710,739.931 452.734,739.177 453.758,738.422 454.782,737.668 455.806,737.290 456.830,736.536 457.854,735.780 458.879,735.026 459.903,734.270 460.927,733.516 461.951,733.138 462.975,732.382 463.999,731.628 465.024,730.873 466.048,730.118 467.072,729.363 468.096,728.609 469.120,727.853 470.144,727.099 471.168,726.343 472.193,725.589 473.217,724.833 474.241,724.079 475.265,723.324 476.289,722.946 477.313,722.192 478.337,721.436 479.362,721.060 480.386,719.926 481.410,719.550 482.434,718.794 483.458,718.040 484.482,717.284 485.507,716.530 486.531,715.774 487.555,715.020 488.579,713.887 489.603,713.510 490.627,712.377 491.651,712.001 492.676,711.245 493.700,710.491 494.724,709.357 495.748,708.980 496.772,707.848 497.796,707.470 498.820,706.338 499.845,705.584 500.869,704.828 501.893,704.074 502.917,703.318 503.941,702.564 504.965,701.808 505.990,701.054 507.014,700.298 508.038,699.544 509.062,698.789 510.086,697.657 511.110,696.901 512.134,696.147 513.159,695.391 514.183,694.259 515.207,693.881 516.231,692.749 517.255,692.372 518.279,691.240 519.303,690.862 520.328,689.730 521.352,689.352 522.376,688.220 523.400,687.842 524.424,686.710 525.448,686.332 526.473,685.200 527.497,684.823 528.521,683.691 529.545,683.313 530.569,682.181 531.593,681.803 532.617,681.049 533.642,680.293 534.666,679.915 535.690,679.161 536.714,678.405 537.738,677.651 538.762,677.273 539.786,676.141 540.811,675.386 541.835,674.632 542.859,673.876 543.883,673.122 544.907,672.366 545.931,671.612 546.956,670.856 547.980,670.102 549.004,669.724 550.028,668.592 551.052,668.215 552.076,667.083 553.100,666.327 554.125,665.573 555.149,664.817 556.173,663.685 557.197,662.553 558.221,662.175 559.245,661.043 560.269,660.665 561.294,659.533 562.318,659.156 563.342,658.400 564.366,657.646 565.390,656.890 566.414,656.136 567.439,655.380 568.463,654.626 569.487,653.494 570.511,653.116 571.535,651.983 572.559,651.607 573.583,650.473 574.608,650.097 575.632,649.341 576.656,648.963 577.680,648.209 578.704,647.453 579.728,646.699 580.752,645.944 581.777,645.189 582.801,644.058 583.825,643.302 584.849,642.548 585.873,641.414 586.897,641.038 587.922,639.904 588.946,639.528 589.970,638.395 590.994,638.018 592.018,637.263 593.042,636.508 594.066,635.753 595.091,634.999 596.115,634.243 597.139,633.487 598.163,632.733 599.187,631.977 600.211,630.846 601.235,630.468 602.260,629.714 603.284,628.958 604.308,628.204 605.332,627.448 606.356,627.072 607.380,625.938 608.405,625.184 609.429,624.428 610.453,623.674 611.477,622.919 612.501,621.787 613.525,621.409 614.549,620.277 615.574,619.523 616.598,618.767 617.622,618.013 618.646,617.257 619.670,616.879 620.694,615.747 621.718,615.370 622.743,614.615 623.767,613.860 624.791,613.482 625.815,612.728 626.839,611.972 627.863,611.218 628.888,610.840 629.912,609.708 630.936,609.330 631.960,608.198 632.984,607.820 634.008,607.066 635.032,606.311 636.057,605.556 637.081,604.801 638.105,604.047 639.129,603.291 640.153,602.537 641.177,601.781 642.201,600.649 643.226,600.271 644.250,599.139 645.274,598.762 646.298,597.630 647.322,597.252 648.346,596.120 649.371,595.742 650.395,594.986 651.419,594.232 652.443,593.476 653.467,592.722 654.491,591.590 655.515,591.212 656.540,590.081 657.564,589.703 658.588,588.571 659.612,588.193 660.636,587.061 661.660,586.683 662.684,585.551 663.709,585.173 664.733,584.418 665.757,583.663 666.781,582.908 667.805,582.154 668.829,581.398 669.854,580.644 670.878,579.512 671.902,579.134 672.926,578.002 673.950,577.624 674.974,576.869 675.998,576.114 677.023,575.359 678.047,574.605 679.071,573.849 680.095,573.095 681.119,571.961 682.143,571.585 683.167,570.451 684.192,569.697 685.216,568.565 686.240,567.810 687.264,567.055 688.288,565.922 689.312,565.546 690.337,564.412 691.361,564.036 692.385,562.902 693.409,562.526 694.433,561.393 695.457,561.016 696.481,559.883 697.506,559.129 698.530,558.373 699.554,557.241 700.578,556.485 701.602,555.731 702.626,554.975 703.650,554.221 704.675,553.466 705.699,552.711 706.723,551.956 707.747,551.202 708.771,550.446 709.795,549.692 710.820,548.936 711.844,547.804 712.868,547.426 713.892,546.294 714.916,545.540 715.940,544.785 716.964,544.030 717.989,543.275 719.013,542.521 720.037,541.765 721.061,541.011 722.085,540.255 723.109,539.123 724.133,538.367 725.158,537.613 726.182,536.858 727.206,535.726 728.230,535.348 729.254,534.216 730.278,533.838 731.303,532.706 732.327,532.328 733.351,531.574 734.375,530.818 735.399,530.064 736.423,529.309 737.447,528.177 738.472,527.799 739.496,526.667 740.520,525.911 741.544,525.157 742.568,524.401 743.592,523.647 744.616,522.891 745.641,522.137 746.665,521.382 747.689,520.628 748.713,519.872 749.737,519.118 750.761,518.362 751.786,517.230 752.810,516.474 753.834,515.720 754.858,514.588 755.882,514.210 756.906,513.078 757.930,512.323 758.955,511.569 759.979,511.191 761.003,510.059 762.027,509.681 763.051,508.925 764.075,508.171 765.099,507.416 766.124,506.661 767.148,505.906 768.172,505.152 769.196,504.020 770.220,503.642 771.244,502.510 772.269,502.132 773.293,501.376 774.317,500.622 775.341,499.866 776.365,499.489 777.389,498.734 778.413,497.602 779.438,496.847 780.462,496.093 781.486,494.959 782.510,494.205 783.534,493.073 784.558,492.317 785.582,491.563 786.607,490.430 787.631,490.053 788.655,488.920 789.679,488.544 790.703,487.788 791.727,487.034 792.752,486.278 793.776,485.524 794.800,484.768 795.824,484.014 796.848,483.258 797.872,482.503 798.896,481.371 799.921,480.993 800.945,480.239 801.969,479.483 802.993,478.729 804.017,477.973 805.041,477.219 806.065,476.464 807.090,475.332 808.114,474.954 809.138,473.822 810.162,473.068 811.186,471.934 812.210,471.180 813.235,470.424 814.259,469.670 815.283,468.914 816.307,467.783 817.331,467.405 818.355,466.273 819.379,465.895 820.404,464.763 821.428,464.009 822.452,463.253 823.476,462.497 824.500,461.743 825.524,460.988 826.548,459.856 827.573,459.478 828.597,458.724 829.621,457.968 830.645,457.214 831.669,456.836 832.693,455.704 833.718,455.326 834.742,454.194 835.766,453.439 836.790,452.684 837.814,451.552 838.838,450.797 839.862,449.665 840.887,449.287 841.911,448.155 842.935,447.777 843.959,446.645 844.983,446.267 846.007,445.135 847.031,444.380 848.056,443.625 849.080,442.870 850.104,441.738 851.128,440.982 852.152,440.228 853.176,439.472 854.201,438.718 855.225,437.963 856.249,437.586 857.273,436.831 858.297,436.076 859.321,435.699 860.345,434.943 861.370,434.567 862.394,433.811 863.418,433.057 864.442,432.679 865.466,431.547 866.490,431.169 867.514,430.037 868.539,429.659 869.563,428.527 870.587,428.149 871.611,427.018 872.635,426.640 873.659,425.884 874.684,425.506 875.708,424.752 876.732,423.996 877.756,423.620 878.780,422.864 879.804,422.487 880.828,421.732 881.853,420.977 882.877,420.600 883.901,419.467 884.925,419.091 885.949,418.335 886.973,417.581 887.997,417.203 889.022,416.447 890.046,416.071 891.070,415.693 892.094,414.937 893.118,414.561 894.142,413.806 895.166,413.428 896.191,412.674 897.215,411.918 898.239,411.542 899.263,410.786 900.287,410.032 901.311,409.276 902.336,408.522 903.360,407.766 904.384,407.011 905.408,406.256 906.432,405.501 907.456,405.124 908.480,404.369 909.505,403.991 910.529,402.859 911.553,402.481 912.577,402.105 913.601,401.349 914.625,400.971 915.649,399.839 916.674,399.462 917.698,398.707 918.722,397.952 919.746,397.198 920.770,396.442 921.794,396.066 922.819,395.310 923.843,394.932 924.867,394.178 925.891,393.800 926.915,393.046 927.939,392.290 928.963,391.912 929.988,391.536 931.012,390.780 932.036,390.403 933.060,389.271 934.084,388.893 935.108,388.139 936.132,387.383 937.157,386.629 938.181,386.251 939.205,385.495 940.229,384.741 941.253,384.363 942.277,383.231 943.302,382.854 944.326,382.476 945.350,381.722 946.374,381.344 947.398,380.590 948.422,379.834 949.446,379.456 950.471,378.702 951.495,378.324 952.519,377.192 953.543,376.814 954.567,376.060 955.591,375.304 956.615,374.927 957.640,374.172 958.664,373.417 959.688,372.663 960.712,372.285 961.736,371.531 962.760,371.153 963.785,370.397 964.809,369.643 965.833,369.265 966.857,368.510 967.881,367.755 968.905,367.000 969.929,366.623 970.954,365.868 971.978,365.114 973.002,364.358 974.026,363.604 975.050,363.226 976.074,362.094 977.098,361.716 978.123,360.960 979.147,360.584 980.171,360.206 981.195,359.074 982.219,358.697 983.243,357.941 984.268,357.565 985.292,356.809 986.316,356.055 987.340,355.677 988.364,354.545 989.388,354.167 990.412,353.411 991.437,353.035 992.461,352.657 993.485,351.525 994.509,351.147 995.533,350.770 996.557,350.014 997.581,349.638 998.606,348.882 999.630,348.128 1000.654,347.372 1001.678,346.618 1002.702,345.862 1003.726,345.108 1004.751,344.353 1005.775,343.598 1006.799,343.221 1007.823,342.465 1008.847,341.711 1009.871,340.955 1010.895,340.579 1011.920,339.823 1012.944,339.445 1013.968,339.069 1014.992,337.935 1016.016,337.559 1017.040,336.803 1018.064,336.049 1019.089,335.294 1020.113,334.916 1021.137,334.162 1022.161,333.406 1023.185,332.652 1024.209,331.896 1025.234,331.518 1026.258,330.764 1027.282,330.009 1028.306,329.632 1029.330,328.877 1030.354,328.499 1031.378,327.745 1032.403,326.989 1033.427,326.613 1034.451,325.857 1035.475,325.103 1036.499,324.347 1037.523,323.593 1038.547,322.837 1039.572,322.459 1040.596,321.327 1041.620,320.950 1042.644,320.195 1043.668,319.440 1044.692,319.064 1045.717,318.308 1046.741,317.930 1047.765,317.176 1048.789,316.798 1049.813,316.044 1050.837,315.288 1051.861,314.910 1052.886,314.156 1053.910,313.401 1054.934,313.024 1055.958,312.269 1056.982,311.891 1058.006,310.759 1059.030,310.381 1060.055,309.627 1061.079,309.249 1062.103,308.493 1063.127,307.739 1064.151,307.361 1065.175,306.607 1066.200,306.229 1067.224,305.851 1068.248,304.720 1069.272,304.342 1070.296,303.588 1071.320,302.832 1072.344,302.078 1073.369,301.322 1074.393,300.568 1075.417,300.190 1076.441,299.434 1077.465,298.680 1078.489,298.302 1079.513,297.548 1080.538,296.793 1081.562,296.415 1082.586,295.661 1083.610,295.283 1084.634,294.529 1085.658,293.773 1086.683,293.395 1087.707,292.641 1088.731,291.885 1089.755,291.131 1090.779,290.376 1091.803,289.621 1092.827,288.866 1093.852,288.112 1094.876,287.734 1095.900,286.978 1096.924,286.224 1097.948,285.846 1098.972,285.092 1099.996,284.714 1101.021,283.958 1102.045,283.204 1103.069,282.826 1104.093,282.072 1105.117,281.694 1106.141,280.562 1107.166,280.185 1108.190,279.429 1109.214,278.675 1110.238,277.919 1111.262,277.543 1112.286,277.165 1113.310,276.033 1114.335,275.655 1115.359,275.277 1116.383,274.522 1117.407,274.145 1118.431,273.390 1119.455,272.636 1120.479,272.258 1121.504,271.502 1122.528,270.748 1123.552,269.992 1124.576,269.616 1125.600,268.482 1126.624,268.106 1127.649,267.350 1128.673,266.973 1129.697,266.596 1130.721,265.463 1131.745,265.086 1132.769,264.709 1133.793,263.953 1134.818,263.577 1135.842,262.821 1136.866,262.443 1137.890,261.689 1138.914,260.933 1139.938,260.557 1140.962,259.424 1141.987,259.047 1143.011,258.292 1144.035,257.537 1145.059,256.782 1146.083,256.404 1147.107,256.026 1148.132,254.894 1149.156,254.516 1150.180,254.140 1151.204,253.384 1152.228,253.006 1153.252,252.252 1154.276,251.497 1155.301,251.120 1156.325,250.365 1157.349,249.987 1158.373,248.855 1159.397,248.477 1160.421,247.723 1161.445,247.345 1162.470,246.591 1163.494,245.835 1164.518,245.457 1165.542,245.081 1166.566,244.325 1167.590,243.948 1168.615,243.193 1169.639,242.816 1170.663,242.438 1171.687,241.684 1172.711,241.306 1173.735,240.928 1174.759,240.174 1175.784,239.418 1176.808,239.042 1177.832,238.286 1178.856,237.908 1179.880,237.530 1180.904,236.776 1181.928,236.399 1182.953,236.021 1183.977,235.267 1185.001,234.889 1186.025,234.889 1187.049,234.135 1188.073,233.757 1189.098,233.379 1190.122,232.625 1191.146,232.247 1192.170,231.869 1193.194,231.115 1194.218,230.737 1195.242,230.359 1196.267,229.981 1197.291,229.227 1198.315,228.849 1199.339,228.472 1200.363,227.717 1201.387,227.717 1202.411,227.340 1203.436,226.585 1204.460,226.208 1205.484,225.830 1206.508,225.830 1207.532,225.076 1208.556,224.698 1209.581,224.320 1210.605,223.942 1211.629,223.188 1212.653,223.188 1213.677,222.810 1214.701,222.432 1215.725,221.678 1216.750,221.300 1217.774,221.300 1218.798,220.923 1219.822,220.546 1220.846,220.168 1221.870,219.791 1222.894,219.791 1223.919,219.413 1224.943,219.036 1225.967,219.036 1226.991,218.659 1228.015,218.659 1229.039,218.659 1230.064,218.281 1231.088,218.281 1232.112,218.281 1233.136,218.281 1234.160,218.281 1235.184,217.903 1236.208,217.525 1237.233,217.525 1238.257,217.149 1239.281,217.149 1240.305,217.149 1241.329,217.149 1242.353,217.149 1243.377,217.149 1244.402,217.149 1245.426,217.149 1246.450,217.149 1247.474,217.149 1248.498,217.149 1249.522,217.149 1250.547,216.771 1251.571,216.771 1252.595,216.771 1253.619,216.771 1254.643,216.771 1255.667,216.771 1256.691,216.771 1257.716,216.771 1258.740,216.771 1259.764,216.771 1260.788,216.771 1261.812,216.771 1262.836,216.393 1263.860,216.015 1264.885,215.639 1265.909,215.639 1266.933,215.261 1267.957,214.883 1268.981,214.505 1270.005,214.129 1271.030,213.751 1272.054,213.373 1273.078,212.996 1274.102,212.619 1275.126,212.241 1276.150,211.864 1277.174,211.486 1278.199,211.109 1279.223,210.732 1280.247,210.354 1281.271,209.976 1282.295,209.600 1283.319,209.222 1284.343,209.222 1285.368,208.466 1286.392,208.090 1287.416,207.712 1288.440,207.334 1289.464,206.580 1290.488,206.580 1291.513,206.202 1292.537,205.447 1293.561,205.070 1294.585,204.692 1295.609,204.315 1296.633,203.937 1297.657,203.560 1298.682,203.183 1299.706,202.805 1300.730,202.051 1301.754,202.051 1302.778,201.673 1303.802,200.917 1304.826,200.541 1305.851,200.163 1306.875,200.163 1307.899,199.785 1308.923,199.029 1309.947,199.029 1310.971,198.653 1311.996,198.275 1313.020,197.897 1314.044,197.520 1315.068,197.143 1316.092,197.143 1317.116,196.766 1318.140,196.010 1319.165,195.634 1320.189,195.634 1321.213,194.878 1322.237,194.500 1323.261,194.124 1324.285,193.746 1325.309,192.990 1326.334,192.614 1327.358,192.236 1328.382,191.480 1329.406,191.104 1330.430,190.348 1331.454,189.971 1332.479,189.594 1333.503,188.839 1334.527,188.461 1335.551,188.084 1336.575,187.707 1337.599,186.951 1338.623,186.575 1339.648,186.575 1340.672,185.819 1341.696,185.441 1342.720,185.065 1343.744,184.687 1344.768,183.931 1345.792,183.931 1346.817,183.555 1347.841,182.799 1348.865,182.422 1349.889,182.045 1350.913,181.290 1351.937,180.912 1352.962,180.534 1353.986,179.780 1355.010,179.402 1356.034,179.024 1357.058,178.648 1358.082,177.892 1359.106,177.514 1360.131,177.138 1361.155,176.382 1362.179,176.382 1363.203,176.004 1364.227,175.628 1365.251,174.872 1366.275,174.495 1367.300,174.118 1368.324,173.363 1369.348,172.985 1370.372,172.608 1371.396,171.853 1372.420,171.475 1373.445,170.721 1374.469,170.343 1375.493,169.965 1376.517,168.833 1377.541,168.455 1378.565,168.079 1379.589,167.323 1380.614,167.323 1381.638,166.946 1382.662,166.191 1383.686,165.814 1384.710,165.436 1385.734,164.682 1386.758,164.304 1387.783,163.926 1388.807,162.794 1389.831,162.416 1390.855,162.038 1391.879,161.284 1392.903,160.906 1393.928,160.152 1394.952,159.774 1395.976,159.396 1397.000,158.642 1398.024,158.264 1399.048,157.887 1400.072,157.132 1401.097,156.755 1402.121,156.377 1403.145,155.623 1404.169,155.245 1405.193,154.867 1406.217,154.113 1407.241,153.357 1408.266,152.979 1409.290,152.225 1410.314,151.847 1411.338,151.093 1412.362,150.715 1413.386,150.338 1414.411,149.583 1415.435,149.206 1416.459,148.828 1417.483,148.074 1418.507,147.696 1419.531,147.318 1420.555,146.564 1421.580,146.186 1422.604,145.808 1423.628,145.054 1424.652,144.676 1425.676,144.298 1426.700,143.544 1427.724,143.166 1428.749,142.788 1429.773,142.033 1430.797,141.657 1431.821,141.279 1432.845,140.523 1433.869,140.147 1434.894,139.769 1435.918,139.013 1436.942,138.637 1437.966,138.259 1438.990,137.503 1440.014,137.127 1441.038,136.371 1442.063,135.617 1443.087,135.239 1444.111,134.484 1445.135,133.730 1446.159,132.974 1447.183,132.598 1448.207,131.842 1449.232,131.088 1450.256,130.710 1451.280,129.954 1452.304,129.578 1453.328,129.200 1454.352,128.445 1455.377,128.068 1456.401,127.690 1457.425,127.313 1458.449,126.558 1459.473,126.181 1460.497,125.425 1461.521,125.049 1462.546,124.671 1463.570,123.915 1464.594,123.537 1465.618,122.783 1466.642,122.027 1467.666,121.651 1468.690,121.273 1469.715,120.518 1470.739,120.141 1471.763,119.386 1472.787,119.008 1473.811,118.631 1474.835,117.498 1475.860,117.122 1476.884,116.366 1477.908,115.988 1478.932,115.234 1479.956,114.478 1480.980,114.102 1482.004,112.969 1483.029,112.592 1484.053,112.214 1485.077,111.459 1486.101,111.082 1487.125,110.327 1488.149,109.949 1489.173,109.573 1490.198,108.439 1491.222,108.063 1492.246,107.685 1493.270,106.929 1494.294,106.175 1495.318,105.419 1496.343,105.042 1497.367,103.910 1498.391,103.532 1499.415,102.400 1500.439,102.022 1501.463,101.646 1502.487,100.890 1503.512,100.512 1504.536,99.758 1505.560,99.380 1506.584,99.002 1507.608,97.870 1508.632,97.493 1509.656,97.116 1510.681,96.361 1511.705,95.983 1512.729,95.229 1513.753,94.473 1514.777,94.097 1515.801,93.341 1516.826,92.963 1517.850,92.209 1518.874,91.831 1519.898,91.453 1520.922,90.699 1521.946,90.321 1522.970,89.943 1523.995,89.567 1525.019,88.811 1526.043,88.434 1527.067,88.434 1528.091,87.680 1529.115,87.302 1530.139,86.924 1531.164,86.170 1532.188,85.792 1533.212,85.414 1534.236,84.660 1535.260,84.282 1536.284,83.904 1537.309,83.526 1538.333,82.772 1539.357,82.394 1540.381,82.017 1541.405,81.640 1542.429,81.262 1543.453,80.885 1544.478,80.507 1545.502,79.753 1546.526,79.375 1547.550,78.997 "/>
<g>
</g>
</g>
<g id="ID000004" >
</g>
<g id="ID000005" >
</g>
<g id="ID000006" >
</g>
<g id="ID000007" >
</g>
<g id="ID000008" >
</g>
    </g>
    <g>
      <polyline fill="none" stroke="#000000" stroke-width="0.5pt" stroke-dasharray="none" points="426.106,879.215 426.106,865.963 "/>
      <polyline fill="none" stroke="#000000" stroke-width="0.5pt" stroke-dasharray="none" points="630.936,879.215 630.936,865.963 "/>
      <polyline fill="none" stroke="#000000" stroke-width="0.5pt" stroke-dasharray="none" points="835.766,879.215 835.766,865.963 "/>
      <polyline fill="none" stroke="#000000" stroke-width="0.5pt" stroke-dasharray="none" points="1040.596,879.215 1040.596,865.963 "/>
      <polyline fill="none" stroke="#000000" stroke-width="0.5pt" stroke-dasharray="none" points="1245.426,879.215 1245.426,865.963 "/>
      <polyline fill="none" stroke="#000000" stroke-width="0.5pt" stroke-dasharray="none" points="1450.256,879.215 1450.256,865.963 "/>
      <polyline fill="none" stroke="#000000" stroke-width="0.5pt" stroke-dasharray="none" points="222.300,879.215 1547.550,879.215 "/>
  <g transform="translate(426.106,915.308)">
    <g transform="rotate(-0.0)">
      <text x="0.000" y="0.000" font-family="Helvetica" text-anchor="middle" font-size="17pt" fill="#000000" >200</text>
    </g>
  </g>
  <g transform="translate(630.936,915.308)">
    <g transform="rotate(-0.0)">
      <text x="0.000" y="0.000" font-family="Helvetica" text-anchor="middle" font-size="17pt" fill="#000000" >400</text>
    </g>
  </g>
  <g transform="translate(835.766,915.308)">
    <g transform="rotate(-0.0)">
      <text x="0.000" y="0.000" font-family="Helvetica" text-anchor="middle" font-size="17pt" fill="#000000" >600</text>
    </g>
  </g>
  <g transform="translate(1040.596,915.308)">
    <g transform="rotate(-0.0)">
      <text x="0.000" y="0.000" font-family="Helvetica" text-anchor="middle" font-size="17pt" fill="#000000" >800</text>
    </g>
  </g>
  <g transform="translate(1245.426,915.308)">
    <g transform="rotate(-0.0)">
      <text x="0.000" y="0.000" font-family="Helvetica" text-anchor="middle" font-size="17pt" fill="#000000" >1000</text>
    </g>
  </g>
  <g transform="translate(1450.256,915.308)">
    <g transform="rotate(-0.0)">
      <text x="0.000" y="0.000" font-family="Helvetica" text-anchor="middle" font-size="17pt" fill="#000000" >1200</text>
    </g>
  </g>
      <polyline fill="none" stroke="#000000" stroke-width="0.5pt" stroke-dasharray="none" points="222.300,879.215 235.553,879.215 "/>
      <polyline fill="none" stroke="#000000" stroke-width="0.5pt" stroke-dasharray="none" points="222.300,803.649 235.553,803.649 "/>
      <polyline fill="none" stroke="#000000" stroke-width="0.5pt" stroke-dasharray="none" points="222.300,728.083 235.553,728.083 "/>
      <polyline fill="none" stroke="#000000" stroke-width="0.5pt" stroke-dasharray="none" points="222.300,652.516 235.553,652.516 "/>
      <polyline fill="none" stroke="#000000" stroke-width="0.5pt" stroke-dasharray="none" points="222.300,576.950 235.553,576.950 "/>
      <polyline fill="none" stroke="#000000" stroke-width="0.5pt" stroke-dasharray="none" points="222.300,501.384 235.553,501.384 "/>
      <polyline fill="none" stroke="#000000" stroke-width="0.5pt" stroke-dasharray="none" points="222.300,425.818 235.553,425.818 "/>
      <polyline fill="none" stroke="#000000" stroke-width="0.5pt" stroke-dasharray="none" points="222.300,350.251 235.553,350.251 "/>
      <polyline fill="none" stroke="#000000" stroke-width="0.5pt" stroke-dasharray="none" points="222.300,274.685 235.553,274.685 "/>
      <polyline fill="none" stroke="#000000" stroke-width="0.5pt" stroke-dasharray="none" points="222.300,199.119 235.553,199.119 "/>
      <polyline fill="none" stroke="#000000" stroke-width="0.5pt" stroke-dasharray="none" points="222.300,123.552 235.553,123.552 "/>
      <polyline fill="none" stroke="#000000" stroke-width="0.5pt" stroke-dasharray="none" points="222.300,879.215 222.300,74.091 "/>
  <g transform="translate(195.795,886.839)">
    <g transform="rotate(-0.0)">
      <text x="0.000" y="0.000" font-family="Helvetica" text-anchor="end" font-size="17pt" fill="#000000" >0</text>
    </g>
  </g>
  <g transform="translate(195.795,811.273)">
    <g transform="rotate(-0.0)">
      <text x="0.000" y="0.000" font-family="Helvetica" text-anchor="end" font-size="17pt" fill="#000000" >500</text>
    </g>
  </g>
  <g transform="translate(195.795,735.706)">
    <g transform="rotate(-0.0)">
      <text x="0.000" y="0.000" font-family="Helvetica" text-anchor="end" font-size="17pt" fill="#000000" >1000</text>
    </g>
  </g>
  <g transform="translate(195.795,660.140)">
    <g transform="rotate(-0.0)">
      <text x="0.000" y="0.000" font-family="Helvetica" text-anchor="end" font-size="17pt" fill="#000000" >1500</text>
    </g>
  </g>
  <g transform="translate(195.795,584.574)">
    <g transform="rotate(-0.0)">
      <text x="0.000" y="0.000" font-family="Helvetica" text-anchor="end" font-size="17pt" fill="#000000" >2000</text>
    </g>
  </g>
  <g transform="translate(195.795,509.007)">
    <g transform="rotate(-0.0)">
      <text x="0.000" y="0.000" font-family="Helvetica" text-anchor="end" font-size="17pt" fill="#000000" >2500</text>
    </g>
  </g>
  <g transform="translate(195.795,433.441)">
    <g transform="rotate(-0.0)">
      <text x="0.000" y="0.000" font-family="Helvetica" text-anchor="end" font-size="17pt" fill="#000000" >3000</text>
    </g>
  </g>
  <g transform="translate(195.795,357.875)">
    <g transform="rotate(-0.0)">
      <text x="0.000" y="0.000" font-family="Helvetica" text-anchor="end" font-size="17pt" fill="#000000" >3500</text>
    </g>
  </g>
  <g transform="translate(195.795,282.308)">
    <g transform="rotate(-0.0)">
      <text x="0.000" y="0.000" font-family="Helvetica" text-anchor="end" font-size="17pt" fill="#000000" >4000</text>
    </g>
  </g>
  <g transform="translate(195.795,206.742)">
    <g transform="rotate(-0.0)">
      <text x="0.000" y="0.000" font-family="Helvetica" text-anchor="end" font-size="17pt" fill="#000000" >4500</text>
    </g>
  </g>
  <g transform="translate(195.795,131.176)">
    <g transform="rotate(-0.0)">
      <text x="0.000" y="0.000" font-family="Helvetica" text-anchor="end" font-size="17pt" fill="#000000" >5000</text>
    </g>
  </g>
      <polyline fill="none" stroke="#000000" stroke-width="0.5pt" stroke-dasharray="none" points="222.300,879.215 222.300,871.164 "/>
      <polyline fill="none" stroke="#000000" stroke-width="0.5pt" stroke-dasharray="none" points="222.300,879.215 222.300,871.164 "/>
      <polyline fill="none" stroke="#000000" stroke-width="0.5pt" stroke-dasharray="none" points="222.300,879.215 222.300,871.164 "/>
      <polyline fill="none" stroke="#000000" stroke-width="0.5pt" stroke-dasharray="none" points="222.300,879.215 222.300,879.215 "/>
    </g>
  </g>
  <g id ="ID000009">
  <clipPath id="ID000010">
    <rect x="366.784" y="193.040" width="219.794" height="67.037"/>
  </clipPath>
      <polygon fill="#ffffff" fill-opacity="1.00" stroke="none" stroke-width="0.5pt" stroke-opacity="1.00" stroke-dasharray="none" points="366.784,260.077 586.578,260.077 586.578,193.040 366.784,193.040 "/>
      <polygon fill="#ffffff" fill-opacity="1.00" stroke="none" stroke-width="0.5pt" stroke-opacity="1.00" stroke-dasharray="none" points="366.784,193.040 586.578,193.040 586.578,193.040 366.784,193.040 "/>
      <polygon fill="#ffffff" fill-opacity="1.00" stroke="none" stroke-width="0.5pt" stroke-opacity="1.00" stroke-dasharray="none" points="366.784,260.077 366.784,260.077 366.784,193.040 366.784,193.040 "/>
    <g>
<g id="ID000011" >
</g>
<g id="ID000012" >
</g>
<g id="ID000013" >
</g>
<g id="ID000014" >
  <g transform="translate(415.921,218.994)">
    <g transform="rotate(-0.0)">
      <text x="0.000" y="0.000" font-family="Helvetica" text-anchor="start" font-size="17pt" fill="#000000" >Estimated Location</text>
    </g>
  </g>
</g>
<g id="ID000015" clip-path="url(#ID000010)" >
      <polyline fill="none" stroke="#0000ff" stroke-width="1.0pt" stroke-dasharray="none" points="374.284,210.893 411.784,210.893 "/>
<g>
</g>
</g>
<g id="ID000016" clip-path="url(#ID000010)" >
<g>
</g>
</g>
<g id="ID000017" >
  <g transform="translate(415.921,251.465)">
    <g transform="rotate(-0.0)">
      <text x="0.000" y="0.000" font-family="Helvetica" text-anchor="start" font-size="17pt" fill="#000000" >Ground Truth</text>
    </g>
  </g>
</g>
<g id="ID000018" clip-path="url(#ID000010)" >
      <polyline fill="none" stroke="#ff0000" stroke-width="3.0pt" stroke-dasharray="none" points="374.284,242.224 411.784,242.224 "/>
<g>
</g>
</g>
<g id="ID000019" clip-path="url(#ID000010)" >
<g>
</g>
</g>
    </g>
    <g>
      <polyline fill="none" stroke="#000000" stroke-width="0.5pt" stroke-dasharray="none" points="366.784,260.077 586.578,260.077 "/>
      <polyline fill="none" stroke="#000000" stroke-width="0.5pt" stroke-dasharray="none" points="366.784,193.040 586.578,193.040 "/>
      <polyline fill="none" stroke="#000000" stroke-width="0.5pt" stroke-dasharray="none" points="366.784,260.077 366.784,193.040 "/>
      <polyline fill="none" stroke="#000000" stroke-width="0.5pt" stroke-dasharray="none" points="586.578,260.077 586.578,193.040 "/>
      <polyline fill="none" stroke="#000000" stroke-width="0.5pt" stroke-dasharray="none" points="366.784,260.077 366.784,259.407 "/>
      <polyline fill="none" stroke="#000000" stroke-width="0.5pt" stroke-dasharray="none" points="366.784,260.077 366.784,260.077 "/>
    </g>
  </g>
  <g id ="ID000020">
  <clipPath id="ID000021">
    <rect x="0.000" y="0.000" width="1710.000" height="987.882"/>
  </clipPath>
    <g>
    </g>
  </g>
  </g>
</svg>
