<?xml version="1.0" encoding="UTF-8" standalone="no"?>
<svg
   xmlns:dc="http://purl.org/dc/elements/1.1/"
   xmlns:cc="http://creativecommons.org/ns#"
   xmlns:rdf="http://www.w3.org/1999/02/22-rdf-syntax-ns#"
   xmlns:svg="http://www.w3.org/2000/svg"
   xmlns="http://www.w3.org/2000/svg"
   xmlns:sodipodi="http://sodipodi.sourceforge.net/DTD/sodipodi-0.dtd"
   xmlns:inkscape="http://www.inkscape.org/namespaces/inkscape"
   preserveAspectRatio="xMinYMin meet"
   width="100%"
   height="100%"
   viewBox="0 0 1710.000 987.882"
   version="1.1"
   id="svg2"
   inkscape:version="0.48.3.1 r9886"
   sodipodi:docname="ST_GABOR_good_C3_P2.svg">
  <metadata
     id="metadata265">
    <rdf:RDF>
      <cc:Work
         rdf:about="">
        <dc:format>image/svg+xml</dc:format>
        <dc:type
           rdf:resource="http://purl.org/dc/dcmitype/StillImage" />
      </cc:Work>
    </rdf:RDF>
  </metadata>
  <defs
     id="defs263" />
  <sodipodi:namedview
     pagecolor="#ffffff"
     bordercolor="#666666"
     borderopacity="1"
     objecttolerance="10"
     gridtolerance="10"
     guidetolerance="10"
     inkscape:pageopacity="0"
     inkscape:pageshadow="2"
     inkscape:window-width="1615"
     inkscape:window-height="1026"
     id="namedview261"
     showgrid="false"
     inkscape:zoom="0.36959064"
     inkscape:cx="931.83123"
     inkscape:cy="376.97588"
     inkscape:window-x="1345"
     inkscape:window-y="24"
     inkscape:window-maximized="1"
     inkscape:current-layer="svg2" />
  <desc
     id="desc4">Matlab Figure Converted by PLOT2SVG written by Juerg Schwizer</desc>
  <g
     id="topgroup">
    <rect
       x="0"
       y="0"
       width="1710.000"
       height="987.882"
       fill="#ffffff"
       stroke="none"
       id="rect7" />
    <g
       id="ID000000">
      <clipPath
         id="ID000001">
        <rect
           x="222.300"
           y="74.091"
           width="1325.250"
           height="805.124"
           id="rect11" />
      </clipPath>
      <polygon
         fill="#ffffff"
         fill-opacity="1.00"
         stroke="none"
         stroke-width="0.5pt"
         stroke-opacity="1.00"
         stroke-dasharray="none"
         points="222.300,879.215 1547.550,879.215 1547.550,74.091 222.300,74.091 "
         id="polygon13" />
      <polygon
         fill="#ffffff"
         fill-opacity="1.00"
         stroke="none"
         stroke-width="0.5pt"
         stroke-opacity="1.00"
         stroke-dasharray="none"
         points="222.300,74.091 1547.550,74.091 1547.550,74.091 222.300,74.091 "
         id="polygon15" />
      <polygon
         fill="#ffffff"
         fill-opacity="1.00"
         stroke="none"
         stroke-width="0.5pt"
         stroke-opacity="1.00"
         stroke-dasharray="none"
         points="222.300,879.215 222.300,879.215 222.300,74.091 222.300,74.091 "
         id="polygon17" />
      <g
         id="g19">
        <g
           id="ID000002"
           clip-path="url(#ID000001)">
          <polyline
             fill="none"
             stroke="#0000ff"
             stroke-width="1.0pt"
             stroke-dasharray="none"
             points="222.300,879.215 223.866,879.215 225.433,879.215 226.999,872.159 228.566,871.517 230.132,870.875 231.699,847.780 233.265,852.270 234.832,851.631 236.398,863.177 237.965,876.007 239.531,875.365 241.098,849.704 242.664,866.385 244.231,866.385 245.797,865.743 247.364,870.875 248.930,870.875 250.497,864.461 252.063,847.780 253.630,864.461 255.196,864.461 256.763,854.197 258.329,863.819 259.896,845.214 261.462,867.027 263.029,866.385 264.595,837.516 266.162,847.780 267.728,854.197 269.295,858.045 270.861,866.385 272.428,842.648 273.994,857.402 275.561,876.007 277.127,856.121 278.694,856.121 280.260,876.007 281.827,681.622 283.393,824.686 284.960,860.611 286.526,822.762 288.093,849.704 289.659,849.065 291.226,847.780 292.792,822.762 294.359,847.138 295.925,820.196 297.491,851.631 299.058,833.026 300.624,840.082 302.191,840.082 303.757,838.158 305.324,829.176 306.890,822.762 308.457,822.119 310.023,822.119 311.590,834.950 313.156,834.950 314.723,834.950 316.289,815.703 317.856,813.137 319.422,811.855 320.989,853.555 322.555,816.345 324.122,818.911 325.688,804.796 327.255,834.950 328.821,827.252 330.388,827.252 331.954,811.855 333.521,836.874 335.087,813.779 336.654,820.196 338.220,812.495 339.787,820.196 341.353,791.327 342.920,811.855 344.486,811.213 346.053,815.703 347.619,806.723 349.186,793.250 350.752,791.966 352.319,791.327 353.885,790.042 355.452,796.459 357.018,795.174 358.585,796.459 360.151,796.459 361.718,789.400 363.284,788.760 364.851,511.616 366.417,795.174 367.984,514.182 369.550,788.118 371.116,529.581 372.683,781.060 374.249,781.060 375.816,777.854 377.382,792.608 378.949,772.722 380.515,799.664 382.082,756.683 383.648,804.157 385.215,756.041 386.781,802.873 388.348,784.268 389.914,750.909 391.481,780.420 393.047,766.305 394.614,765.024 396.180,763.739 397.747,786.194 399.313,784.910 400.880,783.628 402.446,781.060 404.013,788.760 405.579,756.683 407.146,756.041 408.712,802.873 410.279,539.204 411.845,784.268 413.412,783.628 414.978,764.381 416.545,779.136 418.111,778.494 419.678,762.457 421.244,756.683 422.811,751.551 424.377,751.551 425.944,754.117 427.510,740.002 429.077,752.193 430.643,740.002 432.210,740.002 433.776,593.091 435.343,591.809 436.909,591.809 438.476,752.193 440.042,748.343 441.609,737.436 443.175,754.117 444.741,760.531 446.308,745.135 447.874,729.096 449.441,770.156 451.007,768.871 452.574,736.794 454.140,735.512 455.707,718.832 457.273,745.135 458.840,743.853 460.406,742.568 461.973,639.283 463.539,756.041 465.106,697.021 466.672,755.399 468.239,755.399 469.805,726.530 471.372,740.002 472.938,723.964 474.505,736.794 476.071,709.209 477.638,713.057 479.204,697.021 480.771,718.189 482.337,727.814 483.904,727.814 485.470,698.303 487.037,698.303 488.603,698.303 490.170,696.379 491.736,684.830 493.303,711.776 494.869,693.171 496.436,693.171 498.002,709.209 499.569,708.567 501.135,706.643 502.702,689.323 504.268,688.039 505.835,695.737 507.401,690.605 508.968,686.115 510.534,669.434 512.101,668.152 513.667,700.227 515.234,680.983 516.800,697.021 518.366,696.379 519.933,692.529 521.499,686.757 523.066,697.021 524.632,697.021 526.199,697.021 527.765,691.247 529.332,695.737 530.898,679.056 532.465,786.834 534.031,786.194 535.598,685.473 537.164,686.757 538.731,537.919 540.297,683.549 541.864,663.020 543.430,657.888 544.997,654.680 546.563,544.336 548.130,529.581 549.696,543.051 551.263,579.619 552.829,548.826 554.396,643.131 555.962,642.489 557.529,641.849 559.095,640.565 560.662,621.960 562.228,650.187 563.795,655.322 565.361,654.680 566.928,645.055 568.494,643.131 570.061,643.131 571.627,642.489 573.194,634.791 574.760,633.509 576.327,632.867 577.893,637.999 579.460,634.151 581.026,634.791 582.593,665.586 584.159,663.020 585.726,661.094 587.292,660.454 588.859,614.262 590.425,516.749 591.991,629.658 593.558,627.735 595.124,642.489 596.691,624.526 598.257,624.526 599.824,622.602 601.390,620.679 602.957,620.036 604.523,617.470 606.090,645.055 607.656,634.791 609.223,612.980 610.789,611.696 612.356,614.904 613.922,614.262 615.489,620.679 617.055,620.679 618.622,615.546 620.188,626.453 621.755,607.206 623.321,627.735 624.888,625.811 626.454,586.035 628.021,745.135 629.587,744.492 631.154,630.301 632.720,601.432 634.287,599.508 635.853,595.018 637.420,612.980 638.986,611.696 640.553,611.054 642.119,514.182 643.686,818.269 645.252,816.987 646.819,596.299 648.385,603.998 649.952,482.747 651.518,582.185 653.085,580.903 654.651,580.261 656.218,582.185 657.784,603.356 659.351,598.223 660.917,595.657 662.484,593.733 664.050,592.452 665.616,587.959 667.183,570.639 668.749,588.601 670.316,615.546 671.882,598.223 673.449,601.432 675.015,598.223 676.582,598.223 678.148,586.035 679.715,564.222 681.281,562.940 682.848,561.656 684.414,560.374 685.981,559.090 687.547,583.469 689.114,577.695 690.680,575.771 692.247,595.657 693.813,593.733 695.380,535.353 696.946,543.051 698.513,566.149 700.079,564.864 701.646,569.354 703.212,568.073 704.779,544.336 706.345,543.051 707.912,560.374 709.478,565.507 711.045,525.089 712.611,549.468 714.178,536.638 715.744,510.335 717.311,572.563 718.877,571.920 720.444,555.882 722.010,540.485 723.577,555.882 725.143,560.374 726.710,554.600 728.276,519.957 729.843,531.505 731.409,549.468 732.976,549.468 734.542,547.544 736.109,553.316 737.675,549.468 739.241,524.447 740.808,552.676 742.374,539.204 743.941,537.919 745.507,515.467 747.074,555.242 748.640,528.297 750.207,552.034 751.773,544.978 753.340,544.978 754.906,516.749 756.473,564.222 758.039,528.939 759.606,562.298 761.172,511.616 762.739,509.692 764.305,542.412 765.872,526.373 767.438,496.220 769.005,524.447 770.571,520.599 772.138,519.315 773.704,532.787 775.271,511.616 776.837,489.164 778.404,493.654 779.970,493.654 781.537,489.164 783.103,489.164 784.670,505.845 786.236,480.823 787.803,536.638 789.369,534.714 790.936,484.032 792.502,496.220 794.069,481.466 795.635,480.823 797.202,520.599 798.768,518.033 800.335,473.767 801.901,473.125 803.468,503.279 805.034,470.559 806.601,505.845 808.167,473.767 809.734,498.786 811.300,512.901 812.866,465.427 814.433,481.466 815.999,465.427 817.566,464.145 819.132,465.427 820.699,464.145 822.265,463.503 823.832,478.257 825.398,465.427 826.965,475.049 828.531,473.767 830.098,472.483 831.664,471.843 833.231,462.219 834.797,451.954 836.364,450.673 837.930,449.388 839.497,499.428 841.063,491.088 842.630,500.070 844.196,444.898 845.763,453.239 847.329,462.861 848.896,462.219 850.462,437.200 852.029,435.916 853.595,455.163 855.162,485.956 856.728,485.313 858.295,486.598 859.861,437.842 861.428,437.200 862.994,437.200 864.561,437.200 866.127,526.373 867.694,437.200 869.260,417.953 870.827,458.371 872.393,410.897 873.960,409.613 875.526,439.766 877.093,467.993 878.659,450.673 880.226,439.766 881.792,425.651 883.359,426.294 884.925,469.277 886.491,414.745 888.058,414.105 889.624,412.179 891.191,504.560 892.757,414.745 894.324,391.650 895.890,391.008 897.457,435.276 899.023,435.276 900.590,434.634 902.156,432.710 903.723,401.275 905.289,399.991 906.856,418.595 908.422,394.216 909.989,416.671 911.555,416.671 913.122,416.029 914.688,414.105 916.255,412.821 917.821,412.821 919.388,411.539 920.954,408.973 922.521,407.047 924.087,405.765 925.654,410.897 927.220,408.973 928.787,407.689 930.353,406.407 931.920,394.216 933.486,369.840 935.053,459.010 936.619,514.182 938.186,752.833 939.752,380.744 941.319,379.462 942.885,372.406 944.452,395.501 946.018,394.859 947.585,376.896 949.151,376.254 950.718,376.254 952.284,398.709 953.851,397.425 955.417,396.140 956.984,401.275 958.550,383.952 960.116,357.649 961.683,357.649 963.249,391.008 964.816,385.876 966.382,394.216 967.949,375.612 969.515,374.972 971.082,353.159 972.648,353.159 974.215,351.875 975.781,391.650 977.348,407.047 978.914,376.254 980.481,375.612 982.047,364.705 983.614,362.781 985.180,358.291 986.747,360.857 988.313,381.386 989.880,380.104 991.446,378.820 993.013,369.840 994.579,353.159 996.146,353.159 997.712,333.912 999.279,349.951 1000.845,358.933 1002.412,369.198 1003.978,331.988 1005.545,332.631 1007.111,360.857 1008.678,346.743 1010.244,319.800 1011.811,319.800 1013.377,363.423 1014.944,357.007 1016.510,319.158 1018.077,360.215 1019.643,358.933 1021.210,338.405 1022.776,347.385 1024.343,356.367 1025.909,349.309 1027.476,349.951 1029.042,349.951 1030.609,310.175 1032.175,339.687 1033.741,380.104 1035.308,380.104 1036.874,380.104 1038.441,337.121 1040.007,342.895 1041.574,317.874 1043.140,321.724 1044.707,321.724 1046.273,337.121 1047.840,321.724 1049.406,321.082 1050.973,320.440 1052.539,319.800 1054.106,319.158 1055.672,315.950 1057.239,314.668 1058.805,314.668 1060.372,314.668 1061.938,342.895 1063.505,354.441 1065.071,354.441 1066.638,304.404 1068.204,304.404 1069.771,304.404 1071.337,305.043 1072.904,319.158 1074.470,319.158 1076.037,377.538 1077.603,374.972 1079.170,344.819 1080.736,303.119 1082.303,289.005 1083.869,296.703 1085.436,273.608 1087.002,273.608 1088.569,279.383 1090.135,319.800 1091.702,316.592 1093.268,314.026 1094.835,282.591 1096.401,290.931 1097.968,289.647 1099.534,303.762 1101.101,282.591 1102.667,287.081 1104.234,293.497 1105.800,292.855 1107.366,292.855 1108.933,292.855 1110.499,300.553 1112.066,300.553 1113.632,298.629 1115.199,285.799 1116.765,284.515 1118.332,283.233 1119.898,277.459 1121.465,253.722 1123.031,280.025 1124.598,266.552 1126.164,266.552 1127.731,265.268 1129.297,273.608 1130.864,273.608 1132.430,272.969 1133.997,252.437 1135.563,281.949 1137.130,265.268 1138.696,278.101 1140.263,277.459 1141.829,245.381 1143.396,243.457 1144.962,242.815 1146.529,242.173 1148.095,283.872 1149.662,238.967 1151.228,273.608 1152.795,255.646 1154.361,232.551 1155.928,232.551 1157.494,256.930 1159.061,256.930 1160.627,255.646 1162.194,227.419 1163.760,226.777 1165.327,262.062 1166.893,261.420 1168.460,261.420 1170.026,261.420 1171.593,261.420 1173.159,261.420 1174.726,261.420 1176.292,260.136 1177.859,261.420 1179.425,260.136 1180.991,270.403 1182.558,269.760 1184.124,234.475 1185.691,233.833 1187.257,229.343 1188.824,229.343 1190.390,228.701 1191.957,267.834 1193.523,238.325 1195.090,237.683 1196.656,237.683 1198.223,238.325 1199.789,238.325 1201.356,238.325 1202.922,211.380 1204.489,211.380 1206.055,211.380 1207.622,208.814 1209.188,207.532 1210.755,255.003 1212.321,210.098 1213.888,209.456 1215.454,231.909 1217.021,222.929 1218.587,242.815 1220.154,242.173 1221.720,241.534 1223.287,242.815 1224.853,242.815 1226.420,242.815 1227.986,201.116 1229.553,244.100 1231.119,224.211 1232.686,214.588 1234.252,214.588 1235.819,228.061 1237.385,228.061 1238.952,229.343 1240.518,229.343 1242.085,229.343 1243.651,191.494 1245.218,212.022 1246.784,212.022 1248.351,206.248 1249.917,206.248 1251.484,206.248 1253.050,224.211 1254.616,188.285 1256.183,188.285 1257.749,187.643 1259.316,203.040 1260.882,184.435 1262.449,184.435 1264.015,204.964 1265.582,185.719 1267.148,186.362 1268.715,198.550 1270.281,201.758 1271.848,197.908 1273.414,190.852 1274.981,203.040 1276.547,184.435 1278.114,185.719 1279.680,195.342 1281.247,188.285 1282.813,174.813 1284.380,195.342 1285.946,177.379 1287.513,178.021 1289.079,198.550 1290.646,179.303 1292.212,170.323 1293.779,157.493 1295.345,171.605 1296.912,184.435 1298.478,191.494 1300.045,178.663 1301.611,178.021 1303.178,192.133 1304.744,190.852 1306.311,167.115 1307.877,175.455 1309.444,164.549 1311.010,165.191 1312.577,175.455 1314.143,174.171 1315.710,173.531 1317.276,173.531 1318.843,182.511 1320.409,193.418 1321.976,192.775 1323.542,216.512 1325.109,192.133 1326.675,182.511 1328.241,165.830 1329.808,165.191 1331.374,190.209 1332.941,181.229 1334.507,150.434 1336.074,149.794 1337.640,177.379 1339.207,165.191 1340.773,147.868 1342.340,178.021 1343.906,172.247 1345.473,170.963 1347.039,161.340 1348.606,165.191 1350.172,163.264 1351.739,149.152 1353.305,149.152 1354.872,148.510 1356.438,153.642 1358.005,152.360 1359.571,151.718 1361.138,159.416 1362.704,158.132 1364.271,157.493 1365.837,160.059 1367.404,160.059 1368.970,160.698 1370.537,160.698 1372.103,167.115 1373.670,160.059 1375.236,156.850 1376.803,156.850 1378.369,160.059 1379.936,151.718 1381.502,151.076 1383.069,149.794 1384.635,141.454 1386.202,141.454 1387.768,131.190 1389.335,161.983 1390.901,161.983 1392.468,122.849 1394.034,136.322 1395.601,136.322 1397.167,136.322 1398.734,145.302 1400.300,133.114 1401.866,133.114 1403.433,131.829 1404.999,130.547 1406.566,129.263 1408.132,110.019 1409.699,109.377 1411.265,108.735 1412.832,129.905 1414.398,111.301 1415.965,143.378 1417.531,142.096 1419.098,142.096 1420.664,142.096 1422.231,152.360 1423.797,151.718 1425.364,150.434 1426.930,126.057 1428.497,126.057 1430.063,124.773 1431.630,124.773 1433.196,115.793 1434.763,120.925 1436.329,120.925 1437.896,120.925 1439.462,102.321 1441.029,127.339 1442.595,143.378 1444.162,103.602 1445.728,126.697 1447.295,126.697 1448.861,127.339 1450.428,127.339 1451.994,126.697 1453.561,126.697 1455.127,126.057 1456.694,100.394 1458.260,124.131 1459.827,85.640 1461.393,85.640 1462.960,85.640 1464.526,85.640 1466.093,84.358 1467.659,84.358 1469.226,119.641 1470.792,115.151 1472.359,115.151 1473.925,115.151 1475.491,115.151 1477.058,115.151 1478.624,115.151 1480.191,102.960 1481.757,117.075 1483.324,116.433 1484.890,269.118 1486.457,269.118 1488.023,269.118 1489.590,239.607 1491.156,89.490 1492.723,115.151 1494.289,110.661 1495.856,92.056 1497.422,93.338 1498.989,92.056 1500.555,97.828 1502.122,85.640 1503.688,85.640 1505.255,85.640 1506.821,85.640 1508.388,105.526 1509.954,105.526 1511.521,105.526 1513.087,105.526 1514.654,93.338 1516.220,92.696 1517.787,92.696 1519.353,92.056 1520.920,92.056 1522.486,92.056 1524.053,102.321 1525.619,102.321 1527.186,102.321 1528.752,113.867 1530.319,99.112 1531.885,102.321 1533.452,102.321 1535.018,90.772 1536.585,90.772 1538.151,74.091 1539.718,74.091 1541.284,90.772 1542.851,97.188 1544.417,258.212 1545.984,219.078 1547.550,219.078 "
             id="polyline22" />
          <g
             id="g24" />
        </g>
        <g
           id="ID000003"
           clip-path="url(#ID000001)">
          <polyline
             fill="none"
             stroke="#ff0000"
             stroke-width="3.0pt"
             stroke-dasharray="none"
             points="222.300,879.215 223.866,879.215 225.433,877.931 226.999,877.931 228.566,877.291 230.132,877.291 231.699,876.649 233.265,876.649 234.832,876.649 236.398,876.007 237.965,876.007 239.531,875.365 241.098,874.725 242.664,874.083 244.231,874.083 245.797,873.441 247.364,873.441 248.930,872.799 250.497,872.159 252.063,871.517 253.630,871.517 255.196,870.875 256.763,870.233 258.329,869.593 259.896,868.951 261.462,868.309 263.029,868.309 264.595,867.667 266.162,867.027 267.728,866.385 269.295,865.743 270.861,865.743 272.428,865.101 273.994,863.819 275.561,863.819 277.127,863.177 278.694,863.177 280.260,862.535 281.827,861.253 283.393,861.253 284.960,860.611 286.526,859.968 288.093,859.329 289.659,858.687 291.226,858.045 292.792,858.045 294.359,856.763 295.925,856.121 297.491,855.478 299.058,854.836 300.624,853.555 302.191,852.912 303.757,852.270 305.324,850.988 306.890,850.346 308.457,849.704 310.023,848.422 311.590,847.780 313.156,845.856 314.723,845.214 316.289,844.572 317.856,843.290 319.422,842.648 320.989,841.364 322.555,840.724 324.122,840.082 325.688,838.798 327.255,838.158 328.821,837.516 330.388,836.232 331.954,835.592 333.521,834.950 335.087,833.026 336.654,832.384 338.220,831.742 339.787,830.460 341.353,829.818 342.920,827.894 344.486,827.252 346.053,826.609 347.619,825.328 349.186,824.686 350.752,824.043 352.319,822.762 353.885,822.119 355.452,821.477 357.018,820.196 358.585,819.553 360.151,818.269 361.718,817.629 363.284,816.987 364.851,815.063 366.417,814.421 367.984,813.137 369.550,811.855 371.116,811.213 372.683,809.929 374.249,809.289 375.816,807.363 377.382,806.723 378.949,805.439 380.515,804.796 382.082,804.157 383.648,802.230 385.215,801.591 386.781,800.306 388.348,799.664 389.914,798.383 391.481,797.098 393.047,796.459 394.614,794.532 396.180,793.893 397.747,791.966 399.313,791.327 400.880,790.042 402.446,788.760 404.013,788.118 405.579,786.834 407.146,786.194 408.712,784.910 410.279,783.628 411.845,782.986 413.412,781.702 414.978,781.060 416.545,779.136 418.111,778.494 419.678,777.212 421.244,775.927 422.811,775.288 424.377,774.004 425.944,772.722 427.510,771.437 429.077,770.795 430.643,769.514 432.210,768.871 433.776,768.229 435.343,766.305 436.909,765.663 438.476,765.024 440.042,763.739 441.609,763.097 443.175,761.173 444.741,760.531 446.308,759.249 447.874,757.965 449.441,756.683 451.007,756.041 452.574,754.759 454.140,753.475 455.707,752.193 457.273,750.909 458.840,750.267 460.406,748.985 461.973,747.701 463.539,747.058 465.106,745.777 466.672,745.135 468.239,743.211 469.805,742.568 471.372,741.287 472.938,740.002 474.505,739.360 476.071,738.078 477.638,736.794 479.204,735.512 480.771,734.870 482.337,732.946 483.904,732.304 485.470,731.022 487.037,730.380 488.603,729.738 490.170,727.814 491.736,727.172 493.303,725.890 494.869,724.606 496.436,723.324 498.002,722.040 499.569,720.758 501.135,720.116 502.702,718.832 504.268,717.550 505.835,716.908 507.401,714.984 508.968,714.342 510.534,713.699 512.101,712.418 513.667,711.776 515.234,710.491 516.800,709.209 518.366,708.567 519.933,707.286 521.499,706.643 523.066,704.719 524.632,704.077 526.199,702.153 527.765,701.511 529.332,700.227 530.898,698.945 532.465,697.661 534.031,697.021 535.598,695.737 537.164,694.455 538.731,693.813 540.297,691.889 541.864,691.247 543.430,689.963 544.997,689.323 546.563,688.039 548.130,686.757 549.696,686.115 551.263,684.188 552.829,683.549 554.396,681.622 555.962,680.983 557.529,680.340 559.095,679.056 560.662,678.417 562.228,676.490 563.795,675.850 565.361,674.566 566.928,673.924 568.494,673.284 570.061,671.358 571.627,670.718 573.194,669.434 574.760,668.152 576.327,666.868 577.893,665.586 579.460,664.302 581.026,663.020 582.593,661.736 584.159,661.094 585.726,659.812 587.292,658.528 588.859,657.246 590.425,655.961 591.991,655.322 593.558,653.395 595.124,652.753 596.691,651.471 598.257,650.187 599.824,648.905 601.390,647.621 602.957,646.981 604.523,645.697 606.090,644.415 607.656,643.131 609.223,642.489 610.789,640.565 612.356,639.923 613.922,638.641 615.489,637.357 617.055,636.717 618.622,635.433 620.188,634.791 621.755,632.867 623.321,632.225 624.888,630.943 626.454,629.658 628.021,629.019 629.587,627.735 631.154,626.453 632.720,625.168 634.287,624.526 635.853,623.245 637.420,621.960 638.986,621.318 640.553,620.036 642.119,619.394 643.686,618.112 645.252,616.828 646.819,616.186 648.385,614.904 649.952,614.262 651.518,612.338 653.085,611.696 654.651,610.414 656.218,609.130 657.784,608.488 659.351,607.206 660.917,606.564 662.484,605.282 664.050,603.998 665.616,603.356 667.183,602.074 668.749,601.432 670.316,600.150 671.882,598.866 673.449,598.223 675.015,596.942 676.582,595.657 678.148,594.376 679.715,593.091 681.281,591.809 682.848,590.525 684.414,589.243 685.981,587.959 687.547,586.677 689.114,585.393 690.680,584.111 692.247,583.469 693.813,582.185 695.380,580.903 696.946,580.261 698.513,578.979 700.079,578.337 701.646,576.413 703.212,575.771 704.779,573.847 706.345,573.205 707.912,571.920 709.478,570.639 711.045,569.997 712.611,568.715 714.178,568.073 715.744,566.788 717.311,566.149 718.877,565.507 720.444,563.583 722.010,562.940 723.577,561.656 725.143,561.017 726.710,559.732 728.276,558.448 729.843,557.808 731.409,555.882 732.976,555.242 734.542,553.958 736.109,552.676 737.675,552.034 739.241,550.750 740.808,550.110 742.374,548.826 743.941,547.544 745.507,546.902 747.074,545.618 748.640,544.978 750.207,543.051 751.773,542.412 753.340,540.485 754.906,539.846 756.473,538.561 758.039,537.280 759.606,536.638 761.172,535.353 762.739,534.714 764.305,532.787 765.872,532.148 767.438,530.863 769.005,530.221 770.571,528.939 772.138,527.655 773.704,527.015 775.271,525.731 776.837,524.447 778.404,523.807 779.970,522.523 781.537,521.241 783.103,519.957 784.670,519.315 786.236,517.391 787.803,516.749 789.369,515.467 790.936,514.825 792.502,513.543 794.069,512.259 795.635,511.616 797.202,510.335 798.768,509.050 800.335,507.769 801.901,506.484 803.468,505.845 805.034,503.918 806.601,503.279 808.167,501.352 809.734,500.712 811.300,499.428 812.866,498.146 814.433,496.862 815.999,496.220 817.566,494.296 819.132,493.654 820.699,493.012 822.265,491.730 823.832,491.088 825.398,489.806 826.965,489.164 828.531,487.880 830.098,486.598 831.664,485.956 833.231,484.032 834.797,483.390 836.364,482.108 837.930,480.823 839.497,480.181 841.063,478.900 842.630,478.257 844.196,476.333 845.763,475.691 847.329,474.410 848.896,473.767 850.462,472.483 852.029,471.201 853.595,470.559 855.162,468.635 856.728,467.993 858.295,466.711 859.861,465.427 861.428,464.145 862.994,463.503 864.561,462.861 866.127,460.937 867.694,460.295 869.260,459.010 870.827,458.371 872.393,457.729 873.960,455.805 875.526,455.163 877.093,454.520 878.659,453.239 880.226,451.954 881.792,450.673 883.359,450.031 884.925,448.107 886.491,447.464 888.058,446.180 889.624,444.898 891.191,444.256 892.757,442.974 894.324,441.690 895.890,440.408 897.457,439.766 899.023,438.482 900.590,437.200 902.156,436.558 903.723,435.276 905.289,433.992 906.856,432.710 908.422,431.426 909.989,430.141 911.555,428.860 913.122,427.575 914.688,426.936 916.255,425.009 917.821,424.370 919.388,423.085 920.954,421.804 922.521,421.161 924.087,419.877 925.654,419.238 927.220,417.953 928.787,417.311 930.353,416.029 931.920,414.745 933.486,414.105 935.053,412.821 936.619,412.179 938.186,410.897 939.752,409.613 941.319,408.973 942.885,407.689 944.452,407.047 946.018,406.407 947.585,404.481 949.151,403.841 950.718,402.557 952.284,401.915 953.851,400.633 955.417,399.349 956.984,398.709 958.550,396.782 960.116,396.140 961.683,394.216 963.249,393.574 964.816,392.292 966.382,391.008 967.949,389.726 969.515,389.084 971.082,387.802 972.648,386.518 974.215,385.876 975.781,384.594 977.348,383.952 978.914,383.310 980.481,381.386 982.047,380.744 983.614,379.462 985.180,378.820 986.747,377.538 988.313,376.254 989.880,375.612 991.446,373.688 993.013,373.046 994.579,371.764 996.146,370.480 997.712,369.840 999.279,368.556 1000.845,367.913 1002.412,365.990 1003.978,365.347 1005.545,364.066 1007.111,363.423 1008.678,362.139 1010.244,360.857 1011.811,359.573 1013.377,358.291 1014.944,357.649 1016.510,355.725 1018.077,355.083 1019.643,353.801 1021.210,352.517 1022.776,351.875 1024.343,350.593 1025.909,349.951 1027.476,348.669 1029.042,348.027 1030.609,347.385 1032.175,345.461 1033.741,344.819 1035.308,343.537 1036.874,342.895 1038.441,341.611 1040.007,340.329 1041.574,339.044 1043.140,337.763 1044.707,337.121 1046.273,335.839 1047.840,334.554 1049.406,333.912 1050.973,332.631 1052.539,331.988 1054.106,330.064 1055.672,329.422 1057.239,328.138 1058.805,326.856 1060.372,326.214 1061.938,324.932 1063.505,323.648 1065.071,322.366 1066.638,321.724 1068.204,319.800 1069.771,319.158 1071.337,318.516 1072.904,317.234 1074.470,316.592 1076.037,314.668 1077.603,314.026 1079.170,313.384 1080.736,312.102 1082.303,311.460 1083.869,310.818 1085.436,309.536 1087.002,308.894 1088.569,307.609 1090.135,306.328 1091.702,305.685 1093.268,304.404 1094.835,303.762 1096.401,301.835 1097.968,301.195 1099.534,299.911 1101.101,299.269 1102.667,297.987 1104.234,296.703 1105.800,296.063 1107.366,294.779 1108.933,294.137 1110.499,292.855 1112.066,291.571 1113.632,290.931 1115.199,289.005 1116.765,288.365 1118.332,287.081 1119.898,286.439 1121.465,285.157 1123.031,283.872 1124.598,283.233 1126.164,281.949 1127.731,281.306 1129.297,280.025 1130.864,278.740 1132.430,278.101 1133.997,277.459 1135.563,276.174 1137.130,275.535 1138.696,274.250 1140.263,272.969 1141.829,272.326 1143.396,271.042 1144.962,270.403 1146.529,268.476 1148.095,267.834 1149.662,267.194 1151.228,265.910 1152.795,265.268 1154.361,263.986 1155.928,263.344 1157.494,262.702 1159.061,260.778 1160.627,260.136 1162.194,259.496 1163.760,258.212 1165.327,257.570 1166.893,255.646 1168.460,255.003 1170.026,253.722 1171.593,253.080 1173.159,251.798 1174.726,250.513 1176.292,249.871 1177.859,249.232 1179.425,247.947 1180.991,247.305 1182.558,246.666 1184.124,245.381 1185.691,245.381 1187.257,244.739 1188.824,243.457 1190.390,242.815 1191.957,242.173 1193.523,241.534 1195.090,240.249 1196.656,239.607 1198.223,238.967 1199.789,237.683 1201.356,237.041 1202.922,236.399 1204.489,235.117 1206.055,234.475 1207.622,234.475 1209.188,233.193 1210.755,232.551 1212.321,231.909 1213.888,231.267 1215.454,229.985 1217.021,229.985 1218.587,229.343 1220.154,228.701 1221.720,227.419 1223.287,226.777 1224.853,226.777 1226.420,225.495 1227.986,224.853 1229.553,224.211 1231.119,223.568 1232.686,222.287 1234.252,222.287 1235.819,221.644 1237.385,221.002 1238.952,219.721 1240.518,219.721 1242.085,219.078 1243.651,218.436 1245.218,217.154 1246.784,217.154 1248.351,216.512 1249.917,215.231 1251.484,214.588 1253.050,213.946 1254.616,213.946 1256.183,212.664 1257.749,212.022 1259.316,211.380 1260.882,211.380 1262.449,210.738 1264.015,209.456 1265.582,209.456 1267.148,208.814 1268.715,208.172 1270.281,207.532 1271.848,206.890 1273.414,206.248 1274.981,206.248 1276.547,204.964 1278.114,204.324 1279.680,203.682 1281.247,203.682 1282.813,202.398 1284.380,201.758 1285.946,201.116 1287.513,200.474 1289.079,199.192 1290.646,199.192 1292.212,198.550 1293.779,197.908 1295.345,196.626 1296.912,195.984 1298.478,195.984 1300.045,194.699 1301.611,194.060 1303.178,193.418 1304.744,192.775 1306.311,192.133 1307.877,191.494 1309.444,190.852 1311.010,190.209 1312.577,188.928 1314.143,188.285 1315.710,187.643 1317.276,187.001 1318.843,186.362 1320.409,185.719 1321.976,185.077 1323.542,184.435 1325.109,183.795 1326.675,183.153 1328.241,182.511 1329.808,181.229 1331.374,181.229 1332.941,180.587 1334.507,179.945 1336.074,178.663 1337.640,178.021 1339.207,177.379 1340.773,176.737 1342.340,176.097 1343.906,175.455 1345.473,174.171 1347.039,173.531 1348.606,172.889 1350.172,171.605 1351.739,170.963 1353.305,170.323 1354.872,169.039 1356.438,168.396 1358.005,167.757 1359.571,167.115 1361.138,166.473 1362.704,165.830 1364.271,165.191 1365.837,164.549 1367.404,163.906 1368.970,163.264 1370.537,162.625 1372.103,161.340 1373.670,160.698 1375.236,160.059 1376.803,158.774 1378.369,158.132 1379.936,157.493 1381.502,156.208 1383.069,155.566 1384.635,154.926 1386.202,153.642 1387.768,153.000 1389.335,152.360 1390.901,151.076 1392.468,150.434 1394.034,149.794 1395.601,148.510 1397.167,147.868 1398.734,147.228 1400.300,145.302 1401.866,144.662 1403.433,144.020 1404.999,142.736 1406.566,142.096 1408.132,141.454 1409.699,140.170 1411.265,139.527 1412.832,139.527 1414.398,138.246 1415.965,137.604 1417.531,136.961 1419.098,136.322 1420.664,135.680 1422.231,135.037 1423.797,134.395 1425.364,133.756 1426.930,132.471 1428.497,131.829 1430.063,131.190 1431.630,129.905 1433.196,129.263 1434.763,128.624 1436.329,127.339 1437.896,126.697 1439.462,126.057 1441.029,124.773 1442.595,124.773 1444.162,124.131 1445.728,122.849 1447.295,122.207 1448.861,121.565 1450.428,120.283 1451.994,119.641 1453.561,118.999 1455.127,117.717 1456.694,117.075 1458.260,115.793 1459.827,114.509 1461.393,113.867 1462.960,113.867 1464.526,112.585 1466.093,111.943 1467.659,111.301 1469.226,110.661 1470.792,109.377 1472.359,109.377 1473.925,108.735 1475.491,108.092 1477.058,106.811 1478.624,106.168 1480.191,106.168 1481.757,104.887 1483.324,104.245 1484.890,103.602 1486.457,102.960 1488.023,101.678 1489.590,101.036 1491.156,101.036 1492.723,99.755 1494.289,99.112 1495.856,98.470 1497.422,98.470 1498.989,97.188 1500.555,96.546 1502.122,95.904 1503.688,95.904 1505.255,95.262 1506.821,93.980 1508.388,93.980 1509.954,93.338 1511.521,93.338 1513.087,92.056 1514.654,91.414 1516.220,91.414 1517.787,90.772 1519.353,90.772 1520.920,90.130 1522.486,89.490 1524.053,88.848 1525.619,88.848 1527.186,88.206 1528.752,88.206 1530.319,88.206 1531.885,87.564 1533.452,86.924 1535.018,86.282 1536.585,86.282 1538.151,86.282 1539.718,85.640 1541.284,85.640 1542.851,84.998 1544.417,84.358 1545.984,83.716 1547.550,83.716 "
             id="polyline27" />
          <g
             id="g29" />
        </g>
        <g
           id="ID000004" />
        <g
           id="ID000005" />
        <g
           id="ID000006" />
        <g
           id="ID000007" />
        <g
           id="ID000008" />
      </g>
      <g
         id="g36">
        <polyline
           fill="none"
           stroke="#000000"
           stroke-width="0.5pt"
           stroke-dasharray="none"
           points="377.382,879.215 377.382,865.963 "
           id="polyline38" />
        <polyline
           fill="none"
           stroke="#000000"
           stroke-width="0.5pt"
           stroke-dasharray="none"
           points="534.031,879.215 534.031,865.963 "
           id="polyline40" />
        <polyline
           fill="none"
           stroke="#000000"
           stroke-width="0.5pt"
           stroke-dasharray="none"
           points="690.680,879.215 690.680,865.963 "
           id="polyline42" />
        <polyline
           fill="none"
           stroke="#000000"
           stroke-width="0.5pt"
           stroke-dasharray="none"
           points="847.329,879.215 847.329,865.963 "
           id="polyline44" />
        <polyline
           fill="none"
           stroke="#000000"
           stroke-width="0.5pt"
           stroke-dasharray="none"
           points="1003.978,879.215 1003.978,865.963 "
           id="polyline46" />
        <polyline
           fill="none"
           stroke="#000000"
           stroke-width="0.5pt"
           stroke-dasharray="none"
           points="1160.627,879.215 1160.627,865.963 "
           id="polyline48" />
        <polyline
           fill="none"
           stroke="#000000"
           stroke-width="0.5pt"
           stroke-dasharray="none"
           points="1317.276,879.215 1317.276,865.963 "
           id="polyline50" />
        <polyline
           fill="none"
           stroke="#000000"
           stroke-width="0.5pt"
           stroke-dasharray="none"
           points="1473.925,879.215 1473.925,865.963 "
           id="polyline52" />
        <polyline
           fill="none"
           stroke="#000000"
           stroke-width="0.5pt"
           stroke-dasharray="none"
           points="222.300,879.215 1547.550,879.215 "
           id="polyline54" />
        <polyline
           fill="none"
           stroke="#000000"
           stroke-width="0.5pt"
           stroke-dasharray="none"
           points="377.382,74.091 377.382,87.344 "
           id="polyline56" />
        <polyline
           fill="none"
           stroke="#000000"
           stroke-width="0.5pt"
           stroke-dasharray="none"
           points="534.031,74.091 534.031,87.344 "
           id="polyline58" />
        <polyline
           fill="none"
           stroke="#000000"
           stroke-width="0.5pt"
           stroke-dasharray="none"
           points="690.680,74.091 690.680,87.344 "
           id="polyline60" />
        <polyline
           fill="none"
           stroke="#000000"
           stroke-width="0.5pt"
           stroke-dasharray="none"
           points="847.329,74.091 847.329,87.344 "
           id="polyline62" />
        <polyline
           fill="none"
           stroke="#000000"
           stroke-width="0.5pt"
           stroke-dasharray="none"
           points="1003.978,74.091 1003.978,87.344 "
           id="polyline64" />
        <polyline
           fill="none"
           stroke="#000000"
           stroke-width="0.5pt"
           stroke-dasharray="none"
           points="1160.627,74.091 1160.627,87.344 "
           id="polyline66" />
        <polyline
           fill="none"
           stroke="#000000"
           stroke-width="0.5pt"
           stroke-dasharray="none"
           points="1317.276,74.091 1317.276,87.344 "
           id="polyline68" />
        <polyline
           fill="none"
           stroke="#000000"
           stroke-width="0.5pt"
           stroke-dasharray="none"
           points="1473.925,74.091 1473.925,87.344 "
           id="polyline70" />
        <polyline
           fill="none"
           stroke="#000000"
           stroke-width="0.5pt"
           stroke-dasharray="none"
           points="222.300,74.091 1547.550,74.091 "
           id="polyline72" />
        <g
           transform="translate(377.382,915.308)"
           id="g74">
          <g
             transform="rotate(-0.0)"
             id="g76">
            <text
               x="0.000"
               y="0.000"
               font-family="Helvetica"
               text-anchor="middle"
               font-size="17pt"
               fill="#000000"
               id="text78">100</text>
          </g>
        </g>
        <g
           transform="translate(534.031,915.308)"
           id="g80">
          <g
             transform="rotate(-0.0)"
             id="g82">
            <text
               x="0.000"
               y="0.000"
               font-family="Helvetica"
               text-anchor="middle"
               font-size="17pt"
               fill="#000000"
               id="text84">200</text>
          </g>
        </g>
        <g
           transform="translate(690.680,915.308)"
           id="g86">
          <g
             transform="rotate(-0.0)"
             id="g88">
            <text
               x="0.000"
               y="0.000"
               font-family="Helvetica"
               text-anchor="middle"
               font-size="17pt"
               fill="#000000"
               id="text90">300</text>
          </g>
        </g>
        <g
           transform="translate(847.329,915.308)"
           id="g92">
          <g
             transform="rotate(-0.0)"
             id="g94">
            <text
               x="0.000"
               y="0.000"
               font-family="Helvetica"
               text-anchor="middle"
               font-size="17pt"
               fill="#000000"
               id="text96">400</text>
          </g>
        </g>
        <g
           transform="translate(1003.978,915.308)"
           id="g98">
          <g
             transform="rotate(-0.0)"
             id="g100">
            <text
               x="0.000"
               y="0.000"
               font-family="Helvetica"
               text-anchor="middle"
               font-size="17pt"
               fill="#000000"
               id="text102">500</text>
          </g>
        </g>
        <g
           transform="translate(1160.627,915.308)"
           id="g104">
          <g
             transform="rotate(-0.0)"
             id="g106">
            <text
               x="0.000"
               y="0.000"
               font-family="Helvetica"
               text-anchor="middle"
               font-size="17pt"
               fill="#000000"
               id="text108">600</text>
          </g>
        </g>
        <g
           transform="translate(1317.276,915.308)"
           id="g110">
          <g
             transform="rotate(-0.0)"
             id="g112">
            <text
               x="0.000"
               y="0.000"
               font-family="Helvetica"
               text-anchor="middle"
               font-size="17pt"
               fill="#000000"
               id="text114">700</text>
          </g>
        </g>
        <g
           transform="translate(1473.925,915.308)"
           id="g116">
          <g
             transform="rotate(-0.0)"
             id="g118">
            <text
               x="0.000"
               y="0.000"
               font-family="Helvetica"
               text-anchor="middle"
               font-size="17pt"
               fill="#000000"
               id="text120">800</text>
          </g>
        </g>
        <polyline
           fill="none"
           stroke="#000000"
           stroke-width="0.5pt"
           stroke-dasharray="none"
           points="222.300,750.783 235.552,750.783 "
           id="polyline122" />
        <polyline
           fill="none"
           stroke="#000000"
           stroke-width="0.5pt"
           stroke-dasharray="none"
           points="222.300,622.351 235.552,622.351 "
           id="polyline124" />
        <polyline
           fill="none"
           stroke="#000000"
           stroke-width="0.5pt"
           stroke-dasharray="none"
           points="222.300,493.918 235.552,493.918 "
           id="polyline126" />
        <polyline
           fill="none"
           stroke="#000000"
           stroke-width="0.5pt"
           stroke-dasharray="none"
           points="222.300,365.486 235.552,365.486 "
           id="polyline128" />
        <polyline
           fill="none"
           stroke="#000000"
           stroke-width="0.5pt"
           stroke-dasharray="none"
           points="222.300,237.054 235.552,237.054 "
           id="polyline130" />
        <polyline
           fill="none"
           stroke="#000000"
           stroke-width="0.5pt"
           stroke-dasharray="none"
           points="222.300,108.621 235.552,108.621 "
           id="polyline132" />
        <polyline
           fill="none"
           stroke="#000000"
           stroke-width="0.5pt"
           stroke-dasharray="none"
           points="222.300,879.215 222.300,74.091 "
           id="polyline134" />
        <polyline
           fill="none"
           stroke="#000000"
           stroke-width="0.5pt"
           stroke-dasharray="none"
           points="1547.550,750.783 1534.297,750.783 "
           id="polyline136" />
        <polyline
           fill="none"
           stroke="#000000"
           stroke-width="0.5pt"
           stroke-dasharray="none"
           points="1547.550,622.351 1534.297,622.351 "
           id="polyline138" />
        <polyline
           fill="none"
           stroke="#000000"
           stroke-width="0.5pt"
           stroke-dasharray="none"
           points="1547.550,493.918 1534.297,493.918 "
           id="polyline140" />
        <polyline
           fill="none"
           stroke="#000000"
           stroke-width="0.5pt"
           stroke-dasharray="none"
           points="1547.550,365.486 1534.297,365.486 "
           id="polyline142" />
        <polyline
           fill="none"
           stroke="#000000"
           stroke-width="0.5pt"
           stroke-dasharray="none"
           points="1547.550,237.054 1534.297,237.054 "
           id="polyline144" />
        <polyline
           fill="none"
           stroke="#000000"
           stroke-width="0.5pt"
           stroke-dasharray="none"
           points="1547.550,108.621 1534.297,108.621 "
           id="polyline146" />
        <polyline
           fill="none"
           stroke="#000000"
           stroke-width="0.5pt"
           stroke-dasharray="none"
           points="1547.550,879.215 1547.550,74.091 "
           id="polyline148" />
        <g
           transform="translate(195.795,886.839)"
           id="g150">
          <g
             transform="rotate(-0.0)"
             id="g152">
            <text
               x="0.000"
               y="0.000"
               font-family="Helvetica"
               text-anchor="end"
               font-size="17pt"
               fill="#000000"
               id="text154">0</text>
          </g>
        </g>
        <g
           transform="translate(195.795,758.407)"
           id="g156">
          <g
             transform="rotate(-0.0)"
             id="g158">
            <text
               x="0.000"
               y="0.000"
               font-family="Helvetica"
               text-anchor="end"
               font-size="17pt"
               fill="#000000"
               id="text160">500</text>
          </g>
        </g>
        <g
           transform="translate(195.795,629.974)"
           id="g162">
          <g
             transform="rotate(-0.0)"
             id="g164">
            <text
               x="0.000"
               y="0.000"
               font-family="Helvetica"
               text-anchor="end"
               font-size="17pt"
               fill="#000000"
               id="text166">1000</text>
          </g>
        </g>
        <g
           transform="translate(195.795,501.542)"
           id="g168">
          <g
             transform="rotate(-0.0)"
             id="g170">
            <text
               x="0.000"
               y="0.000"
               font-family="Helvetica"
               text-anchor="end"
               font-size="17pt"
               fill="#000000"
               id="text172">1500</text>
          </g>
        </g>
        <g
           transform="translate(195.795,373.110)"
           id="g174">
          <g
             transform="rotate(-0.0)"
             id="g176">
            <text
               x="0.000"
               y="0.000"
               font-family="Helvetica"
               text-anchor="end"
               font-size="17pt"
               fill="#000000"
               id="text178">2000</text>
          </g>
        </g>
        <g
           transform="translate(195.795,244.677)"
           id="g180">
          <g
             transform="rotate(-0.0)"
             id="g182">
            <text
               x="0.000"
               y="0.000"
               font-family="Helvetica"
               text-anchor="end"
               font-size="17pt"
               fill="#000000"
               id="text184">2500</text>
          </g>
        </g>
        <g
           transform="translate(195.795,116.245)"
           id="g186">
          <g
             transform="rotate(-0.0)"
             id="g188">
            <text
               x="0.000"
               y="0.000"
               font-family="Helvetica"
               text-anchor="end"
               font-size="17pt"
               fill="#000000"
               id="text190">3000</text>
          </g>
        </g>
        <polyline
           fill="none"
           stroke="#000000"
           stroke-width="0.5pt"
           stroke-dasharray="none"
           points="222.300,879.215 222.300,871.164 "
           id="polyline192" />
        <polyline
           fill="none"
           stroke="#000000"
           stroke-width="0.5pt"
           stroke-dasharray="none"
           points="222.300,879.215 222.300,879.215 "
           id="polyline194" />
      </g>
    </g>
    <g
       id="ID000009">
      <clipPath
         id="ID000010">
        <rect
           x="414.312"
           y="168.030"
           width="266.397"
           height="67.037"
           id="rect198" />
      </clipPath>
      <polygon
         fill="#ffffff"
         fill-opacity="1.00"
         stroke="none"
         stroke-width="0.5pt"
         stroke-opacity="1.00"
         stroke-dasharray="none"
         points="414.312,235.067 680.709,235.067 680.709,168.030 414.312,168.030 "
         id="polygon200" />
      <polygon
         fill="#ffffff"
         fill-opacity="1.00"
         stroke="none"
         stroke-width="0.5pt"
         stroke-opacity="1.00"
         stroke-dasharray="none"
         points="414.312,168.030 680.709,168.030 680.709,168.030 414.312,168.030 "
         id="polygon202" />
      <polygon
         fill="#ffffff"
         fill-opacity="1.00"
         stroke="none"
         stroke-width="0.5pt"
         stroke-opacity="1.00"
         stroke-dasharray="none"
         points="414.312,235.067 414.312,235.067 414.312,168.030 414.312,168.030 "
         id="polygon204" />
      <g
         id="g206">
        <g
           id="ID000011" />
        <g
           id="ID000012" />
        <g
           id="ID000013" />
        <g
           id="ID000014">
          <g
             transform="translate(470.869,196.404)"
             id="g212">
            <g
               transform="rotate(-0.0)"
               id="g214">
              <text
                 x="0.000"
                 y="0.000"
                 font-family="Helvetica"
                 text-anchor="start"
                 font-size="17pt"
                 fill="#000000"
                 id="text216">Estimated Location</text>
            </g>
          </g>
        </g>
        <g
           id="ID000015"
           clip-path="url(#ID000010)">
          <polyline
             fill="none"
             stroke="#0000ff"
             stroke-width="1.0pt"
             stroke-dasharray="none"
             points="423.403,185.883 468.854,185.883 "
             id="polyline219" />
          <g
             id="g221" />
        </g>
        <g
           id="ID000016"
           clip-path="url(#ID000010)">
          <g
             id="g224" />
        </g>
        <g
           id="ID000017">
          <g
             transform="translate(470.869,228.326)"
             id="g227">
            <g
               transform="rotate(-0.0)"
               id="g229">
              <text
                 x="0.000"
                 y="0.000"
                 font-family="Helvetica"
                 text-anchor="start"
                 font-size="17pt"
                 fill="#000000"
                 id="text231">Ground Truth</text>
            </g>
          </g>
        </g>
        <g
           id="ID000018"
           clip-path="url(#ID000010)">
          <polyline
             fill="none"
             stroke="#ff0000"
             stroke-width="3.0pt"
             stroke-dasharray="none"
             points="423.403,217.214 468.854,217.214 "
             id="polyline234" />
          <g
             id="g236" />
        </g>
        <g
           id="ID000019"
           clip-path="url(#ID000010)">
          <g
             id="g239" />
        </g>
      </g>
      <g
         id="g241">
        <polyline
           fill="none"
           stroke="#000000"
           stroke-width="0.5pt"
           stroke-dasharray="none"
           points="414.312,235.067 680.709,235.067 "
           id="polyline243" />
        <polyline
           fill="none"
           stroke="#000000"
           stroke-width="0.5pt"
           stroke-dasharray="none"
           points="414.312,168.030 680.709,168.030 "
           id="polyline245" />
        <polyline
           fill="none"
           stroke="#000000"
           stroke-width="0.5pt"
           stroke-dasharray="none"
           points="414.312,235.067 414.312,168.030 "
           id="polyline247" />
        <polyline
           fill="none"
           stroke="#000000"
           stroke-width="0.5pt"
           stroke-dasharray="none"
           points="680.709,235.067 680.709,168.030 "
           id="polyline249" />
        <polyline
           fill="none"
           stroke="#000000"
           stroke-width="0.5pt"
           stroke-dasharray="none"
           points="414.312,235.067 414.312,234.397 "
           id="polyline251" />
        <polyline
           fill="none"
           stroke="#000000"
           stroke-width="0.5pt"
           stroke-dasharray="none"
           points="414.312,235.067 414.312,235.067 "
           id="polyline253" />
      </g>
    </g>
    <g
       id="ID000020">
      <clipPath
         id="ID000021">
        <rect
           x="0.000"
           y="0.000"
           width="1710.000"
           height="987.882"
           id="rect257" />
      </clipPath>
      <g
         id="g259" />
    </g>
  </g>
  <text
     xml:space="preserve"
     style="font-size:40px;font-style:normal;font-variant:normal;font-weight:normal;font-stretch:normal;line-height:125%;letter-spacing:0px;word-spacing:0px;fill:#000000;fill-opacity:1;stroke:none;font-family:Times New Roman;-inkscape-font-specification:Times New Roman"
     x="764.30707"
     y="957.50653"
     id="text4056"
     sodipodi:linespacing="125%"><tspan
       sodipodi:role="line"
       id="tspan4058"
       x="764.30707"
       y="957.50653">Frame ID</tspan></text>
  <flowRoot
     xml:space="preserve"
     id="flowRoot4060"
     style="font-size:40px;font-style:normal;font-variant:normal;font-weight:normal;font-stretch:normal;line-height:125%;letter-spacing:0px;word-spacing:0px;fill:#000000;fill-opacity:1;stroke:none;font-family:Times New Roman;-inkscape-font-specification:Times New Roman"
     transform="matrix(0.01441094,-0.99989616,0.99989616,0.01441094,-236.00165,733.43725)"><flowRegion
       id="flowRegion4062"><rect
         id="rect4064"
         width="522.19934"
         height="44.643986"
         x="77.112343"
         y="307.39941" /></flowRegion><flowPara
       id="flowPara4066">Distance from origin (cm)</flowPara></flowRoot></svg>
