<?xml version="1.0" encoding="UTF-8" standalone="no"?>
<!-- Created with Inkscape (http://www.inkscape.org/) -->

<svg
   xmlns:dc="http://purl.org/dc/elements/1.1/"
   xmlns:cc="http://creativecommons.org/ns#"
   xmlns:rdf="http://www.w3.org/1999/02/22-rdf-syntax-ns#"
   xmlns:svg="http://www.w3.org/2000/svg"
   xmlns="http://www.w3.org/2000/svg"
   xmlns:sodipodi="http://sodipodi.sourceforge.net/DTD/sodipodi-0.dtd"
   xmlns:inkscape="http://www.inkscape.org/namespaces/inkscape"
   width="1597.6503"
   height="345.58594"
   id="svg3068"
   version="1.1"
   inkscape:version="0.48.4 r9939"
   sodipodi:docname="dragoi_et_al_place_cell.svg">
  <defs
     id="defs3070">
    <clipPath
       clipPathUnits="userSpaceOnUse"
       id="clipPath3051">
      <rect
         style="color:#000000;fill:#3369e8;fill-opacity:0.36986299;fill-rule:nonzero;stroke:none;stroke-width:1.20000005;marker:none;visibility:visible;display:inline;overflow:visible;enable-background:accumulate"
         id="rect3053"
         width="1486.9557"
         height="253.64635"
         x="106.60499"
         y="50.994961" />
    </clipPath>
    <clipPath
       clipPathUnits="userSpaceOnUse"
       id="clipPath3107">
      <rect
         style="color:#000000;fill:#3369e8;fill-opacity:0.36986299;fill-rule:nonzero;stroke:none;stroke-width:1.20000005;marker:none;visibility:visible;display:inline;overflow:visible;enable-background:accumulate"
         id="rect3109"
         width="1493.0055"
         height="258.59903"
         x="-414.16254"
         y="278.58533" />
    </clipPath>
  </defs>
  <sodipodi:namedview
     id="base"
     pagecolor="#ffffff"
     bordercolor="#666666"
     borderopacity="1.0"
     inkscape:pageopacity="0.0"
     inkscape:pageshadow="2"
     inkscape:zoom="0.7"
     inkscape:cx="856.72945"
     inkscape:cy="142.14205"
     inkscape:document-units="px"
     inkscape:current-layer="layer1"
     showgrid="false"
     inkscape:window-width="1615"
     inkscape:window-height="1026"
     inkscape:window-x="1345"
     inkscape:window-y="24"
     inkscape:window-maximized="1"
     fit-margin-top="0"
     fit-margin-left="0"
     fit-margin-right="0"
     fit-margin-bottom="0" />
  <metadata
     id="metadata3073">
    <rdf:RDF>
      <cc:Work
         rdf:about="">
        <dc:format>image/svg+xml</dc:format>
        <dc:type
           rdf:resource="http://purl.org/dc/dcmitype/StillImage" />
        <dc:title />
      </cc:Work>
    </rdf:RDF>
  </metadata>
  <g
     inkscape:label="Layer 1"
     inkscape:groupmode="layer"
     id="layer1"
     transform="translate(488.57139,-436.32647)">
    <g
       id="g3087"
       clip-path="url(#clipPath3107)"
       transform="translate(30.304576,161.80715)">
      <path
         style="fill:#ffffff;fill-opacity:1"
         d="m -517.22569,418.82976 0,-190 798,0 797.99999,0 0,190 0,190 -797.99999,0 -798,0 0,-190 z"
         id="path3103"
         inkscape:connector-curvature="0" />
      <path
         style="fill:#f2a05a"
         d="m -413.21822,525.36321 c -5.75498,-183.51424 -77.48827,-3.25878 -0.756,-2.30217 8.21414,0.1024 15.90761,-0.044 25.30485,-0.52752 10.44349,-0.53733 21.80111,1.06837 36.87229,0.89431 17.14588,-1.81426 34.31778,-1.55841 51.49424,-1.83711 49.46827,-0.80269 100.04583,-0.72384 149.07719,-3.65269 43.55833,-3.63435 58.680072,-6.74074 60.753761,-7.05505 2.223755,-0.33706 2.791078,-0.60619 4.488999,-0.82492 3.274885,-0.42187 75.86513,-11.08707 133.25724,-25.32525 17.92912,-4.44797 18.97807,-4.7583 18.31725,-5.41911 -0.87179,-0.87179 -25.19001,-5.53109 -46.91555,-8.98888 -31.099,-4.94966 -56.22106,-6.75899 -84.8957,-6.11433 -34.61146,0.77814 -77.15916,6.56824 -96.65048,13.15268 -13.86551,4.68396 -54.08833,14.07438 -80.85552,18.87653 -14.3,2.56548 -33.875,6.21504 -43.5,8.11012 -27.22299,5.35997 -56.71626,10.13631 -77.36804,12.52951 -20.77896,2.40793 -20.58692,2.44266 -20.61665,-3.72812 -0.008,-1.74822 0.58944,-3.78333 1.32859,-4.52247 0.82419,-0.82419 8.46177,-2.23083 19.75,-3.63742 44.33553,-5.52452 87.7907,-13.62884 170.18362,-31.73896 l 65.77751,-14.45803 19.22249,-8.53527 c 20.93286,-9.29472 48.69075,-24.00038 80.72248,-42.7654 50.18169,-29.39774 64.82899,-37.5614 85,-47.37471 17.59071,-8.55798 25.4379,-11.71343 43.15731,-17.35407 18.76345,-5.97299 24.35807,-7.29779 41.86949,-9.91465 18.08581,-2.70271 22.68883,-3.02047 43.75409,-3.02047 26.39891,0 46.6974,2.07073 84.21911,8.59151 35.8322,6.22717 95.74667,18.78539 124.5,26.0955 l 14,3.55929 26,-0.17335 26,-0.17335 21.44642,4.14211 c 38.88938,7.511 70.37818,20.22752 147.05358,59.38644 23.925,12.21875 47.1304,23.90343 51.5676,25.96597 l 8.0676,3.75007 13.4324,-3.54329 c 7.3878,-1.9488 23.1282,-4.93179 34.9786,-6.62885 19.852,-2.84295 23.233,-3.05711 43,-2.72372 19.449,0.32803 23.276,0.69818 40.9538,3.96103 21.8407,4.03123 52.8201,12.83272 82,23.29684 33.9981,12.19195 64.8976,22.38177 80.6681,26.60215 l 15.6228,4.18086 23.10445,-3.25046 c 12.7075,-1.78775 24.3352,-3.48268 25.8392,-3.76652 1.9695,-0.37167 2.916,-0.0435 3.3828,1.17307 0.3565,0.92902 0.2362,2.10106 -0.2672,2.60452 -0.5035,0.50346 -8.4799,2.01483 -17.7253,3.35861 -9.2454,1.34377 -17.0272,2.66051 -17.2928,2.92609 -0.7374,0.73746 1.904,1.34181 18.1679,4.1568 18.5781,3.21553 18.3061,3.13101 18.6866,5.80596 0.2954,2.07634 0.8766,2.21919 10.1296,2.48973 8.6426,0.2527 9.7769,0.49181 9.4872,2 -0.3034,1.57995 -4.4442,1.77293 -53.3162,2.48475 -29.14285,0.42446 -57.93715,0.53727 -63.98715,0.25067 -7.11498,-0.33705 -187.8142,-0.46571 -484.86458,-0.38151 -153.45709,0.0435 -337.4301,-1.46335 -545.099706,-1.30563 -94.736754,-1.17929 -207.940204,0.26036 -306.323734,-0.57747 -9.65434,-0.0822 -18.35452,0.64489 -27.54947,1.08669 -1.9218,0.0923 -2.71219,0.22347 -4.65508,0.18894 z m 955.99253,-4.93537 c 0,-1.07341 -2.2152,-1.54469 -9.25,-1.96785 -18.475,-1.11134 -64.30012,-2.58142 -66.25,-2.12532 -2.6619,0.62266 -59.8735,3.49093 -70.01966,3.5104 -4.38919,0.008 -8.65534,0.44703 -9.48034,0.97469 -0.96508,0.61724 26.40522,0.97012 76.75,0.98944 1.88657,7.2e-4 3.72902,10e-4 5.52833,0.002 61.83515,0.0117 72.72167,-0.21352 72.72167,-1.38296 z m 63.8716,0.94022 c -0.6661,-0.66616 -58.9348,-2.8084 -59.5537,-2.18949 -2.2144,2.21436 2.7958,2.65119 30.4078,2.65119 16.2842,0 29.3999,-0.20776 29.1459,-0.4617 z m -694.284193,2.34563 c -0.149619,-1.0535 -2.810044,-4.56726 -4.008898,-6.44903 -0.422971,-0.66391 1.073404,-0.24082 -2.395474,-0.34956 -1.589364,-0.0498 -5.858035,0.336 -12.183035,0.95883 -16.66975,1.64146 -16.06075,2.95583 1.36955,2.95583 14.74459,0 17.536867,5.12993 17.217857,2.88393 z m 403.613653,-6.54282 c 12.49446,-0.51219 19.35222,0.38085 19.80278,-0.79329 0.22493,-0.58615 0.21806,-1.12971 -0.0434,-1.6312 -0.42384,-0.81291 1.26126,-3.78811 -0.59771,-4.38211 -3.44358,-1.10034 -12.29408,0.444 -21.61323,0.0734 C 238.46747,507.453 162.72651,498.67245 98.61243,485.52326 l -20.66188,-4.23756 -14.83812,3.74623 c -50.34107,12.70977 -94.074371,22.02669 -127.83812,27.23458 -17.82807,2.74989 -24.069635,3.74505 -26.126965,4.31525 -0.477807,0.13243 -0.685535,0.25094 -0.685535,0.65394 0,0.30368 0.60683,1.11513 1.111091,1.80013 0.397133,0.53947 0.874188,1.14089 1.340256,1.70901 0.896755,1.09311 1.752835,2.06289 1.92068,2.23073 0.740885,0.74086 3.331411,-1.5259 4.363588,-1.54196 8.886602,-0.13827 41.114065,1.17489 49.500114,1.142 34.8272722,-0.1366 42.252211,0.65376 71.926268,0.64641 87.436823,-0.0216 161.880403,-1.46281 277.351563,-6.05117 z m 711.79893,1.75132 c 0,-0.49916 -4.3875,-1.67612 -9.75,-2.61546 -5.3625,-0.93934 -12.675,-2.48784 -16.25,-3.44112 -5.88109,-1.56822 -7.45209,-1.60285 -16.49999,-0.36374 -16.7273,2.29081 -16.5,2.23086 -16.5,4.35206 0,1.83622 0.9941,1.94833 19.75,2.22708 10.8625,0.16144 24.13749,0.39595 29.49999,0.52114 5.3625,0.12519 9.75,-0.1808 9.75,-0.67996 z m -224.74029,-0.75272 c 8.6678,-0.3595 15.5652,-0.84812 15.3275,-1.08583 -0.2377,-0.23771 -5.7546,-1.26809 -12.2597,-2.28973 -18.6352,-2.9267 -49.9253,-10.15742 -73.0372,-16.8779 -19.0942,-5.55221 -54.6628,-17.56749 -64.6561,-21.84119 -2.1262,-0.90927 -4.707,-1.58986 -5.7351,-1.51241 -1.0282,0.0774 -8.7386,2.36264 -17.1342,5.07821 -24.6474,7.97216 -55.967,16.85936 -74.7649,21.21514 -23.5009,5.44555 -25.3958,5.98578 -24.3772,6.95 1.1941,1.1304 38.3862,4.64181 68.8772,6.50288 33.1365,2.02254 86.4322,3.29304 115.25,2.7474 l 23.25,-0.44021 0.14127,0.33444 c 0.77968,1.84577 0.6404,0.86053 1.51954,1.03976 2.33552,0.47613 -1.00724,-0.59738 2.97024,1.67159 l -0.63135,-1.92324 6.75,0.34983 c 13.5332,0.70138 23.0726,0.72151 38.5097,0.0813 z m 161.7403,-0.95863 c 0,-1.4267 -1.0983,-1.5341 -9.25,-0.90453 -16.8193,1.29896 -18.4536,2.28301 -4,2.40845 11.591,0.1006 13.25,-0.0877 13.25,-1.50392 z m -68,-0.32695 c 4.675,-0.51714 14.35,-1.44188 21.5,-2.055 25.4579,-2.18304 44.0222,-4.10754 45.5,-4.71687 0.825,-0.34016 4.3608,-0.72613 7.8573,-0.85771 8.0931,-0.30455 9.9905,-1.88764 4.0199,-3.35394 -6.2855,-1.54365 -34.1323,-10.8504 -65.3772,-21.8499 -43.2724,-15.23368 -65.6951,-21.66773 -91.4383,-26.23755 -21.2481,-3.77188 -23.5094,-3.98316 -42.6305,-3.98316 -17.352,0 -23.044,0.42616 -40.4664,3.02971 -21.2383,3.17381 -36.9648,6.61272 -36.9648,8.08312 0,2.45059 52.1145,23.03343 79,31.20135 26.279,7.98367 57.6957,14.82413 85.5582,18.62883 24.9809,3.4112 22.8849,3.27888 33.4418,2.11112 z m -522.5,-2.00674 c 5.5,-0.39474 8.875,-0.82631 7.5,-0.95906 -1.375,-0.13274 -3.4,-0.40879 -4.5,-0.61343 -1.1,-0.20464 -10.59611,-0.68466 -21.10246,-1.06672 -7.65698,-0.27844 -12.97454,-3.40308 -16.22445,-3.03688 -4.65592,0.52464 -4.68766,5.90525 -3.60996,7.64901 0.70121,1.13458 22.41023,-0.85858 37.93687,-1.97292 z m 163.5,-1.87454 c 0,-1.43202 -12.8313,-3.26411 -18.0304,-2.57443 -7.691,1.02025 -5.8862,2.2888 3.7804,2.65701 4.8125,0.18332 9.9875,0.42584 11.5,0.53893 1.5125,0.1131 2.75,-0.16658 2.75,-0.62151 z m -55.75,-3.83785 c 9.7625,-0.92069 17.75,-2.04771 17.75,-2.50449 0,-0.45678 -0.2028,-0.83051 -0.4508,-0.83051 -0.2479,0 -9.1354,-1.83429 -19.74995,-4.0762 -33.86,-7.15158 -70.69267,-17.94295 -144.79925,-42.42382 -40.12095,-13.25383 -78.69082,-24.95355 -90.88301,-27.56831 -4.8986,-1.05056 -5.43987,-0.91388 -23.316,5.8879 -30.243,11.50729 -77.36443,26.18874 -123.30099,38.41642 -2.75,0.73201 -4.90178,1.76588 -4.78173,2.29747 0.25816,1.14316 14.06575,4.03958 42.28173,8.86944 68.30123,11.69143 116.29233,15.91593 233.48519,20.55296 37.03646,6.01735 76.41971,4.66781 113.76481,1.3791 z m 50.5768,-6.41301 c 20.4319,-3.10518 55.1462,-11.62168 89.2513,-21.89611 16.7102,-5.03408 30.5487,-9.31936 30.7522,-9.52285 0.9972,-0.99717 -1.5466,-2.52392 -10.0456,-6.02919 -5.1066,-2.10613 -21.2097,-9.19957 -35.7847,-15.76321 -89.1164,-40.13228 -123.7367,-53.7032 -174.01234,-68.21155 l -25.51235,-7.36225 -15.48765,2.91441 c -23.64334,4.44913 -51.939,13.71703 -99.48615,32.58547 -23.37187,9.27481 -42.35922,17.27343 -42.1941,17.77472 0.16511,0.50129 10.626,3.91616 23.2464,7.58861 12.6204,3.67245 43.64619,13.4665 68.94619,21.76455 89.72663,29.42912 106.4361,34.03324 169,46.56623 3.85,0.77124 7.1471,1.46231 7.3268,1.53572 0.1798,0.0734 6.4798,-0.80165 14,-1.94455 z m 252.1732,0.17558 c -0.825,-0.46288 -7.35,-2.52982 -14.5,-4.59318 -7.15,-2.06337 -15.475,-4.7843 -18.5,-6.04652 -3.025,-1.26222 -12.925,-5.19694 -22,-8.74383 -9.075,-3.54689 -21.5961,-8.84029 -27.8247,-11.76311 l -11.3248,-5.31421 -7.4777,1.8621 c -7.9529,1.9804 -9.4236,2.86695 -6.6171,3.9889 12.0783,4.82849 42.0501,14.86429 58.71,19.65856 29.1073,8.3763 55.2437,14.15467 49.5343,10.95129 z m -684,-32.15274 c 10.725,-2.85793 14.32659,-4.17468 20.70196,-6.69596 1.01243,-0.40039 1.88481,-0.60586 2.84991,-0.86734 5.48545,-1.48621 103.94813,-30.72432 103.94813,-33.92199 0,-1.3784 -18.24184,-4.99949 -38,-7.54317 -12.94195,-1.66616 -23.85086,-2.28062 -45.69966,-2.57407 -46.42374,-0.62354 -75.07442,2.47381 -134.80034,14.57289 -30.78586,6.2365 -91.12156,19.27813 -127.7909,27.62216 -1.25999,0.2867 -2.06973,0.87914 -1.79942,1.31652 0.27032,0.43737 7.15122,-0.0123 15.2909,-0.99923 47.61439,-5.77336 98.71918,-2.33342 163.79942,11.02559 10.45,2.14507 19.675,3.75628 20.5,3.58048 0.825,-0.17581 10.275,-2.65795 21,-5.51588 z m 578.3141,-7.91006 c 1.0521,-0.98602 -86.5687,-45.84437 -113.3141,-58.0123 -11.275,-5.1296 -29.725,-12.66957 -41,-16.75549 -17.4978,-6.34099 -23.7866,-8.07609 -42.9423,-11.84796 -20.15469,-3.96857 -23.89472,-4.41902 -36.69099,-4.41902 -8.00198,0 -14.50819,0.41991 -14.84063,0.95781 -0.55481,0.89769 3.47514,2.28245 24.47392,8.40966 30.1965,8.81099 80.3104,29.00022 145,58.4156 9.075,4.12655 27.2443,12.11275 40.3762,17.74712 l 23.8761,10.2443 7.1239,-1.98838 c 3.9181,-1.0936 7.4901,-2.33171 7.9379,-2.75134 z M -70.46328,445.76213 C 7.38888,428.8617 31.87733,423.9652 59.32587,419.81058 c 27.9979,-4.23777 66.54382,-7.15615 88.38099,-6.69149 10.08756,0.21465 22.4591,1.19553 35.13332,2.69907 14.09834,1.67249 28.57121,3.9917 40.69157,6.62238 l 16.25744,3.52862 47.74256,-18.98273 c 47.90027,-19.04543 81.53986,-30.45634 98.03748,-33.25536 12.72081,-2.15824 12.52375,-2.24695 -22.29492,-10.03601 -55.6608,-12.45153 -102.9756,-21.22607 -136.64907,-25.3416 -60.905,-7.44373 -111.16105,0.64025 -165.35093,26.59767 -20.37095,9.75786 -39.82636,20.55152 -84.5,46.87974 -11.825,6.96901 -31.7375,18.19099 -44.25,24.93772 -12.5125,6.74674 -22.75,12.44553 -22.75,12.66398 0,0.6206 -0.03,0.62616 19.76241,-3.67044 z"
         id="path3101"
         inkscape:connector-curvature="0"
         sodipodi:nodetypes="csscscsssssssssscssscsssssssscccssscsssssscssccscscscssscssccsscssssccscccssscccsssscsssscssssscscsssssscsssscsscssccsscsccssssssssssssssssssscssssscssscssssssssssccsssssscsscssscssscsscssssscsssssscsscscscsssssscscscssscssssssssscs" />
      <path
         style="fill:#4db5d1"
         d="m -384.21273,525.34537 c -0.97741,-1.17771 -0.99183,-1.83615 -0.0647,-2.95332 1.03228,-1.24383 38.70718,-1.44227 279.37244,-1.4715 263.10929,-0.032 328.02466,-0.54113 400.17925,-3.1389 15.4,-0.55444 40.825,-1.42673 56.5,-1.93842 15.675,-0.51169 32.325,-1.2582 37,-1.65889 l 8.5,-0.72855 -6,-0.74821 c -3.3,-0.41152 -17.7,-1.07216 -32,-1.46809 -79.00615,-2.18748 -156.35647,-8.82064 -214.5,-18.3944 -102.13454,-22.40194 -48.738214,-9.86057 14.43274,-0.43599 57.14409,8.39465 98.79577,11.89397 183.06726,15.38018 113.82817,4.70893 103.52983,4.5999 138.5,1.46635 18.5995,-1.66663 21.6764,-2.1753 20.3946,-3.37165 -0.492,-0.45928 -9.8946,-2.71776 -20.8946,-5.01884 -34.31134,-7.17755 -69.51772,-17.48002 -147,-43.01672 -24.75,-8.15713 -54.9,-17.62512 -67,-21.03997 -12.1,-3.41484 -22.675,-6.57677 -23.5,-7.0265 -1.28514,-0.70057 -1.24786,-0.91483 0.26026,-1.49587 2.62962,-1.01311 38.70456,9.6137 95.23974,28.05535 84.25398,27.48346 107.81689,34.35098 143.5,41.82378 33.6141,7.0395 34.2849,7.10087 50.5635,4.62671 20.6289,-3.13535 55.2596,-11.61537 89.0345,-21.80186 16.4461,-4.96015 31.027,-9.45757 32.402,-9.99427 l 2.5,-0.97581 -3.5,-1.50958 c -1.925,-0.83026 -9.8,-4.2001 -17.5,-7.48854 -7.7,-3.28843 -30.2,-13.27247 -50,-22.18674 -62.6636,-28.21215 -105.32965,-44.87225 -143.5,-56.03343 -9.625,-2.81439 -20.61053,-6.02522 -24.4123,-7.13518 -4.92342,-1.43744 -6.50593,-2.27534 -5.5,-2.91212 2.16187,-1.36849 10.68227,-1.09173 13.71196,0.4454 1.48519,0.75352 10.12534,3.51985 19.20034,6.14739 41.0589,11.88805 79.7112,27.41308 173.5,69.68768 6.05,2.72699 17.975,7.89955 26.5,11.49457 8.525,3.59502 15.7543,6.93768 16.0651,7.42813 0.3107,0.49046 3.164,-0.002 6.3404,-1.0953 3.1765,-1.09288 8.7723,-2.66132 12.435,-3.48543 3.6627,-0.82412 12.2845,-3.11522 19.1595,-5.09133 7.8876,-2.26717 21.1713,-4.87835 36,-7.07651 22.278,-3.30242 24.618,-3.46505 45,-3.12744 19.5217,0.32336 23.2943,0.68741 41,3.95645 22.1187,4.08382 52.6801,12.8034 83.5,23.82372 44.8427,16.03446 81.0558,27.47782 96.00004,30.33603 1.65,0.31558 13.35,-0.92373 26,-2.75403 12.65,-1.83029 23.3767,-3.1164 23.8371,-2.85802 2.2108,1.24066 -2.2998,2.41112 -18.2117,4.72582 -9.5211,1.38503 -17.8093,2.51824 -18.4183,2.51824 -0.7096,0 -0.7614,0.3457 -0.1442,0.9629 0.5296,0.52959 9.1653,2.41287 19.1904,4.18506 10.0252,1.77219 18.7474,3.54348 19.3828,3.93618 0.6355,0.39271 0.8569,1.49166 0.4922,2.44213 -0.5699,1.48503 -1.5399,1.63578 -6.8957,1.0717 -11.5382,-1.21521 -37.1755,-5.73717 -44.2326,-7.80184 -6.55304,-1.9172 -7.73434,-1.96749 -18.50004,-0.78761 -6.325,0.69319 -12.625,1.71119 -14,2.26222 -1.375,0.55104 -4.075,0.91763 -6,0.81465 -3.5392,-0.18932 -27.2072,2.04016 -41,3.86214 -10.4014,1.37398 -21.7119,1.36439 -20.3303,-0.0172 0.5884,-0.58834 14.5159,-2.38419 30.95,-3.99077 16.4342,-1.60659 31.0053,-3.18979 32.3803,-3.51824 1.375,-0.32845 5.3532,-0.78304 8.8405,-1.0102 9.622,-0.62677 10.8208,-1.89764 3.6239,-3.84157 -8.8033,-2.37784 -36.3526,-11.57216 -66.9644,-22.3488 -43.2724,-15.23368 -65.6951,-21.66773 -91.4383,-26.23755 -21.24805,-3.77192 -23.50935,-3.9832 -42.63045,-3.9832 -17.352,0 -23.044,0.42616 -40.4664,3.02971 -24.0685,3.59673 -34.1843,5.79007 -54.4648,11.80916 -5.5,1.63236 -9.325,3.2255 -8.5,3.54033 43.9122,16.75715 105.5631,33.86629 132.1353,36.6697 4.7493,0.50107 15.3243,2.23915 23.5,3.86241 26.6107,5.28354 56.6289,8.69086 96.3647,10.93827 12.2067,0.69039 -213.17,0.90863 -250.5,0.24257 -12.1,-0.2159 -19.975,-0.66245 -17.5,-0.99234 12.0053,-1.60019 4.2751,-1.98827 -93.5,-4.6941 -11,-0.30442 -30.8,-1.00919 -44,-1.56616 -24.6413,-1.03973 -45.81931,-0.73342 -76.5,1.10647 -13.73305,0.82355 -62.11131,2.9972 -93.5,4.20097 l -4,0.1534 4.5,0.69961 c 2.85917,0.44451 -1.88099,0.78624 -13,0.93718 -9.625,0.13066 -32.8,0.4381 -51.5,0.68319 -18.7,0.24509 -53.575,0.80698 -77.5,1.24863 -23.925,0.44165 -166.62657,-0.69454 -317.1146,-0.59575 -56.32958,0.037 -101.60589,-0.86415 -137.39291,-0.87117 -118.84279,-0.0233 -136.61958,2.14971 -137.47953,1.11353 z m 1206.48704,-6.59193 c 13.6635,-0.10133 11.4927,-1.05345 -9,-3.9474 -19.7754,-2.79266 -51.0055,-9.73585 -77,-17.11892 -22.7315,-6.4563 -65.9947,-21.30215 -68.6203,-23.54719 -1.19,-1.01748 -2.2524,-1.12334 -4,-0.39856 -12.034,4.99071 -70.6522,21.94666 -97.3797,28.1681 -12.1,2.81656 -22.382,5.48033 -22.8488,5.91949 -1.2273,1.15448 2.3926,1.70858 25.8488,3.9566 45.1462,4.32676 115.8322,7.13262 159.5,6.33131 11.825,-0.217 26.225,0.051 32,0.59543 5.775,0.54447 19.5,0.79482 30.5,0.55633 11,-0.23849 24.95,-0.47033 31,-0.51519 z m -278.7838,-5.56319 c 0.2424,-0.73295 -2.6866,-1.59526 -8.2095,-2.41693 -6.9207,-1.02963 -10.1765,-1.03397 -16.7845,-0.0224 -4.509,0.69026 -8.6536,1.55288 -9.2102,1.91694 -1.1608,0.75922 15.3982,1.84842 26.4077,1.73701 4.6034,-0.0466 7.5628,-0.50762 7.7965,-1.2146 z m 12.7838,0.63951 c -4.5563,-1.15937 -10.7165,-1.15937 -10,0 0.3399,0.55 3.404,0.94676 6.809,0.88169 4.9464,-0.0945 5.5879,-0.27179 3.191,-0.88169 z m -939.16981,2.41807 c -0.25911,-0.67522 -0.3269,-2.72585 -0.15065,-4.55695 l 0.32046,-3.32927 17.5,-2.24221 c 45.62598,-5.84589 90.32767,-14.0589 160,-29.39667 29.975,-6.59874 57.99884,-12.4396 62.2752,-12.97968 9.25331,-1.16863 7.93647,-0.69141 33.70727,-12.21556 22.77875,-10.18618 51.04863,-25.20389 85.01753,-45.16359 70.91682,-41.66982 92.32216,-52.40548 125.5,-62.94343 18.31119,-5.81601 23.60796,-7.04907 41.36858,-9.63037 17.92717,-2.60551 23.13051,-2.96034 43.4114,-2.96034 26.30606,0 46.33421,2.1145 86.22002,9.1028 49.65293,8.69958 136.2545,27.86738 135.00936,29.88205 -0.78251,1.26614 -9.52324,2.24471 -10.82179,1.21156 -3.0385,-2.41748 -83.9761,-19.86612 -125.68757,-27.0959 -58.74804,-10.18269 -89.6464,-11.65546 -127.13052,-6.05967 -17.34408,2.5892 -23.48349,4.01989 -41.33555,9.63259 -32.17626,10.11624 -55.24536,21.7588 -128.03393,64.61647 -20.28072,11.94122 -59.42718,33.27 -68.39504,37.26473 -3.51727,1.56677 -5.89921,3.01395 -5.2932,3.21596 0.60602,0.202 13.38379,-2.34786 28.39504,-5.66637 C 29.02,424.8186 65.76669,418.38983 109.77431,415.3045 c 30.95482,-2.17021 49.39794,-1.62681 79,2.32763 23.05563,3.07992 45.63266,7.43029 47.32059,9.11822 2.22882,2.22882 -2.51644,1.96076 -15.08894,-0.85237 -44.33113,-9.9192 -106.23449,-10.73024 -162.23165,-2.12549 -26.46308,4.06642 -115.0471,22.27852 -158,32.48342 -3.575,0.84936 -8.14555,1.55094 -10.15678,1.55907 -2.01123,0.008 -6.73623,1.45285 -10.5,3.2105 -6.01822,2.81045 -6.51342,3.24024 -4.10763,3.56503 1.50457,0.20312 10.27957,-0.53973 19.5,-1.65078 38.04074,-4.58386 77.49943,-3.59407 119.76441,3.0042 25.70999,4.01376 55.48443,9.69325 58.31513,11.12364 l 2.31513,1.16986 -2.28743,0.84617 c -1.35064,0.49964 -3.11784,0.43449 -4.31513,-0.15909 -6.26847,-3.10769 -64.80076,-12.57899 -91.0277,-14.72948 -45.81804,-3.75687 -108.28455,1.44892 -140,11.66723 -26.34537,8.48814 -52.16469,14.12195 -119,25.96599 -12.65,2.24174 -31.55,5.62955 -42,7.52846 -25.75431,4.67993 -59.53377,8.54861 -60.16981,6.89112 z m 82.93884,-16.07401 c -0.67703,-0.27392 -2.02703,-0.29059 -3,-0.0371 -0.97297,0.25354 -0.41903,0.47766 1.23097,0.49804 1.65,0.0204 2.44606,-0.18706 1.76903,-0.46099 z m 28.60525,-4.39351 c 13.54414,-2.2272 32.05072,-5.63737 41.12572,-7.57817 19.92846,-4.26194 63.52137,-14.82371 67,-16.23287 5.06534,-2.05194 -1.16741,-1.10471 -19.25563,2.92638 -39.20432,8.73698 -74.15859,16.16359 -94.21827,20.01825 -18.979,3.64698 -24.28811,4.91586 -20.56849,4.91586 0.71002,0 12.37252,-1.82225 25.91667,-4.04945 z M 165.11304,320.55017 c -455.99267,199.70339 -227.996335,99.8517 0,0 z"
         id="path3097"
         inkscape:connector-curvature="0"
         sodipodi:nodetypes="scsssscssccsscsssssssssscssssssssssccsssssssscssssccsssssscssssssssssssssssssscsssssssssscsscssssscsscsccsssssscsssssssssssssssscssssssscssssscssssssscccccssssssscc" />
      <path
         style="fill:#bc4d93;stroke:none"
         d="m 674.27431,523.82608 c -12.1,-0.30543 -19.9975,-0.65455 -17.55,-0.77582 2.796,-0.13854 4.0969,-0.57142 3.5,-1.16462 -0.5225,-0.51927 -18.1664,-1.43094 -39.2086,-2.02594 -21.0423,-0.595 -47.1423,-1.33422 -58,-1.6427 -44.7998,-1.27282 -75.7917,-2.64149 -76.5826,-3.38206 -1.8143,-1.69872 12.032,-2.10962 32.6611,-0.96925 11.8985,0.65774 22.3191,0.93285 23.1569,0.61136 2.9651,-1.13783 1.4605,-2.58672 -3.3488,-3.22469 -2.6795,-0.35546 -5.479,-1.02149 -6.221,-1.48007 -3.2068,-1.98194 0.9576,-2.18125 12.8515,-0.61509 46.5499,6.12961 128.4067,10.18774 180.7622,8.96146 17.5861,-0.41191 27.5402,-0.21611 33.5,0.65896 9.5379,1.40044 75.5712,0.42271 70.9793,-1.05097 -1.375,-0.44128 -9.25,-1.75555 -17.5,-2.92061 -19.7754,-2.79266 -51.0055,-9.73585 -77,-17.11892 -23.5391,-6.68568 -66.0378,-21.33404 -68.8072,-23.71631 -1.7273,-1.4858 -1.7064,-1.59189 0.4723,-2.39782 1.3592,-0.5028 3.0981,-0.42535 4.3072,0.19184 5.5403,2.82818 46.497,16.63146 65.0277,21.9157 24.4015,6.95837 55.2601,13.89252 67.6353,15.19813 4.7493,0.50107 15.3243,2.23915 23.5,3.86241 26.6107,5.28354 56.6289,8.69086 96.3647,10.93827 13.9953,0.79155 -219.535,0.92835 -250.5,0.14674 z m -117,-10.05369 c -5.703,-1.17962 -11.745,-1.14811 -11,0.0574 0.3399,0.55 3.854,0.94825 7.809,0.885 6.4965,-0.10389 6.8047,-0.1949 3.191,-0.94237 z m 344.1697,4.98766 c 0.5884,-0.58834 14.5159,-2.38419 30.95,-3.99077 16.4342,-1.60659 31.0053,-3.22403 32.3803,-3.59433 1.375,-0.3703 2.9054,-0.57681 3.4009,-0.45892 0.4955,0.11788 5.0504,-0.32855 10.122,-0.99207 9.315,-1.21869 15.9381,-0.50064 10.317,1.11852 -1.4631,0.42144 -5.9631,1.09652 -10,1.50018 -4.037,0.40366 -8.4649,1.18973 -9.8399,1.74682 -1.375,0.5571 -4.075,0.92865 -6,0.82567 -3.5392,-0.18932 -27.2072,2.04016 -41,3.86214 -10.4014,1.37398 -21.7119,1.36439 -20.3303,-0.0172 z m -1284.18939,-1.78331 c -0.26417,-0.26417 -0.48031,-2.19674 -0.48031,-4.29459 0,-4.5294 -1.53685,-4.0262 21,-6.87592 42.8791,-5.42194 88.09855,-13.75413 161.5,-29.75817 30.25,-6.59554 57.925,-12.44011 61.5,-12.98793 14.11371,-2.16272 64.29525,-26.90276 115,-56.69623 70.91682,-41.66982 92.32216,-52.40548 125.5,-62.94343 18.31119,-5.81601 23.60796,-7.04907 41.36858,-9.63037 17.92717,-2.60551 23.13051,-2.96034 43.4114,-2.96034 26.30606,0 46.33421,2.1145 86.22002,9.1028 49.65293,8.69958 154.68978,31.40291 153.44464,33.41758 -0.78251,1.26614 -27.70598,-0.91201 -29.00453,-1.94516 -3.0385,-2.41748 -84.22864,-20.24493 -125.94011,-27.47471 -58.74804,-10.18269 -89.6464,-11.65546 -127.13052,-6.05967 -17.34408,2.5892 -23.48349,4.01989 -41.33555,9.63259 -32.17626,10.11624 -55.24536,21.7588 -128.03393,64.61647 -20.36039,11.98813 -59.438,33.2747 -68.48058,37.30312 -3.56433,1.58789 -5.78731,3.02058 -4.93996,3.18377 0.84734,0.16318 10.9636,-1.77059 22.48058,-4.29726 103.83879,-22.78086 137.66391,-28.97156 175.43996,-32.10916 25.4273,-2.11194 61.9022,-2.92063 67.2856,-1.49179 2.31792,0.61521 13.6644,2.25318 25.2144,3.63993 22.41182,2.69087 45.33228,7.31693 44.5,8.98149 -0.70209,1.40418 -2.86685,1.1562 -16.4899,-1.889 -41.71569,-9.32484 -104.50561,-10.17564 -158.5101,-2.14782 -25.84317,3.84161 -73.07873,13.42828 -145.24544,29.47822 -12.50999,2.78223 -24.05554,5.0586 -25.65678,5.0586 -1.60124,0 -5.99079,1.43807 -9.75456,3.19572 -6.01822,2.81045 -6.51342,3.24024 -4.10763,3.56503 1.50457,0.20312 10.27957,-0.53973 19.5,-1.65078 38.04074,-4.58386 77.49943,-3.59407 119.76441,3.0042 25.70999,4.01376 55.48443,9.69325 58.31513,11.12364 l 2.31513,1.16986 -2.28743,0.84617 c -1.35064,0.49964 -3.11784,0.43449 -4.31513,-0.15909 -6.26847,-3.10769 -64.80076,-12.57899 -91.0277,-14.72948 -45.81804,-3.75687 -108.28455,1.44892 -140,11.66723 -26.34537,8.48814 -52.16469,14.12195 -119,25.96599 -12.65,2.24174 -31.55,5.62955 -42,7.52846 -18.8886,3.43233 -59.10195,8.53777 -60.01969,7.62003 z m 82.78872,-16.80292 c -0.67703,-0.27392 -2.02703,-0.29059 -3,-0.0371 -0.97297,0.25354 -0.41903,0.47766 1.23097,0.49804 1.65,0.0204 2.44606,-0.18706 1.76903,-0.46099 z m 28.60525,-4.39351 c 28.21408,-4.63952 47.62241,-8.67037 81.62572,-16.9526 23.86588,-5.81304 30.72151,-7.80842 27.26123,-7.93456 -0.95633,-0.0349 -22.33133,4.44401 -47.5,9.95305 -25.16868,5.50903 -55.19948,11.83479 -66.73513,14.05723 -18.98503,3.65762 -24.28216,4.92633 -20.56849,4.92633 0.71002,0 12.37252,-1.82225 25.91667,-4.04945 z m 664.62572,16.97739 c -4.95,-0.4276 -20.475,-1.10632 -34.5,-1.50826 -79.38964,-2.27522 -156.12215,-8.87434 -214,-18.40435 -66.158561,-14.92838 -80.999008,-16.45941 -11.06726,-4.52364 73.80798,12.47645 138.79806,17.70264 273.56726,21.99893 9.9,0.3156 20.925,0.86048 24.5,1.21084 6.42937,0.63009 6.45654,0.64541 2.5,1.41015 -4.9799,0.96253 -28.97579,0.85503 -41,-0.18367 z m 611.07089,-4.8132 c -0.3789,-0.61311 -0.5499,-1.15055 -0.3799,-1.19432 3.3073,-0.85177 45.5531,-6.49285 46.1461,-6.1619 2.2065,1.23148 -2.3037,2.41508 -18.3689,4.82051 -24.1059,3.60937 -26.5915,3.83943 -27.3973,2.53571 z m -498.65419,-1.53067 c -0.2292,-0.22876 -10.3167,-2.49456 -22.4167,-5.03512 -37.31525,-7.83484 -66.01881,-16.18206 -147.5,-42.89418 -26.125,-8.5646 -57.175,-18.29207 -69,-21.6166 -11.825,-3.32452 -22.4,-6.44555 -23.5,-6.93562 -1.81618,-0.80913 -1.84191,-0.95548 -0.27994,-1.59229 2.47537,-1.0092 43.76668,11.19206 94.77994,28.00674 75.95478,25.03576 108.43056,34.50489 143.51676,41.84595 11.54074,2.41467 22.78324,4.69482 24.98324,5.067 6.7134,1.13572 7.9682,1.65951 6.3821,2.66406 -1.4172,0.89759 -6.2188,1.23541 -6.9654,0.49006 z m 149.5333,-36.48286 c -0.5225,-0.49433 -8.375,-4.04578 -17.45,-7.89211 -9.075,-3.84633 -32.7,-14.28742 -52.5,-23.20242 -62.6485,-28.20764 -105.32489,-44.87218 -143.5,-56.03475 -9.625,-2.81439 -20.61053,-6.02522 -24.4123,-7.13518 -4.92342,-1.43744 -10.42027,-2.40161 -9.41434,-3.03839 2.16187,-1.36849 14.59661,-0.96546 17.6263,0.57167 1.48519,0.75352 10.12534,3.51985 19.20034,6.14739 41.0589,11.88805 79.7112,27.41308 173.5,69.68768 6.05,2.72699 17.975,7.89955 26.5,11.49457 8.525,3.59502 15.8137,7.03391 16.1972,7.64197 1.3214,2.09528 -3.7509,3.64822 -5.7472,1.75957 z"
         id="path3095"
         inkscape:connector-curvature="0"
         sodipodi:nodetypes="ssssscsssssssssscscssssscsscccsscssssssccsssssssssssssssssssssssssssssssscssssssscccccsscssssssccsssscccsccssssssssscsssssssssscs" />
      <path
         style="fill:#5e69a7;stroke:#5e69a7;stroke-width:2.4000001;stroke-miterlimit:4;stroke-opacity:1;stroke-dasharray:none"
         d="m 674.27431,523.82976 c -12.1,-0.30745 -19.9975,-0.65823 -17.55,-0.7795 2.796,-0.13854 4.0969,-0.57142 3.5,-1.16462 -0.5225,-0.51927 -18.1664,-1.43094 -39.2086,-2.02594 -21.0423,-0.595 -47.1423,-1.33422 -58,-1.6427 -44.7998,-1.27282 -98.26759,-3.90418 -99.05849,-4.64475 -1.8143,-1.69872 34.50789,-0.84693 55.13699,0.29344 11.8985,0.65774 22.3191,0.93285 23.1569,0.61136 2.9651,-1.13783 1.4605,-2.58672 -3.3488,-3.22469 -2.6795,-0.35546 -5.479,-1.02149 -6.221,-1.48007 -3.2068,-1.98194 0.9576,-2.18125 12.8515,-0.61509 46.2845,6.09467 129.298,10.23871 179.5346,8.96238 16.6974,-0.42421 27.1604,-0.21663 35.0842,0.69604 8.8198,1.0159 18.6125,1.08894 44.7441,0.33375 30.8686,-0.89209 35.0477,-0.80584 54.0921,1.11633 11.3514,1.14572 20.8983,2.3425 21.2153,2.65951 1.4527,1.45269 -156.9692,2.14857 -205.9288,0.90455 z m -117,-10.05737 c -5.703,-1.17962 -11.745,-1.14811 -11,0.0574 0.3399,0.55 3.854,0.94825 7.809,0.885 6.4965,-0.10389 6.8047,-0.1949 3.191,-0.94237 z m 344.5,5.11864 c 0,-1.17591 2.4425,-1.49803 35,-4.61575 14.575,-1.3957 27.4,-2.83107 28.5,-3.18971 1.1,-0.35863 2.4054,-0.54027 2.9009,-0.40363 0.4955,0.13663 5.01827,-0.62128 10.122,-0.95798 6.032,-0.39794 15.95605,-0.2806 10.33495,1.33856 -1.4631,0.42144 -5.98105,0.87648 -10.01795,1.28014 -4.037,0.40366 -8.4649,1.18973 -9.8399,1.74682 -1.375,0.5571 -4.075,0.92865 -6,0.82567 -3.5392,-0.18932 -27.2072,2.04016 -41,3.86214 -9.5875,1.26646 -20,1.32568 -20,0.11374 z m -1283.99679,-1.99967 c 0.003,-0.61203 64.11711,-9.27461 64.65587,-8.73585 0.18135,0.18134 -5.40526,1.32447 -12.41468,2.54028 -14.90083,2.58459 -52.24586,7.01355 -52.24119,6.19557 z m 775.49679,-4.13366 c -4.95,-0.4276 -20.475,-1.10632 -34.5,-1.50826 -79.40738,-2.27573 -176.37751,-12.63094 -234.17857,-22.15719 -5.41643,-1.53579 -12.80065,-2.0051 -20.13824,-3.40992 -26.197188,-5.01561 -57.378562,-14.2345 -20.621211,-6.7777 79.191291,16.17994 172.543121,26.60539 323.438021,31.41575 9.9,0.3156 32.79429,0.86048 36.36929,1.21084 6.42937,0.63009 54.31252,2.41318 50.10344,2.54657 -5.06952,0.16067 -88.44852,-0.28139 -100.47273,-1.32009 z m -776.5,-2.40889 c 0,-1.82868 0.64386,-1.96803 21,-4.54504 43.41725,-5.49648 87.48939,-13.63019 159.5,-29.43643 49.60482,-10.8882 66.53492,-14.23916 65.20092,-12.90517 -1.0817,1.0817 -21.45887,7.36759 -23.88377,7.36759 -1.53443,0 -23.60851,4.55315 -49.05351,10.11812 -25.445,5.56497 -55.26364,11.87501 -66.26364,14.02233 -11,2.14731 -22.025,4.35452 -24.5,4.9049 -13.90684,3.09253 -73.44259,11.96265 -80.25,11.95629 -0.9625,-9e-4 -1.75,-0.66807 -1.75,-1.48259 z M 1005.2291,508.1339 c -0.3789,-0.61311 -1.4338,-1.33995 -1.2638,-1.38372 3.3073,-0.85177 45.5531,-6.49285 46.1461,-6.1619 2.2065,1.23148 -2.3037,2.41508 -18.3689,4.82051 -24.1059,3.60937 -25.7076,4.02883 -26.5134,2.72511 z m -499.53809,-1.72007 c -0.2292,-0.22876 -10.3167,-2.49456 -22.4167,-5.03512 -37.31525,-7.83484 -66.01881,-16.18206 -147.5,-42.89418 -26.125,-8.5646 -57.175,-18.29207 -69,-21.6166 -11.825,-3.32452 -22.4,-6.44555 -23.5,-6.93562 -1.81618,-0.80913 -1.84191,-0.95548 -0.27994,-1.59229 2.47537,-1.0092 43.76668,11.19206 94.77994,28.00674 75.95478,25.03576 108.43056,34.50489 143.51676,41.84595 11.54074,2.41467 22.78324,4.69482 24.98324,5.067 6.7134,1.13572 7.9682,1.65951 6.3821,2.66406 -1.4172,0.89759 -6.2188,1.23541 -6.9654,0.49006 z M 55.27431,475.70354 c -22.92008,-4.79236 -56.72319,-9.84627 -77,-11.5123 -34.01065,-2.79445 -83.7111,-0.36454 -114.38649,5.59249 -9.74622,1.89267 -9.61951,1.21122 0.45418,-2.44266 3.80801,-1.38122 8.95059,-2.51575 11.42798,-2.52118 2.47738,-0.005 11.54395,-0.87683 20.14793,-1.93645 35.70469,-4.3972 76.4515,-3.51578 115.8564,2.50616 27.72477,4.23695 60.41763,10.59912 61.96429,12.0585 1.26479,1.19343 1.06044,1.36811 -1.5,1.28218 -1.63036,-0.0547 -9.26429,-1.41675 -16.96429,-3.02674 z m 610.942,-2.96766 c -0.308,-0.49837 -0.196,-0.91226 0.249,-0.91977 0.4449,-0.008 1.8919,-0.3034 3.2154,-0.65753 1.5456,-0.41355 2.1771,-0.27299 1.7656,0.39295 -0.896,1.44968 -4.5541,2.27807 -5.23,1.18435 z m -9.442,-2.90612 c 0.825,-0.53316 2.4,-0.96937 3.5,-0.96937 1.6561,0 1.7421,0.16666 0.5,0.96937 -0.825,0.53316 -2.4,0.96937 -3.5,0.96937 -1.6561,0 -1.7421,-0.16666 -0.5,-0.96937 z m -769,-12.45321 c 0,-1.00098 9.44032,-4.54679 12.10534,-4.54679 1.5681,0 12.1984,-2.05074 23.62288,-4.55721 103.63308,-22.7365 137.51472,-28.9364 175.27178,-32.07242 25.4273,-2.11194 61.9022,-2.92063 67.2856,-1.49179 2.31792,0.61521 13.6644,2.25318 25.2144,3.63993 22.41182,2.69087 45.33228,7.31693 44.5,8.98149 -0.70209,1.40418 -2.86685,1.1562 -16.4899,-1.889 -41.71569,-9.32484 -104.50561,-10.17564 -158.5101,-2.14782 -25.84317,3.84161 -73.07873,13.42828 -145.24544,29.47822 -20.95521,4.66045 -27.75456,5.78869 -27.75456,4.60539 z"
         id="path3093"
         inkscape:connector-curvature="0"
         sodipodi:nodetypes="ssssscssssssssscscssccssscsssssssccscsscscsssssssssssssscccsccssssssssscsssscsssssccsccssssssssssssssss" />
      <path
         style="fill:#2fb36a;stroke:#2fb36a;stroke-width:6;stroke-miterlimit:4;stroke-opacity:1;stroke-dasharray:none"
         d="m 676.77431,523.89853 c -13.475,-0.34236 -20.225,-0.75335 -15,-0.9133 16.838,-0.51547 6.8569,-1.92389 -22,-3.10439 -36.8105,-1.50588 -58.9385,-2.83311 -66.3661,-3.9806 -3.3737,-0.52119 -10.4089,-1.44621 -15.6339,-2.05561 -13.2981,-1.55096 -55.58049,-9.24449 -56.99809,-10.12061 -3.0591,-1.89061 33.04979,3.89165 44.75659,5.43318 46.2845,6.09467 129.298,10.23871 179.5346,8.96238 16.6974,-0.42421 27.1604,-0.21663 35.0842,0.69604 8.8198,1.0159 18.6125,1.08894 44.7441,0.33375 30.8686,-0.89209 35.0477,-0.80584 54.0921,1.11633 11.3514,1.14572 20.9721,2.41633 21.3794,2.82359 0.4072,0.40726 -34.7721,0.74252 -78.1762,0.74502 -43.4042,0.002 -83.8667,0.15803 -89.9167,0.34561 -6.05,0.18759 -22.025,0.061 -35.5,-0.28139 z m 194.73214,-1.85448 c 0,-0.5252 8.19697,0.52572 17.55577,0.57176 11.4697,0.0564 24.68444,-0.76899 26.69423,-0.12534 1.7451,0.55889 -15.91153,0.56289 -21.32143,0.63247 -4.5665,0.0587 -22.92857,-0.48967 -22.92857,-1.07889 z M -383.22569,510.34881 c 0,-1.82868 0.64386,-1.96803 21,-4.54504 43.41725,-5.49648 87.48939,-13.63019 159.5,-29.43643 49.60482,-10.8882 106.177777,-24.06059 104.843777,-22.7266 -1.0817,1.0817 -61.101727,17.18902 -63.526627,17.18902 -1.53443,0 -23.60851,4.5529 -49.05351,10.11756 -75.57285,16.52729 -112.78716,23.58292 -149.26364,28.29958 -23.39362,3.02495 -23.5,3.02994 -23.5,1.10191 z m 887.0858,-5.89215 c -0.2292,-0.22876 -8.4858,-0.53739 -20.5858,-3.07795 -37.31525,-7.83484 -66.01881,-16.18206 -147.5,-42.89418 -26.125,-8.5646 -57.175,-18.29207 -69,-21.6166 -11.825,-3.32452 -22.4,-6.44555 -23.5,-6.93562 -1.81618,-0.80913 -12.66547,-4.52077 -11.1728,-3.73515 2.83252,1.4908 54.65954,13.33492 105.6728,30.1496 75.95478,25.03576 108.43056,34.50489 143.51676,41.84595 11.54074,2.41467 22.78324,4.69482 24.98324,5.067 6.7134,1.13572 8.78895,1.0913 7.20285,2.09585 -1.4172,0.89759 -8.87045,-0.15355 -9.61705,-0.8989 z m -616.0858,-47.08011 c 0,-1.00098 9.44032,-4.54679 12.10534,-4.54679 1.5681,0 12.1984,-2.05074 23.62288,-4.55721 103.63308,-22.7365 137.51472,-28.9364 175.27178,-32.07242 25.4273,-2.11194 61.9022,-2.92063 67.2856,-1.49179 2.31792,0.61521 13.6644,2.25318 25.2144,3.63993 22.41182,2.69087 43.03039,7.83969 44.5,8.98149 0.66252,0.51474 -1.32156,0.149 -16.4899,-1.889 -42.36451,-5.69204 -104.50561,-10.17564 -158.5101,-2.14782 -25.84317,3.84161 -73.07873,13.42828 -145.24544,29.47822 -20.95521,4.66045 -27.75456,5.78869 -27.75456,4.60539 z"
         id="path3091"
         inkscape:connector-curvature="0"
         sodipodi:nodetypes="sssssssssssccssssssssssssssscssssssssscsssssssssss" />
      <path
         style="fill:#636262"
         d="m 676.77431,523.92538 -24.5,-0.59562 13.9081,-0.75 c 16.4437,-0.88673 76.7358,-0.77795 108.5919,0.19593 22.2275,0.67951 22.0518,0.69012 -14.5,0.87551 -20.35,0.10321 -41.95,0.34114 -48,0.52872 -6.05,0.18759 -22.025,0.073 -35.5,-0.25454 z m 187.7615,-1.09201 c -1.5061,-0.45346 -7.5811,-1.32027 -13.5,-1.92623 -13.5794,-1.39026 -18.5235,-2.14871 -17.9228,-2.74944 0.7103,-0.71022 43.8493,3.64326 46.1613,4.65848 2.6286,1.15425 -10.9093,1.17005 -14.7385,0.0172 z m -277.0115,-5.66589 c 0.6875,-0.27741 1.8125,-0.27741 2.5,0 0.6875,0.27741 0.125,0.50439 -1.25,0.50439 -1.375,0 -1.9375,-0.22698 -1.25,-0.50439 z m -9.481,-1.03071 c 0.973,-0.25354 2.323,-0.23687 3,0.0371 0.6771,0.27393 -0.119,0.48137 -1.769,0.46099 -1.65,-0.0204 -2.2039,-0.2445 -1.231,-0.49804 z m -506.99997,-38 c 0.97297,-0.25354 2.32297,-0.23687 3,0.0371 0.67703,0.27393 -0.11903,0.48137 -1.76903,0.46099 -1.65,-0.0204 -2.20394,-0.2445 -1.23097,-0.49804 z"
         id="path3089"
         inkscape:connector-curvature="0"
         sodipodi:nodetypes="scssssscscscsssscccccccccc" />
      <path
         style="fill:none;stroke:#000000;stroke-width:5;stroke-linecap:butt;stroke-linejoin:miter;stroke-miterlimit:4;stroke-opacity:1;stroke-dasharray:none"
         d="m -413.91535,523.28945 308.61133,0.0546 63.213936,0.0112 1115.363884,0.1974"
         id="path3903"
         inkscape:connector-curvature="0"
         sodipodi:nodetypes="cccc" />
      <path
         style="fill:none;stroke:#000000;stroke-width:4.81558561;stroke-linecap:butt;stroke-linejoin:miter;stroke-miterlimit:4;stroke-opacity:1;stroke-dasharray:none"
         d="m -411.55458,287.45749 0,238.13617"
         id="path3905"
         inkscape:connector-curvature="0"
         sodipodi:nodetypes="cc" />
      <path
         style="fill:none;stroke:#000000;stroke-width:5;stroke-linecap:butt;stroke-linejoin:miter;stroke-miterlimit:4;stroke-opacity:1;stroke-dasharray:none"
         d="m -17.957621,507.55503 0,15.71429"
         id="path3907"
         inkscape:connector-curvature="0" />
      <path
         style="fill:none;stroke:#000000;stroke-width:5;stroke-linecap:butt;stroke-linejoin:miter;stroke-miterlimit:4;stroke-opacity:1;stroke-dasharray:none"
         d="m -214.84541,507.60896 0,15.71429"
         id="path3907-0"
         inkscape:connector-curvature="0" />
      <path
         style="fill:none;stroke:#000000;stroke-width:5;stroke-linecap:butt;stroke-linejoin:miter;stroke-miterlimit:4;stroke-opacity:1;stroke-dasharray:none"
         d="m 178.93017,507.75554 0,15.71429"
         id="path3907-4"
         inkscape:connector-curvature="0" />
      <path
         style="fill:none;stroke:#000000;stroke-width:5;stroke-linecap:butt;stroke-linejoin:miter;stroke-miterlimit:4;stroke-opacity:1;stroke-dasharray:none"
         d="m 375.81791,507.12419 0,15.71429"
         id="path3907-7"
         inkscape:connector-curvature="0" />
      <path
         style="fill:none;stroke:#000000;stroke-width:5;stroke-linecap:butt;stroke-linejoin:miter;stroke-miterlimit:4;stroke-opacity:1;stroke-dasharray:none"
         d="m 572.70571,508.05503 0,15.71429"
         id="path3907-7-2"
         inkscape:connector-curvature="0" />
      <path
         style="fill:none;stroke:#000000;stroke-width:5;stroke-linecap:butt;stroke-linejoin:miter;stroke-miterlimit:4;stroke-opacity:1;stroke-dasharray:none"
         d="m 769.84602,507.8509 0,15.71429"
         id="path3907-7-3"
         inkscape:connector-curvature="0" />
      <path
         style="fill:none;stroke:#000000;stroke-width:5;stroke-linecap:butt;stroke-linejoin:miter;stroke-miterlimit:4;stroke-opacity:1;stroke-dasharray:none"
         d="m 966.4812,507.84582 0,15.71429"
         id="path3907-7-1"
         inkscape:connector-curvature="0" />
      <path
         style="fill:none;stroke:#000000;stroke-width:5;stroke-linecap:butt;stroke-linejoin:miter;stroke-miterlimit:4;stroke-opacity:1;stroke-dasharray:none"
         d="m -395.66171,523.26933 -15.71429,0"
         id="path3907-0-16"
         inkscape:connector-curvature="0" />
      <path
         style="fill:none;stroke:#000000;stroke-width:5;stroke-linecap:butt;stroke-linejoin:miter;stroke-miterlimit:4;stroke-opacity:1;stroke-dasharray:none"
         d="m -395.84029,445.50147 -15.71429,0"
         id="path3907-0-16-1"
         inkscape:connector-curvature="0" />
      <path
         style="fill:none;stroke:#000000;stroke-width:5;stroke-linecap:butt;stroke-linejoin:miter;stroke-miterlimit:4;stroke-opacity:1;stroke-dasharray:none"
         d="m -395.66172,367.73361 -15.71429,0"
         id="path3907-0-16-7"
         inkscape:connector-curvature="0" />
      <path
         style="fill:none;stroke:#000000;stroke-width:5;stroke-linecap:butt;stroke-linejoin:miter;stroke-miterlimit:4;stroke-opacity:1;stroke-dasharray:none"
         d="m -395.84029,289.96575 -15.71429,0"
         id="path3907-0-16-4"
         inkscape:connector-curvature="0" />
      <flowRoot
         xml:space="preserve"
         id="flowRoot4221"
         style="font-size:40px;font-style:normal;font-weight:normal;line-height:125%;letter-spacing:0px;word-spacing:0px;fill:#000000;fill-opacity:1;stroke:none;font-family:Times New Roman;-inkscape-font-specification:Times New Roman"
         transform="translate(-30.304576,-179.80715)"><flowRegion
           id="flowRegion4223"><rect
             id="rect4225"
             width="34.345188"
             height="40.406101"
             x="-202.0305"
             y="716.99152"
             style="font-family:Times New Roman;-inkscape-font-specification:Times New Roman" /></flowRegion><flowPara
           id="flowPara4227">40</flowPara></flowRoot>    </g>
    <flowRoot
       xml:space="preserve"
       id="flowRoot4229"
       style="font-size:40px;font-style:normal;font-weight:normal;line-height:125%;letter-spacing:0px;word-spacing:0px;fill:#000000;fill-opacity:1;stroke:none;font-family:Times New Roman;-inkscape-font-specification:Times New Roman"
       transform="translate(5.9845566,-25.290228)"><flowRegion
         id="flowRegion4231"><rect
           id="rect4233"
           width="74.751289"
           height="58.588848"
           x="-210.11172"
           y="710.9306"
           style="font-family:Times New Roman;-inkscape-font-specification:Times New Roman" /></flowRegion><flowPara
         id="flowPara4235">40</flowPara></flowRoot>    <flowRoot
       transform="translate(202.22781,-25.290228)"
       xml:space="preserve"
       id="flowRoot4229-4"
       style="font-size:40px;font-style:normal;font-weight:normal;line-height:125%;letter-spacing:0px;word-spacing:0px;fill:#000000;fill-opacity:1;stroke:none;font-family:Times New Roman;-inkscape-font-specification:Times New Roman"><flowRegion
         id="flowRegion4231-4"><rect
           id="rect4233-9"
           width="74.751289"
           height="58.588848"
           x="-210.11172"
           y="710.9306"
           style="font-family:Times New Roman;-inkscape-font-specification:Times New Roman" /></flowRegion><flowPara
         id="flowPara4235-6">50</flowPara></flowRoot>    <flowRoot
       transform="translate(399.21326,-25.290228)"
       xml:space="preserve"
       id="flowRoot4229-0"
       style="font-size:40px;font-style:normal;font-weight:normal;line-height:125%;letter-spacing:0px;word-spacing:0px;fill:#000000;fill-opacity:1;stroke:none;font-family:Times New Roman;-inkscape-font-specification:Times New Roman"><flowRegion
         id="flowRegion4231-2"><rect
           id="rect4233-2"
           width="74.751289"
           height="58.588848"
           x="-210.11172"
           y="710.9306"
           style="font-family:Times New Roman;-inkscape-font-specification:Times New Roman" /></flowRegion><flowPara
         id="flowPara4235-0">60</flowPara></flowRoot>    <flowRoot
       transform="translate(596.21819,-25.290228)"
       xml:space="preserve"
       id="flowRoot4229-9"
       style="font-size:40px;font-style:normal;font-weight:normal;line-height:125%;letter-spacing:0px;word-spacing:0px;fill:#000000;fill-opacity:1;stroke:none;font-family:Times New Roman;-inkscape-font-specification:Times New Roman"><flowRegion
         id="flowRegion4231-3"><rect
           id="rect4233-1"
           width="74.751289"
           height="58.588848"
           x="-210.11172"
           y="710.9306"
           style="font-family:Times New Roman;-inkscape-font-specification:Times New Roman" /></flowRegion><flowPara
         id="flowPara4235-06">70</flowPara></flowRoot>    <flowRoot
       transform="translate(792.63724,-25.290228)"
       xml:space="preserve"
       id="flowRoot4229-1"
       style="font-size:40px;font-style:normal;font-weight:normal;line-height:125%;letter-spacing:0px;word-spacing:0px;fill:#000000;fill-opacity:1;stroke:none;font-family:Times New Roman;-inkscape-font-specification:Times New Roman"><flowRegion
         id="flowRegion4231-41"><rect
           id="rect4233-0"
           width="74.751289"
           height="58.588848"
           x="-210.11172"
           y="710.9306"
           style="font-family:Times New Roman;-inkscape-font-specification:Times New Roman" /></flowRegion><flowPara
         id="flowPara4235-8">80</flowPara></flowRoot>    <flowRoot
       transform="translate(990.19747,-26.718799)"
       xml:space="preserve"
       id="flowRoot4229-16"
       style="font-size:40px;font-style:normal;font-weight:normal;line-height:125%;letter-spacing:0px;word-spacing:0px;fill:#000000;fill-opacity:1;stroke:none;font-family:Times New Roman;-inkscape-font-specification:Times New Roman"><flowRegion
         id="flowRegion4231-5"><rect
           id="rect4233-6"
           width="74.751289"
           height="58.588848"
           x="-210.11172"
           y="710.9306"
           style="font-family:Times New Roman;-inkscape-font-specification:Times New Roman" /></flowRegion><flowPara
         id="flowPara4235-2">90</flowPara></flowRoot>    <flowRoot
       transform="translate(1175.2799,-29.575942)"
       xml:space="preserve"
       id="flowRoot4229-97"
       style="font-size:40px;font-style:normal;font-weight:normal;line-height:125%;letter-spacing:0px;word-spacing:0px;fill:#000000;fill-opacity:1;stroke:none;font-family:Times New Roman;-inkscape-font-specification:Times New Roman"
       inkscape:transform-center-y="13.75"><flowRegion
         id="flowRegion4231-1"><rect
           id="rect4233-03"
           width="74.751289"
           height="58.588848"
           x="-210.11172"
           y="710.9306"
           style="font-family:Times New Roman;-inkscape-font-specification:Times New Roman" /></flowRegion><flowPara
         id="flowPara4235-4">100</flowPara></flowRoot>    <flowRoot
       xml:space="preserve"
       id="flowRoot4229-99"
       style="font-size:40px;font-style:normal;font-weight:normal;line-height:125%;letter-spacing:0px;word-spacing:0px;fill:#000000;fill-opacity:1;stroke:none;font-family:Times New Roman;-inkscape-font-specification:Times New Roman"
       transform="translate(-203.04604,-52.7557)"><flowRegion
         id="flowRegion4231-8"><rect
           id="rect4233-4"
           width="74.751289"
           height="58.588848"
           x="-210.11172"
           y="710.9306"
           style="font-family:Times New Roman;-inkscape-font-specification:Times New Roman" /></flowRegion><flowPara
         id="flowPara4235-1">0</flowPara></flowRoot>    <flowRoot
       xml:space="preserve"
       id="flowRoot4229-99-4"
       style="font-size:40px;font-style:normal;font-weight:normal;line-height:125%;letter-spacing:0px;word-spacing:0px;fill:#000000;fill-opacity:1;stroke:none;font-family:Times New Roman;-inkscape-font-specification:Times New Roman"
       transform="translate(-223.04604,-286.32713)"><flowRegion
         id="flowRegion4231-8-6"><rect
           id="rect4233-4-3"
           width="74.751289"
           height="58.588848"
           x="-210.11172"
           y="710.9306"
           style="font-family:Times New Roman;-inkscape-font-specification:Times New Roman" /></flowRegion><flowPara
         id="flowPara4235-1-9">30</flowPara></flowRoot>    <flowRoot
       transform="translate(395.87022,23.672872)"
       xml:space="preserve"
       id="flowRoot4229-4-6"
       style="font-size:40px;font-style:normal;font-weight:normal;line-height:125%;letter-spacing:0px;word-spacing:0px;fill:#000000;fill-opacity:1;stroke:none;font-family:Times New Roman;-inkscape-font-specification:Times New Roman"><flowRegion
         id="flowRegion4231-4-5"><rect
           id="rect4233-9-2"
           width="421.89413"
           height="61.446011"
           x="-210.11172"
           y="710.9306"
           style="font-family:Times New Roman;-inkscape-font-specification:Times New Roman" /></flowRegion><flowPara
         id="flowPara4235-6-9">position (cm)</flowPara></flowRoot>    <flowRoot
       transform="matrix(0,-1,1,0,-1210.4828,469.58734)"
       xml:space="preserve"
       id="flowRoot4229-4-6-7"
       style="font-size:40px;font-style:normal;font-weight:normal;line-height:125%;letter-spacing:0px;word-spacing:0px;fill:#000000;fill-opacity:1;stroke:none;font-family:Times New Roman;-inkscape-font-specification:Times New Roman"><flowRegion
         id="flowRegion4231-4-5-8"><rect
           id="rect4233-9-2-1"
           width="421.89413"
           height="61.446011"
           x="-210.11172"
           y="710.9306"
           style="font-family:Times New Roman;-inkscape-font-specification:Times New Roman" /></flowRegion><flowPara
         id="flowPara4235-6-9-4">firing rate (Hz)</flowPara></flowRoot>  </g>
</svg>
