<?xml version="1.0" encoding="UTF-8" standalone="no"?>
<!-- Created with Inkscape (http://www.inkscape.org/) -->

<svg
   xmlns:dc="http://purl.org/dc/elements/1.1/"
   xmlns:cc="http://creativecommons.org/ns#"
   xmlns:rdf="http://www.w3.org/1999/02/22-rdf-syntax-ns#"
   xmlns:svg="http://www.w3.org/2000/svg"
   xmlns="http://www.w3.org/2000/svg"
   xmlns:sodipodi="http://sodipodi.sourceforge.net/DTD/sodipodi-0.dtd"
   xmlns:inkscape="http://www.inkscape.org/namespaces/inkscape"
   id="svg2"
   version="1.1"
   inkscape:version="0.48.4 r9939"
   width="192.62569"
   height="114.10678"
   xml:space="preserve"
   sodipodi:docname="tuning_curve-thresh.svg"><sodipodi:namedview
     pagecolor="#ffffff"
     bordercolor="#666666"
     borderopacity="1"
     objecttolerance="10"
     gridtolerance="10"
     guidetolerance="10"
     inkscape:pageopacity="0"
     inkscape:pageshadow="2"
     inkscape:window-width="2495"
     inkscape:window-height="1416"
     id="namedview4"
     showgrid="false"
     inkscape:zoom="4.1249545"
     inkscape:cx="141.86337"
     inkscape:cy="86.352504"
     inkscape:window-x="65"
     inkscape:window-y="24"
     inkscape:window-maximized="1"
     inkscape:current-layer="g4790"
     fit-margin-top="0"
     fit-margin-left="0"
     fit-margin-right="0"
     fit-margin-bottom="0" /><metadata
     id="metadata8"><rdf:RDF><cc:Work
         rdf:about=""><dc:format>image/svg+xml</dc:format><dc:type
           rdf:resource="http://purl.org/dc/dcmitype/StillImage" /><dc:title /></cc:Work></rdf:RDF></metadata><defs
     id="defs6"><marker
       style="overflow:visible"
       id="Arrow2Mstart"
       refX="0"
       refY="0"
       orient="auto"
       inkscape:stockid="Arrow2Mstart"><path
         inkscape:connector-curvature="0"
         transform="scale(0.6,0.6)"
         d="M 8.7185878,4.0337352 -2.2072895,0.01601326 8.7185884,-4.0017078 c -1.7454984,2.3720609 -1.7354408,5.6174519 -6e-7,8.035443 z"
         style="font-size:12px;fill-rule:evenodd;stroke-width:0.625;stroke-linejoin:round"
         id="path4889" /></marker><marker
       style="overflow:visible"
       id="Arrow2Mend"
       refX="0"
       refY="0"
       orient="auto"
       inkscape:stockid="Arrow2Mend"><path
         inkscape:connector-curvature="0"
         transform="scale(-0.6,-0.6)"
         d="M 8.7185878,4.0337352 -2.2072895,0.01601326 8.7185884,-4.0017078 c -1.7454984,2.3720609 -1.7354408,5.6174519 -6e-7,8.035443 z"
         style="font-size:12px;fill-rule:evenodd;stroke-width:0.625;stroke-linejoin:round"
         id="path4892" /></marker><marker
       style="overflow:visible"
       id="Arrow1Mstart"
       refX="0"
       refY="0"
       orient="auto"
       inkscape:stockid="Arrow1Mstart"><path
         inkscape:connector-curvature="0"
         transform="matrix(0.4,0,0,0.4,4,0)"
         style="fill-rule:evenodd;stroke:#000000;stroke-width:1pt;marker-start:none"
         d="M 0,0 5,-5 -12.5,0 5,5 0,0 z"
         id="path4871" /></marker><clipPath
       id="clipPath204"
       clipPathUnits="userSpaceOnUse"><path
         inkscape:connector-curvature="0"
         id="path206"
         d="m 0,0 195.53365,0 0,102.81174 L 0,102.81174 0,0 z" /></clipPath><clipPath
       id="clipPath4704"
       clipPathUnits="userSpaceOnUse"><rect
         transform="scale(1,-1)"
         y="-110.8213"
         x="30.637697"
         height="136.59201"
         width="138.56737"
         id="rect4706"
         style="opacity:0.59345793;fill:#e1d66e;fill-opacity:1;stroke:#5050d6;stroke-width:0.80000001;stroke-linecap:round;stroke-linejoin:round;stroke-miterlimit:4;stroke-opacity:1;stroke-dasharray:0.8, 0.8;stroke-dashoffset:0" /></clipPath><clipPath
       id="clipPath4708"
       clipPathUnits="userSpaceOnUse"><rect
         y="-9.7653809"
         x="74.510872"
         height="170.74001"
         width="173.20921"
         id="rect4710"
         style="opacity:0.59345793;fill:#e1d66e;fill-opacity:1;stroke:#5050d6;stroke-width:1;stroke-linecap:round;stroke-linejoin:round;stroke-miterlimit:4;stroke-opacity:1;stroke-dasharray:1, 1;stroke-dashoffset:0" /></clipPath><clipPath
       id="clipPath4712"
       clipPathUnits="userSpaceOnUse"><rect
         transform="scale(1,-1)"
         y="-110.8213"
         x="30.637697"
         height="136.59201"
         width="138.56737"
         id="rect4714"
         style="opacity:0.59345793;fill:#e1d66e;fill-opacity:1;stroke:#5050d6;stroke-width:0.80000001;stroke-linecap:round;stroke-linejoin:round;stroke-miterlimit:4;stroke-opacity:1;stroke-dasharray:0.8, 0.8;stroke-dashoffset:0" /></clipPath><clipPath
       id="clipPath4716"
       clipPathUnits="userSpaceOnUse"><rect
         transform="scale(1,-1)"
         y="-110.8213"
         x="30.637697"
         height="136.59201"
         width="138.56737"
         id="rect4718"
         style="opacity:0.59345793;fill:#e1d66e;fill-opacity:1;stroke:#5050d6;stroke-width:0.80000001;stroke-linecap:round;stroke-linejoin:round;stroke-miterlimit:4;stroke-opacity:1;stroke-dasharray:0.8, 0.8;stroke-dashoffset:0" /></clipPath><clipPath
       id="clipPath4720"
       clipPathUnits="userSpaceOnUse"><rect
         transform="scale(1,-1)"
         y="-108.08293"
         x="-8.3080111"
         height="136.59201"
         width="138.56737"
         id="rect4722"
         style="opacity:0.59345793;fill:#e1d66e;fill-opacity:1;stroke:#5050d6;stroke-width:0.80000001;stroke-linecap:round;stroke-linejoin:round;stroke-miterlimit:4;stroke-opacity:1;stroke-dasharray:0.8, 0.8;stroke-dashoffset:0" /></clipPath><clipPath
       id="clipPath4724"
       clipPathUnits="userSpaceOnUse"><rect
         transform="scale(1,-1)"
         y="-108.08293"
         x="-8.3080111"
         height="136.59201"
         width="138.56737"
         id="rect4726"
         style="opacity:0.59345793;fill:#e1d66e;fill-opacity:1;stroke:#5050d6;stroke-width:0.80000001;stroke-linecap:round;stroke-linejoin:round;stroke-miterlimit:4;stroke-opacity:1;stroke-dasharray:0.8, 0.8;stroke-dashoffset:0" /></clipPath><clipPath
       id="clipPath4728"
       clipPathUnits="userSpaceOnUse"><rect
         transform="scale(1,-1)"
         y="-108.08293"
         x="-8.3080111"
         height="136.59201"
         width="138.56737"
         id="rect4730"
         style="opacity:0.59345793;fill:#e1d66e;fill-opacity:1;stroke:#5050d6;stroke-width:0.80000001;stroke-linecap:round;stroke-linejoin:round;stroke-miterlimit:4;stroke-opacity:1;stroke-dasharray:0.8, 0.8;stroke-dashoffset:0" /></clipPath><clipPath
       id="clipPath4732"
       clipPathUnits="userSpaceOnUse"><rect
         transform="scale(1,-1)"
         y="-110.8213"
         x="30.637697"
         height="136.59201"
         width="138.56737"
         id="rect4734"
         style="opacity:0.59345793;fill:#e1d66e;fill-opacity:1;stroke:#5050d6;stroke-width:0.80000001;stroke-linecap:round;stroke-linejoin:round;stroke-miterlimit:4;stroke-opacity:1;stroke-dasharray:0.8, 0.8;stroke-dashoffset:0" /></clipPath><clipPath
       id="clipPath4736"
       clipPathUnits="userSpaceOnUse"><rect
         transform="scale(1,-1)"
         y="-110.8213"
         x="30.637697"
         height="136.59201"
         width="138.56737"
         id="rect4738"
         style="opacity:0.59345793;fill:#e1d66e;fill-opacity:1;stroke:#5050d6;stroke-width:0.80000001;stroke-linecap:round;stroke-linejoin:round;stroke-miterlimit:4;stroke-opacity:1;stroke-dasharray:0.8, 0.8;stroke-dashoffset:0" /></clipPath><clipPath
       id="clipPath4740"
       clipPathUnits="userSpaceOnUse"><rect
         transform="scale(1,-1)"
         y="-110.8213"
         x="30.637697"
         height="136.59201"
         width="138.56737"
         id="rect4742"
         style="opacity:0.59345793;fill:#e1d66e;fill-opacity:1;stroke:#5050d6;stroke-width:0.80000001;stroke-linecap:round;stroke-linejoin:round;stroke-miterlimit:4;stroke-opacity:1;stroke-dasharray:0.8, 0.8;stroke-dashoffset:0" /></clipPath><clipPath
       id="clipPath4744"
       clipPathUnits="userSpaceOnUse"><rect
         transform="scale(1,-1)"
         y="-110.8213"
         x="30.637697"
         height="136.59201"
         width="138.56737"
         id="rect4746"
         style="opacity:0.59345793;fill:#e1d66e;fill-opacity:1;stroke:#5050d6;stroke-width:0.80000001;stroke-linecap:round;stroke-linejoin:round;stroke-miterlimit:4;stroke-opacity:1;stroke-dasharray:0.8, 0.8;stroke-dashoffset:0" /></clipPath><clipPath
       id="clipPath4748"
       clipPathUnits="userSpaceOnUse"><rect
         transform="scale(1,-1)"
         y="-110.8213"
         x="30.637697"
         height="136.59201"
         width="138.56737"
         id="rect4750"
         style="opacity:0.59345793;fill:#e1d66e;fill-opacity:1;stroke:#5050d6;stroke-width:0.80000001;stroke-linecap:round;stroke-linejoin:round;stroke-miterlimit:4;stroke-opacity:1;stroke-dasharray:0.8, 0.8;stroke-dashoffset:0" /></clipPath><clipPath
       id="clipPath4752"
       clipPathUnits="userSpaceOnUse"><rect
         transform="scale(1,-1)"
         y="-110.8213"
         x="30.637697"
         height="136.59201"
         width="138.56737"
         id="rect4754"
         style="opacity:0.59345793;fill:#e1d66e;fill-opacity:1;stroke:#5050d6;stroke-width:0.80000001;stroke-linecap:round;stroke-linejoin:round;stroke-miterlimit:4;stroke-opacity:1;stroke-dasharray:0.8, 0.8;stroke-dashoffset:0" /></clipPath><clipPath
       id="clipPath4756"
       clipPathUnits="userSpaceOnUse"><rect
         transform="scale(1,-1)"
         y="-110.8213"
         x="30.637697"
         height="136.59201"
         width="138.56737"
         id="rect4758"
         style="opacity:0.59345793;fill:#e1d66e;fill-opacity:1;stroke:#5050d6;stroke-width:0.80000001;stroke-linecap:round;stroke-linejoin:round;stroke-miterlimit:4;stroke-opacity:1;stroke-dasharray:0.8, 0.8;stroke-dashoffset:0" /></clipPath><clipPath
       id="clipPath4760"
       clipPathUnits="userSpaceOnUse"><rect
         transform="scale(1,-1)"
         y="-110.8213"
         x="30.637697"
         height="136.59201"
         width="138.56737"
         id="rect4762"
         style="opacity:0.59345793;fill:#e1d66e;fill-opacity:1;stroke:#5050d6;stroke-width:0.80000001;stroke-linecap:round;stroke-linejoin:round;stroke-miterlimit:4;stroke-opacity:1;stroke-dasharray:0.8, 0.8;stroke-dashoffset:0" /></clipPath><clipPath
       id="clipPath4764"
       clipPathUnits="userSpaceOnUse"><rect
         transform="scale(1,-1)"
         y="-110.8213"
         x="30.637697"
         height="136.59201"
         width="138.56737"
         id="rect4766"
         style="opacity:0.59345793;fill:#e1d66e;fill-opacity:1;stroke:#5050d6;stroke-width:0.80000001;stroke-linecap:round;stroke-linejoin:round;stroke-miterlimit:4;stroke-opacity:1;stroke-dasharray:0.8, 0.8;stroke-dashoffset:0" /></clipPath><marker
       style="overflow:visible"
       id="Arrow2Mstartk"
       refX="0"
       refY="0"
       orient="auto"
       inkscape:stockid="Arrow2Mstartk"><path
         inkscape:connector-curvature="0"
         transform="scale(0.6,0.6)"
         d="M 8.7185878,4.0337352 -2.2072895,0.01601326 8.7185884,-4.0017078 c -1.7454984,2.3720609 -1.7354408,5.6174519 -6e-7,8.035443 z"
         style="stroke-linejoin:round;font-size:12px;fill-rule:evenodd;stroke:#f8a119;stroke-width:0.625;fill:#f8a119"
         id="path3183" /></marker><marker
       style="overflow:visible"
       id="Arrow2MendV"
       refX="0"
       refY="0"
       orient="auto"
       inkscape:stockid="Arrow2MendV"><path
         inkscape:connector-curvature="0"
         transform="scale(-0.6,-0.6)"
         d="M 8.7185878,4.0337352 -2.2072895,0.01601326 8.7185884,-4.0017078 c -1.7454984,2.3720609 -1.7354408,5.6174519 -6e-7,8.035443 z"
         style="stroke-linejoin:round;font-size:12px;fill-rule:evenodd;stroke:#f8a119;stroke-width:0.625;fill:#f8a119"
         id="path3186" /></marker></defs><g
     transform="matrix(1.25,0,0,-1.25,-55.094387,165.34921)"
     inkscape:label="single_tuning_curve"
     inkscape:groupmode="layer"
     id="g10"><g
       transform="translate(28.971,27.01)"
       id="g18" /><g
       transform="translate(28.971,27.01)"
       id="g20" /><g
       transform="translate(28.971,27.01)"
       id="g22"><g
         id="g24" /></g><g
       transform="translate(28.971,27.01)"
       id="g26" /><g
       transform="translate(28.971,27.01)"
       id="g28" /><g
       transform="translate(28.971,27.01)"
       id="g30" /><g
       transform="translate(28.971,27.01)"
       id="g32" /><g
       transform="translate(28.971,27.01)"
       id="g38"><g
         id="g40"><rect
           style="opacity:0.43457947;fill:#ea9c22;fill-opacity:0.84541063;stroke:none"
           id="rect5692"
           width="137.41293"
           height="27.646908"
           x="30.765718"
           y="-102.35577"
           transform="scale(1,-1)" /><g
           transform="matrix(1,0,0,0.69322912,0,33.996747)"
           clip-path="url(#clipPath4764)"
           id="g44"><g
             id="g46"><path
               inkscape:connector-curvature="0"
               id="path48"
               style="fill:none;stroke:#808080;stroke-width:0.19925;stroke-linecap:butt;stroke-linejoin:miter;stroke-miterlimit:10;stroke-opacity:1;stroke-dasharray:none"
               d="m 21.58063,0 0,4.25177 m 0,98.55997 0,-4.25179 M 54.27856,0 l 0,4.25177 m 0,98.55997 0,-4.25179 M 86.9765,0 l 0,4.25177 m 0,98.55997 0,-4.25179 M 119.67444,0 l 0,4.25177 m 0,98.55997 0,-4.25179 M 152.37238,0 l 0,4.25177 m 0,98.55997 0,-4.25179 M 185.07031,0 l 0,4.25177 m 0,98.55997 0,-4.25179" /></g></g><g
           clip-path="url(#clipPath4760)"
           id="g50"><g
             id="g52"><path
               inkscape:connector-curvature="0"
               id="path54"
               style="fill:none;stroke:#808080;stroke-width:0.19925;stroke-linecap:butt;stroke-linejoin:miter;stroke-miterlimit:10;stroke-opacity:1;stroke-dasharray:none"
               d="m 0,3.68338 4.25198,0 m 191.28167,0 -4.25202,0 M 0,39.88538 l 4.25198,0 m 191.28167,0 -4.25202,0 M 0,76.08737 l 4.25198,0 m 191.28167,0 -4.25202,0" /></g></g><g
           clip-path="url(#clipPath4752)"
           id="g58"><g
             transform="translate(14.108,-9.94)"
             id="g60"><g
               id="g62"><g
                 transform="translate(-43.079,-17.07)"
                 id="g64"><text
                   id="text66"
                   transform="matrix(1,0,0,-1,43.079,17.07)"><tspan
                     id="tspan68"
                     sodipodi:role="line"
                     y="0"
                     x="0 4.9812999 9.9625998"
                     style="font-size:9.96259975px;font-variant:normal;font-weight:normal;writing-mode:lr-tb;fill:#000000;fill-opacity:1;fill-rule:nonzero;stroke:none;font-family:CMR10;-inkscape-font-specification:CMR10">550</tspan></text>
<g
                   transform="translate(43.079,17.07)"
                   id="g70" /></g></g><g
               transform="translate(-14.108,9.94)"
               id="g72" /></g></g><g
           transform="matrix(0.8,0,0,0.8,9.3945171,32.337305)"
           clip-path="url(#clipPath4748)"
           id="g74"
           style="color:#000000;fill:#000000;fill-opacity:1;fill-rule:nonzero;stroke:none;marker:none;visibility:visible;display:inline;overflow:visible;enable-background:accumulate"><g
             transform="translate(46.805,-9.94)"
             id="g76"
             style="color:#000000;fill:#000000;fill-opacity:1;fill-rule:nonzero;stroke:none;marker:none;visibility:visible;display:inline;overflow:visible;enable-background:accumulate"><g
               id="g78"
               style="color:#000000;fill:#000000;fill-opacity:1;fill-rule:nonzero;stroke:none;marker:none;visibility:visible;display:inline;overflow:visible;enable-background:accumulate"><g
                 transform="translate(-75.776,-17.07)"
                 id="g80"
                 style="color:#000000;fill:#000000;fill-opacity:1;fill-rule:nonzero;stroke:none;marker:none;visibility:visible;display:inline;overflow:visible;enable-background:accumulate"><text
                   id="text82"
                   transform="matrix(1,0,0,-1,75.776,17.07)"
                   style="color:#000000;fill:#000000;fill-opacity:1;fill-rule:nonzero;stroke:none;marker:none;visibility:visible;display:inline;overflow:visible;enable-background:accumulate"><tspan
                     id="tspan84"
                     sodipodi:role="line"
                     style="font-size:10px;font-variant:normal;font-weight:normal;writing-mode:lr-tb;color:#000000;fill:#000000;fill-opacity:1;fill-rule:nonzero;stroke:none;marker:none;visibility:visible;display:inline;overflow:visible;enable-background:accumulate;font-family:Times New Roman;-inkscape-font-specification:Times New Roman;font-style:normal;font-stretch:normal;text-indent:0;text-align:start;text-decoration:none;line-height:125%;letter-spacing:0px;word-spacing:0px;text-transform:none;direction:ltr;block-progression:tb;text-anchor:start;baseline-shift:baseline"
                     x="0"
                     y="0">600</tspan></text>
<g
                   transform="translate(75.776,17.07)"
                   id="g86"
                   style="color:#000000;fill:#000000;fill-opacity:1;fill-rule:nonzero;stroke:none;marker:none;visibility:visible;display:inline;overflow:visible;enable-background:accumulate" /></g></g><g
               transform="translate(-46.805,9.94)"
               id="g88"
               style="color:#000000;fill:#000000;fill-opacity:1;fill-rule:nonzero;stroke:none;marker:none;visibility:visible;display:inline;overflow:visible;enable-background:accumulate" /></g></g><g
           transform="matrix(0.8,0,0,0.8,16.002697,32.337305)"
           clip-path="url(#clipPath4744)"
           id="g90"
           style="color:#000000;fill:#000000;fill-opacity:1;fill-rule:nonzero;stroke:none;marker:none;visibility:visible;display:inline;overflow:visible;enable-background:accumulate"><g
             transform="translate(79.503,-9.94)"
             id="g92"
             style="color:#000000;fill:#000000;fill-opacity:1;fill-rule:nonzero;stroke:none;marker:none;visibility:visible;display:inline;overflow:visible;enable-background:accumulate"><g
               id="g94"
               style="color:#000000;fill:#000000;fill-opacity:1;fill-rule:nonzero;stroke:none;marker:none;visibility:visible;display:inline;overflow:visible;enable-background:accumulate"><g
                 transform="translate(-108.474,-17.07)"
                 id="g96"
                 style="color:#000000;fill:#000000;fill-opacity:1;fill-rule:nonzero;stroke:none;marker:none;visibility:visible;display:inline;overflow:visible;enable-background:accumulate"><text
                   id="text98"
                   transform="matrix(1,0,0,-1,108.474,17.07)"
                   style="color:#000000;fill:#000000;fill-opacity:1;fill-rule:nonzero;stroke:none;marker:none;visibility:visible;display:inline;overflow:visible;enable-background:accumulate"><tspan
                     id="tspan100"
                     sodipodi:role="line"
                     style="font-size:10px;font-variant:normal;font-weight:normal;writing-mode:lr-tb;color:#000000;fill:#000000;fill-opacity:1;fill-rule:nonzero;stroke:none;marker:none;visibility:visible;display:inline;overflow:visible;enable-background:accumulate;font-family:Times New Roman;-inkscape-font-specification:Times New Roman;font-style:normal;font-stretch:normal;text-indent:0;text-align:start;text-decoration:none;line-height:125%;letter-spacing:0px;word-spacing:0px;text-transform:none;direction:ltr;block-progression:tb;text-anchor:start;baseline-shift:baseline"
                     x="0"
                     y="0">650</tspan></text>
<g
                   transform="translate(108.474,17.07)"
                   id="g102"
                   style="color:#000000;fill:#000000;fill-opacity:1;fill-rule:nonzero;stroke:none;marker:none;visibility:visible;display:inline;overflow:visible;enable-background:accumulate" /></g></g><g
               transform="translate(-79.503,9.94)"
               id="g104"
               style="color:#000000;fill:#000000;fill-opacity:1;fill-rule:nonzero;stroke:none;marker:none;visibility:visible;display:inline;overflow:visible;enable-background:accumulate" /></g></g><g
           transform="matrix(0.8,0,0,0.8,22.514383,32.337305)"
           clip-path="url(#clipPath4740)"
           id="g106"
           style="color:#000000;fill:#000000;fill-opacity:1;fill-rule:nonzero;stroke:none;marker:none;visibility:visible;display:inline;overflow:visible;enable-background:accumulate"><g
             transform="translate(112.2,-9.94)"
             id="g108"
             style="color:#000000;fill:#000000;fill-opacity:1;fill-rule:nonzero;stroke:none;marker:none;visibility:visible;display:inline;overflow:visible;enable-background:accumulate"><g
               id="g110"
               style="color:#000000;fill:#000000;fill-opacity:1;fill-rule:nonzero;stroke:none;marker:none;visibility:visible;display:inline;overflow:visible;enable-background:accumulate"><g
                 transform="translate(-141.171,-17.07)"
                 id="g112"
                 style="color:#000000;fill:#000000;fill-opacity:1;fill-rule:nonzero;stroke:none;marker:none;visibility:visible;display:inline;overflow:visible;enable-background:accumulate"><text
                   id="text114"
                   transform="matrix(1,0,0,-1,141.171,17.07)"
                   style="color:#000000;fill:#000000;fill-opacity:1;fill-rule:nonzero;stroke:none;marker:none;visibility:visible;display:inline;overflow:visible;enable-background:accumulate"><tspan
                     id="tspan116"
                     sodipodi:role="line"
                     style="font-size:10px;font-variant:normal;font-weight:normal;writing-mode:lr-tb;color:#000000;fill:#000000;fill-opacity:1;fill-rule:nonzero;stroke:none;marker:none;visibility:visible;display:inline;overflow:visible;enable-background:accumulate;font-family:Times New Roman;-inkscape-font-specification:Times New Roman;font-style:normal;font-stretch:normal;text-indent:0;text-align:start;text-decoration:none;line-height:125%;letter-spacing:0px;word-spacing:0px;text-transform:none;direction:ltr;block-progression:tb;text-anchor:start;baseline-shift:baseline"
                     x="0"
                     y="0">700</tspan></text>
<g
                   transform="translate(141.171,17.07)"
                   id="g118"
                   style="color:#000000;fill:#000000;fill-opacity:1;fill-rule:nonzero;stroke:none;marker:none;visibility:visible;display:inline;overflow:visible;enable-background:accumulate" /></g></g><g
               transform="translate(-112.2,9.94)"
               id="g120"
               style="color:#000000;fill:#000000;fill-opacity:1;fill-rule:nonzero;stroke:none;marker:none;visibility:visible;display:inline;overflow:visible;enable-background:accumulate" /></g></g><g
           transform="matrix(0.8,0,0,0.8,29.025271,32.337305)"
           clip-path="url(#clipPath4736)"
           id="g122"
           style="color:#000000;fill:#000000;fill-opacity:1;fill-rule:nonzero;stroke:none;marker:none;visibility:visible;display:inline;overflow:visible;enable-background:accumulate"><g
             transform="translate(144.898,-9.94)"
             id="g124"
             style="color:#000000;fill:#000000;fill-opacity:1;fill-rule:nonzero;stroke:none;marker:none;visibility:visible;display:inline;overflow:visible;enable-background:accumulate"><g
               id="g126"
               style="color:#000000;fill:#000000;fill-opacity:1;fill-rule:nonzero;stroke:none;marker:none;visibility:visible;display:inline;overflow:visible;enable-background:accumulate"><g
                 transform="translate(-173.869,-17.07)"
                 id="g128"
                 style="color:#000000;fill:#000000;fill-opacity:1;fill-rule:nonzero;stroke:none;marker:none;visibility:visible;display:inline;overflow:visible;enable-background:accumulate"><text
                   id="text130"
                   transform="matrix(1,0,0,-1,173.869,17.07)"
                   style="color:#000000;fill:#000000;fill-opacity:1;fill-rule:nonzero;stroke:none;marker:none;visibility:visible;display:inline;overflow:visible;enable-background:accumulate"><tspan
                     id="tspan132"
                     sodipodi:role="line"
                     style="font-size:10px;font-variant:normal;font-weight:normal;writing-mode:lr-tb;color:#000000;fill:#000000;fill-opacity:1;fill-rule:nonzero;stroke:none;marker:none;visibility:visible;display:inline;overflow:visible;enable-background:accumulate;font-family:Times New Roman;-inkscape-font-specification:Times New Roman;font-style:normal;font-stretch:normal;text-indent:0;text-align:start;text-decoration:none;line-height:125%;letter-spacing:0px;word-spacing:0px;text-transform:none;direction:ltr;block-progression:tb;text-anchor:start;baseline-shift:baseline"
                     x="0"
                     y="0">750</tspan></text>
<g
                   transform="translate(173.869,17.07)"
                   id="g134"
                   style="color:#000000;fill:#000000;fill-opacity:1;fill-rule:nonzero;stroke:none;marker:none;visibility:visible;display:inline;overflow:visible;enable-background:accumulate" /></g></g><g
               transform="translate(-144.898,9.94)"
               id="g136"
               style="color:#000000;fill:#000000;fill-opacity:1;fill-rule:nonzero;stroke:none;marker:none;visibility:visible;display:inline;overflow:visible;enable-background:accumulate" /></g></g><g
           clip-path="url(#clipPath4732)"
           id="g138"><g
             transform="translate(177.595,-9.94)"
             id="g140"><g
               id="g142"><g
                 transform="translate(-206.566,-17.07)"
                 id="g144"><text
                   id="text146"
                   transform="matrix(1,0,0,-1,206.566,17.07)"><tspan
                     id="tspan148"
                     sodipodi:role="line"
                     y="0"
                     x="0 4.9812999 9.9625998"
                     style="font-size:9.96259975px;font-variant:normal;font-weight:normal;writing-mode:lr-tb;fill:#000000;fill-opacity:1;fill-rule:nonzero;stroke:none;font-family:CMR10;-inkscape-font-specification:CMR10">800</tspan></text>
<g
                   transform="translate(206.566,17.07)"
                   id="g150" /></g></g><g
               transform="translate(-177.595,9.94)"
               id="g152" /></g></g><g
           clip-path="url(#clipPath4716)"
           style="stroke:#5050d6;stroke-width:1;stroke-miterlimit:4;stroke-opacity:1;stroke-dasharray:2, 2;stroke-dashoffset:0"
           id="g212"><path
             sodipodi:nodetypes="ccccccccccccccccccccccccccccccccccccccccccccccccccccccccccccccccccccccccccccccccccccccccccccccccccccccccccccccccccccccccccccccccccccccccccccccccccccccccccccccccccccccccccccccccccccccccccccccccccccccccccccccccccccccccccccccccccccccccccccccccccccccccccccccccccc"
             d="M 0,66.23393 0.65395,64.74812 1.3079,61.9152 1.96187,60.60497 2.61583,59.8827 3.26979,58.47102 3.92375,57.87228 4.5777,57.10881 l 0.65396,-0.30829 0.65396,0.06819 0.65396,-0.23994 0.65396,-0.16022 0.65396,-0.22748 0.65395,-0.38733 0.65396,-0.26643 0.65396,-0.17839 0.65396,-0.41106 0.65397,-0.24205 0.65396,-0.22961 0.65394,-0.38847 0.65396,-0.44518 0.65396,-0.42989 0.65396,-0.31581 0.65397,-0.2649 0.65395,0.06405 0.65395,-0.0876 0.65396,0.0507 0.65397,0.0866 0.65396,0.10107 0.65396,0.14797 0.65396,0.06606 0.65394,0.24114 0.65397,0.14045 0.65396,0.22723 0.65396,0.27852 0.65396,0.41698 0.65396,0.30361 0.65395,0.24796 0.65396,0.31793 0.65396,0.226 0.65396,0.01463 0.65396,0.04972 0.65396,-0.03008 0.65396,0.09726 0.65395,0.01166 0.65396,-0.08766 0.65396,-0.0968 0.65396,0.01493 0.65396,-0.0027 0.65397,0.05374 0.65394,0.16089 0.65396,0.21405 0.65396,-0.03607 0.65396,-0.02619 0.65397,-0.0794 0.65396,-0.09923 0.65394,-0.0946 0.65396,-0.0828 0.65397,-0.09909 0.65396,-0.0047 0.65396,-0.08635 0.65396,0.06084 0.65395,0.16838 0.65396,0.20738 0.65396,0.14605 0.65396,0.27825 0.65396,0.27129 0.65396,0.23131 0.65395,0.25067 0.65396,0.24228 0.65396,0.30371 0.65396,0.26015 0.65396,0.21864 0.65396,0.02594 0.65395,-0.14962 0.65396,-0.16196 0.65396,-0.1884 0.65396,0.02494 0.65396,0.05036 0.65396,-0.03404 0.65397,-0.05837 0.65394,-0.1478 0.65396,-0.10665 0.65396,-0.0759 0.65397,-0.13082 0.65396,-0.10574 0.65396,-0.1784 0.65395,-0.24982 0.65396,-0.22771 0.65396,-0.11729 0.65396,-0.13407 0.65396,-0.22184 0.65396,-0.2995 0.65395,-0.07695 0.65395,0.0365 0.65397,0.22736 0.65396,0.1709 0.65396,0.27807 0.65396,0.18296 0.65395,0.20461 0.65396,0.17346 0.65396,0.245 0.65396,0.3141 0.65396,0.38191 0.65396,0.36508 0.65395,0.58475 0.65396,0.4698 0.65396,0.4422 0.65396,0.34874 0.65397,0.41756 0.65396,0.24554 0.65394,0.08039 0.65396,0.08329 0.65396,0.23009 0.65396,0.24665 0.65397,0.2184 0.65395,0.33968 0.65397,0.30663 0.65394,0.27028 0.65397,0.29188 0.65396,0.35971 0.65396,0.36997 0.65396,0.50552 0.65396,0.55013 0.65395,0.50207 0.65396,0.43236 0.65396,0.33008 0.65396,0.3441 0.65396,0.49167 0.65396,0.51172 0.65395,0.65846 0.65396,0.59161 0.65396,0.51946 0.65396,0.4749 0.65396,0.53427 0.65396,0.62942 0.65395,0.72622 0.65396,0.83838 0.65396,0.83844 0.65396,0.90455 0.65396,1.11391 0.65397,1.04359 0.65394,0.89618 0.65396,0.9363 0.65396,0.75058 0.65396,0.7552 0.65397,0.66997 0.65396,0.74101 0.65394,0.6687 0.65396,0.59746 0.65397,0.72508 0.65396,0.62932 0.65396,0.52341 0.65396,0.54824 0.65396,0.45809 0.65395,0.43216 0.65396,0.39772 0.65396,0.4164 0.65396,0.45585 0.65396,0.4261 0.65396,0.51299 0.65395,0.50119 0.65396,0.53509 0.65396,0.20523 0.65396,0.16977 0.65396,0.07732 0.65396,0.05266 0.65395,0.15448 0.65396,0.05324 0.65396,-0.10132 0.65396,-0.11188 0.65396,-0.1775 0.65397,-0.18674 0.65394,-0.20935 0.65396,-0.17189 0.65396,-0.25342 0.65397,-0.25465 0.65396,-0.1865 0.65396,-0.34698 0.65395,-0.40112 0.65395,-0.3746 0.65397,-0.40724 0.65396,-0.4622 0.65396,-0.47809 0.65396,-0.56006 0.65395,-0.53619 0.65395,-0.61536 0.65397,-0.58931 0.65396,-0.72752 0.65396,-0.78294 0.65396,-0.81369 0.65396,-0.75621 0.65395,-1.00869 0.65396,-0.9137 0.65396,-0.89411 0.65396,-0.92229 0.65396,-0.93494 0.65396,-1.00442 0.65395,-0.90546 0.65396,-0.94024 0.65396,-0.8386 0.65397,-0.79911 0.65396,-0.81687 0.65396,-0.87386 0.65394,-0.76414 0.65396,-0.74506 0.65396,-0.77241 0.65397,-0.71046 0.65395,-0.69814 0.65397,-0.68797 0.65394,-0.64183 0.65397,-0.76769 0.65396,-0.4685 0.65396,-0.38327 0.65396,-0.379 0.65396,-0.4343 0.65395,-0.54905 0.65396,-0.40366 0.65396,-0.21669 0.65396,-0.20172 0.65396,-0.21923 0.65396,-0.17843 0.65395,-0.22945 0.65396,-0.22456 0.65396,-0.14989 0.65396,-0.32202 0.65396,-0.3121 0.65396,-0.36188 0.65396,-0.44333 0.65395,-0.26272 0.65396,-0.16466 0.65396,-0.14171 0.65396,-0.23151 0.65397,-0.14112 0.65396,-0.09081 0.65394,-0.26303 0.65396,-0.27895 0.65396,-0.19746 0.65397,-0.32111 0.65396,-0.3132 0.65396,-0.28157 0.65394,-0.13144 0.65397,-0.19437 0.65396,-0.29565 0.65396,-0.37003 0.65396,-0.27864 0.65396,-0.14511 0.65395,-0.34425 0.65396,-0.21794 0.65396,-0.24619 0.65396,-0.28642 0.65396,-0.2803 0.65396,-0.30183 0.65395,-0.28825 0.65396,-0.31315 0.65396,-0.27419 0.65396,-0.29274 0.65396,-0.35821 0.65396,-0.38001"
             style="fill:none;stroke:#5050d6;stroke-width:1;stroke-linecap:butt;stroke-linejoin:miter;stroke-miterlimit:4;stroke-opacity:1;stroke-dasharray:2, 2;stroke-dashoffset:0"
             id="path214"
             inkscape:connector-curvature="0" /></g><g
           transform="matrix(0.8,0,0,0.8,20.079606,32.956798)"
           clip-path="url(#clipPath4712)"
           id="g216"
           style="color:#000000;fill:#000000;fill-opacity:1;fill-rule:nonzero;stroke:none;marker:none;visibility:visible;display:inline;overflow:visible;enable-background:accumulate"><g
             id="g218"
             transform="translate(72.301,-23.575)"
             style="color:#000000;fill:#000000;fill-opacity:1;fill-rule:nonzero;stroke:none;marker:none;visibility:visible;display:inline;overflow:visible;enable-background:accumulate"><g
               id="g220"
               style="color:#000000;fill:#000000;fill-opacity:1;fill-rule:nonzero;stroke:none;marker:none;visibility:visible;display:inline;overflow:visible;enable-background:accumulate"><g
                 id="g222"
                 transform="translate(-101.272,-3.435)"
                 style="color:#000000;fill:#000000;fill-opacity:1;fill-rule:nonzero;stroke:none;marker:none;visibility:visible;display:inline;overflow:visible;enable-background:accumulate"><text
                   transform="matrix(1,0,0,-1,101.272,3.435)"
                   id="text224"
                   style="color:#000000;fill:#000000;fill-opacity:1;fill-rule:nonzero;stroke:none;marker:none;visibility:visible;display:inline;overflow:visible;enable-background:accumulate"><tspan
                     style="font-size:10px;font-variant:normal;writing-mode:lr-tb;color:#000000;fill:#000000;fill-opacity:1;fill-rule:nonzero;stroke:none;marker:none;visibility:visible;display:inline;overflow:visible;enable-background:accumulate;font-family:Times New Roman;-inkscape-font-specification:Times New Roman;font-style:normal;font-weight:normal;font-stretch:normal;text-indent:0;text-align:start;text-decoration:none;line-height:125%;letter-spacing:0px;word-spacing:0px;text-transform:none;direction:ltr;block-progression:tb;text-anchor:start;baseline-shift:baseline"
                     sodipodi:role="line"
                     id="tspan226"
                     x="0"
                     y="0">Frame index</tspan></text>
<g
                   id="g228"
                   transform="translate(101.272,3.435)"
                   style="color:#000000;fill:#000000;fill-opacity:1;fill-rule:nonzero;stroke:none;marker:none;visibility:visible;display:inline;overflow:visible;enable-background:accumulate" /></g></g><g
               id="g230"
               transform="translate(-72.301,23.575)"
               style="color:#000000;fill:#000000;fill-opacity:1;fill-rule:nonzero;stroke:none;marker:none;visibility:visible;display:inline;overflow:visible;enable-background:accumulate" /></g></g><path
           clip-path="url(#clipPath4708)"
           transform="matrix(0.8,0,0,-0.8,-29.243437,103.009)"
           inkscape:connector-curvature="0"
           id="path4698"
           d="m 35.890429,35.526841 243.739391,0"
           style="fill:none;stroke:#f00404;stroke-width:1;stroke-linecap:butt;stroke-linejoin:miter;stroke-miterlimit:4;stroke-opacity:1;stroke-dasharray:1, 1;stroke-dashoffset:0" /><path
           clip-path="url(#clipPath4704)"
           d="m 196.23286,74.272011 c 0,0.828427 -0.67157,1.5 -1.5,1.5 -0.82842,0 -1.5,-0.671573 -1.5,-1.5 0,-0.828427 0.67158,-1.5 1.5,-1.5 0.82843,0 1.5,0.671573 1.5,1.5 z"
           sodipodi:ry="1.5"
           sodipodi:rx="1.5"
           sodipodi:cy="74.272011"
           sodipodi:cx="194.73286"
           style="fill:#000000;stroke:none"
           id="path4700"
           sodipodi:type="arc" /><path
           sodipodi:nodetypes="cc"
           transform="matrix(0.8,0,0,-0.8,-28.971,103.009)"
           inkscape:connector-curvature="0"
           id="path4768"
           d="m 74.541596,0.03614107 0,86.87390493"
           style="fill:none;stroke:#000000;stroke-width:0.69999999;stroke-linecap:butt;stroke-linejoin:miter;stroke-miterlimit:4;stroke-opacity:1;stroke-dasharray:none" /><path
           sodipodi:nodetypes="cc"
           style="fill:none;stroke:#000000;stroke-width:0.56;stroke-linecap:butt;stroke-linejoin:miter;stroke-miterlimit:4;stroke-opacity:1;stroke-dasharray:none"
           d="m 168.63005,102.6102 0,-68.75935"
           id="path4770"
           inkscape:connector-curvature="0" /><g
           id="g4772"
           clip-path="url(#clipPath4712)"
           transform="translate(-99.869434,71.388151)"><g
             transform="translate(72.301,-23.575)"
             id="g4774"><g
               id="g4776"><g
                 transform="translate(-101.272,-3.435)"
                 id="g4778"><g
                   transform="translate(101.272,3.435)"
                   id="g4784" /></g></g><g
               transform="translate(-72.301,23.575)"
               id="g4786" /></g></g><g
           id="g4788"
           clip-path="url(#clipPath4712)"
           transform="translate(-73.138542,76.087421)"
           style="color:#000000;fill:#000000;fill-opacity:1;fill-rule:nonzero;stroke:none;marker:none;visibility:visible;display:inline;overflow:visible;enable-background:accumulate"><g
             transform="matrix(0.72554839,0,0,0.70703245,78.87052,-12.95085)"
             id="g4790"
             style="color:#000000;fill:#000000;fill-opacity:1;fill-rule:nonzero;stroke:none;marker:none;visibility:visible;display:inline;overflow:visible;enable-background:accumulate"><g
               id="g4794"
               transform="translate(-91.776284,2.8530755)"
               style="color:#000000;fill:#000000;fill-opacity:1;fill-rule:nonzero;stroke:none;marker:none;visibility:visible;display:inline;overflow:visible;enable-background:accumulate"><text
                 transform="matrix(1,0,0,-1,101.272,3.435)"
                 id="text4796"
                 style="color:#000000;fill:#000000;fill-opacity:1;fill-rule:nonzero;stroke:none;marker:none;visibility:visible;display:inline;overflow:visible;enable-background:accumulate"><tspan
                   style="font-size:9.96259975px;font-variant:normal;writing-mode:lr-tb;color:#000000;fill:#000000;fill-opacity:1;fill-rule:nonzero;stroke:none;marker:none;visibility:visible;display:inline;overflow:visible;enable-background:accumulate;font-family:NimbusRomNo9L;-inkscape-font-specification:NimbusRomNo9L-Regu"
                   sodipodi:role="line"
                   id="tspan4798"
                   x="0"
                   y="0" /></text>
<g
                 id="g4800"
                 transform="translate(101.272,3.435)"
                 style="color:#000000;fill:#000000;fill-opacity:1;fill-rule:nonzero;stroke:none;marker:none;visibility:visible;display:inline;overflow:visible;enable-background:accumulate" /><text
                 xml:space="preserve"
                 style="font-size:24.57309151px;font-style:normal;font-variant:normal;font-weight:normal;font-stretch:normal;text-align:start;line-height:125%;letter-spacing:0px;word-spacing:0px;writing-mode:lr-tb;text-anchor:start;color:#000000;fill:#000000;fill-opacity:1;fill-rule:nonzero;stroke:none;marker:none;visibility:visible;display:inline;overflow:visible;enable-background:accumulate;font-family:Times New Roman;-inkscape-font-specification:Times New Roman"
                 x="109.1166"
                 y="-8.8772879"
                 id="text4804"
                 sodipodi:linespacing="125%"
                 transform="scale(1,-1)"><tspan
                   sodipodi:role="line"
                   id="tspan4806"
                   x="109.1166"
                   y="-8.8772879"
                   style="font-size:15.63742161px">κ</tspan></text>
<text
                 transform="scale(1,-1)"
                 sodipodi:linespacing="125%"
                 id="text4808"
                 y="-4.0687599"
                 x="120.5831"
                 style="font-size:19.20000076px;font-style:normal;font-variant:normal;font-weight:normal;font-stretch:normal;text-align:start;line-height:125%;letter-spacing:0px;word-spacing:0px;writing-mode:lr-tb;text-anchor:start;color:#000000;fill:#000000;fill-opacity:1;fill-rule:nonzero;stroke:none;marker:none;visibility:visible;display:inline;overflow:visible;enable-background:accumulate;font-family:Century Schoolbook;-inkscape-font-specification:Century Schoolbook"
                 xml:space="preserve"><tspan
                   y="-4.0687599"
                   x="120.5831"
                   id="tspan4810"
                   sodipodi:role="line"
                   style="font-size:12.80000019px;font-style:italic;font-variant:normal;font-weight:normal;font-stretch:normal;color:#000000;fill:#000000;fill-opacity:1;fill-rule:nonzero;stroke:none;marker:none;visibility:visible;display:inline;overflow:visible;enable-background:accumulate;font-family:Arial Hebrew;-inkscape-font-specification:Arial Hebrew Italic" /></text>
</g><g
               transform="translate(-72.301,23.575)"
               id="g4802"
               style="color:#000000;fill:#000000;fill-opacity:1;fill-rule:nonzero;stroke:none;marker:none;visibility:visible;display:inline;overflow:visible;enable-background:accumulate" /></g><text
             xml:space="preserve"
             style="font-size:16px;font-style:normal;font-weight:normal;line-height:125%;letter-spacing:0px;word-spacing:0px;fill:#000000;fill-opacity:1;stroke:none;font-family:Times New Roman;-inkscape-font-specification:Times New Roman"
             x="97.407967"
             y="6.5703826"
             id="text3557"
             sodipodi:linespacing="125%"
             transform="scale(1,-1)"><tspan
               sodipodi:role="line"
               id="tspan3559"
               x="97.407967"
               y="6.5703826"
               style="font-size:8px">χ</tspan></text>
<text
             xml:space="preserve"
             style="font-size:16px;font-style:normal;font-weight:normal;line-height:125%;letter-spacing:0px;word-spacing:0px;fill:#000000;fill-opacity:1;stroke:none;font-family:Times New Roman;-inkscape-font-specification:Times New Roman"
             x="101.40824"
             y="3.7515235"
             id="text3583"
             sodipodi:linespacing="125%"
             transform="scale(1,-1)"><tspan
               sodipodi:role="line"
               id="tspan3585"
               x="101.40824"
               y="3.7515235"
               style="font-size:3.20000005px">2</tspan></text>
</g><text
           transform="scale(1,-1)"
           sodipodi:linespacing="125%"
           id="text4844"
           y="-65.187218"
           x="26.712662"
           style="font-size:19.20000076px;font-style:normal;font-variant:normal;font-weight:normal;font-stretch:normal;text-align:start;line-height:125%;letter-spacing:0px;word-spacing:0px;writing-mode:lr-tb;text-anchor:start;fill:#000000;fill-opacity:1;stroke:none;font-family:Century Schoolbook;-inkscape-font-specification:Century Schoolbook"
           xml:space="preserve"><tspan
             style="font-size:6.4000001px"
             y="-65.187218"
             x="26.712662"
             id="tspan4846"
             sodipodi:role="line" /></text>
<g
           transform="translate(-2.9590899,10.726717)"
           id="g4848"
           style="stroke:#5050d6;stroke-width:2.4000001;stroke-linecap:round;stroke-miterlimit:4;stroke-opacity:1;stroke-dasharray:none;stroke-dashoffset:0"
           clip-path="url(#clipPath4716)"><path
             sodipodi:nodetypes="ccccccccccccccccccccccccccccccccccccccccccccccccccccccccc"
             inkscape:connector-curvature="0"
             id="path4850"
             style="fill:none;stroke:#5050d6;stroke-width:2.4000001;stroke-linecap:round;stroke-linejoin:miter;stroke-miterlimit:4;stroke-opacity:1;stroke-dasharray:none;stroke-dashoffset:0"
             d="m 94.513311,64.033203 0.65397,1.04359 0.65394,0.89618 0.65396,0.9363 0.65396,0.75058 0.65396,0.7552 0.65397,0.66997 0.65396,0.74101 0.65394,0.6687 0.653959,0.59746 0.65397,0.72508 0.65396,0.62932 0.65396,0.52341 0.65396,0.54824 0.65396,0.45809 0.65395,0.43216 0.65396,0.39772 0.65396,0.4164 0.65396,0.45585 0.65396,0.4261 0.65396,0.51299 0.65395,0.50119 0.65396,0.53509 0.65396,0.20523 0.65396,0.16977 0.65396,0.0773 0.65396,0.0527 0.65395,0.15448 0.65396,0.0532 0.65396,-0.10132 0.65396,-0.11188 0.65396,-0.1775 0.65397,-0.18674 0.65394,-0.20935 0.65396,-0.17189 0.65396,-0.25342 0.65397,-0.25465 0.65396,-0.1865 0.65396,-0.34698 0.65395,-0.40112 0.65395,-0.3746 0.65397,-0.40724 0.65396,-0.4622 0.65396,-0.47809 0.65396,-0.56006 0.65395,-0.53619 0.65395,-0.61536 0.65397,-0.58931 0.65396,-0.72752 0.65396,-0.78294 0.65396,-0.81369 0.65396,-0.75621 0.65395,-1.00869 0.65396,-0.9137 0.65396,-0.89411 0.65396,-0.92229 0.65396,-0.93494" /></g><path
           sodipodi:nodetypes="cc"
           inkscape:connector-curvature="0"
           id="path4854"
           d="m 86.803567,90.734458 26.261953,0"
           style="fill:#ff0000;stroke:#c92121;stroke-width:0.80000000999999998px;stroke-linecap:butt;stroke-linejoin:miter;stroke-opacity:1" /><path
           sodipodi:nodetypes="cc"
           style="fill:none;stroke:#000000;stroke-width:0.56;stroke-linecap:butt;stroke-linejoin:miter;stroke-miterlimit:4;stroke-opacity:1;stroke-dasharray:none"
           d="m 168.61026,33.831055 -137.558302,0"
           id="path4856"
           inkscape:connector-curvature="0" /><path
           transform="matrix(0.8,0,0,-0.8,-28.971,103.009)"
           inkscape:connector-curvature="0"
           id="path4860"
           d="m 145.18057,16.880818 0,18.031981"
           style="stroke-linejoin:miter;marker-end:url(#Arrow2MendV);stroke-opacity:1;marker-start:url(#Arrow2Mstartk);stroke:#f8a119;stroke-linecap:butt;stroke-width:1px;fill:none" /><path
           inkscape:connector-curvature="0"
           id="path5680"
           d="m 168.7952,102.63 -138.113129,0"
           style="fill:none;stroke:#000000;stroke-width:0.56;stroke-linecap:butt;stroke-linejoin:miter;stroke-miterlimit:4;stroke-opacity:1;stroke-dasharray:none"
           sodipodi:nodetypes="cc" /><text
           transform="matrix(0.8,0,0,-0.8,-28.971,103.009)"
           sodipodi:linespacing="125%"
           id="text5682"
           y="22.891478"
           x="80.681557"
           style="font-size:10px;font-style:normal;font-variant:normal;font-weight:normal;font-stretch:normal;text-align:start;line-height:125%;letter-spacing:0px;word-spacing:0px;writing-mode:lr-tb;text-anchor:start;fill:#000000;fill-opacity:1;stroke:none;font-family:Century Schoolbook;-inkscape-font-specification:Century Schoolbook"
           xml:space="preserve"><tspan
             y="22.891478"
             x="80.681557"
             id="tspan5684"
             sodipodi:role="line" /></text>
<text
           transform="scale(1,-1)"
           sodipodi:linespacing="125%"
           id="text5686"
           y="-95.05265"
           x="32.245266"
           style="font-size:8px;font-style:normal;font-variant:normal;font-weight:normal;font-stretch:normal;text-align:start;line-height:125%;letter-spacing:0px;word-spacing:0px;writing-mode:lr-tb;text-anchor:start;fill:#000000;fill-opacity:1;stroke:none;font-family:Times New Roman;-inkscape-font-specification:Times New Roman"
           xml:space="preserve"><tspan
             y="-95.05265"
             x="32.245266"
             id="tspan5688"
             sodipodi:role="line">Supra-threshold</tspan></text>
<rect
           transform="scale(1,-1)"
           y="-74.614265"
           x="30.765718"
           height="40.777889"
           width="137.80081"
           id="rect5690"
           style="opacity:0.43457947;fill:#898989;fill-opacity:1;stroke:none" /><text
           xml:space="preserve"
           style="font-size:8px;font-style:normal;font-variant:normal;font-weight:normal;font-stretch:normal;text-align:start;line-height:125%;letter-spacing:0px;word-spacing:0px;writing-mode:lr-tb;text-anchor:start;fill:#000000;fill-opacity:1;stroke:none;font-family:Times New Roman;-inkscape-font-specification:Times New Roman;text-indent:0;text-decoration:none;text-transform:none;direction:ltr;block-progression:tb;baseline-shift:baseline;color:#000000;fill-rule:nonzero;marker:none;visibility:visible;display:inline;overflow:visible;enable-background:accumulate"
           x="32.43021"
           y="-38.275028"
           id="text5713"
           sodipodi:linespacing="125%"
           transform="scale(1,-1)"><tspan
             sodipodi:role="line"
             id="tspan5715"
             x="32.43021"
             y="-38.275028">Sub-threshold</tspan></text>
<text
           xml:space="preserve"
           style="font-size:20px;font-style:normal;font-weight:normal;line-height:125%;letter-spacing:0px;word-spacing:0px;fill:#000000;fill-opacity:1;stroke:none;font-family:Times New Roman;-inkscape-font-specification:Times New Roman"
           x="55.88348"
           y="-35.715797"
           id="text3490"
           sodipodi:linespacing="125%"
           transform="matrix(0.8,0,0,-0.8,15.10451,105.26937)"><tspan
             sodipodi:role="line"
             id="tspan3492" /></text>
<text
           xml:space="preserve"
           style="font-size:20px;font-style:normal;font-weight:normal;line-height:125%;letter-spacing:0px;word-spacing:0px;fill:#000000;fill-opacity:1;stroke:none;font-family:Times New Roman;-inkscape-font-specification:Times New Roman"
           x="10.060717"
           y="55.984928"
           id="text3527"
           sodipodi:linespacing="125%"
           transform="matrix(0.8,0,0,-0.8,15.10451,105.26937)"><tspan
             sodipodi:role="line"
             id="tspan3529" /></text>
</g></g><g
       id="g256" /><g
       transform="translate(28.971,27.01)"
       id="g258" /><g
       transform="translate(28.971,27.01)"
       id="g260" /><g
       transform="translate(28.971,27.01)"
       id="g262" /></g></svg>